<?xml version="1.0" encoding="utf-8" ?>
<svg baseProfile="full" height="200mm" version="1.1" viewBox="0,0,200,200" width="200mm" xmlns="http://www.w3.org/2000/svg" xmlns:ev="http://www.w3.org/2001/xml-events" xmlns:xlink="http://www.w3.org/1999/xlink"><defs /><rect fill="#1a1a1a" height="200" width="200" x="0" y="0" /><text alignment-baseline="middle" fill="#e1ed5e" style="dominant-baseline: central; font-size:9.0px; font-family:Arial;" text-anchor="middle" x="100.0" y="100.0">2026</text><line stroke="#e1ed5e" stroke-width="0.3" x1="100.0" x2="100.0" y1="15.0" y2="10.0" /><path d="M 100.0 14.0 a86.0,86.0 0 0,1 42.46469731375804,11.215312516191453" fill="none" id="id37" stroke="none" /><text fill="#e1ed5e" style="font-size:6.75px; font-family:Arial;" text-anchor="middle"><textPath startOffset="22.20632615414155" xlink:href="#id37">January</textPath></text><path d="M 100.0 79.0 l 0.0 -20.226158210234786 a41.226158210234786,41.226158210234786 0 0,0 0.7096405442095596,0.006108100205527223 l -0.3481600649370312 20.223161486637817" fill="#ff6d0a" stroke="none" /><path d="M 100.36148047927253 79.00311137660856 l 0.6862065629091286 -39.85886818297747 a60.86477457950757,60.86477457950757 0 0,0 1.0473765899001202,0.027050647255189006 l -1.3722097880041166 39.84115074357992" fill="#66ff29" stroke="none" /><path d="M 100.72285384407766 79.0124445844662 l 1.7493980548405934 -50.792548065704715 a71.82266553970977,71.82266553970977 0 0,0 1.2352101953286203,0.05319074934451709 l -2.6234490825585453 50.754909589836004" fill="#3aff91" stroke="none" /><path d="M 101.08401301168833 79.027996857942 l 0.7283538118019169 -14.091194722699083 a35.11000595280487,35.11000595280487 0 0,0 0.6032867911066256,0.036391906744315416 l -0.9708026517481545 14.076569546574463" fill="#ff0000" stroke="none" /><path d="M 101.44485096284872 79.0497635885617 l 2.1930355077202943 -31.79885920886458 a52.87439178593552,52.87439178593552 0 0,0 0.9074499776738288,0.07043558319790244 l -2.740075674756464 31.756398363478215" fill="#d6ff1c" stroke="none" /><path d="M 101.80526077348638 79.07773832637324 l 4.224517423165649 -48.96049383578666 a70.14241044253663,70.14241044253663 0 0,0 1.2020233830281808,0.11414660396507462 l -5.066665933284074 48.880521687306405" fill="#37ff79" stroke="none" /><path d="M 102.16513564639614 79.11191278185805 l 3.2079305538431053 -30.948422705039846 a52.11423607238503,52.11423607238503 0 0,0 0.8914842294454888,0.1001686404604687 l -3.740181486798319 30.888618111108777" fill="#e1ff1b" stroke="none" /><path d="M 102.52436894288641 79.15227682838746 l 3.092731617666252 -25.541596362485762 a46.728158379547075,46.728158379547075 0 0,0 0.7976836449057285,0.10356223078266275 l -3.5319299910798265 25.48457580853896" fill="#ffc912" stroke="none" /><path d="M 102.88285421437855 79.19881850522331 l 3.270221757779613 -23.596224870637442 a44.821758509621915,44.821758509621915 0 0,0 0.7633167235607933,0.11249304300295726 l -3.675907461769062 23.536437343473516" fill="#ffaa0f" stroke="none" /><path d="M 103.2404852339499 79.25152402106235 l 7.966115757689642 -51.006176393647905 a72.624500293609,72.624500293609 0 0,0 1.2334780082613817,0.20353444021053407 l -8.8429229720899 50.86149569049775" fill="#3bff9c" stroke="none" /><path d="M 103.59715602781102 79.31037775812273 l 10.400863865069448 -59.82224365408682 a81.71967395291774,81.71967395291774 0 0,0 1.3838054647398925,0.2528816036192833 l -11.429064450912241 59.63434656911679" fill="#49edff" stroke="none" /><path d="M 103.95276090670814 79.375362276772 l 3.8708042200278907 -20.19700574353822 a41.564585245375156,41.564585245375156 0 0,0 0.7015183422632411,0.14071797991608623 l -4.217888971758257 20.127383807544927" fill="#ff730a" stroke="none" /><path d="M 104.307194497241 79.44645832069477 l 8.106620811972165 -38.68405962255065 a60.52434401568423,60.52434401568423 0 0,0 1.017838688332084,0.2224601140291808 l -8.771302224457777 38.538786010425596" fill="#6aff28" stroke="none" /><path d="M 104.66035177308747 79.52364482259891 l 7.155023666951383 -31.437284788943185 a53.24123506591757,53.24123506591757 0 0,0 0.8918573987166709,0.21107383151936032 l -7.695104752630577 31.309465045282955" fill="#d0ff1d" stroke="none" /><path d="M 105.01212808612495 79.60689891045804 l 11.928783620413236 -48.53525011058444 a70.97965968231102,70.97965968231102 0 0,0 1.1839782795654976,0.30182242583732305 l -12.762470788663759 48.32272468857825" fill="#38ff85" stroke="none" /><path d="M 105.36241919743992 79.69619591428918 l 9.835621062890882 -37.24075193852178 a59.51769783669965,59.51769783669965 0 0,0 0.988283184009645,0.2701351268033935 l -10.475202136124238 37.065930270892096" fill="#78ff26" stroke="none" /><path d="M 105.71112130821622 79.79150937346287 l 17.13336392464865 -60.62547187961136 a84.0,84.0 0 0,0 1.3880391291062915,0.40520668432518603 l -18.174393271478365 60.321566866367476" fill="#4dd2ff" stroke="none" /><path d="M 106.0581310904928 79.89281104454417 l 17.2076152327503 -57.11279036214215 a80.64874554379477,80.64874554379477 0 0,0 1.3257679349642493,0.41192255090101654 l -18.188168540425266 56.80812767635861" fill="#48faff" stroke="none" /><path d="M 106.40334571778207 80.00007090966166 l 12.98407288938163 -40.553883631534234 a63.58172878590999,63.58172878590999 0 0,0 1.0394618897012695,0.34269424221126027 l -13.680217601325317 40.324375665063734" fill="#43ff2d" stroke="none" /><path d="M 106.74666289553966 80.11325718540242 l 15.508946938574656 -45.714813955886044 a69.27392308653604,69.27392308653604 0 0,0 1.125925552312924,0.3928133170742301 l -16.293554494950854 45.44107978563961" fill="#36ff6d" stroke="none" /><path d="M 107.08798089147638 80.2323363322302 l 11.188890448508978 -31.204686720815552 a54.150018745288484,54.150018745288484 0 0,0 0.8746973056261023,0.3221583995363145 l -11.724370079907658 31.007465053472913" fill="#c3ff1e" stroke="none" /><path d="M 107.4271985657038 80.35727306442388 l 21.264933975941123 -56.239413514708545 a81.12544427677452,81.12544427677452 0 0,0 1.3019352603883059,0.5051306542528167 l -22.229852401329097 55.86504015656518" fill="#48f4ff" stroke="none" /><path d="M 107.76421540070413 80.48803036053334 l 15.95626302763189 -40.09910901316089 a64.1571647986326,64.1571647986326 0 0,0 1.022592282837068,0.41714106793235034 l -16.644139180057344 39.81850705904496" fill="#3cff2e" stroke="none" /><path d="M 108.09893153111575 80.62456947434976 l 13.857087307974716 -33.150920141998746 a56.93052149526934,56.93052149526934 0 0,0 0.9009017604926471,0.3857191176986383 l -14.425672826257678 32.90748149633732" fill="#9bff22" stroke="none" /><path d="M 108.43124777332544 80.76684994638697 l 23.926921506215376 -54.58149066689733 a80.59560970562507,80.59560970562507 0 0,0 1.2658034882851175,0.5679291279074782 l -24.862907112967275 54.161541208473324" fill="#48faff" stroke="none" /><path d="M 108.76106565485865 80.91482961587045 l 24.975371399767322 -54.4065342447392 a80.86518307898419,80.86518307898419 0 0,0 1.260040469080509,0.5916058955313847 l -25.908190080147428 53.968563366567814" fill="#48f7ff" stroke="none" /><path d="M 109.08828744355905 81.06846463323043 l 17.339294758426785 -36.11895794368157 a61.065324978802366,61.065324978802366 0 0,0 0.9436882164269982,0.4630637094078013 l -17.958454241864217 35.81513907413894" fill="#63ff29" stroke="none" /><path d="M 109.41281617654863 81.2277094730956 l 19.69866669924132 -39.285702316392694 a64.94774028570777,64.94774028570777 0 0,0 0.995059728177893,0.5097082411022414 l -20.371986915007966 38.940801549977955" fill="#32ff2f" stroke="none" /><path d="M 109.73455568895987 81.39251694778311 l 21.235620074754365 -40.591625675576104 a66.8108244298812,66.8108244298812 0 0,0 1.014426776904521,0.5418716523983372 l -21.931191898187198 40.22007529667601" fill="#32ff48" stroke="none" /><path d="M 110.05341064243156 81.56283822128135 l 12.599486091704964 -23.106463235574683 a47.31835277961049,47.31835277961049 0 0,0 0.7117489422795364,0.39608751578433266 l -12.995359123056536 22.88616032223017" fill="#ffd313" stroke="none" /><path d="M 110.36928655335952 81.73862282372117 l 25.51450580685498 -44.93366169482312 a72.6722745761482,72.6722745761482 0 0,0 1.0824821403140954,0.6270435250574693 l -26.284184679634404 44.48781401237561" fill="#3bff9d" stroke="none" /><line stroke="#e1ed5e" stroke-width="0.3" x1="143.23703022742887" x2="145.7803849466894" y1="26.81831364943548" y2="22.513508569990506" /><path d="M 143.74570117128098 25.957352633546492 a86.0,86.0 0 0,1 28.547481713284135,27.462654790039103" fill="none" id="id38" stroke="none" /><text fill="#e1ed5e" style="font-size:6.75px; font-family:Arial;" text-anchor="middle"><textPath startOffset="19.985693538727396" xlink:href="#id38">February</textPath></text><path d="M 110.68208982089419 81.91981866633111 l 14.380451238955581 -24.339915729948025 a49.27063627824727,49.27063627824727 0 0,0 0.7264789530161331,0.43769544056373405 l -14.797292258189353 24.088773679925676" fill="#fff216" stroke="none" /><path d="M 110.99172775467656 82.1063720568725 l 15.62062279235474 -25.4290880127933 a50.843632044096445,50.843632044096445 0 0,0 0.7417864324830012,0.4645065959692373 l -16.056028377210005 25.156437075501117" fill="#f4ff19" stroke="none" /><line stroke="#e1ed5e" stroke-width="0.3" x1="172.23445277983987" x2="176.4835382374775" y1="55.19839476539836" y2="52.563006222186495" /><path d="M 173.08426987136738 54.67131705675599 a86.0,86.0 0 0,1 12.851231095245387,41.99856678651699" fill="none" id="id39" stroke="none" /><text fill="#e1ed5e" style="font-size:6.75px; font-family:Arial;" text-anchor="middle"><textPath startOffset="22.20632615414155" xlink:href="#id39">March</textPath></text><line stroke="#e1ed5e" stroke-width="0.3" x1="184.98032266829074" x2="189.97916517819016" y1="98.17113171792111" y2="98.06355123074" /><path d="M 185.9800911702706 98.14961562048488 a86.0,86.0 0 0,1 -9.607161424134198,41.387399972396054" fill="none" id="id40" stroke="none" /><text fill="#e1ed5e" style="font-size:6.75px; font-family:Arial;" text-anchor="middle"><textPath startOffset="21.466115282336823" xlink:href="#id40">April</textPath></text><line stroke="#e1ed5e" stroke-width="0.3" x1="174.80103733775053" x2="179.2010983576182" y1="140.37084112569926" y2="142.7455964860345" /><path d="M 175.68104954172406 140.8457921977663 a86.0,86.0 0 0,1 -30.038265399797805,32.042727171017184" fill="none" id="id41" stroke="none" /><text fill="#e1ed5e" style="font-size:6.75px; font-family:Arial;" text-anchor="middle"><textPath startOffset="22.206326154141568" xlink:href="#id41">May</textPath></text><line stroke="#e1ed5e" stroke-width="0.3" x1="143.8653032363475" x2="146.44561519142675" y1="172.8068346515853" y2="177.08958963109032" /><path d="M 144.38136562736335 173.6633856474863 a86.0,86.0 0 0,1 -40.68145358897372,12.25698825130547" fill="none" id="id42" stroke="none" /><text fill="#e1ed5e" style="font-size:6.75px; font-family:Arial;" text-anchor="middle"><textPath startOffset="21.466115282336833" xlink:href="#id42">June</textPath></text><line stroke="#e1ed5e" stroke-width="0.3" x1="102.19456741930631" x2="102.32365962044197" y1="184.97166512339345" y2="189.96999836594603" /><path d="M 102.22038585953345 185.97133177190398 a86.0,86.0 0 0,1 -42.740103519485714,-10.115201625700543" fill="none" id="id43" stroke="none" /><text fill="#e1ed5e" style="font-size:6.75px; font-family:Arial;" text-anchor="middle"><textPath startOffset="22.20632615414155" xlink:href="#id43">July</textPath></text><line stroke="#e1ed5e" stroke-width="0.3" x1="58.666819895761336" x2="56.23545636021788" y1="174.27360380694188" y2="178.64263932499728" /><path d="M 58.180547188652646 175.14741091055294 a86.0,86.0 0 0,1 -31.652253787137756,-30.449443065178592" fill="none" id="id44" stroke="none" /><text fill="#e1ed5e" style="font-size:6.75px; font-family:Arial;" text-anchor="middle"><textPath startOffset="22.20632615414155" xlink:href="#id44">August</textPath></text><line stroke="#e1ed5e" stroke-width="0.3" x1="26.63291911575756" x2="22.317208475507996" y1="142.92168965132927" y2="145.44649492493687" /><path d="M 25.769776987707644 143.4266507060508 a86.0,86.0 0 0,1 -11.730757126820373,-40.83630448921669" fill="none" id="id45" stroke="none" /><text fill="#e1ed5e" style="font-size:6.75px; font-family:Arial;" text-anchor="middle"><textPath startOffset="21.46611528233685" xlink:href="#id45">September</textPath></text><line stroke="#e1ed5e" stroke-width="0.3" x1="15.007084014347285" x2="10.007500721073583" y1="101.09737516637583" y2="101.16192664675087" /><path d="M 14.007167355692545 101.11028546245083 a86.0,86.0 0 0,1 10.666146001902534,-42.60595125391555" fill="none" id="id46" stroke="none" /><text fill="#e1ed5e" style="font-size:6.75px; font-family:Arial;" text-anchor="middle"><textPath startOffset="22.20632615414155" xlink:href="#id46">October</textPath></text><line stroke="#e1ed5e" stroke-width="0.3" x1="26.266209847984243" x2="21.928928074336255" y1="57.711370442889674" y2="55.22380399835377" /><path d="M 25.398753493254645 57.213857153982495 a86.0,86.0 0 0,1 29.58750427330803,-30.492523968695096" fill="none" id="id47" stroke="none" /><text fill="#e1ed5e" style="font-size:6.75px; font-family:Arial;" text-anchor="middle"><textPath startOffset="21.46611528233685" xlink:href="#id47">November</textPath></text><line stroke="#e1ed5e" stroke-width="0.3" x1="56.762969772571076" x2="54.21961505331055" y1="26.818313649435495" y2="22.513508569990535" /><path d="M 56.25429882871897 25.957352633546506 a86.0,86.0 0 0,1 42.265352541879196,-11.944610805530505" fill="none" id="id48" stroke="none" /><text fill="#e1ed5e" style="font-size:6.75px; font-family:Arial;" text-anchor="middle"><textPath startOffset="22.20632615414155" xlink:href="#id48">December</textPath></text></svg>