<?xml version="1.0" encoding="utf-8" ?>
<svg baseProfile="full" height="200mm" version="1.1" viewBox="0,0,200,200" width="200mm" xmlns="http://www.w3.org/2000/svg" xmlns:ev="http://www.w3.org/2001/xml-events" xmlns:xlink="http://www.w3.org/1999/xlink"><defs /><rect fill="#1a1a1a" height="200" width="200" x="0" y="0" /><text alignment-baseline="middle" fill="#e1ed5e" style="dominant-baseline: central; font-size:9.0px; font-family:Arial;" text-anchor="middle" x="100.0" y="100.0">2025</text><line stroke="#e1ed5e" stroke-width="0.3" x1="100.0" x2="100.0" y1="15.0" y2="10.0" /><path d="M 100.0 14.0 a86.0,86.0 0 0,1 42.46469731375804,11.215312516191453" fill="none" id="id25" stroke="none" /><text fill="#e1ed5e" style="font-size:6.75px; font-family:Arial;" text-anchor="middle"><textPath startOffset="22.20632615414155" xlink:href="#id25">January</textPath></text><path d="M 100.0 79.0 l 0.0 -35.56106025021584 a56.56106025021584,56.56106025021584 0 0,0 0.9736056746385893,0.008380131419895733 l -0.6121251953660609 35.5557914954045" fill="#67ff28" stroke="none" /><path d="M 100.36148047927253 79.00311137660856 l 0.19807382464355816 -11.50527974185417 a32.50698462579702,32.50698462579702 0 0,0 0.5593884958996652,0.01444735449227062 l -0.39608895573809116 11.500165595219542" fill="#ff6008" stroke="none" /><path d="M 100.72285384407766 79.0124445844662 l 0.5152588888729559 -14.960181193151016 a35.969051842200024,35.969051842200024 0 0,0 0.6185977534797115,0.026638120519776706 l -0.7726974747419989 14.949095346107043" fill="#ff920d" stroke="none" /><path d="M 101.08401301168833 79.027996857942 l 2.7740063499595196 -53.66768595962807 a74.7393303595316,74.7393303595316 0 0,0 1.2842279446682274,0.07746813669678025 l -3.697396343467359 53.61198455355099" fill="#41ffcc" stroke="none" /><path d="M 101.44485096284872 79.0497635885617 l 1.0296281459570447 -14.929535037399955 a35.964997512592504,35.964997512592504 0 0,0 0.6172446639570159,0.04791006551463338 l -1.2864629992764016 14.909599709696858" fill="#ff920d" stroke="none" /><path d="M 101.80526077348638 79.07773832637324 l 1.9975319729844803 -23.150609182907974 a44.23662711158481,44.23662711158481 0 0,0 0.7580785980827544,0.07198869733445312 l -2.3957356981574787 23.112794941058343" fill="#fbff18" stroke="none" /><path d="M 102.16513564639614 79.11191278185805 l 1.2099730631330916 -11.67318219363992 a32.73572398019908,32.73572398019908 0 0,0 0.5599886684953644,0.06292125171001545 l -1.4107284351381815 11.650624988459304" fill="#ff6309" stroke="none" /><path d="M 102.52436894288641 79.15227682838746 l 3.086140175462426 -25.48716035670527 a46.6733247599724,46.6733247599724 0 0,0 0.7967475951438179,0.1034407046587587 l -3.5244024991140894 25.430261328882377" fill="#dcff1b" stroke="none" /><path d="M 102.88285421437855 79.19881850522331 l 2.2000642583334162 -15.874523140820598 a37.02625245306103,37.02625245306103 0 0,0 0.6305588769378192,0.09292798738689383 l -2.472992115699891 15.834300669272734" fill="#ffa10e" stroke="none" /><path d="M 103.2404852339499 79.25152402106235 l 2.8300623000421012 -18.120582385665127 a39.34024968798944,39.34024968798944 0 0,0 0.6681675279480982,0.1102533671917354 l -3.1415590341290747 18.069182755533767" fill="#ffc112" stroke="none" /><path d="M 103.59715602781102 79.31037775812273 l 6.2683038196385885 -36.053158974190545 a57.59401460339589,57.59401460339589 0 0,0 0.9752720280113503,0.17822472933715322 l -6.88797096875284 35.939918763502654" fill="#5bff2a" stroke="none" /><path d="M 103.95276090670814 79.375362276772 l 5.381977054758506 -28.08197348864243 a49.5930570599711,49.5930570599711 0 0,0 0.8370212037746326,0.16789857919053425 l -5.8645646680002645 27.985170953374688" fill="#b8ff1f" stroke="none" /><path d="M 104.307194497241 79.44645832069477 l 1.4754232358289883 -7.04058592934483 a28.19351958038014,28.19351958038014 0 0,0 0.4741307891205343,0.1036266263226249 l -1.5963967491030504 7.014145804926334" fill="#ff1f03" stroke="none" /><path d="M 104.66035177308747 79.52364482259891 l 5.61646598917269 -24.677268591658887 a46.308343986764676,46.308343986764676 0 0,0 0.7757227862159654,0.18358852089928493 l -6.0404124623511795 24.576934158618734" fill="#e1ff1b" stroke="none" /><path d="M 105.01212808612495 79.60689891045804 l 7.127054411702709 -28.998209660856613 a50.86119669608652,50.86119669608652 0 0,0 0.8483916720705562,0.2162739274393526 l -7.62515497245829 28.87123273724839" fill="#a9ff21" stroke="none" /><path d="M 105.36241919743992 79.69619591428918 l 6.211389932414665 -23.518274055842646 a45.32469073715478,45.32469073715478 0 0,0 0.7526102538251616,0.20571681238746045 l -6.615298075463538 23.40787070262889" fill="#edff19" stroke="none" /><path d="M 105.71112130821622 79.79150937346287 l 8.31305424508009 -29.41528812352721 a51.5674016931725,51.5674016931725 0 0,0 0.8521139444817316,0.24875542689708824 l -8.81815840728525 29.267834367711416" fill="#a0ff22" stroke="none" /><path d="M 106.0581310904928 79.89281104454417 l 15.662556121515454 -51.98467493629708 a75.29292856801975,75.29292856801975 0 0,0 1.237724774910831,0.38456711250027675 l -16.555066269137004 51.70736768891428" fill="#41ffd2" stroke="none" /><path d="M 106.40334571778207 80.00007090966166 l 2.6532693025714194 -8.28710493666428 a29.70149103448675,29.70149103448675 0 0,0 0.4855729560548634,0.16008576924482099 l -2.7955250808687 8.240205443160221" fill="#ff3605" stroke="none" /><path d="M 106.74666289553966 80.11325718540242 l 6.1132159245636055 -18.019568302763773 a40.02830131037206,40.02830131037206 0 0,0 0.6505895040003632,0.2269779032859483 l -6.422487432627243 17.911669546305617" fill="#ffcb12" stroke="none" /><path d="M 107.08798089147638 80.2323363322302 l 7.119544451477245 -19.85569125246671 a42.093515314187044,42.093515314187044 0 0,0 0.6799459221397602,0.25042982142375986 l -7.460272699389582 19.730198163236626" fill="#ffe615" stroke="none" /><path d="M 107.4271985657038 80.35727306442388 l 8.624724145491514 -22.809825237048344 a45.38593844678756,45.38593844678756 0 0,0 0.7283726347074415,0.2825972663186675 l -9.016079945198623 22.657985266839127" fill="#edff1a" stroke="none" /><path d="M 107.76421540070413 80.48803036053334 l 9.339692314647609 -23.4712438386031 a46.26121809936036,46.26121809936036 0 0,0 0.7373512338259787,0.3007840820645155 l -9.742327418061976 23.306998870355006" fill="#e1ff1b" stroke="none" /><path d="M 108.09893153111575 80.62456947434976 l 6.737510420476635 -16.11844285462251 a38.46992406176291,38.46992406176291 0 0,0 0.6087705048712849,0.2606437597496771 l -7.013964683138235 16.000079566910042" fill="#ffb510" stroke="none" /><path d="M 108.43124777332544 80.76684994638697 l 19.299751507396177 -44.02610701509357 a69.07055759143753,69.07055759143753 0 0,0 1.0847954752917228,0.4867161087342771 l -20.05472910115468 43.68737057584277" fill="#39ff8b" stroke="none" /><path d="M 108.76106565485865 80.91482961587045 l 6.2415432676695595 -13.596624134111934 a35.96078374305659,35.96078374305659 0 0,0 0.560340570451015,0.26308741117350476 l -6.474662049420172 13.487171740298425" fill="#ff920d" stroke="none" /><path d="M 109.08828744355905 81.06846463323043 l 2.7068335604681484 -5.638522725013385 a27.254589230682463,27.254589230682463 0 0,0 0.4211855862468814,0.20667393798242675 l -2.8034904137254615 5.591093626896126" fill="#ff1101" stroke="none" /><path d="M 109.41281617654863 81.2277094730956 l 12.022835451991229 -23.977538265779756 a47.82295497503192,47.82295497503192 0 0,0 0.7326921055110317,0.37531335435852375 l -12.433788045091017 23.76703238610873" fill="#ceff1d" stroke="none" /><path d="M 109.73455568895987 81.39251694778311 l 11.38049800653445 -21.75368147747529 a45.550731001340594,45.550731001340594 0 0,0 0.6916226768587557,0.3694408815678266 l -11.753265729921518 21.55456186940571" fill="#ebff1a" stroke="none" /><path d="M 110.05341064243156 81.56283822128135 l 11.77712408488358 -21.598316209684327 a45.600567367527475,45.600567367527475 0 0,0 0.6859105121928463,0.3817084574157643 l -12.147158686148462 21.392392354708385" fill="#eaff1a" stroke="none" /><path d="M 110.36928655335952 81.73862282372117 l 17.389147476659893 -30.624072274513562 a56.216704170601446,56.216704170601446 0 0,0 0.837369940694959,0.48505871814030693 l -17.91371414982018 30.320209398983202" fill="#6bff28" stroke="none" /><line stroke="#e1ed5e" stroke-width="0.3" x1="143.23703022742887" x2="145.7803849466894" y1="26.81831364943548" y2="22.513508569990506" /><path d="M 143.74570117128098 25.957352633546492 a86.0,86.0 0 0,1 28.547481713284135,27.462654790039103" fill="none" id="id26" stroke="none" /><text fill="#e1ed5e" style="font-size:6.75px; font-family:Arial;" text-anchor="middle"><textPath startOffset="19.985693538727396" xlink:href="#id26">February</textPath></text><path d="M 110.68208982089419 81.91981866633111 l 13.219874585117335 -22.37555887610707 a46.98904998387523,46.98904998387523 0 0,0 0.6928377308287277,0.41742698061002653 l -13.6030743821637 22.14468528603843" fill="#d8ff1c" stroke="none" /><path d="M 110.99172775467656 82.1063720568725 l 30.104394089752528 -49.00747537766589 a78.5152778520947,78.5152778520947 0 0,0 1.145503684764383,0.7173143023107466 l -30.943516926889174 48.4820167340322" fill="#46fff5" stroke="none" /><path d="M 111.2981086023043 82.29822771554956 l 11.531204198071109 -18.066984312588577 a42.43325902444457,42.43325902444457 0 0,0 0.6123179375163558,0.39826861929216384 l -11.840489161371744 17.865816769136885" fill="#ffeb16" stroke="none" /><path d="M 111.60114157652 82.49532879139004 l 4.188171693753681 -6.31942709954901 a28.581288874780725,28.581288874780725 0 0,0 0.40775333212832554,0.2753168700246994 l -4.296329720288548 6.2463983172256405" fill="#ff2503" stroke="none" /><path d="M 111.90073688211348 82.69761687909136 l 7.096692292770041 -10.317822346384014 a33.5227991866756,33.5227991866756 0 0,0 0.4726217596745313,0.33110174591892055 l -7.273245192028224 10.194135757701158" fill="#ff6f0a" stroke="none" /><path d="M 112.48926042617603 83.11751280151076 l 14.515830467996931 -19.62192425243806 a45.40756533421646,45.40756533421646 0 0,0 0.6243623399391676,0.47025677005340255 l -14.85143896169448 19.36915089287881" fill="#ecff1a" stroke="none" /><path d="M 112.77801427241765 83.33499621200491 l 14.828806629474974 -19.339633951190667 a45.37037027663732,45.37037027663732 0 0,0 0.6156704042478032,0.4805405161175442 l -15.159509588882207 19.081515045849898" fill="#edff1a" stroke="none" /><path d="M 113.06298171725822 83.55741782278167 l 15.742193821119049 -19.814948926360184 a46.30709124447022,46.30709124447022 0 0,0 0.6198459986278375,0.5012056901572233 l -16.080943218311376 19.54103713893883" fill="#e1ff1b" stroke="none" /><path d="M 113.34407831869373 83.78471172551755 l 9.612647478367414 -11.68097535251599 a36.12772873664284,36.12772873664284 0 0,0 0.47678703457838434,0.39929542979832644 l -9.812292049904917 11.513778765323844" fill="#ff940d" stroke="none" /><path d="M 113.6212207817346 84.01681056812373 l 13.77724324244836 -16.16626674815906 a42.24054170529138,42.24054170529138 0 0,0 0.5493406613445267,0.4763828082252064 l -14.053477702439652 15.926718946514184" fill="#ffe815" stroke="none" /><path d="M 113.89432698308785 84.25364557470407 l 12.960003454085891 -14.687491376120137 a40.58785573904203,40.58785573904203 0 0,0 0.519889868135302,0.46676225680511474 l -13.210904309817185 14.462230110545725" fill="#ffd213" stroke="none" /><path d="M 114.16331599549186 84.49514656593476 l 17.550792349602407 -19.213188713639845 a47.022623477366764,47.022623477366764 0 0,0 0.592915237147146,0.5510500946913762 l -17.8789154705444 18.90823403287383" fill="#d8ff1c" stroke="none" /><path d="M 114.42810811169701 84.74124197986012 l 4.065579329904521 -4.299641417047782 a26.91741933641174,26.91741933641174 0 0,0 0.3339256559926838,0.3212362164960113 l -4.138988229509623 4.229022113789469" fill="#ff0b01" stroke="none" /><path d="M 114.68862486808459 84.99185889309783 l 26.639153180226188 -27.218624853434044 a59.08540430495037,59.08540430495037 0 0,0 0.7207412055032308,0.7176461137159992 l -27.10373018589674 26.756042889067928" fill="#4bff2c" stroke="none" /><path d="M 114.94478906791727 85.2469230424477 l 4.055332550819267 -4.003310648200492 a26.698439983340155,26.698439983340155 0 0,0 0.3200453070087851,0.32983482164927835 l -4.1236421215311605 3.9329116310010996" fill="#ff0801" stroke="none" /><path d="M 115.19652480421416 85.50635884689758 l 24.375363536009 -23.247931788283697 a54.684190356089736,54.684190356089736 0 0,0 0.6437961346482405,0.6867568290553808 l -24.771926992627705 22.824905542350262" fill="#7cff26" stroke="none" /><path d="M 115.4437574822437 85.77008943001954 l 14.783615539040845 -13.62165439747387 a41.102356999376696,41.102356999376696 0 0,0 0.4749403957889883,0.524441047363568 l -15.01589957544587 13.365160562840753" fill="#ffd914" stroke="none" /><path d="M 115.68641384162765 86.03803664274999 l 9.861152610401767 -8.777089065526892 a34.20150079611501,34.20150079611501 0 0,0 0.38763026034876547,0.4431283962445425 l -10.01077473432838 8.606045113079402" fill="#ff790b" stroke="none" /><path d="M 115.9244219780498 86.31012108654704 l 9.947792269745424 -8.55190045935194 a34.11844398199233,34.11844398199233 0 0,0 0.37902242215872134,0.4486429980098976 l -10.093525305391264 8.379398511712935" fill="#ff780b" stroke="none" /><path d="M 116.15771136456269 86.58626213691792 l 11.12969468818495 -9.239601059521117 a35.4651419485367,35.4651419485367 0 0,0 0.3858970673316592,0.4730641755657587 l -11.287090247593017 9.046652714347257" fill="#ff8b0c" stroke="none" /><path d="M 116.38621287248628 86.86637796730983 l 37.99738940309837 -30.45507552798689 a69.69613153902554,69.69613153902554 0 0,0 0.7422502579566375,0.942582450911085 l -38.51599374164897 29.796500683122765" fill="#3aff92" stroke="none" /><path d="M 116.60985879189232 87.15038557335679 l 16.24352613589 -12.566214462772615 a41.536842192794325,41.536842192794325 0 0,0 0.43262413117515763,0.5692826449958686 l -16.45742620728927 12.284747041895713" fill="#ffdf14" stroke="none" /><path d="M 116.82858285166822 87.43820079747576 l 20.55880052069801 -15.34624313063643 a46.65485250541228,46.65485250541228 0 0,0 0.47485172800328157,0.6476972233473708 l -20.81991486121492 14.990083463617568" fill="#ddff1b" stroke="none" /><path d="M 117.04232023915458 87.72973835380427 l 10.164311853379042 -7.318179927633873 a33.52473524294885,33.52473524294885 0 0,0 0.333151865219973,0.47121968700529926 l -10.288776338402897 7.142133740296781" fill="#ff6f0a" stroke="none" /><path d="M 117.2510076193507 88.02491185347247 l 16.102826917269407 -11.178058464612471 a40.602296441127265,40.602296441127265 0 0,0 0.39360162824185563,0.5775618215549752 l -16.292853011179997 10.89921861978709" fill="#ffd213" stroke="none" /><path d="M 117.45458315368197 88.32363383020206 l 15.457359950896919 -10.340309660558672 a39.597096024052654,39.597096024052654 0 0,0 0.37410462291558955,0.5697870065433418 l -15.633061209170434 10.072704590037658" fill="#ffc512" stroke="none" /><path d="M 117.65298651832404 88.62581576622439 l 18.4935471794091 -11.915774848424387 a42.999931307060336,42.999931307060336 0 0,0 0.3955428615163633,0.6256538170952302 l -18.69591763717142 11.595673383614951" fill="#fff216" stroke="none" /><line stroke="#e1ed5e" stroke-width="0.3" x1="172.23445277983987" x2="176.4835382374775" y1="55.19839476539836" y2="52.563006222186495" /><path d="M 173.08426987136738 54.67131705675599 a86.0,86.0 0 0,1 12.851231095245387,41.99856678651699" fill="none" id="id27" stroke="none" /><text fill="#e1ed5e" style="font-size:6.75px; font-family:Arial;" text-anchor="middle"><textPath startOffset="22.20632615414155" xlink:href="#id27">March</textPath></text><path d="M 117.84615892207809 88.93136811851018 l 29.03723705117478 -18.009617037389077 a55.16880801841838,55.16880801841838 0 0,0 0.4935879740019574,0.8113288490399604 l -29.34294082346296 17.507120415142033" fill="#77ff27" stroke="none" /><path d="M 118.03404312379186 89.2402003453031 l 22.739267380727796 -13.567116349435166 a47.47906582663637,47.47906582663637 0 0,0 0.41270686342090296,0.7054498104816747 l -22.969433918619025 13.173687126599596" fill="#d2ff1c" stroke="none" /><path d="M 118.21658344932153 89.55222093294921 l 16.244267094222007 -9.316594090145687 a39.72632208600935,39.72632208600935 0 0,0 0.3351054474805814,0.5961151989972925 l -16.402230182995023 9.0355953812136" fill="#ffc712" stroke="none" /><path d="M 118.3937258080291 89.86733742301442 l 22.586384752074718 -12.442297874574434 a46.78673210331997,46.78673210331997 0 0,0 0.382519188865499,0.7087499623712302 l -22.79721204015868 12.051666928870745" fill="#dbff1b" stroke="none" /><path d="M 118.56541770881063 90.18545643968196 l 13.527222756067527 -7.1511193053601145 a36.3011196587624,36.3011196587624 0 0,0 0.28728112633391273,0.5549356963311416 l -13.648313315561555 6.917210886768628" fill="#ff970d" stroke="none" /><path d="M 118.73160827565052 90.50648371742162 l 12.532891759559131 -6.351895162244691 a35.05062091186623,35.05062091186623 0 0,0 0.26812053758367593,0.5405146428317178 l -12.640372310096216 6.1352209309140235" fill="#ff850c" stroke="none" /><path d="M 118.89224826269711 90.83032412892265 l 12.33723852950341 -5.988089765000927 a34.71366740035547,34.71366740035547 0 0,0 0.25628903295846,0.5398100652627527 l -12.438485756303626 5.774837284097634" fill="#ff800b" stroke="none" /><path d="M 119.04729006885535 91.15688171328212 l 43.65987924656663 -20.27004761126158 a69.13584824211152,69.13584824211152 0 0,0 0.4918445496259582,1.083714268635156 l -44.00232611315594 19.51551133378436" fill="#39ff8c" stroke="none" /><path d="M 119.196687751892 91.48605970444005 l 25.219737614143835 -11.185228571285453 a48.58884744816575,48.58884744816575 0 0,0 0.33250803696848447,0.7674743934336973 l -25.408536360955 10.749455033265154" fill="#c4ff1e" stroke="none" /><path d="M 119.34039704204932 91.81776055985345 l 22.59431354639896 -9.558856678094017 a45.5331356663866,45.5331356663866 0 0,0 0.29917072619190205,0.7244656434828308 l -22.755505959477063 9.168516464157884" fill="#ebff1a" stroke="none" /><path d="M 119.47837535516314 92.15188598940014 l 22.304048653623745 -8.986617905235416 a45.046411119289985,45.046411119289985 0 0,0 0.283591719269087,0.72170999271232 l -22.455433922774535 8.601358907627313" fill="#f1ff19" stroke="none" /><path d="M 119.61058180528143 92.48833698450437 l 16.16092050581359 -6.190300219812515 a38.305928706851795,38.305928706851795 0 0,0 0.23055683912999708,0.6177777032197417 l -16.265081933445213 5.91119937956344" fill="#ffb310" stroke="none" /><path d="M 119.7369772167798 92.82701384747503 l 20.641414679372453 -7.501684783715887 a42.9623148725276,42.9623148725276 0 0,0 0.24661784281724294,0.6972218515602173 l -20.767485602999503 7.145265305729055" fill="#fff216" stroke="none" /><path d="M 119.85752413597 93.16781622104841 l 22.74500548487601 -7.825651197091888 a45.053608693199976,45.053608693199976 0 0,0 0.24599850943381027,0.7355042319258098 l -22.87634128808159 7.432973862243764" fill="#f1ff19" stroke="none" /><path d="M 119.97218684219823 93.5106431181261 l 27.205603343099938 -8.839636374072974 a49.6056642028799,49.6056642028799 0 0,0 0.25687352171899935,0.8143592608690373 l -27.353732348587144 8.370026946777518" fill="#b8ff1f" stroke="none" /><path d="M 120.08093135843002 93.85539295169968 l 4.9633354686468225 -1.518741614089687 a26.190498537201925,26.190498537201925 0 0,0 0.12820137149185454,0.43223129235486585 l -4.98874273725038 1.4330809349882914" fill="#ff0000" stroke="none" /><path d="M 120.18372546131832 94.20196356495316 l 42.01002040698764 -12.067922218996856 a64.7089986304797,64.7089986304797 0 0,0 0.29831843480159653,1.0732101328606953 l -42.2115256123556 11.343000782717208" fill="#33ff55" stroke="none" /><path d="M 120.28053869075195 94.5502522615342 l 19.074491540443002 -5.125661044808272 a40.751167779974345,40.751167779974345 0 0,0 0.17620740547573355,0.6789990128224543 l -19.15989527778904 4.7965656064369675" fill="#ffd413" stroke="none" /><path d="M 120.37134235888165 94.90015583598534 l 17.993717731814737 -4.50462000720899 a39.5490021085117,39.5490021085117 0 0,0 0.1596408648198802,0.6618144482887761 l -18.068591396895435 4.194220327260808" fill="#ffc412" stroke="none" /><path d="M 120.45610955862082 95.25157060432595 l 22.602648677548594 -5.246700556281197 a44.203611657842636,44.203611657842636 0 0,0 0.16567011201211343,0.7426666275058379 l -22.689613176562744 4.856855759225396" fill="#fcff18" stroke="none" /><path d="M 120.53481517161879 95.60439243477599 l 15.076655549706846 -3.2272538437142324 a36.41819412046283,36.41819412046283 0 0,0 0.12593880469201574,0.6141223379343996 l -15.12997365031386 2.967255849616421" fill="#ff990e" stroke="none" /><path d="M 120.6074358757038 95.95851677861258 l 20.370034762175543 -3.9949246576316004 a41.75807648199594,41.75807648199594 0 0,0 0.13226229657698524,0.7065504770022925 l -20.43578278266239 3.643696103166745" fill="#ffe215" stroke="none" /><path d="M 120.67395015179393 96.31383870115 l 23.665236335546027 -4.219507044746301 a45.03846190000333,45.03846190000333 0 0,0 0.1295137559111219,0.7643975187408026 l -23.73436195297737 3.8115237376896602" fill="#f1ff19" stroke="none" /><path d="M 120.73433829027371 96.67025291283417 l 21.664126807846948 -3.4790627086593795 a42.94170156750057,42.94170156750057 0 0,0 0.1109206778916802,0.730828678839001 l -21.720803379177926 3.1056349174282962" fill="#fff216" stroke="none" /><path d="M 120.78858239683441 97.02765380044208 l 23.839532183972416 -3.4085702205966233 a45.08197761188634,45.08197761188634 0 0,0 0.1032248501887881,0.7691450324662057 l -23.894673033219043 2.997706846065753" fill="#f1ff19" stroke="none" /><path d="M 120.83666639777658 97.38593545837742 l 28.47477304345813 -3.572303415655636 a49.69797992141528,49.69797992141528 0 0,0 0.09918213309244002,0.8497319468280905 l -28.532045529554157 3.0816277305026927" fill="#b7ff1f" stroke="none" /><path d="M 120.87857604477298 97.74499172005257 l 11.82303343925124 -1.2769567350969582 a32.891792892956154,32.891792892956154 0 0,0 0.055951875409582706,0.5634277496475376 l -11.843262440343052 1.0732534547449857" fill="#ff6609" stroke="none" /><path d="M 120.91429891909075 98.10471618934814 l 21.715859508980916 -1.967922382719353 a42.80484516611399,42.80484516611399 0 0,0 0.06018262612172003,0.7343804756870088 l -21.746516618922133 1.5938279898245755" fill="#fff016" stroke="none" /><path d="M 120.94382443527127 98.46500227214037 l 12.14538840398214 -0.8901499180201592 a33.17796478727604,33.17796478727604 0 0,0 0.03684240621502811,0.5699357173115145 l -12.158911401201584 0.6809551364556093" fill="#ff6a09" stroke="none" /><path d="M 120.96714384426684 98.82574320788733 l 12.84331672352319 -0.719284992170028 a33.86344259367186,33.86344259367186 0 0,0 0.027584824550945387,0.5822720481945023 l -12.853795156307632 0.4981018373525259" fill="#ff740a" stroke="none" /><path d="M 120.98425023603335 99.18683210126433 l 24.363666258286916 -0.9441248114134804 a45.38195244857792,45.38195244857792 0 0,0 0.023530122117119193,0.780850199419541 l -24.37630807485968 0.5246044645689403" fill="#edff1a" stroke="none" /><line stroke="#e1ed5e" stroke-width="0.3" x1="184.98032266829074" x2="189.97916517819016" y1="98.17113171792111" y2="98.06355123074" /><path d="M 185.9800911702706 98.14961562048488 a86.0,86.0 0 0,1 -9.607161424134198,41.387399972396054" fill="none" id="id28" stroke="none" /><text fill="#e1ed5e" style="font-size:6.75px; font-family:Arial;" text-anchor="middle"><textPath startOffset="21.466115282336823" xlink:href="#id28">April</textPath></text><path d="M 120.99513854157772 99.54816195383933 l 23.497086569316174 -0.5056826686293473 a44.50252735786708,44.50252735786708 0 0,0 0.009890141829658791,0.7660023840257745 l -23.502309718263547 0.10114402654311008" fill="#f8ff18" stroke="none" /><path d="M 120.99980553446 99.90962569577887 l 18.68910201217462 -0.08043001103493008 a39.689275079792274,39.689275079792274 0 0,0 -0.00294022441996635,0.6832046075386478 l -18.68771749046515 -0.24128407470740235" fill="#ffc612" stroke="none" /><path d="M 120.99824983174949 100.27111621757518 l 24.791434745707726 0.32009143954252606 a45.79350106944061,45.79350106944061 0 0,0 -0.016960903845340623,0.7881065551010525 l -24.782251779177376 -0.7467878104336935" fill="#e7ff1a" stroke="none" /><path d="M 120.9904718944345 100.63252640178507 l 12.518597192719355 0.3772351225608681 a33.52427970029632,33.52427970029632 0 0,0 -0.022346114928754927,0.5766539335815954 l -12.510248944939397 -0.5926663031564697" fill="#ff6f0a" stroke="none" /><path d="M 120.9764740272857 100.99374915477107 l 28.094548325846496 1.3309640893969348 a49.126057509729094,49.126057509729094 0 0,0 -0.04728651851336762,0.8443325533425624 l -28.0674754564456 -1.8143683590749204" fill="#beff1f" stroke="none" /><path d="M 120.95626037817324 101.35467743843564 l 24.263184256493577 1.5684472183363791 a45.313826044891925,45.313826044891925 0 0,0 -0.05701653448531473,0.7779453132045642 l -24.232591163343926 -1.9858656680377136" fill="#eeff19" stroke="none" /><path d="M 120.92983693683757 101.71520430193887 l 11.77638735444746 0.9650772871572494 a32.81586532134557,32.81586532134557 0 0,0 -0.05098242164885819,0.5625867745984737 l -11.758030336521527 -1.1676454503042937" fill="#ff6509" stroke="none" /><path d="M 120.89721153311464 102.0752229133903 l 24.595636708095277 2.442499506940454 a45.71661685825971,45.71661685825971 0 0,0 -0.08450542140932639,0.7824152499924901 l -24.549948985184898 -2.865511078817735" fill="#e8ff1a" stroke="none" /><path d="M 120.8583938346157 102.4346265915055 l 8.811451458275409 1.0284873418429512 a29.871271781085,29.871271781085 0 0,0 -0.06400772128695428,0.5102045164157684 l -8.792442227741606 -1.1800096125461146" fill="#ff3905" stroke="none" /><path d="M 120.81339534386255 102.79330883721812 l 14.827730302425605 1.9899891106361807 a35.960669857393455,35.960669857393455 0 0,0 -0.08761722853963026,0.6127946923374217 l -14.791279022869373 -2.244929274954012" fill="#ff920d" stroke="none" /><path d="M 120.76222939487914 103.15116336523771 l 25.693699127316638 3.899631483091579 a46.987945292942854,46.987945292942854 0 0,0 -0.12825079001710665,0.7986177918614623 l -25.62276658293824 -4.341328504646246" fill="#d8ff1c" stroke="none" /><path d="M 120.70491114924044 103.5080841355445 l 14.749131029417905 2.498981628291904 a35.9593373951348,35.9593373951348 0 0,0 -0.10865466137365494,0.6093930435707748 l -14.703929925705062 -2.752493422595897" fill="#ff920d" stroke="none" /><path d="M 120.64145759157962 103.86396538481128 l 61.924372774738885 11.591896154433844 a84.0,84.0 0 0,0 -0.2782802680973435,1.4189450917282203 l -61.715662573665874 -12.656104973230008" fill="#4dd2ff" stroke="none" /><path d="M 120.5718875245553 104.21870165774334 l 11.66495977704557 2.3921472976260256 a32.907714108662105,32.907714108662105 0 0,0 -0.11857113435300594,0.5539248653340769 l -11.622054603968122 -2.5925859823762716" fill="#ff6609" stroke="none" /><path d="M 120.49622156327973 104.57218783832717 l 20.788714874552394 4.637435686886182 a42.299682530156204,42.299682530156204 0 0,0 -0.16464533863486902,0.7092878096701598 l -20.705808969986972 -4.9945921539049065" fill="#ffe915" stroke="none" /><path d="M 120.41448212921028 104.9243191809786 l 6.639508567843243 1.6015620276803477 a27.829939600828943,27.829939600828943 0 0,0 -0.11634065813355293,0.4647230975839361 l -6.610956595414629 -1.7156129646616798" fill="#ff1a02" stroke="none" /><path d="M 120.32669344350535 105.2749913415812 l 37.04681663353568 9.614039662584036 a59.273964797399216,59.273964797399216 0 0,0 -0.26479069811875233,0.9853846922574021 l -36.87583785907514 -10.250315288016987" fill="#49ff2c" stroke="none" /><path d="M 120.23288151984713 105.62410040840565 l 5.488852665438302 1.5257272419199777 a26.69695946971943,26.69695946971943 0 0,0 -0.12688348227768448,0.44169804735767504 l -5.4617765462745185 -1.6199827647822347" fill="#ff0801" stroke="none" /><path d="M 120.13307415673323 105.97154293290107 l 32.94110675466069 9.770451929565226 a55.359543727033056,55.359543727033056 0 0,0 -0.27883607679029343,0.9112524322981091 l -32.76804390536426 -10.336031334415392" fill="#74ff27" stroke="none" /><path d="M 120.02730092923936 106.31721596034902 l 43.01647426791007 13.568695989704954 a66.10572656883829,66.10572656883829 0 0,0 -0.3516439004733524,1.0822486434349377 l -42.776538116420475 -14.307143533117689" fill="#35ff67" stroke="none" /><path d="M 119.9155931802556 106.66101706037122 l 16.703059181203805 5.58654523414807 a38.612543077704004,38.612543077704004 0 0,0 -0.21624710031130828,0.6285152965285479 l -16.604421249949265 -5.8732332337659185" fill="#ffb711" stroke="none" /><line stroke="#e1ed5e" stroke-width="0.3" x1="174.80103733775053" x2="179.2010983576182" y1="140.37084112569926" y2="142.7455964860345" /><path d="M 175.68104954172406 140.8457921977663 a86.0,86.0 0 0,1 -30.038265399797805,32.042727171017184" fill="none" id="id29" stroke="none" /><text fill="#e1ed5e" style="font-size:6.75px; font-family:Arial;" text-anchor="middle"><textPath startOffset="22.206326154141568" xlink:href="#id29">May</textPath></text><line stroke="#e1ed5e" stroke-width="0.3" x1="143.8653032363475" x2="146.44561519142675" y1="172.8068346515853" y2="177.08958963109032" /><path d="M 144.38136562736335 173.6633856474863 a86.0,86.0 0 0,1 -40.68145358897372,12.25698825130547" fill="none" id="id30" stroke="none" /><text fill="#e1ed5e" style="font-size:6.75px; font-family:Arial;" text-anchor="middle"><textPath startOffset="21.466115282336833" xlink:href="#id30">June</textPath></text><line stroke="#e1ed5e" stroke-width="0.3" x1="102.19456741930631" x2="102.32365962044197" y1="184.97166512339345" y2="189.96999836594603" /><path d="M 102.22038585953345 185.97133177190398 a86.0,86.0 0 0,1 -42.740103519485714,-10.115201625700543" fill="none" id="id31" stroke="none" /><text fill="#e1ed5e" style="font-size:6.75px; font-family:Arial;" text-anchor="middle"><textPath startOffset="22.20632615414155" xlink:href="#id31">July</textPath></text><line stroke="#e1ed5e" stroke-width="0.3" x1="58.666819895761336" x2="56.23545636021788" y1="174.27360380694188" y2="178.64263932499728" /><path d="M 58.180547188652646 175.14741091055294 a86.0,86.0 0 0,1 -31.652253787137756,-30.449443065178592" fill="none" id="id32" stroke="none" /><text fill="#e1ed5e" style="font-size:6.75px; font-family:Arial;" text-anchor="middle"><textPath startOffset="22.20632615414155" xlink:href="#id32">August</textPath></text><line stroke="#e1ed5e" stroke-width="0.3" x1="26.63291911575756" x2="22.317208475507996" y1="142.92168965132927" y2="145.44649492493687" /><path d="M 25.769776987707644 143.4266507060508 a86.0,86.0 0 0,1 -11.730757126820373,-40.83630448921669" fill="none" id="id33" stroke="none" /><text fill="#e1ed5e" style="font-size:6.75px; font-family:Arial;" text-anchor="middle"><textPath startOffset="21.46611528233685" xlink:href="#id33">September</textPath></text><line stroke="#e1ed5e" stroke-width="0.3" x1="15.007084014347285" x2="10.007500721073583" y1="101.09737516637583" y2="101.16192664675087" /><path d="M 14.007167355692545 101.11028546245083 a86.0,86.0 0 0,1 10.666146001902534,-42.60595125391555" fill="none" id="id34" stroke="none" /><text fill="#e1ed5e" style="font-size:6.75px; font-family:Arial;" text-anchor="middle"><textPath startOffset="22.20632615414155" xlink:href="#id34">October</textPath></text><line stroke="#e1ed5e" stroke-width="0.3" x1="26.266209847984243" x2="21.928928074336255" y1="57.711370442889674" y2="55.22380399835377" /><path d="M 25.398753493254645 57.213857153982495 a86.0,86.0 0 0,1 29.58750427330803,-30.492523968695096" fill="none" id="id35" stroke="none" /><text fill="#e1ed5e" style="font-size:6.75px; font-family:Arial;" text-anchor="middle"><textPath startOffset="21.46611528233685" xlink:href="#id35">November</textPath></text><line stroke="#e1ed5e" stroke-width="0.3" x1="56.762969772571076" x2="54.21961505331055" y1="26.818313649435495" y2="22.513508569990535" /><path d="M 56.25429882871897 25.957352633546506 a86.0,86.0 0 0,1 42.265352541879196,-11.944610805530505" fill="none" id="id36" stroke="none" /><text fill="#e1ed5e" style="font-size:6.75px; font-family:Arial;" text-anchor="middle"><textPath startOffset="22.20632615414155" xlink:href="#id36">December</textPath></text></svg>