<?xml version="1.0" encoding="utf-8" ?>
<svg baseProfile="full" height="200mm" version="1.1" viewBox="0,0,200,200" width="200mm" xmlns="http://www.w3.org/2000/svg" xmlns:ev="http://www.w3.org/2001/xml-events" xmlns:xlink="http://www.w3.org/1999/xlink"><defs /><rect fill="#1a1a1a" height="200" width="200" x="0" y="0" /><text alignment-baseline="middle" fill="#e1ed5e" style="dominant-baseline: central; font-size:9.0px; font-family:Arial;" text-anchor="middle" x="100.0" y="100.0">2024</text><line stroke="#e1ed5e" stroke-width="0.3" x1="100.0" x2="100.0" y1="15.0" y2="10.0" /><path d="M 100.0 14.0 a86.0,86.0 0 0,1 42.35913384403234,11.155469271406648" fill="none" id="id13" stroke="none" /><text fill="#e1ed5e" style="font-size:6.75px; font-family:Arial;" text-anchor="middle"><textPath startOffset="22.145653131862478" xlink:href="#id13">January</textPath></text><path d="M 100.0 79.0 l 0.0 -29.425574661076396 a50.425574661076396,50.425574661076396 0 0,0 0.8656220427026537,0.007430324151646552 l -0.505129117853799 29.421238735119186" fill="#bcff1f" stroke="none" /><path d="M 100.36049292484886 79.00309439819443 l 0.5108561193419274 -29.754807860444043 a50.759192945821155,50.759192945821155 0 0,0 0.8710922536280138,0.022436246476509943 l -1.0215616870406825 29.741653896617485" fill="#b8ff1f" stroke="none" /><path d="M 100.72087961077811 79.0123766808444 l 2.1626388323343404 -62.96286995746683 a84.0,84.0 0 0,0 1.4406969575966548,0.06186972629667631 l -3.2431615505318314 62.916467662744324" fill="#4dd2ff" stroke="none" /><path d="M 101.08105385017728 79.02784411241856 l 1.3446194771676365 -26.08525863907113 a47.11989126710932,47.11989126710932 0 0,0 0.8074456666368358,0.04857392624040459 l -1.7922094959369346 26.058332735006033" fill="#e7ff1a" stroke="none" /><path d="M 101.44090949804482 79.04949213459386 l 2.025138744479501 -29.445072887871902 a50.51463203745696,50.51463203745696 0 0,0 0.864596427227731,0.06692523155739312 l -2.5303041664824657 29.405969889319454" fill="#bbff1f" stroke="none" /><path d="M 101.80034050326958 79.07731436759882 l 2.2524463385283027 -26.176840747232795 a47.2735704846893,47.2735704846893 0 0,0 0.8079288136811598,0.07651169865602626 l -2.7014747155944754 26.134317293071586" fill="#e5ff1a" stroke="none" /><path d="M 102.15924093988457 79.11130261209362 l 3.024430893270425 -29.258625349859578 a50.41452599637829,50.41452599637829 0 0,0 0.8600816524912221,0.09637394312029303 l -3.526248447362444 29.202395646232315" fill="#bcff1f" stroke="none" /><path d="M 102.51750503828377 79.15144685158666 l 3.143509400965093 -26.032767292190165 a47.22187301172977,47.22187301172977 0 0,0 0.8039460425500032,0.10408691076859626 l -3.5899332654058878 25.974968785221172" fill="#e5ff1a" stroke="none" /><path d="M 102.87502721639298 79.19773525538626 l 4.324800156019795 -31.29209953217132 a52.58954557319281,52.58954557319281 0 0,0 0.8932081244504066,0.13127083498315603 l -4.8613333860778845 31.21324762388928" fill="#a1ff22" stroke="none" /><path d="M 103.23170211078529 79.25015418208739 l 4.555301788041812 -29.24830523224204 a50.60091440037848,50.60091440037848 0 0,0 0.8571373151571654,0.14104161903011 l -5.056716606252048 29.16579761471626" fill="#baff1f" stroke="none" /><path d="M 103.58742460773223 79.30868818359171 l 5.533005645797723 -31.91290622592886 a53.38900639509274,53.38900639509274 0 0,0 0.9016774370742889,0.16431566549070595 l -6.080017816423066 31.81322238650679" fill="#97ff23" stroke="none" /><path d="M 104.29559338865022 79.4440306129975 l 11.350051025347868 -54.31410292101216 a76.48734481295985,76.48734481295985 0 0,0 1.2829389283874277,0.27961056821497127 l -12.28075237035443 54.11126089466347" fill="#43ffdc" stroke="none" /><path d="M 104.64783097203109 79.52079915486377 l 6.265546768904668 -27.607155134757548 a49.30922271889325,49.30922271889325 0 0,0 0.823858132197067,0.1944282759491149 l -6.73853705484162 27.495530715162207" fill="#caff1d" stroke="none" /><path d="M 104.9986988182912 79.60360301121754 l 7.532072439298088 -30.733425878358524 a52.642938887710656,52.642938887710656 0 0,0 0.8758649617345308,0.22264144822962828 l -8.058542694258014 30.599599198293628" fill="#a0ff22" stroke="none" /><path d="M 105.3480935250658 79.69241777938227 l 7.9798682137142665 -30.30085938104504 a52.334013083837704,52.334013083837704 0 0,0 0.8667972911564709,0.23624945618103899 l -8.49884690580543 30.159409430719858" fill="#a4ff21" stroke="none" /><path d="M 105.69591212413111 79.78721728523813 l 9.074157539907045 -32.20098391206102 a54.45509976018401,54.45509976018401 0 0,0 0.897575597940409,0.26127117515352816 l -9.625593150229058 32.040469042604975" fill="#8aff24" stroke="none" /><path d="M 106.04205211174951 79.88797359093562 l 9.642862633727086 -32.0979535365748 a54.515122273520724,54.515122273520724 0 0,0 0.8939425240492997,0.27694567906081274 l -10.192445790648016 31.927691269707342" fill="#8aff24" stroke="none" /><path d="M 106.38641147887787 79.99465700312896 l 9.623696553951936 -30.146092386368114 a52.644943064097745,52.644943064097745 0 0,0 0.8585569512991746,0.28222472299996 l -10.139776242898854 29.976446741966132" fill="#a0ff22" stroke="none" /><path d="M 106.72888874123014 80.10723608172694 l 17.555281243557822 -51.899069627526636 a75.78778447558608,75.78778447558608 0 0,0 1.2288239601634872,0.4274487612115363 l -18.443610975766326 51.59006243374651" fill="#42ffd4" stroke="none" /><path d="M 107.06938296918511 80.22567764915836 l 11.66889327162997 -32.63997127282185 a55.66310423022334,55.66310423022334 0 0,0 0.896999920195941,0.32939079543947025 l -12.227482343480037 32.43484962837366" fill="#7cff26" stroke="none" /><path d="M 107.40779381753099 80.34994680014964 l 10.888675611102817 -28.88350571093476 a51.867785128146565,51.867785128146565 0 0,0 0.8304470496718412,0.3212347588475685 l -11.382894923268186 28.692331063949155" fill="#aaff21" stroke="none" /><path d="M 107.74402155503746 80.48000691201159 l 11.901340218395307 -29.99915188120249 a53.27368916912736,53.27368916912736 0 0,0 0.8471671825693939,0.34453551800957893 l -12.41456186215514 29.790429106613615" fill="#99ff23" stroke="none" /><path d="M 108.07796709384702 80.6158196554323 l 12.601504130471316 -30.23902249662922 a53.75967624842977,53.75967624842977 0 0,0 0.8488010959129827,0.36230271501219863 l -13.118740301554729 30.01824513195762" fill="#93ff23" stroke="none" /><path d="M 108.4095320186766 80.7573450057729 l 12.197120923713019 -27.90939963563081 a51.45823939181362,51.45823939181362 0 0,0 0.8063912807853446,0.36068856301227775 l -12.674425607353994 27.695907321708678" fill="#afff20" stroke="none" /><path d="M 108.73861861582097 80.90454125486305 l 13.523424668365116 -29.55112348995369 a53.498490953880285,53.498490953880285 0 0,0 0.8318029089183383,0.3893257615648431 l -14.028716291154959 29.31462149681831" fill="#96ff23" stroke="none" /><path d="M 109.06512990194946 81.05736502329252 l 16.826307188163625 -35.160510496687856 a59.9793036363933,59.9793036363933 0 0,0 0.9249372732878285,0.4524331695629128 l -17.42740471071352 34.86648357702772" fill="#4bff2c" stroke="none" /><path d="M 109.3889696526874 81.21577127319529 l 25.80130125031869 -51.61988610714656 a78.70892294892082,78.70892294892082 0 0,0 1.2033948841496123,0.6144620023748175 l -26.68362335618188 51.16936615309891" fill="#46fff5" stroke="none" /><path d="M 109.71004243097381 81.37971332152246 l 12.323846864677522 -23.632601323137408 a47.65289940780136,47.65289940780136 0 0,0 0.7220802643695441,0.3844670694441455 l -12.727715944833626 23.41756378597069" fill="#e0ff1b" stroke="none" /><path d="M 110.02825361518725 81.54914285379988 l 14.116431195066033 -25.97264343213989 a50.560985040050895,50.560985040050895 0 0,0 0.7590306850680245,0.4210215260372389 l -14.560206068290157 25.726488990669505" fill="#baff1f" stroke="none" /><path d="M 110.34350942703115 81.72400993836675 l 14.521998176843342 -25.65897930749243 a50.48341313604254,50.48341313604254 0 0,0 0.7505381823422781,0.4333234216124067 l -14.960328827046016 25.40590898860385" fill="#bbff1f" stroke="none" /><line stroke="#e1ed5e" stroke-width="0.3" x1="143.13028292997686" x2="145.6673583964461" y1="26.7553504044142" y2="22.446841604673864" /><path d="M 143.63769802327073 25.89364864446614 a86.0,86.0 0 0,1 29.32050498858742,28.57503671076993" fill="none" id="id14" stroke="none" /><text fill="#e1ed5e" style="font-size:6.75px; font-family:Arial;" text-anchor="middle"><textPath startOffset="20.669276256404974" xlink:href="#id14">February</textPath></text><path d="M 110.65571695917076 81.90426304109057 l 18.68318482449185 -31.728132366327735 a57.82031747067556,57.82031747067556 0 0,0 0.8509698159826534,0.5109829241488414 l -19.22508739703194 31.40273544164297" fill="#63ff29" stroke="none" /><path d="M 110.96478420261332 82.08984904055464 l 23.10230320843614 -37.73587608549141 a65.24604793056756,65.24604793056756 0 0,0 0.9502181862796809,0.5930064260717198 l -23.746685523505533 37.33373386257814" fill="#33ff54" stroke="none" /><path d="M 111.27062007382361 82.28071324371311 l 17.444726132854395 -27.426006972841957 a53.50391250795308,53.50391250795308 0 0,0 0.7707477268628488,0.4995893646426408 l -17.91295949197425 27.122503766495424" fill="#96ff23" stroke="none" /><path d="M 111.5731344415666 82.4767994020092 l 17.77120053693421 -26.907862640681977 a53.246684177039654,53.246684177039654 0 0,0 0.7583943278037736,0.5102815498098516 l -18.230491152834983 26.598831416815006" fill="#99ff23" stroke="none" /><path d="M 111.8722381534696 82.67804972795209 l 20.424004185146966 -29.799232484889362 a57.12664118961776,57.12664118961776 0 0,0 0.804138836209821,0.5613513602437147 l -20.932538112530548 29.44423630884052" fill="#6bff28" stroke="none" /><path d="M 112.16784306229584 82.88440491214696 l 16.682631535471426 -23.46621047782501 a49.791895198786236,49.791895198786236 0 0,0 0.6923894727388017,0.5012365827093388 l -17.083002018584196 23.176373123742597" fill="#c4ff1e" stroke="none" /><path d="M 112.45986205192187 83.09580414077388 l 17.61908688716722 -23.90367520605555 a50.695419025400916,50.695419025400916 0 0,0 0.6960891691376488,0.5223582896178389 l -18.026829045215635 23.597697889173695" fill="#b9ff1f" stroke="none" /><path d="M 112.7482090630111 83.31218511350987 l 20.500232628585213 -26.83546257712615 a54.76983253666574,54.76983253666574 0 0,0 0.7422356987585287,0.57716696872712 l -20.957878271978966 26.479594556778242" fill="#87ff25" stroke="none" /><path d="M 113.03279911837588 83.53348406188908 l 20.958978566209318 -26.48098474259451 a54.77160546193125,54.77160546193125 0 0,0 0.7322421923734694,0.589842477470954 l -21.410471528938047 26.11729397133015" fill="#87ff25" stroke="none" /><path d="M 113.31354834802062 83.75963576809568 l 17.058748084213644 -20.808898949100854 a47.90745550353198,47.90745550353198 0 0,0 0.631524441351178,0.5268401499202348 l -17.41344685972671 20.51299661526875" fill="#dcff1b" stroke="none" /><path d="M 113.59037401385872 83.9905735841838 l 37.38605535234029 -44.040679199157836 a78.76935657536256,78.76935657536256 0 0,0 1.0233284209350086,0.8839267170934704 l -38.13656325303816 43.39240834959965" fill="#46fff5" stroke="none" /><path d="M 113.86319453409587 84.22622945171908 l 20.435224451517676 -23.251534183414822 a51.95532652495228,51.95532652495228 0 0,0 0.664867299050753,0.5945284385863937 l -20.831356777391804 22.897310214945044" fill="#a9ff21" stroke="none" /><path d="M 114.13192950727249 84.46653392183569 l 8.053743905563277 -8.85247536048847 a32.967836517284695,32.967836517284695 0 0,0 0.4153480022219919,0.384439910071051 l -8.204521679099235 8.712917704285044" fill="#ff4d07" stroke="none" /><path d="M 114.39649973595853 84.71141617570332 l 28.20967196026547 -29.957694045810022 a62.14910721568755,62.14910721568755 0 0,0 0.7704344089119112,0.7380587358062102 l -28.719778855042694 29.46902317969823" fill="#33ff2f" stroke="none" /><path d="M 114.91283532996326 85.21462403516908 l 40.180082338686496 -39.836664895085825 a77.580905672382,77.580905672382 0 0,0 0.9295418974211984,0.953791874925811 l -40.85801103725851 39.14105032809227" fill="#44ffe8" stroke="none" /><path d="M 115.16444852881244 85.47280134310134 l 22.483570341053102 -21.53875178779164 a52.13565101065305,52.13565101065305 0 0,0 0.6135724762688173,0.6515927070999677 l -22.849998651058183 21.149617620747176" fill="#a7ff21" stroke="none" /><path d="M 115.41159269507618 85.73525988315684 l 19.309971922013858 -17.873021729874136 a47.3119729664181,47.3119729664181 0 0,0 0.5465711152076175,0.6007774007797592 l -19.613940738063356 17.538906753536704" fill="#e4ff1a" stroke="none" /><path d="M 115.6541949942343 86.00192230759917 l 23.26859060290956 -20.80691719837157 a52.214661810529066,52.214661810529066 0 0,0 0.5917386576214212,0.6732899684060277 l -23.62234032448957 20.404414952154244" fill="#a6ff21" stroke="none" /><path d="M 115.8921839302757 86.27271002978787 l 20.76714900916985 -17.938168696901823 a48.44179976181542,48.44179976181542 0 0,0 0.5381778684729245,0.6339721758321074 l -21.072021441149886 17.579029738620164" fill="#d6ff1c" stroke="none" /><path d="M 116.1254893667686 86.54754324733833 l 21.012830369685982 -17.529650441601568 a48.36471605461931,48.36471605461931 0 0,0 0.5263766519478028,0.6420939277299057 l -21.310653840872412 17.166354232173166" fill="#d7ff1c" stroke="none" /><path d="M 116.35404254752997 86.82634096563983 l 27.35367493002121 -22.034184258573443 a56.12447591236112,56.12447591236112 0 0,0 0.5979490154402086,0.7554890475555015 l -27.727890376102977 21.561375267103266" fill="#77ff27" stroke="none" /><path d="M 116.57777611688842 87.10902102172516 l 26.385025282192007 -20.517155247831187 a54.42339328382919,54.42339328382919 0 0,0 0.5671643812302344,0.742436381251605 l -26.733341640776548 20.061197953338702" fill="#8bff24" stroke="none" /><path d="M 116.7966241395341 87.39550010848427 l 20.56291025985049 -15.430791210567765 a46.70880385663246,46.70880385663246 0 0,0 0.47575803869470923,0.6454571514663037 l -20.824770318129023 15.075527749832586" fill="#ecff1a" stroke="none" /><path d="M 117.01052211995028 87.68569379921539 l 31.5048553672862 -22.80708570074912 a59.89368933226748,59.89368933226748 0 0,0 0.5957565426118019,0.838006185819344 l -31.89172700842796 22.262902288220275" fill="#4cff2c" stroke="none" /><path d="M 117.21940702142032 87.97951657250589 l 48.81108827718253 -34.07393047762621 a80.52776727710364,80.52776727710364 0 0,0 0.7815421639247976,1.140293373836828 l -49.38882017792265 33.23100236871934" fill="#48f6ff" stroke="none" /><path d="M 117.42321728460499 88.27688183743584 l 52.09648482272845 -35.052839980978405 a83.79128380290416,83.79128380290416 0 0,0 0.792727634433086,1.200290675605528 l -52.69053689608226 34.15336942703382" fill="#4dd4ff" stroke="none" /><path d="M 117.62189284568427 88.57770195909679 l 31.586826793127347 -20.474199506090454 a58.64200409481703,58.64200409481703 0 0,0 0.5402947771404388,0.8494331302419365 l -31.933639261893674 19.928952701169845" fill="#5aff2a" stroke="none" /><path d="M 117.81537515405839 88.88188828441811 l 6.045898395593951 -3.773087751562629 a28.12664567597109,28.12664567597109 0 0,0 0.2521112270776045,0.411804742536995 l -6.109777587126957 3.668745892901079" fill="#ff0000" stroke="none" /><line stroke="#e1ed5e" stroke-width="0.3" x1="172.87174338648825" x2="177.1583165268699" y1="56.24261187166439" y2="53.66864786411523" /><path d="M 173.72905801456457 55.72781907015455 a86.0,86.0 0 0,1 12.242430191666344,42.057860355516425" fill="none" id="id15" stroke="none" /><text fill="#e1ed5e" style="font-size:6.75px; font-family:Arial;" text-anchor="middle"><textPath startOffset="22.145653131862474" xlink:href="#id15">March</textPath></text><path d="M 118.00360718960297 89.18935116829356 l 27.70370884292741 -16.635281167969833 a53.31451783937223,53.31451783937223 0 0,0 0.46441080688460357,0.7886710799901583 l -27.98519335994178 16.157258919686118" fill="#98ff23" stroke="none" /><path d="M 118.18653347947321 89.5 l 34.37525413758963 -19.846562229799172 a60.69312445959834,60.69312445959834 0 0,0 0.5131939941252236,0.9067646143205048 l -34.71088149673623 19.25354084537955" fill="#43ff2d" stroke="none" /><path d="M 118.36410011445183 89.81374322990088 l 28.65600427675618 -15.895002518440043 a53.769157544414895,53.769157544414895 0 0,0 0.440790977073161,0.8110057504921898 l -28.924640603444683 15.400741934473249" fill="#93ff23" stroke="none" /><path d="M 118.53625476483649 90.13048839642627 l 13.67475551872854 -7.28103708005524 a36.492334861412466,36.492334861412466 0 0,0 0.28966560788865675,0.5554719969685327 l -13.797729195592142 7.045218839982209" fill="#ff820c" stroke="none" /><path d="M 118.70294669586156 90.45014215332178 l 25.858928372910025 -13.203753079367328 a50.03486304386837,50.03486304386837 0 0,0 0.38402969370712176,0.7683166387074853 l -26.081777979828882 12.757904584496092" fill="#c1ff1e" stroke="none" /><path d="M 118.8641267826498 90.77261029715802 l 29.796607925617863 -14.575014063483978 a54.170301156663456,54.170301156663456 0 0,0 0.4014296410730955,0.8388335569292961 l -30.04241682465087 14.061368004489578" fill="#8eff24" stroke="none" /><path d="M 119.0197475246899 91.09779779509293 l 27.045054235822047 -12.658450967208193 a50.86086635561283,50.86086635561283 0 0,0 0.36332952782252237,0.793940588832208 l -27.25836822849962 12.1923213961613" fill="#b7ff1f" stroke="none" /><path d="M 119.16976305983485 91.42560881287824 l 26.640206933360446 -11.915825711539792 a50.183685987895,50.183685987895 0 0,0 0.3449916158167506,0.7894083314409497 l -26.84083243119417 11.456755310322993" fill="#bfff1e" stroke="none" /><path d="M 119.31412917781788 91.75594674310238 l 34.9046712052228 -14.898728577462485 a58.95139240093316,58.95139240093316 0 0,0 0.3892873597427518,0.9341479482952881 l -35.15528440950204 14.29734811972592" fill="#56ff2a" stroke="none" /><path d="M 119.4528033332814 92.08871423366111 l 36.35447514111294 -14.785048550536708 a60.24596187415371,60.24596187415371 0 0,0 0.3813894285471592,0.9613505019532969 l -36.602923244626226 14.158797031369845" fill="#48ff2c" stroke="none" /><path d="M 119.71291397450082 92.76114493625339 l 28.33366773556363 -10.404515254690669 a51.18361583764295,51.18361583764295 0 0,0 0.2957921387901182,0.8273832563289457 l -28.50810004439769 9.916597041980806" fill="#b3ff20" stroke="none" /><path d="M 119.83427380445688 93.10060997987247 l 32.21839902209073 -11.207231626879624 a55.111981418340214,55.111981418340214 0 0,0 0.3031541571357726,0.8962213986083001 l -32.40603860079887 10.652508553797164" fill="#83ff25" stroke="none" /><path d="M 119.94978838288452 93.4421083053983 l 31.857628529019333 -10.4722352703951 a54.534701535148535,54.534701535148535 0 0,0 0.2847108334670695,0.8918526307413267 l -32.032704078263656 9.923813605962385" fill="#8aff24" stroke="none" /><path d="M 120.05942366710727 93.78553927170692 l 57.46359166572027 -17.80236758740265 a81.15803070947088,81.15803070947088 0 0,0 0.40085760030690204,1.3343245795528367 l -57.7607255860308 16.813305404259086" fill="#49efff" stroke="none" /><path d="M 120.16314734710363 94.1308016681162 l 56.38254573024551 -16.41213733404842 a79.72265078225686,79.72265078225686 0 0,0 0.3712095718714561,1.3172918146138277 l -56.65597379419155 15.441837595531581" fill="#47feff" stroke="none" /><path d="M 120.26092885502905 94.47779374421319 l 13.873779862801104 -3.781360395565117 a35.3798627991582,35.3798627991582 0 0,0 0.15467826536419632,0.5873385678286722 l -13.93664760897003 3.5426413233636462" fill="#ff710a" stroke="none" /><path d="M 120.35273937422433 94.82641323984039 l 28.469015519884106 -7.236712417935349 a50.374391079498174,50.374391079498174 0 0,0 0.2058452904174959,0.8399190297809632 l -28.589048336817896 6.746937563546291" fill="#bdff1f" stroke="none" /><path d="M 120.43855184770803 95.1765574152323 l 29.342127464273418 -6.924662187097642 a51.14815733233274,51.14815733233274 0 0,0 0.19433654316475032,0.8562826666825255 l -29.456674868995833 6.41994518647609" fill="#b3ff20" stroke="none" /><path d="M 120.51834098615036 95.52812308129327 l 28.505211577520583 -6.212578190527594 a50.17435885932427,50.17435885932427 0 0,0 0.1761891466764897,0.8431288480360931 l -28.607658435021442 5.722332891206096" fill="#bfff1e" stroke="none" /><path d="M 120.592083275326 95.88100663000786 l 29.336462374229814 -5.868114090392506 a50.917599964109165,50.917599964109165 0 0,0 0.16408489417453245,0.8585615019976596 l -29.432873560686502 5.363650023361532" fill="#b6ff1f" stroke="none" /><path d="M 120.65975698304385 96.23510406497455 l 25.740831373570355 -4.690836948472782 a47.164753984697455,47.164753984697455 0 0,0 0.13831666581340293,0.7977737721881322 l -25.817562856875995 4.248270143364057" fill="#e6ff1a" stroke="none" /><path d="M 120.7213421655516 96.59031103205396 l 32.78618196987951 -5.394953766538208 a54.22708615429792,54.22708615429792 0 0,0 0.1432589440728661,0.9198251879801349 l -32.873962406090634 4.831340396626632" fill="#8dff24" stroke="none" /><line stroke="#e1ed5e" stroke-width="0.3" x1="184.99686870605535" x2="189.99668451229388" y1="99.2704041080226" y2="99.22748670261217" /><path d="M 185.99683186730306 99.26182062694052 a86.0,86.0 0 0,1 -10.086455211305974,41.156179273409016" fill="none" id="id16" stroke="none" /><text fill="#e1ed5e" style="font-size:6.75px; font-family:Arial;" text-anchor="middle"><textPath startOffset="21.40746469413373" xlink:href="#id16">April</textPath></text><line stroke="#e1ed5e" stroke-width="0.3" x1="174.33088141563837" x2="178.70328620479359" y1="141.23008692659167" y2="143.65538615756765" /><path d="M 175.20536237346943 141.71514677278685 a86.0,86.0 0 0,1 -30.301960400862466,31.631185727798858" fill="none" id="id17" stroke="none" /><text fill="#e1ed5e" style="font-size:6.75px; font-family:Arial;" text-anchor="middle"><textPath startOffset="22.145653131862474" xlink:href="#id17">May</textPath></text><line stroke="#e1ed5e" stroke-width="0.3" x1="143.1302829299769" x2="145.66735839644613" y1="173.24464959558577" y2="177.55315839532614" /><path d="M 143.63769802327073 174.10635135553383 a86.0,86.0 0 0,1 -40.68552437913181,11.842963189579606" fill="none" id="id18" stroke="none" /><text fill="#e1ed5e" style="font-size:6.75px; font-family:Arial;" text-anchor="middle"><textPath startOffset="21.407464694133747" xlink:href="#id18">June</textPath></text><line stroke="#e1ed5e" stroke-width="0.3" x1="101.45913802915013" x2="101.54496967792366" y1="184.9874750549273" y2="189.98673829345242" /><path d="M 101.47630435890484 185.9873277026323 a86.0,86.0 0 0,1 -42.54439059252881,-10.42667462771756" fill="none" id="id19" stroke="none" /><text fill="#e1ed5e" style="font-size:6.75px; font-family:Arial;" text-anchor="middle"><textPath startOffset="22.145653131862474" xlink:href="#id19">July</textPath></text><line stroke="#e1ed5e" stroke-width="0.3" x1="58.13341422392154" x2="55.67067388415222" y1="173.97424548756322" y2="178.32567169271397" /><path d="M 57.64086615596768 174.84453072859336 a86.0,86.0 0 0,1 -31.369924170532247,-30.572349798747897" fill="none" id="id20" stroke="none" /><text fill="#e1ed5e" style="font-size:6.75px; font-family:Arial;" text-anchor="middle"><textPath startOffset="22.145653131862474" xlink:href="#id20">August</textPath></text><line stroke="#e1ed5e" stroke-width="0.3" x1="26.387840678322732" x2="22.057713659400548" y1="142.50000000000003" y2="145.00000000000006" /><path d="M 25.521815274538298 143.00000000000003 a86.0,86.0 0 0,1 -11.493303480769221,-40.785679425670985" fill="none" id="id21" stroke="none" /><text fill="#e1ed5e" style="font-size:6.75px; font-family:Arial;" text-anchor="middle"><textPath startOffset="21.40746469413373" xlink:href="#id21">September</textPath></text><line stroke="#e1ed5e" stroke-width="0.3" x1="15.003131293944662" x2="10.003315487706104" y1="100.72959589197737" y2="100.7725132973878" /><path d="M 14.003168132696942 100.73817937305945 a86.0,86.0 0 0,1 10.791469493833604,-42.45332614584628" fill="none" id="id22" stroke="none" /><text fill="#e1ed5e" style="font-size:6.75px; font-family:Arial;" text-anchor="middle"><textPath startOffset="22.145653131862435" xlink:href="#id22">October</textPath></text><line stroke="#e1ed5e" stroke-width="0.3" x1="26.387840678322718" x2="22.05771365940052" y1="57.49999999999999" y2="54.99999999999999" /><path d="M 25.521815274538284 56.99999999999999 a86.0,86.0 0 0,1 29.574782752854787,-30.34633250058573" fill="none" id="id23" stroke="none" /><text fill="#e1ed5e" style="font-size:6.75px; font-family:Arial;" text-anchor="middle"><textPath startOffset="21.40746469413373" xlink:href="#id23">November</textPath></text><line stroke="#e1ed5e" stroke-width="0.3" x1="56.869717070023135" x2="54.33264160355391" y1="26.7553504044142" y2="22.446841604673864" /><path d="M 56.362301976729285 25.89364864446614 a86.0,86.0 0 0,1 42.16139366436587,-11.88097634709845" fill="none" id="id24" stroke="none" /><text fill="#e1ed5e" style="font-size:6.75px; font-family:Arial;" text-anchor="middle"><textPath startOffset="22.145653131862474" xlink:href="#id24">December</textPath></text></svg>