<?xml version="1.0" encoding="utf-8" ?>
<svg baseProfile="full" height="200mm" version="1.1" viewBox="0,0,200,200" width="200mm" xmlns="http://www.w3.org/2000/svg" xmlns:ev="http://www.w3.org/2001/xml-events" xmlns:xlink="http://www.w3.org/1999/xlink"><defs /><rect fill="#1a1a1a" height="200" width="200" x="0" y="0" /><text alignment-baseline="middle" fill="#e1ed5e" style="dominant-baseline: central; font-size:9.0px; font-family:Arial;" text-anchor="middle" x="100.0" y="100.0">2024</text><line stroke="#e1ed5e" stroke-width="0.3" x1="100.0" x2="100.0" y1="15.0" y2="10.0" /><path d="M 100.0 14.0 a86.0,86.0 0 0,1 42.35913384403234,11.155469271406648" fill="none" id="id13" stroke="none" /><text fill="#e1ed5e" style="font-size:6.75px; font-family:Arial;" text-anchor="middle"><textPath startOffset="22.145653131862478" xlink:href="#id13">January</textPath></text><path d="M 100.0 79.0 l 0.0 -17.04987091125429 a38.04987091125429,38.04987091125429 0 0,0 0.6531766311866389,0.005606735802203176 l -0.2926837063377842 17.04735857364652" fill="#ffd513" stroke="none" /><path d="M 100.36049292484886 79.00309439819443 l 0.29600206586706534 -17.24063638018983 a38.24317720192316,38.24317720192316 0 0,0 0.6563015186288793,0.016903999058122003 l -0.5919168985666861 17.233014663781663" fill="#ffd814" stroke="none" /><path d="M 100.72087961077811 79.0123766808444 l 1.2530838681543495 -36.48216958688383 a57.50368360791524,57.50368360791524 0 0,0 0.9862545479110015,0.04235401387943319 l -1.8791641766661873 36.45528300457856" fill="#4bff2c" stroke="none" /><path d="M 101.08105385017728 79.02784411241856 l 0.779104189961394 -15.114413145893499 a36.13448010615408,36.13448010615408 0 0,0 0.6191998451884155,0.03724952507767898 l -1.0384483872822718 15.098811642991128" fill="#ffbd11" stroke="none" /><path d="M 101.44090949804482 79.04949213459386 l 1.1734130792160384 -17.061168643029827 a38.10147285237092,38.10147285237092 0 0,0 0.6521357470415158,0.05047943121572864 l -1.4661178210327876 17.038511444819044" fill="#ffd614" stroke="none" /><path d="M 101.80034050326958 79.07731436759882 l 1.3051204521499096 -15.167477976059835 a36.223525463862835,36.223525463862835 0 0,0 0.6190780526054511,0.05862733523476067 l -1.5652980681403736 15.142838885319891" fill="#ffbe11" stroke="none" /><path d="M 102.15924093988457 79.11130261209362 l 1.752426482888064 -16.95313654879051 a38.04346905473953,38.04346905473953 0 0,0 0.6490290067082977,0.07272505394662414 l -2.0431913911971584 16.920555734336915" fill="#ffd513" stroke="none" /><path d="M 102.51750503828377 79.15144685158666 l 1.8214233744656658 -15.083998423374513 a36.19357073058913,36.19357073058913 0 0,0 0.616190678149996,0.0797782198536667 l -2.0800918745064534 15.05050860732045" fill="#ffbd11" stroke="none" /><path d="M 102.87502721639298 79.19773525538626 l 2.5058910565525254 -18.131379376980547 a39.30372661780397,39.30372661780397 0 0,0 0.6675548828871318,0.09810757926949669 l -2.8167710450473393 18.08569072441217" fill="#ffe515" stroke="none" /><path d="M 103.23170211078529 79.25015418208739 l 2.639449130305538 -16.947156829611036 a38.15146688533965,38.15146688533965 0 0,0 0.6462540506019578,0.10634085809804428 l -2.929980683960566 16.899349973017323" fill="#ffd614" stroke="none" /><path d="M 103.58742460773223 79.30868818359171 l 3.2059537697620444 -18.491089394926593 a39.76695304478109,39.76695304478109 0 0,0 0.6716169998804773,0.12239099011761088 l -3.5229055031935754 18.43333023087762" fill="#ffeb16" stroke="none" /><path d="M 104.29559338865022 79.4440306129975 l 6.576486850206231 -31.470870293275762 a53.15067427453307,53.15067427453307 0 0,0 0.8915078600726231,0.19429998872693185 l -7.1157571268979884 31.35333884641511" fill="#78ff26" stroke="none" /><path d="M 104.64783097203109 79.52079915486377 l 3.630405347344312 -15.996235815140038 a37.40303030661088,37.40303030661088 0 0,0 0.6249295565372557,0.14748167374782892 l -3.904467057621453 15.93155799774598" fill="#ffcd13" stroke="none" /><path d="M 104.9986988182912 79.60360301121754 l 4.364260146603741 -17.807670705570064 a39.33466396161249,39.33466396161249 0 0,0 0.654443970521202,0.16635709812325072 l -4.669309410350338 17.730128375611546" fill="#ffe515" stroke="none" /><path d="M 105.3480935250658 79.69241777938227 l 4.62372356359183 -17.55703149037458 a39.15566507585219,39.15566507585219 0 0,0 0.6485270748644422,0.17675893812610774 l -4.9244320393909655 17.47507205810433" fill="#ffe315" stroke="none" /><path d="M 105.69591212413111 79.78721728523813 l 5.25778056897056 -18.658008390308638 a40.38467264630156,40.38467264630156 0 0,0 0.6656547661792276,0.19376240107826584 l -5.577295347531392 18.565002294927858" fill="#fff216" stroke="none" /><path d="M 106.04205211174951 79.88797359093562 l 5.58730169295495 -18.59831016445541 a40.41945110401895,40.41945110401895 0 0,0 0.662800790564574,0.2053373791790068 l -5.905743116391155 18.499656197469758" fill="#fff316" stroke="none" /><path d="M 106.38641147887787 79.99465700312896 l 5.576196414984851 -17.46735584899943 a39.335825228608186,39.335825228608186 0 0,0 0.6415059874600285,0.21087576000608688 l -5.875225140092622 17.36905916759132" fill="#ffe515" stroke="none" /><path d="M 106.72888874123014 80.10723608172694 l 10.171943367663548 -30.071543130609452 a52.74533254088007,52.74533254088007 0 0,0 0.8552133943683682,0.29748761242060795 l -10.686662534076934 29.892497085620256" fill="#7dff26" stroke="none" /><path d="M 107.06938296918511 80.22567764915836 l 6.76123155622399 -18.912368004992558 a41.08461888394065,41.08461888394065 0 0,0 0.6620705109753011,0.24312146226226364 l -7.084891218853415 18.793515693721574" fill="#fffb17" stroke="none" /><path d="M 107.40779381753099 80.34994680014964 l 6.309155070109848 -16.73578339618056 a38.885521618967836,38.885521618967836 0 0,0 0.6225900455097448,0.24083120436065186 l -6.595517378113119 16.625012303681874" fill="#ffe015" stroke="none" /><path d="M 107.74402155503746 80.48000691201159 l 6.895916791150146 -17.382215059955733 a39.700135528413114,39.700135528413114 0 0,0 0.6313182452308802,0.2567516342994114 l -7.193289497571466 17.26127616907703" fill="#ffea16" stroke="none" /><path d="M 108.07796709384702 80.6158196554323 l 7.301608250199398 -17.52120174332674 a39.981727886832005,39.981727886832005 0 0,0 0.6312637429216084,0.2694489545907797 l -7.601307068291437 17.393278139076557" fill="#ffed16" stroke="none" /><path d="M 108.4095320186766 80.7573450057729 l 7.067299097249254 -16.171363396602096 a38.64822117480802,38.64822117480802 0 0,0 0.6056481710524045,0.2708987233780072 l -7.34386067115729 16.047660922314236" fill="#ffdd14" stroke="none" /><path d="M 108.73861861582097 80.90454125486305 l 7.8357907204678785 -17.12261685929685 a39.83039097643082,39.83039097643082 0 0,0 0.619289151653106,0.28985859271605585 l -8.12856858599249 16.98558203501026" fill="#ffec16" stroke="none" /><path d="M 109.06512990194946 81.05736502329252 l 9.749558633116107 -20.37282778831549 a43.585526463488264,43.585526463488264 0 0,0 0.672129810748458,0.3287723712914049 l -10.097848693126632 20.202461666926865" fill="#e5ff1a" stroke="none" /><path d="M 109.3889696526874 81.21577127319529 l 14.949881547843518 -29.909777624315844 a54.43790896318992,54.43790896318992 0 0,0 0.8323109845197455,0.4249839191463404 l -15.461119754076842 29.648735753496666" fill="#6bff28" stroke="none" /><path d="M 109.71004243097381 81.37971332152246 l 7.140727091755344 -13.693285738600116 a36.44331757485671,36.44331757485671 0 0,0 0.5522224401029352,0.2940273453021763 l -7.374738347644838 13.568687925575366" fill="#ffc111" stroke="none" /><path d="M 110.02825361518725 81.54914285379988 l 8.179392666945958 -15.049161242984644 a38.12833087365609,38.12833087365609 0 0,0 0.5723894239917751,0.3174947647274575 l -8.436526279093833 14.90653356282404" fill="#ffd614" stroke="none" /><path d="M 110.34350942703115 81.72400993836675 l 8.414387727019227 -14.8674168625833 a38.08338388570713,38.08338388570713 0 0,0 0.5661866332610349,0.32688800512482646 l -8.668366828140659 14.7207819601823" fill="#ffd614" stroke="none" /><line stroke="#e1ed5e" stroke-width="0.3" x1="143.13028292997686" x2="145.6673583964461" y1="26.7553504044142" y2="22.446841604673864" /><path d="M 143.63769802327073 25.89364864446614 a86.0,86.0 0 0,1 29.32050498858742,28.57503671076993" fill="none" id="id14" stroke="none" /><text fill="#e1ed5e" style="font-size:6.75px; font-family:Arial;" text-anchor="middle"><textPath startOffset="20.669276256404974" xlink:href="#id14">February</textPath></text><path d="M 110.65571695917076 81.90426304109057 l 10.8254772638326 -18.38402706937274 a42.334559036389436,42.334559036389436 0 0,0 0.6230583554158784,0.3741286405066375 l -11.139468375805913 18.19548442833018" fill="#f4ff19" stroke="none" /><path d="M 110.96478420261332 82.08984904055464 l 13.386018522775842 -21.865055258607516 a46.63720213584271,46.63720213584271 0 0,0 0.6792061593345587,0.42387487729511425 l -13.759388810900113 21.632044584470854" fill="#c1ff1e" stroke="none" /><path d="M 111.27062007382361 82.28071324371311 l 10.107885133022979 -15.89127430420794 a39.833532352534576,39.833532352534576 0 0,0 0.5738198025998591,0.3719430633510537 l -10.379190567879846 15.715417399152992" fill="#ffec16" stroke="none" /><path d="M 111.5731344415666 82.4767994020092 l 10.29705209100095 -15.59104927620155 a39.68448820004797,39.68448820004797 0 0,0 0.5652275107431006,0.38031029453028936 l -10.563175889841052 15.411989307614142" fill="#ffea16" stroke="none" /><path d="M 111.8722381534696 82.67804972795209 l 11.834148996529233 -17.266377053763673 a41.932626663531515,41.932626663531515 0 0,0 0.5902614419865696,0.41204832852037626 l -12.128805529689565 17.06068390943817" fill="#f9ff18" stroke="none" /><path d="M 112.16784306229584 82.88440491214696 l 9.666309576480609 -13.596874964432855 a37.68270210807535,37.68270210807535 0 0,0 0.5240030759989959,0.3793378170583495 l -9.898293662853572 13.42893637600143" fill="#ffd113" stroke="none" /><path d="M 112.45986205192187 83.09580414077388 l 10.208913860151116 -13.850352329971741 a38.20622509059844,38.20622509059844 0 0,0 0.5246024195179307,0.3936714356987472 l -10.445169268579813 13.673061867008979" fill="#ffd714" stroke="none" /><path d="M 112.7482090630111 83.31218511350987 l 11.878317551786274 -15.549098974404172 a40.56703622874171,40.56703622874171 0 0,0 0.5497607183963046,0.42749725982294384 l -12.143488214817804 15.342900662960439" fill="#fff517" stroke="none" /><path d="M 113.03279911837588 83.53348406188908 l 12.144125751206062 -15.34370616936033 a40.568063503391755,40.568063503391755 0 0,0 0.5423548846074355,0.43688270375187666 l -12.405731406168757 15.132975171815046" fill="#fff517" stroke="none" /><path d="M 113.31354834802062 83.75963576809568 l 9.884240362115321 -12.057166086778695 a36.590813371349036,36.590813371349036 0 0,0 0.4823464892896008,0.4023905966127469 l -10.089761185566815 11.885713306254079" fill="#ffc312" stroke="none" /><path d="M 113.59037401385872 83.9905735841838 l 21.66236088777518 -25.51820665656749 a54.4729256295218,54.4729256295218 0 0,0 0.7076824718611981,0.6112792641147499 l -22.09722283939924 25.14258325998802" fill="#6aff28" stroke="none" /><path d="M 113.86319453409587 84.22622945171908 l 11.840650283094195 -13.472486463968261 a38.93624516581848,38.93624516581848 0 0,0 0.49826337143974764,0.4455501791858355 l -12.07017868135732 13.267240754899039" fill="#ffe015" stroke="none" /><path d="M 114.13192950727249 84.46653392183569 l 4.666528879172342 -5.129332693748198 a27.934446312670076,27.934446312670076 0 0,0 0.35193442138861386,0.32574524636146746 l -4.75389307187492 5.048469701254356" fill="#ff4e07" stroke="none" /><path d="M 114.39649973595853 84.71141617570332 l 16.345348252708078 -17.358193413825006 a44.8427617547562,44.8427617547562 0 0,0 0.5558954616452255,0.5325352773920501 l -16.640916200218616 17.075046006127373" fill="#d6ff1c" stroke="none" /><path d="M 114.91283532996326 85.21462403516908 l 23.281285921133254 -23.082301767059633 a53.78430918910999,53.78430918910999 0 0,0 0.6444210515697977,0.6612327693066964 l -23.674093773853865 22.679246305685194" fill="#72ff27" stroke="none" /><path d="M 115.16444852881244 85.47280134310134 l 13.027510128668407 -12.480060009062933 a39.04072941935469,39.04072941935469 0 0,0 0.4594613582226039,0.4879320402907544 l -13.23982732062727 12.254586508827686" fill="#ffe215" stroke="none" /><path d="M 115.41159269507618 85.73525988315684 l 11.1886524685543 -10.356049688011419 a36.24577676612929,36.24577676612929 0 0,0 0.418728989439763,0.4602565099167356 l -11.36477915883594 10.162455602537012" fill="#ffbe11" stroke="none" /><path d="M 115.6541949942343 86.00192230759917 l 13.4823693550908 -12.056017813737238 a39.08651013745441,39.08651013745441 0 0,0 0.44295985529450255,0.5040070023060427 l -13.687340274343892 11.822798533619899" fill="#ffe215" stroke="none" /><path d="M 115.8921839302757 86.27271002978787 l 12.032975188399472 -10.393797374874817 a36.90042501804879,36.90042501804879 0 0,0 0.4099557031242358,0.4829267874613999 l -12.209625455030821 10.185703804963865" fill="#ffc712" stroke="none" /><path d="M 116.1254893667686 86.54754324733833 l 12.175328754314444 -10.157092277421834 a36.85576090282956,36.85576090282956 0 0,0 0.401119113510587,0.48930009742736613 l -12.34789468706366 9.946589898295972" fill="#ffc612" stroke="none" /><path d="M 116.35404254752997 86.82634096563983 l 15.849363415226309 -12.767125249737644 a41.3519485015662,41.3519485015662 0 0,0 0.4405628113419918,0.556636720079051 l -16.06619265720986 12.493168585743915" fill="#fffe18" stroke="none" /><path d="M 116.57777611688842 87.10902102172516 l 15.288104998221927 -11.888122915893767 a40.366301167235235,40.366301167235235 0 0,0 0.42067072342714146,0.5506714806777653 l -15.489927699003376 11.62393052197512" fill="#fff216" stroke="none" /><path d="M 116.7966241395341 87.39550010848427 l 11.914634447357724 -8.94096381222802 a35.89628637968988,35.89628637968988 0 0,0 0.3656258648122042,0.49604170609826764 l -12.066362331753755 8.735115796860878" fill="#ffba11" stroke="none" /><path d="M 117.01052211995028 87.68569379921539 l 18.254655118103905 -13.214962546646888 a43.5359195195181,43.5359195195181 0 0,0 0.43304744091629055,0.6091354576655547 l -18.478817657550156 12.89964986227183" fill="#e5ff1a" stroke="none" /><path d="M 117.21940702142032 87.97951657250589 l 28.282294016322094 -19.743237737037585 a55.49179019950796,55.49179019950796 0 0,0 0.5385617316738327,0.7857776616244743 l -28.61704548481125 19.25482534034306" fill="#60ff29" stroke="none" /><path d="M 117.42321728460499 88.27688183743584 l 30.185930143705363 -20.310440955944724 a57.3827485281909,57.3827485281909 0 0,0 0.5428833219099669,0.8219945425471232 l -30.530137904536055 19.789266535058545" fill="#4cff2c" stroke="none" /><path d="M 117.62189284568427 88.57770195909679 l 18.30215129260859 -11.86323334755017 a42.810663616588116,42.810663616588116 0 0,0 0.3944336199792855,0.6201151642903531 l -18.503102604213762 11.547304508581144" fill="#eeff19" stroke="none" /><path d="M 117.81537515405839 88.88188828441811 l 3.5031359072756176 -2.186215896951468 a25.129346332402633,25.129346332402633 0 0,0 0.22524514343111035,0.36792101396501703 l -3.5401490151621307 2.1257577668618963" fill="#ff2603" stroke="none" /><line stroke="#e1ed5e" stroke-width="0.3" x1="172.87174338648825" x2="177.1583165268699" y1="56.24261187166439" y2="53.66864786411523" /><path d="M 173.72905801456457 55.72781907015455 a86.0,86.0 0 0,1 12.242430191666344,42.057860355516425" fill="none" id="id15" stroke="none" /><text fill="#e1ed5e" style="font-size:6.75px; font-family:Arial;" text-anchor="middle"><textPath startOffset="22.145653131862474" xlink:href="#id15">March</textPath></text><path d="M 118.00360718960297 89.18935116829356 l 16.05218130742898 -9.638873658480659 a39.7237926214409,39.7237926214409 0 0,0 0.34602504780069965,0.5876261794666503 l -16.215280065359448 9.361896310720452" fill="#ffea16" stroke="none" /><path d="M 118.18653347947321 89.5 l 19.917831761591287 -11.499565529228411 a43.99913105845682,43.99913105845682 0 0,0 0.3720370306682686,0.6573537852910691 l -20.112302157280933 11.155954973838224" fill="#e0ff1b" stroke="none" /><path d="M 118.36410011445183 89.81374322990088 l 16.603963707710694 -9.209938775875418 a39.98722157300397,39.98722157300397 0 0,0 0.3278088642740182,0.603131388382337 l -16.759617921600054 8.923552554018478" fill="#ffee16" stroke="none" /><path d="M 118.53625476483649 90.13048839642627 l 7.923475378908879 -4.21880434774342 a29.9766236528393,29.9766236528393 0 0,0 0.23794577534776826,0.45629239855584014 l -7.994729223231592 4.082165706083082" fill="#ff6b09" stroke="none" /><path d="M 118.70294669586156 90.45014215332178 l 14.98327205975318 -7.650565473750185 a37.823483399246385,37.823483399246385 0 0,0 0.2903043969964266,0.5808032611988657 l -15.112396369961344 7.392230356387569" fill="#ffd213" stroke="none" /><path d="M 118.8641267826498 90.77261029715802 l 17.264856322315147 -8.445106380227529 a40.21965362860489,40.21965362860489 0 0,0 0.2980482067751815,0.6228061205378193 l -17.407283787050243 8.147487757624605" fill="#fff016" stroke="none" /><path d="M 119.0197475246899 91.09779779509293 l 15.670541317196125 -7.334604588464707 a38.30208916989733,38.30208916989733 0 0,0 0.27361468590436605,0.5978974682899031 l -15.794140467955543 7.064518137960119" fill="#ffd814" stroke="none" /><path d="M 119.16976305983485 91.42560881287824 l 15.435963256266342 -6.904310027001747 a37.90971491769632,37.90971491769632 0 0,0 0.26061325602434127,0.5963341314904481 l -15.552210394307654 6.638313825735449" fill="#ffd313" stroke="none" /><path d="M 119.31412917781788 91.75594674310238 l 20.224588477996235 -8.632674192887233 a42.98993048703973,42.98993048703973 0 0,0 0.2838853477964537,0.6812214898793388 l -20.369799670329172 8.284220193566616" fill="#ecff1a" stroke="none" /><path d="M 119.4528033332814 92.08871423366111 l 21.064639020365185 -8.566805308197743 a43.74003452607002,43.74003452607002 0 0,0 0.27689800699634354,0.6979638607966474 l -21.208595702327653 8.203940430187531" fill="#e3ff1b" stroke="none" /><path d="M 119.71291397450082 92.76114493625339 l 16.417194324933508 -6.0286211579516795 a38.48909782032028,38.48909782032028 0 0,0 0.22243001745886212,0.6221763462111516 l -16.518264512436314 5.745909855359612" fill="#ffdb14" stroke="none" /><path d="M 119.83427380445688 93.10060997987247 l 18.668099115174066 -6.493733927432303 a40.76528534816151,40.76528534816151 0 0,0 0.22423736911786304,0.6629179374276262 l -18.776821905864296 6.172314315530516" fill="#fff717" stroke="none" /><path d="M 119.94978838288452 93.4421083053983 l 18.45906019558438 -6.067859729811959 a40.43079578928463,40.43079578928463 0 0,0 0.21107818036713782,0.6611993936447724 l -18.560503091728776 5.750091302475799" fill="#fff316" stroke="none" /><path d="M 120.05942366710727 93.78553927170692 l 33.29575824031569 -10.315111014005584 a55.85697967450435,55.85697967450435 0 0,0 0.2758900707296277,0.918348317076363 l -33.467924631048945 9.742025093338498" fill="#5cff2a" stroke="none" /><path d="M 120.16314734710363 94.1308016681162 l 32.669374767391986 -9.50957886621837 a55.02528674243812,55.02528674243812 0 0,0 0.25621216722400514,0.9092065945043147 l -32.827805426690574 8.947364347811043" fill="#65ff29" stroke="none" /><path d="M 120.26092885502905 94.47779374421319 l 8.038794770754878 -2.1910092617017503 a29.33203114199526,29.33203114199526 0 0,0 0.12823757181897166,0.4869389477354168 l -8.075221823378579 2.052689809593535" fill="#ff6209" stroke="none" /><path d="M 120.35273937422433 94.82641323984039 l 16.4956180185187 -4.193121594694973 a38.02021393874872,38.02021393874872 0 0,0 0.15536231430780048,0.6339312598955708 l -16.565167859342793 3.9093345101913073" fill="#ffd513" stroke="none" /><path d="M 120.43855184770803 95.1765574152323 l 17.001519640300906 -4.0123123423731215 a38.46855232731943,38.46855232731943 0 0,0 0.146160602253364,0.6440105819693084 l -17.067891104111936 3.719867426464787" fill="#ffda14" stroke="none" /><path d="M 120.51834098615036 95.52812308129327 l 16.516590866706252 -3.599714105657998 a37.9043105597548,37.9043105597548 0 0,0 0.13310241096668787,0.6369432200907805 l -16.575950988497308 3.315654434281813" fill="#ffd313" stroke="none" /><path d="M 120.592083275326 95.88100663000786 l 16.998237153720552 -3.4001234941402756 a38.334961958698685,38.334961958698685 0 0,0 0.12353661956988611,0.6463957951962224 l -17.054100065572598 3.1078251339107386" fill="#ffd914" stroke="none" /><path d="M 120.65975698304385 96.23510406497455 l 14.914843877230329 -2.7179813940217312 a36.16047462121168,36.16047462121168 0 0,0 0.1060452109102262,0.6116405961120228 l -14.959303905632789 2.4615477649891155" fill="#ffbd11" stroke="none" /><path d="M 120.7213421655516 96.59031103205396 l 18.997085926032014 -3.125963259889546 a40.25255619348306,40.25255619348306 0 0,0 0.10634055977309866,0.6827826773136869 l -19.047947977943377 2.7993924006444177" fill="#fff116" stroke="none" /><path d="M 120.77682067341334 96.94652285012252 l 17.90339720314889 -2.6311828515202023 a39.095710945189566,39.095710945189566 0 0,0 0.09188512925321426,0.6648350227503369 l -17.945926848957317 2.32345952056978" fill="#ffe215" stroke="none" /><path d="M 120.82617615685814 97.30363454192243 l 24.053152308305904 -3.1141621271957547 a45.253909823387694,45.253909823387694 0 0,0 0.09313236053143471,0.7712695461775301 l -24.103066755097004 2.7007989040948117" fill="#d1ff1c" stroke="none" /><path d="M 120.86939407059847 97.66154086499901 l 31.73751626309138 -3.556254895403392 a52.93613764109665,52.93613764109665 0 0,0 0.0934388558865083,0.9039361698050262 l -31.793887511459552 3.0109142033154344" fill="#7bff26" stroke="none" /><path d="M 120.9064616781168 98.02013634271609 l 32.203485854733835 -3.049703592281301 a53.347568582457875,53.347568582457875 0 0,0 0.07851333727464725,0.91244399088106 l -32.251092814706226 2.4964385540245786" fill="#76ff27" stroke="none" /><path d="M 120.93736805541906 98.37931529534042 l 21.230985055938888 -1.6434125174635053 a42.294495325037786,42.294495325037786 0 0,0 0.0498189656601936,0.7243568269392197 l -21.25606798276415 1.2787122663699515" fill="#f4ff19" stroke="none" /><path d="M 120.96210409425399 98.7389718711861 l 31.48137164503627 -1.8938411430233013 a52.53828459076209,52.53828459076209 0 0,0 0.04642985974679927,0.9007268752511915 l -31.50924309423964 1.353142474395379" fill="#7fff26" stroke="none" /><path d="M 120.98066250479742 99.09900007780936 l 34.25120665219207 -1.470894187516917 a55.28277536667703,55.28277536667703 0 0,0 0.03257817375455057,0.9484779829582247 l -34.271409512943464 0.8827099399945723" fill="#62ff29" stroke="none" /><path d="M 120.99303781780057 99.45929381324524 l 45.85405011524468 -1.1810376754550762 a66.86925726412207,66.86925726412207 0 0,0 0.01970595107263895,1.1477728575100339 l -45.867567497915985 0.393717901975976" fill="#38ff7d" stroke="none" /><line stroke="#e1ed5e" stroke-width="0.3" x1="184.99686870605535" x2="189.99668451229388" y1="99.2704041080226" y2="99.22748670261217" /><path d="M 185.99683186730306 99.26182062694052 a86.0,86.0 0 0,1 -10.086455211305974,41.156179273409016" fill="none" id="id16" stroke="none" /><text fill="#e1ed5e" style="font-size:6.75px; font-family:Arial;" text-anchor="middle"><textPath startOffset="21.40746469413373" xlink:href="#id16">April</textPath></text><path d="M 120.99922638620191 99.81974689727618 l 16.388268036498488 -0.14067357089828883 a37.38887178208638,37.38887178208638 0 0,0 0.0,0.6418533472442294 l -16.388268036498488 -0.14067357089828683" fill="#ffcd13" stroke="none" /><path d="M 120.99922638620191 100.18025310272382 l 18.299330458865697 0.1570777433566087 a39.300004608202364,39.300004608202364 0 0,0 -0.011581465080500428,0.674562279212203 l -18.293937562186525 -0.47118693853788274" fill="#ffe515" stroke="none" /><path d="M 120.99303781780057 100.54070618675476 l 20.221343990169387 0.5208300911414349 a41.228050245948026,41.228050245948026 0 0,0 -0.024295715538255963,0.7073432489452928 l -20.209423587634287 -0.8678796046508385" fill="#fffd17" stroke="none" /><path d="M 120.98066250479742 100.90099992219065 l 62.94198751439227 2.702999766571932 a84.0,84.0 0 0,0 -0.07423364217370931,1.4401128264930774 l -62.886312282761985 -3.7830843864417396" fill="#4dd2ff" stroke="none" /><path d="M 120.96210409425399 101.26102812881392 l 19.530715642351723 1.1749193539985574 a40.56602384213008,40.56602384213008 0 0,0 -0.04778298767322785,0.6947541538444651 l -19.50766869351343 -1.510016931997366" fill="#fff517" stroke="none" /><path d="M 120.93736805541906 101.62068470465957 l 22.869915352106617 1.7702760877064987 a43.938328309605026,43.938328309605026 0 0,0 -0.0646654548936757,0.7515106067765923 l -22.8361562745152 -2.162607741858748" fill="#e0ff1b" stroke="none" /><path d="M 120.9064616781168 101.97986365728391 l 1.4925179652988234 0.1413430030788763 a22.49919569144895,22.49919569144895 0 0,0 -0.039713874065181884,0.38419570605833087 l -1.4898716987519756 -0.16694323142013853" fill="#ff0000" stroke="none" /><path d="M 120.86939407059847 102.33845913500097 l 29.04345810890113 3.254380059958805 a50.22521939178819,50.22521939178819 0 0,0 -0.10336329520303666,0.8559963618204774 l -28.98331272743843 -3.7524700987026907" fill="#98ff23" stroke="none" /><path d="M 120.82617615685814 102.69636545807757 l 22.223202344251533 2.877238467474303 a43.40868634329689,43.40868634329689 0 0,0 -0.10202174762746012,0.7381785437555531 l -22.17053608006886 -3.2583053194299416" fill="#e7ff1a" stroke="none" /><path d="M 120.77682067341334 103.0534771498775 l 22.394105204296125 3.291162281665729 a43.63465699022943,43.63465699022943 0 0,0 -0.11527550766078301,0.7401514522517697 l -22.334308204497074 -3.6751019158489493" fill="#e4ff1a" stroke="none" /><path d="M 120.7213421655516 103.40968896794604 l 27.434550009661947 4.5143447640192 a48.80348616416779,48.80348616416779 0 0,0 -0.14312245725883288,0.8254923001560042 l -27.35301273491088 -4.984630097095792" fill="#a8ff21" stroke="none" /><path d="M 120.65975698304385 103.76489593502545 l 25.822273400384052 4.7056783987348885 a47.24753727031361,47.24753727031361 0 0,0 -0.1522579060770948,0.7966777026624248 l -25.737689202024796 -5.148258666430628" fill="#baff1f" stroke="none" /><path d="M 120.592083275326 104.11899336999214 l 61.6456923629485 12.330864960895498 a83.86685627253145,83.86685627253145 0 0,0 -0.2945016175000227,1.4092968505232117 l -61.42493303462411 -13.387278262704118" fill="#4dd3ff" stroke="none" /><path d="M 120.51834098615036 104.47187691870673 l 13.94282361942004 3.0387735132859586 a35.27012526039297,35.27012526039297 0 0,0 -0.13400823368000117,0.5904650037725885 l -13.888604524182373 -3.2776728509975643" fill="#ffb110" stroke="none" /><path d="M 120.43855184770803 104.8234425847677 l 32.412892478645105 7.649354369229728 a54.30327643188073,54.30327643188073 0 0,0 -0.22189992708995337,0.9054274260628238 l -32.27680502503886 -8.204637619900652" fill="#6cff28" stroke="none" /><path d="M 120.35273937422433 105.17358676015961 l 18.21170690666954 4.6293446793495185 a39.7908781225002,39.7908781225002 0 0,0 -0.1739629133172592,0.6605655172204419 l -18.129554512547553 -4.941290700942764" fill="#ffeb16" stroke="none" /><path d="M 120.26092885502905 105.52220625578681 l 23.57103800001282 6.424391222653678 a45.43085415984791,45.43085415984791 0 0,0 -0.211537972670942,0.750673638275489 l -23.4572815352673 -6.828072784832175" fill="#cfff1d" stroke="none" /><path d="M 120.16314734710363 105.8691983318838 l 26.094862703744457 7.595834222456048 a48.177905678368745,48.177905678368745 0 0,0 -0.2379614129275444,0.7920961508806517 l -25.960624970813285 -8.042667976927424" fill="#afff20" stroke="none" /><path d="M 120.05942366710727 106.21446072829308 l 23.646335896766537 7.325695305964575 a45.75510074830117,45.75510074830117 0 0,0 -0.23887492738953992,0.7482723077874843 l -23.51709625359974 -7.730536647443443" fill="#cbff1d" stroke="none" /><path d="M 119.94978838288452 106.5578916946017 l 29.860633795896085 9.815783436261976 a52.432579518076565,52.432579518076565 0 0,0 -0.2884155866144793,0.852649433734456 l -29.68773278770924 -10.326934544470593" fill="#80ff25" stroke="none" /><path d="M 119.83427380445688 106.89939002012753 l 30.178552653417647 10.497667172069388 a52.9522464986524,52.9522464986524 0 0,0 -0.30601312527941227,0.8559731746377731 l -29.99389935809429 -11.014175303088082" fill="#7bff26" stroke="none" /><path d="M 119.71291397450082 107.23885506374661 l 16.00249773037235 5.8763388242824615 a38.0473250566868,38.0473250566868 0 0,0 -0.23040249095945523,0.6111699807325728 l -15.899264555598457 -6.150177085209193" fill="#ffd513" stroke="none" /><path d="M 119.58574465831526 107.57618678355244 l 20.12082765504436 7.783168381579228 a42.57372048535005,42.57372048535005 0 0,0 -0.26951461014020417,0.6793528775273737 l -19.98425436993803 -8.127422276320166" fill="#f1ff19" stroke="none" /><path d="M 119.4528033332814 107.91128576633889 l 29.80603330943447 12.121854266038838 a53.17668367762907,53.17668367762907 0 0,0 -0.3511538904450317,0.8426415039828375 l -29.59355357445295 -12.631728279462953" fill="#78ff26" stroke="none" /><path d="M 119.31412917781788 108.2440532568976 l 20.77846358052359 8.869090538706713 a43.592151640579125,43.592151640579125 0 0,0 -0.29967760508943664,0.6857210069984011 l -20.623152093417186 -9.224473615480958" fill="#e5ff1a" stroke="none" /><path d="M 119.16976305983485 108.57439118712176 l 24.730182835032224 11.061496226883309 a48.09130195895864,48.09130195895864 0 0,0 -0.34354487615191764,0.7507075543708075 l -24.53665349402525 -11.484392763468806" fill="#b0ff20" stroke="none" /><path d="M 119.0197475246899 108.90220220490707 l 42.27622669857575 19.787408746759812 a67.67784151801276,67.67784151801276 0 0,0 -0.501527424604982,1.0479994261370011 l -41.93032001601085 -20.510220674961918" fill="#39ff86" stroke="none" /><path d="M 118.8641267826498 109.22738970284198 l 13.739936677329004 6.720891545888839 a36.29562823386509,36.29562823386509 0 0,0 -0.27857773851281303,0.5573420888545342 l -13.622539025604459 -6.955765490907119" fill="#ffbf11" stroke="none" /><path d="M 118.70294669586154 109.54985784667822 l 21.310217247873485 10.881148768073714 a44.927489581327094,44.927489581327094 0 0,0 -0.35662142830567917,0.6838686110740243 l -21.120287750592855 -11.245363622252242" fill="#d5ff1c" stroke="none" /><path d="M 118.5362547648365 109.86951160357373 l 17.273129542794543 9.19696856864745 a40.56898656177296,40.56898656177296 0 0,0 -0.33257808085723983,0.611906209727398 l -17.112706112321963 -9.492129611849451" fill="#fff517" stroke="none" /><line stroke="#e1ed5e" stroke-width="0.3" x1="174.33088141563837" x2="178.70328620479359" y1="141.23008692659167" y2="143.65538615756765" /><path d="M 175.20536237346943 141.71514677278685 a86.0,86.0 0 0,1 -30.301960400862466,31.631185727798858" fill="none" id="id17" stroke="none" /><text fill="#e1ed5e" style="font-size:6.75px; font-family:Arial;" text-anchor="middle"><textPath startOffset="22.145653131862474" xlink:href="#id17">May</textPath></text><path d="M 118.36410011445183 110.18625677009912 l 28.740638956790665 15.94194794876951 a53.865940303692355,53.865940303692355 0 0,0 -0.45546636950885555,0.8047654329775372 l -28.46273922226043 -16.43297015184617" fill="#71ff27" stroke="none" /><path d="M 118.18653347947321 110.5 l 54.45070261755514 31.437127813809703 a83.87425562761943,83.87425562761943 0 0,0 -0.7306098284565747,1.2407352152841982 l -53.903019078968796 -32.36721419738745" fill="#4dd3ff" stroke="none" /><path d="M 118.00360718960297 110.81064883170644 l 27.158913820642017 16.30814741031985 a52.67905099389472,52.67905099389472 0 0,0 -0.4721849999589686,0.77127871135259 l -26.874960856227645 -16.771963237797" fill="#7dff26" stroke="none" /><path d="M 117.81537515405839 111.11811171558189 l 12.700029650113912 7.925757791802834 a35.97025015449294,35.97025015449294 0 0,0 -0.3314098586993087,0.5210313435897209 l -12.562102099788714 -8.142602810071226" fill="#ffbb11" stroke="none" /><path d="M 117.62189284568427 111.42229804090321 l 26.674612278849573 17.290161405627657 a52.78812076326011,52.78812076326011 0 0,0 -0.49941473861719715,0.7561775671550592 l -26.37387310131165 -17.74551885112178" fill="#7cff26" stroke="none" /><path d="M 117.423217284605 111.72311816256416 l 6.635845802447768 4.464893204275629 a28.998107328577827,28.998107328577827 0 0,0 -0.28143389935690644,0.41062046991570683 l -6.558222166275541 -4.57814840926138" fill="#ff5d08" stroke="none" /><path d="M 117.21940702142032 112.02048342749411 l 25.771373878719665 17.990420473105946 a52.42958702235688,52.42958702235688 0 0,0 -0.521511862822851,0.7335717457802046 l -25.458746917366852 -18.430169445595652" fill="#80ff25" stroke="none" /><path d="M 117.01052211995028 112.31430620078461 l 25.457589187965088 18.429331338790323 a52.428157770669856,52.428157770669856 0 0,0 -0.5340131935279386,0.724491457224013 l -25.13747397485332 -18.863629105283213" fill="#80ff25" stroke="none" /><path d="M 116.79662413953412 112.60449989151573 l 7.409168958908293 5.559978514907201 a30.263322608431594,30.263322608431594 0 0,0 -0.3153842053116204,0.412848048721914 l -7.312632776242369 -5.686347476869993" fill="#ff6e0a" stroke="none" /><path d="M 116.57777611688842 112.89097897827486 l 24.823713260141858 19.303069575973655 a52.44559166364377,52.44559166364377 0 0,0 -0.5587542580962943,0.7059677520431648 l -24.488692571404002 -19.726357271931505" fill="#80ff25" stroke="none" /><path d="M 116.35404254752997 113.17365903436017 l 13.951590553096779 11.238413768298319 a38.915044599127754,38.915044599127754 0 0,0 -0.4235312963143484,0.5166393162780097 l -13.756612437543803 -11.476255366274822" fill="#ffe015" stroke="none" /><path d="M 116.1254893667686 113.45245675266167 l 11.52413729781256 9.613845203981244 a36.00772334716188,36.00772334716188 0 0,0 -0.4000379815535555,0.47124373638889133 l -11.35740475275189 -9.810255722819692" fill="#ffbb11" stroke="none" /><path d="M 115.89218393027572 113.72728997021213 l 8.097437424135899 6.994373587949817 a31.69998853857361,31.69998853857361 0 0,0 -0.35924983546762695,0.40876036617945055 l -7.976176524709686 -7.132346231940561" fill="#ff820c" stroke="none" /><path d="M 115.6541949942343 113.99807769240083 l 23.46289737826526 20.98066751504967 a52.47532307634137,52.47532307634137 0 0,0 -0.6062206679707416,0.6663427083300782 l -23.09927900945264 -21.38034779893742" fill="#80ff26" stroke="none" /><path d="M 115.41159269507618 114.26474011684316 l 9.205742316843192 8.52069765471729 a33.543842319131016,33.543842319131016 0 0,0 -0.394769759202095,0.4192318039491009 l -9.058116723904838 -8.677470918610888" fill="#ff9b0e" stroke="none" /><path d="M 115.16444852881244 114.52719865689866 l 23.766497756124206 22.76776723043753 a53.91227187921311,53.91227187921311 0 0,0 -0.6459542468931522,0.6628059627755938 l -23.372156708080247 -23.172395885280864" fill="#70ff27" stroke="none" /><path d="M 114.91283532996324 114.78537596483092 l 5.324605214398436 5.279096041582458 a28.498018118506423,28.498018118506423 0 0,0 -0.34741537612477624,0.34444603177822436 l -5.233197918143694 -5.369722083589345" fill="#ff5608" stroke="none" /><path d="M 114.65682725009322 115.03919595460226 l 5.253647444286866 5.390705098917164 a28.527317778090243,28.527317778090243 0 0,0 -0.35364027248097724,0.33877938137017505 l -5.160334685940576 -5.48009661059292" fill="#ff5608" stroke="none" /><path d="M 114.39649973595853 115.28858382429668 l 21.745626585503896 23.093101862387897 a52.720082427742796,52.720082427742796 0 0,0 -0.664198298297829,0.6147720289996373 l -21.345998515892102 -23.462991637519913" fill="#7dff26" stroke="none" /><path d="M 114.13192950727249 115.5334660781643 l 5.214081305578609 5.731188727435692 a28.748107387657342,28.748107387657342 0 0,0 -0.3678867556047975,0.3289666053641184 l -5.114929523150433 -5.8198508626831975" fill="#ff5a08" stroke="none" /><path d="M 113.86319453409587 115.77377054828091 l 21.051051809640445 23.95223267108961 a52.8881832693896,52.8881832693896 0 0,0 -0.6870943654263004,0.593495748129191 l -20.636777964451287 -24.31007255168352" fill="#7bff26" stroke="none" /><path d="M 113.59037401385872 116.0094264158162 l 15.994445702588104 18.841416820187124 a45.714798828335006,45.714798828335006 0 0,0 -0.6026204583004219,0.5027274192535182 l -15.668650910125788 -19.113206423352512" fill="#ccff1d" stroke="none" /><path d="M 113.31354834802062 116.24036423190432 l 20.77288425549014 25.339541167964217 a53.765913185732266,53.765913185732266 0 0,0 -0.7187970813352716,0.579012047748052 l -20.334836403799617 -25.692401509505675" fill="#72ff27" stroke="none" /><path d="M 113.03279911837588 116.46651593811092 l 17.3414697896955 21.910380578157422 a48.94264396127574,48.94264396127574 0 0,0 -0.6632661787922693,0.5157597923584886 l -16.962793666268 -22.204841422136706" fill="#a7ff21" stroke="none" /><path d="M 112.7482090630111 116.68781488649013 l 13.627598603282811 17.83896402348927 a43.44860978153302,43.44860978153302 0 0,0 -0.5965846079279756,0.44768821183592156 l -13.319361006444069 -18.070271262589205" fill="#e6ff1a" stroke="none" /><path d="M 112.45986205192187 116.90419585922612 l 11.668883554973856 15.831081616297306 a40.66687541429512,40.66687541429512 0 0,0 -0.5654999937966756,0.40937838539281746 l -11.395402550803214 -16.0290607730632" fill="#fff617" stroke="none" /><path d="M 112.16784306229584 117.11559508785304 l 13.898408282986626 19.549851795374696 a44.986714198107805,44.986714198107805 0 0,0 -0.6332520737582783,0.4420591283177556 l -13.56076111805459 -19.785555739497575" fill="#d4ff1c" stroke="none" /><path d="M 111.8722381534696 117.32195027204791 l 16.714067543383273 24.38632405175635 a50.5643849014663,50.5643849014663 0 0,0 -0.7201902482914481,0.48457614012006067 l -16.292981006994818 -24.669649865933533" fill="#95ff23" stroke="none" /><path d="M 111.5731344415666 117.5232005979908 l 16.459101400798538 24.921177315021538 a50.86581821562089,50.86581821562089 0 0,0 -0.7327448017727827,0.47495632773757884 l -16.028870966768746 -25.200047484463013" fill="#91ff24" stroke="none" /><path d="M 111.27062007382361 117.71928675628689 l 6.005845370301122 9.442186466514473 a32.19040052368084,32.19040052368084 0 0,0 -0.46880853279847373,0.29257119739541765 l -5.842872708712933 -9.543893460751438" fill="#ff890c" stroke="none" /><line stroke="#e1ed5e" stroke-width="0.3" x1="143.1302829299769" x2="145.66735839644613" y1="173.24464959558577" y2="177.55315839532614" /><path d="M 143.63769802327073 174.10635135553383 a86.0,86.0 0 0,1 -40.68552437913181,11.842963189579606" fill="none" id="id18" stroke="none" /><text fill="#e1ed5e" style="font-size:6.75px; font-family:Arial;" text-anchor="middle"><textPath startOffset="21.407464694133747" xlink:href="#id18">June</textPath></text><path d="M 110.65571695917076 118.09573695890943 l 31.91986779154277 54.206913859682096 a83.90681576761428,83.90681576761428 0 0,0 -1.2474447562142406,0.7202125657994817 l -30.98463056746813 -54.74687332275775" fill="#4dd3ff" stroke="none" /><path d="M 110.02825361518725 118.45085714620011 l 11.423583076856389 21.018106196438733 a44.9219363430015,44.9219363430015 0 0,0 -0.6806982171841695,0.3624334601710141 l -11.061096043885666 -21.211110124332315" fill="#d5ff1c" stroke="none" /><path d="M 109.71004243097381 118.62028667847754 l 7.0942464894557755 13.604153054993562 a36.34279353953661,36.34279353953661 0 0,0 -0.5556515091632709,0.2837196197525164 l -6.859667758578922 -13.723930626418916" fill="#ffbf11" stroke="none" /><path d="M 109.3889696526874 118.78422872680471 l 8.951452233594045 17.908900807318 a41.02141916090543,41.02141916090543 0 0,0 -0.6325888645706564,0.3094309130937586 l -8.64270311976132 -18.059925470508983" fill="#fffa17" stroke="none" /><path d="M 109.06512990194946 118.94263497670748 l 10.351071423127154 21.629758173014086 a44.978972418136465,44.978972418136465 0 0,0 -0.6993401015706564,0.32732647928688785 l -9.978242607684992 -21.804260883871507" fill="#d4ff1c" stroke="none" /><path d="M 108.73861861582097 119.09545874513695 l 5.937222243672923 12.973902100442519 a35.267892054632014,35.267892054632014 0 0,0 -0.5526757421292343,0.24720482970276791 l -5.713633098688062 -13.073910681055137" fill="#ffb110" stroke="none" /><path d="M 108.4095320186766 119.2426549942271 l 12.588551247064501 28.8050688179115 a52.43570600614191,52.43570600614191 0 0,0 -0.827897186681515,0.3533800791845587 l -12.092218985212556 -29.016923546755464" fill="#80ff25" stroke="none" /><path d="M 108.07796709384702 119.3841803445677 l 13.010602361151062 31.22070932327896 a54.82319417867963,54.82319417867963 0 0,0 -0.8718076723457264,0.3545565906901289 l -12.472740227614894 -31.43945317054838" fill="#67ff28" stroke="none" /><path d="M 107.407793817531 119.65005319985036 l 8.076791981702105 21.4246503120775 a43.89651086324049,43.89651086324049 0 0,0 -0.7073835943168116,0.25976105411687206 l -7.707819235731166 -21.560142215203093" fill="#e1ff1b" stroke="none" /><path d="M 107.06938296918513 119.77432235084164 l 5.569739934907455 15.57955388232577 a37.54522596143053,37.54522596143053 0 0,0 -0.6087587012920235,0.21175787678277536 l -5.301475461570409 -15.672870191677136" fill="#ffcf13" stroke="none" /><path d="M 106.72888874123015 119.89276391827305 l 9.864074091757557 29.161382321178646 a51.78451195925693,51.78451195925693 0 0,0 -0.8445246613359276,0.2776120305723458 l -9.362026692773895 -29.32641527315301" fill="#87ff25" stroke="none" /><path d="M 106.38641147887787 120.00534299687104 l 2.5619039893820426 8.025127757919723 a29.42413363983177,29.42413363983177 0 0,0 -0.4824988589768199,0.14947937988240736 l -2.423764497533598 -8.067923725608773" fill="#ff6309" stroke="none" /><path d="M 106.0420521117495 120.11202640906438 l 12.94024736981724 43.07387490675456 a65.97564564822613,65.97564564822613 0 0,0 -1.087467103228214,0.3165458248343525 l -12.198920254207419 -43.28966442589144" fill="#36ff73" stroke="none" /><path d="M 105.69591212413111 120.21278271476187 l 9.25876651396066 32.85609603430257 a55.13572621133689,55.13572621133689 0 0,0 -0.9132014785369241,0.24889712380183865 l -8.693383634489042 -33.010193652248546" fill="#64ff29" stroke="none" /><path d="M 105.3480935250658 120.30758222061773 l 5.849465865508364 22.211374661598935 a43.968705128275445,43.968705128275445 0 0,0 -0.731544420740608,0.18595573107005517 l -5.4673161515423585 -22.30851562450426" fill="#e0ff1b" stroke="none" /><path d="M 104.9986988182912 120.39639698878246 l 1.2600539523055407 5.141450119872168 a26.293604187871846,26.293604187871846 0 0,0 -0.43931334627688995,0.10367675353312159 l -1.1716084522887718 -5.162323017051515" fill="#ff3705" stroke="none" /><path d="M 104.64783097203109 120.47920084513623 l 5.277246568085396 23.252522096322917 a44.84384858155987,44.84384858155987 0 0,0 -0.7521756597079067,0.16393318415612643 l -4.877308491758353 -23.33968673861276" fill="#d6ff1c" stroke="none" /><path d="M 104.29559338865022 120.5559693870025 l 3.385788437694256 16.20222334357854 a37.552208451443136,37.552208451443136 0 0,0 -0.6321351268409136,0.1264447293449303 l -3.107156825322384 -16.257957469586334" fill="#ffcf13" stroke="none" /><path d="M 103.94208987418118 120.62667999033965 l 1.1712201443682861 6.128318705859558 a27.239234471244227,27.239234471244227 0 0,0 -0.4600385881718601,0.08383435545658387 l -1.065846822645369 -6.147521235247505" fill="#ff4406" stroke="none" /><path d="M 103.58742460773223 120.69131181640829 l 2.5955137865826496 14.970233790060666 a36.19357073058913,36.19357073058913 0 0,0 -0.6130889216052574,0.10088354874244539 l -2.33814736192432 -15.012583337298782" fill="#ffbd11" stroke="none" /><path d="M 103.2317021107853 120.74984581791261 l 0.4622444032149028 2.967940660400635 a24.003721300647392,24.003721300647392 0 0,0 -0.40769165523480755,0.059916633686318596 l -0.4112276423724097 -2.975438367385836" fill="#ff1602" stroke="none" /><path d="M 102.875027216393 120.80226474461374 l 2.663952210150745 19.2750311463416 a40.45824933210606,40.45824933210606 0 0,0 -0.6887962582714591,0.0891784658147446 l -2.3326781299885107 -19.31792120835674" fill="#fff316" stroke="none" /><path d="M 102.15924093988457 120.88869738790638 l 2.0393387574131894 19.728752538987383 a40.833874541099846,40.833874541099846 0 0,0 -0.6978712095943925,0.0660891291225503 l -1.7003679844337816 -19.760853423615114" fill="#fff817" stroke="none" /><path d="M 101.80034050326958 120.92268563240118 l 0.34418779998014454 3.9999839610418553 a25.014764866121958,25.014764866121958 0 0,0 -0.42814676577577754,0.033141267460437655 l -0.2754720394291311 -4.005302995497346" fill="#ff2503" stroke="none" /><path d="M 101.44090949804482 120.95050786540614 l 1.2946554397156733 18.82400595565401 a39.86847457867442,39.86847457867442 0 0,0 -0.6831855118571061,0.04109874389404083 l -0.971325575726102 -18.84345667737274" fill="#ffec16" stroke="none" /><path d="M 101.08105385017728 120.97215588758144 l 1.6181246147463715 31.391185240613584 a52.432862390806285,52.432862390806285 0 0,0 -0.8992841110061915,0.03861912910798188 l -1.0790147431393504 -31.414336938147397" fill="#80ff25" stroke="none" /><path d="M 100.72087961077811 120.9876233191556 l 0.5203378786627355 15.149069598839581 a36.15800320683621,36.15800320683621 0 0,0 -0.6205172831205295,0.015982324086849017 l -0.2602072814714622 -15.155769640276477" fill="#ffbd11" stroke="none" /><line stroke="#e1ed5e" stroke-width="0.3" x1="101.45913802915013" x2="101.54496967792366" y1="184.9874750549273" y2="189.98673829345242" /><path d="M 101.47630435890484 185.9873277026323 a86.0,86.0 0 0,1 -42.54439059252881,-10.42667462771756" fill="none" id="id19" stroke="none" /><text fill="#e1ed5e" style="font-size:6.75px; font-family:Arial;" text-anchor="middle"><textPath startOffset="22.145653131862474" xlink:href="#id19">July</textPath></text><path d="M 100.36049292484886 120.99690560180557 l 0.23135744704226743 13.47541141856796 a34.47739734399686,34.47739734399686 0 0,0 -0.591850371891118,0.00508032362333709 l -1.6505051518162798e-15 -13.477397343996863" fill="#ffa70f" stroke="none" /><path d="M 100.0 121.0 l 2.4848812091316646e-15 20.290594895293367 a41.29059489529337,41.29059489529337 0 0,0 -0.7088079677406376,-0.006084263918625673 l 0.348315042891783 -20.287605029569175" fill="#fffe18" stroke="none" /><path d="M 99.63950707515114 120.99690560180557 l -0.4228856148830448 24.630967001041075 a45.63459696543967,45.63459696543967 0 0,0 -0.7831476744805757,-0.02017110607856565 l 0.8456466034343644 -24.620078177612463" fill="#ccff1d" stroke="none" /><path d="M 99.27912038922189 120.98762331915562 l -0.5298443035414119 15.425838786762977 a36.43493560923389,36.43493560923389 0 0,0 -0.6249012009815825,-0.026835946354531737 l 0.7945712651238331 -15.414470271982617" fill="#ffc111" stroke="none" /><path d="M 98.91894614982273 120.97215588758144 l -0.8763464985455044 17.000887953933827 a38.02345953112132,38.02345953112132 0 0,0 -0.6515693649398747,-0.039196795005316684 l 1.1680602156178255 -16.98333918110382" fill="#ffd513" stroke="none" /><path d="M 98.55909050195518 120.95050786540614 l -1.72563348863089 25.090332200201182 a46.14960398999429,46.14960398999429 0 0,0 -0.7898856453737344,-0.06114214453788681 l 2.1560881287798606 -25.057012288668243" fill="#c6ff1e" stroke="none" /><path d="M 98.19965949673042 120.92268563240118 l -1.4078290591835199 16.361107677109906 a37.421565914426864,37.421565914426864 0 0,0 -0.6395531593097253,-0.06056634912754401 l 1.6884817818782605 -16.334529572477177" fill="#ffcd13" stroke="none" /><path d="M 97.84075906011543 120.88869738790638 l -1.5853056627539466 15.33639421377951 a36.41811212583465,36.41811212583465 0 0,0 -0.6213001002934833,-0.0696179721458807 l 1.8483416646482291 -15.306920481126658" fill="#ffc011" stroke="none" /><path d="M 97.12497278360702 120.80226474461374 l -3.166632621033133 22.91217618952008 a44.12996713997238,44.12996713997238 0 0,0 -0.749526255675523,-0.11015454823014 l 3.559483982316341 -22.85444056799106" fill="#deff1b" stroke="none" /><path d="M 96.76829788921471 120.74984581791261 l -3.695483097726361 23.727652448106053 a45.01370621173863,45.01370621173863 0 0,0 -0.7624946652607376,-0.12546820700540243 l 4.102255266040162 -23.660718242604982" fill="#d4ff1c" stroke="none" /><path d="M 96.41257539226777 120.69131181640829 l -4.326034343355544 24.951416493584453 a46.32366004700367,46.32366004700367 0 0,0 -0.7823520587362288,-0.14257060662002255 l 4.75372113564283 -24.873477713033065" fill="#c4ff1e" stroke="none" /><path d="M 96.05791012581884 120.62667999033965 l -2.896314449979825 15.15474106828668 a36.42902505798655,36.42902505798655 0 0,0 -0.6132280184132876,-0.12266277813495079 l 3.1560389539240705 -15.102788893488869" fill="#ffc011" stroke="none" /><path d="M 95.70440661134978 120.55596938700252 l -4.69309960580237 22.458180534946038 a43.94330091443277,43.94330091443277 0 0,0 -0.7370705771370424,-0.16064110171391555 l 5.077932599558549 -22.374307975098404" fill="#e0ff1b" stroke="none" /><path d="M 95.35216902796893 120.47920084513623 l -5.053911325412262 22.268465808987337 a43.834767114450024,43.834767114450024 0 0,0 -0.7323909680362224,-0.17284227425933293 l 5.435434447188372 -22.178427391081776" fill="#e2ff1b" stroke="none" /><path d="M 95.00130118170881 120.39639698878247 l -7.6163613839004185 31.07735353600897 a52.99704460621729,52.99704460621729 0 0,0 -0.8817565171481341,-0.22413905857701968 l 8.14872319427393 -30.94202924559669" fill="#7aff26" stroke="none" /><path d="M 94.6519064749342 120.30758222061772 l -7.11780740271237 27.02747406784071 a48.94901673959048,48.94901673959048 0 0,0 -0.8107323060946914,-0.2209686951925325 l 7.580721109741757 -26.901304878504032" fill="#a6ff21" stroke="none" /><path d="M 94.30408787586889 120.21278271476187 l -9.793804027893776 34.754755419787024 a57.108331748032946,57.108331748032946 0 0,0 -0.9413084401986294,-0.2740011681656258 l 10.388972480474012 -34.581510557318886" fill="#4fff2b" stroke="none" /><path d="M 93.95794788825049 120.11202640906438 l -4.809556781493705 16.009450302024533 a37.71628952272021,37.71628952272021 0 0,0 -0.6184741709749603,-0.19160487912172025 l 5.083671585340299 -15.924528835096162" fill="#ffd113" stroke="none" /><path d="M 93.61358852112213 120.00534299687104 l -7.542986004378091 23.6282962250806 a45.80308489608504,45.80308489608504 0 0,0 -0.7469769105951996,-0.24554614735934463 l 7.947485652621034 -23.495329156319233" fill="#caff1d" stroke="none" /><path d="M 93.27111125876986 119.89276391827306 l -17.922790081981194 52.98554420628429 a76.93473249385278,76.93473249385278 0 0,0 -1.2474205877817703,-0.43391763364229136 l 18.829716441807985 -52.670068140073404" fill="#44ffe8" stroke="none" /><path d="M 92.93061703081489 119.77432235084164 l -7.337020105253364 20.522951053620755 a42.795031176261375,42.795031176261375 0 0,0 -0.6896334669212878,-0.25324296147235137 l 7.688242723828771 -20.393977243139684" fill="#eeff19" stroke="none" /><path d="M 92.59220618246901 119.65005319985036 l -14.694866566796321 38.979879423600366 a62.65777362383126,62.65777362383126 0 0,0 -1.0032038791777842,-0.3880608117398488 l 15.361842708467632 -38.721878723722476" fill="#32ff4c" stroke="none" /><path d="M 92.25597844496254 119.51999308798841 l -9.377736629295754 23.638022296793995 a46.430258401993584,46.430258401993584 0 0,0 -0.738341793291467,-0.3002771795860552 l 9.782132883777662 -23.47355786062865" fill="#c3ff1e" stroke="none" /><path d="M 91.92203290615298 119.3841803445677 l -12.051706832516658 28.91970912821668 a52.33038802245494,52.33038802245494 0 0,0 -0.8262343414746401,-0.3526703094446319 l 12.54637624916173 -28.708564169112645" fill="#81ff25" stroke="none" /><path d="M 91.59046798132341 119.24265499422711 l -5.989183572687182 13.70442409046782 a35.955987413699596,35.955987413699596 0 0,0 -0.5634587402352387,-0.25202792760138315 l 6.223555715778056 -13.599592411956582" fill="#ffba11" stroke="none" /><path d="M 91.26138138417905 119.09545874513695 l -11.742020367603573 25.658433600499627 a49.21755228832695,49.21755228832695 0 0,0 -0.7652422046551822,-0.3581719911227037 l 12.180751286130246 -25.4530853778064" fill="#a3ff21" stroke="none" /><path d="M 90.93487009805054 118.94263497670748 l -7.846433733901199 16.39602870536371 a39.1768060903893,39.1768060903893 0 0,0 -0.6041431961438053,-0.29551671123556744 l 8.126737179307073 -16.258918244030923" fill="#ffe315" stroke="none" /><path d="M 90.6110303473126 118.78422872680471 l -16.522111314206313 33.055290352008605 a57.9544636347846,57.9544636347846 0 0,0 -0.8860762215866406,-0.4524368322851767 l 17.087114757506534 -32.7667955680506" fill="#47ff2c" stroke="none" /><path d="M 90.28995756902619 118.62028667847754 l -8.972910928134768 17.20673982735184 a40.40579877280027,40.40579877280027 0 0,0 -0.6122655750753647,-0.32599693273197033 l 9.266965318996695 -17.050172426897298" fill="#fff316" stroke="none" /><path d="M 89.97174638481275 118.45085714620012 l -7.839725725561687 14.42421232832251 a37.41703995075132,37.41703995075132 0 0,0 -0.5617113955461738,-0.31157184234806173 l 8.086181309263964 -14.2875075705413" fill="#ffcd13" stroke="none" /><line stroke="#e1ed5e" stroke-width="0.3" x1="58.13341422392154" x2="55.67067388415222" y1="173.97424548756322" y2="178.32567169271397" /><path d="M 57.64086615596768 174.84453072859336 a86.0,86.0 0 0,1 -31.369924170532247,-30.572349798747897" fill="none" id="id20" stroke="none" /><text fill="#e1ed5e" style="font-size:6.75px; font-family:Arial;" text-anchor="middle"><textPath startOffset="22.145653131862474" xlink:href="#id20">August</textPath></text><path d="M 89.65649057296885 118.27599006163327 l -23.35640709709488 41.26853337286384 a68.41954870338182,68.41954870338182 0 0,0 -1.0171951643232393,-0.5872779019404123 l 24.061394729278522 -40.86150857364726" fill="#39ff8e" stroke="none" /><path d="M 89.34428304082925 118.09573695890944 l -7.716835327986736 13.104873448265355 a36.2081312321506,36.2081312321506 0 0,0 -0.5328927290537006,-0.3199867725450136 l 7.940660813597864 -12.970472675184423" fill="#ffbe11" stroke="none" /><path d="M 89.03521579738668 117.91015095944536 l -7.777712079408303 12.704308163958565 a35.89604817107538,35.89604817107538 0 0,0 -0.5227761507336801,-0.32625098241474865 l 7.994652358931695 -12.56892138470227" fill="#ffba11" stroke="none" /><path d="M 88.72937992617639 117.7192867562869 l -4.167280999447175 6.551657898107055 a28.764692662442087,28.764692662442087 0 0,0 -0.414368229242862,-0.2685884799403066 l 4.279134860947046 -6.479155576462853" fill="#ff5a08" stroke="none" /><path d="M 88.4268655584334 117.5232005979908 l -11.041803818730159 16.718698314289856 a41.03587544619806,41.03587544619806 0 0,0 -0.5844753651022279,-0.393261109947559 l 11.327175471929392 -16.526687530285177" fill="#fffa17" stroke="none" /><path d="M 88.1277618465304 117.32195027204791 l -11.061294863814497 16.138759777107303 a40.565577200977884,40.565577200977884 0 0,0 -0.571018273808507,-0.39861510263233574 l 11.33670822879677 -15.946499858669839" fill="#fff517" stroke="none" /><path d="M 87.83215693770417 117.11559508785305 l -11.33687213122448 15.946730407960477 a40.56586007370761,40.56586007370761 0 0,0 -0.5640953081921743,-0.40836150134142635 l 11.608948449790608 -15.749768135245985" fill="#fff517" stroke="none" /><path d="M 87.54013794807813 116.9041958592261 l -5.307927116190671 7.201222550031723 a29.946043621952533,29.946043621952533 0 0,0 -0.4111834367779915,-0.3085597165958253 l 5.430763541879428 -7.109043806171883" fill="#ff6a09" stroke="none" /><path d="M 87.2517909369889 116.68781488649013 l -11.880911428076894 15.552494441733138 a40.57130909576435,40.57130909576435 0 0,0 -0.5498186238945162,-0.4275422874885904 l 12.146139996606639 -15.346251102623755" fill="#fff517" stroke="none" /><path d="M 86.96720088162412 116.46651593811092 l -12.143940958050045 15.34347268924442 a40.56776574262363,40.56776574262363 0 0,0 -0.5423509038404658,-0.4368794971277887 l 12.405542632245773 -15.132744898323221" fill="#fff517" stroke="none" /><line stroke="#e1ed5e" stroke-width="0.3" x1="26.387840678322732" x2="22.057713659400548" y1="142.50000000000003" y2="145.00000000000006" /><path d="M 25.521815274538298 143.00000000000003 a86.0,86.0 0 0,1 -11.493303480769221,-40.785679425670985" fill="none" id="id21" stroke="none" /><text fill="#e1ed5e" style="font-size:6.75px; font-family:Arial;" text-anchor="middle"><textPath startOffset="21.40746469413373" xlink:href="#id21">September</textPath></text><line stroke="#e1ed5e" stroke-width="0.3" x1="15.003131293944662" x2="10.003315487706104" y1="100.72959589197737" y2="100.7725132973878" /><path d="M 14.003168132696942 100.73817937305945 a86.0,86.0 0 0,1 10.791469493833604,-42.45332614584628" fill="none" id="id22" stroke="none" /><text fill="#e1ed5e" style="font-size:6.75px; font-family:Arial;" text-anchor="middle"><textPath startOffset="22.145653131862435" xlink:href="#id22">October</textPath></text><line stroke="#e1ed5e" stroke-width="0.3" x1="26.387840678322718" x2="22.05771365940052" y1="57.49999999999999" y2="54.99999999999999" /><path d="M 25.521815274538284 56.99999999999999 a86.0,86.0 0 0,1 29.574782752854787,-30.34633250058573" fill="none" id="id23" stroke="none" /><text fill="#e1ed5e" style="font-size:6.75px; font-family:Arial;" text-anchor="middle"><textPath startOffset="21.40746469413373" xlink:href="#id23">November</textPath></text><line stroke="#e1ed5e" stroke-width="0.3" x1="56.869717070023135" x2="54.33264160355391" y1="26.7553504044142" y2="22.446841604673864" /><path d="M 56.362301976729285 25.89364864446614 a86.0,86.0 0 0,1 42.16139366436587,-11.88097634709845" fill="none" id="id24" stroke="none" /><text fill="#e1ed5e" style="font-size:6.75px; font-family:Arial;" text-anchor="middle"><textPath startOffset="22.145653131862474" xlink:href="#id24">December</textPath></text></svg>