<?xml version="1.0" encoding="utf-8" ?>
<svg baseProfile="full" height="200mm" version="1.1" viewBox="0,0,200,200" width="200mm" xmlns="http://www.w3.org/2000/svg" xmlns:ev="http://www.w3.org/2001/xml-events" xmlns:xlink="http://www.w3.org/1999/xlink"><defs /><rect fill="#1a1a1a" height="200" width="200" x="0" y="0" /><text alignment-baseline="middle" fill="#e1ed5e" style="dominant-baseline: central; font-size:9.0px; font-family:Arial;" text-anchor="middle" x="100.0" y="100.0">2024</text><line stroke="#e1ed5e" stroke-width="0.3" x1="100.0" x2="100.0" y1="15.0" y2="10.0" /><path d="M 100.0 14.0 a86.0,86.0 0 0,1 42.35913384403234,11.155469271406648" fill="none" id="id13" stroke="none" /><text fill="#e1ed5e" style="font-size:6.75px; font-family:Arial;" text-anchor="middle"><textPath startOffset="22.145653131862478" xlink:href="#id13">January</textPath></text><path d="M 100.0 79.0 l 0.0 -29.425574661076396 a50.425574661076396,50.425574661076396 0 0,0 0.8656220427026537,0.007430324151646552 l -0.505129117853799 29.421238735119186" fill="#ff4f07" stroke="none" /><path d="M 100.36049292484886 79.00309439819443 l 0.5108561193419274 -29.754807860444043 a50.759192945821155,50.759192945821155 0 0,0 0.8710922536280138,0.022436246476509943 l -1.0215616870406825 29.741653896617485" fill="#ff5708" stroke="none" /><path d="M 100.72087961077811 79.0123766808444 l 2.1626388323343404 -62.96286995746683 a84.0,84.0 0 0,0 1.4406969575966548,0.06186972629667631 l -3.2431615505318314 62.916467662744324" fill="#4dd2ff" stroke="none" /><path d="M 101.08105385017728 79.02784411241856 l 1.3446194771676365 -26.08525863907113 a47.11989126710932,47.11989126710932 0 0,0 0.8074456666368358,0.04857392624040459 l -1.7922094959369346 26.058332735006033" fill="#ff0000" stroke="none" /><path d="M 101.44090949804482 79.04949213459386 l 2.025138744479501 -29.445072887871902 a50.51463203745696,50.51463203745696 0 0,0 0.864596427227731,0.06692523155739312 l -2.5303041664824657 29.405969889319454" fill="#ff5107" stroke="none" /><path d="M 101.80034050326958 79.07731436759882 l 2.2524463385283027 -26.176840747232795 a47.2735704846893,47.2735704846893 0 0,0 0.8079288136811598,0.07651169865602626 l -2.7014747155944754 26.134317293071586" fill="#ff0400" stroke="none" /><path d="M 102.15924093988457 79.11130261209362 l 3.024430893270425 -29.258625349859578 a50.41452599637829,50.41452599637829 0 0,0 0.8600816524912221,0.09637394312029303 l -3.526248447362444 29.202395646232315" fill="#ff4f07" stroke="none" /><path d="M 102.51750503828377 79.15144685158666 l 3.143509400965093 -26.032767292190165 a47.22187301172977,47.22187301172977 0 0,0 0.8039460425500032,0.10408691076859626 l -3.5899332654058878 25.974968785221172" fill="#ff0300" stroke="none" /><path d="M 102.87502721639298 79.19773525538626 l 4.324800156019795 -31.29209953217132 a52.58954557319281,52.58954557319281 0 0,0 0.8932081244504066,0.13127083498315603 l -4.8613333860778845 31.21324762388928" fill="#ff810b" stroke="none" /><path d="M 103.23170211078529 79.25015418208739 l 4.555301788041812 -29.24830523224204 a50.60091440037848,50.60091440037848 0 0,0 0.8571373151571654,0.14104161903011 l -5.056716606252048 29.16579761471626" fill="#ff5307" stroke="none" /><path d="M 103.58742460773223 79.30868818359171 l 5.533005645797723 -31.91290622592886 a53.38900639509274,53.38900639509274 0 0,0 0.9016774370742889,0.16431566549070595 l -6.080017816423066 31.81322238650679" fill="#ff930d" stroke="none" /><path d="M 104.29559338865022 79.4440306129975 l 11.350051025347868 -54.31410292101216 a76.48734481295985,76.48734481295985 0 0,0 1.2829389283874277,0.27961056821497127 l -12.28075237035443 54.11126089466347" fill="#3dffb0" stroke="none" /><path d="M 104.64783097203109 79.52079915486377 l 6.265546768904668 -27.607155134757548 a49.30922271889325,49.30922271889325 0 0,0 0.823858132197067,0.1944282759491149 l -6.73853705484162 27.495530715162207" fill="#ff3505" stroke="none" /><path d="M 104.9986988182912 79.60360301121754 l 7.532072439298088 -30.733425878358524 a52.642938887710656,52.642938887710656 0 0,0 0.8758649617345308,0.22264144822962828 l -8.058542694258014 30.599599198293628" fill="#ff820c" stroke="none" /><path d="M 105.3480935250658 79.69241777938227 l 7.9798682137142665 -30.30085938104504 a52.334013083837704,52.334013083837704 0 0,0 0.8667972911564709,0.23624945618103899 l -8.49884690580543 30.159409430719858" fill="#ff7b0b" stroke="none" /><path d="M 105.69591212413111 79.78721728523813 l 9.074157539907045 -32.20098391206102 a54.45509976018401,54.45509976018401 0 0,0 0.897575597940409,0.26127117515352816 l -9.625593150229058 32.040469042604975" fill="#ffaa0f" stroke="none" /><path d="M 106.04205211174951 79.88797359093562 l 9.642862633727086 -32.0979535365748 a54.515122273520724,54.515122273520724 0 0,0 0.8939425240492997,0.27694567906081274 l -10.192445790648016 31.927691269707342" fill="#ffac0f" stroke="none" /><path d="M 106.38641147887787 79.99465700312896 l 9.623696553951936 -30.146092386368114 a52.644943064097745,52.644943064097745 0 0,0 0.8585569512991746,0.28222472299996 l -10.139776242898854 29.976446741966132" fill="#ff820c" stroke="none" /><path d="M 106.72888874123014 80.10723608172694 l 17.555281243557822 -51.899069627526636 a75.78778447558608,75.78778447558608 0 0,0 1.2288239601634872,0.4274487612115363 l -18.443610975766326 51.59006243374651" fill="#3cffa3" stroke="none" /><path d="M 107.06938296918511 80.22567764915836 l 11.66889327162997 -32.63997127282185 a55.66310423022334,55.66310423022334 0 0,0 0.896999920195941,0.32939079543947025 l -12.227482343480037 32.43484962837366" fill="#ffc512" stroke="none" /><path d="M 107.40779381753099 80.34994680014964 l 10.888675611102817 -28.88350571093476 a51.867785128146565,51.867785128146565 0 0,0 0.8304470496718412,0.3212347588475685 l -11.382894923268186 28.692331063949155" fill="#ff710a" stroke="none" /><path d="M 107.74402155503746 80.48000691201159 l 11.901340218395307 -29.99915188120249 a53.27368916912736,53.27368916912736 0 0,0 0.8471671825693939,0.34453551800957893 l -12.41456186215514 29.790429106613615" fill="#ff900d" stroke="none" /><path d="M 108.07796709384702 80.6158196554323 l 12.601504130471316 -30.23902249662922 a53.75967624842977,53.75967624842977 0 0,0 0.8488010959129827,0.36230271501219863 l -13.118740301554729 30.01824513195762" fill="#ff9b0e" stroke="none" /><path d="M 108.4095320186766 80.7573450057729 l 12.197120923713019 -27.90939963563081 a51.45823939181362,51.45823939181362 0 0,0 0.8063912807853446,0.36068856301227775 l -12.674425607353994 27.695907321708678" fill="#ff6709" stroke="none" /><path d="M 108.73861861582097 80.90454125486305 l 13.523424668365116 -29.55112348995369 a53.498490953880285,53.498490953880285 0 0,0 0.8318029089183383,0.3893257615648431 l -14.028716291154959 29.31462149681831" fill="#ff950d" stroke="none" /><path d="M 109.06512990194946 81.05736502329252 l 16.826307188163625 -35.160510496687856 a59.9793036363933,59.9793036363933 0 0,0 0.9249372732878285,0.4524331695629128 l -17.42740471071352 34.86648357702772" fill="#e0ff1b" stroke="none" /><path d="M 109.3889696526874 81.21577127319529 l 25.80130125031869 -51.61988610714656 a78.70892294892082,78.70892294892082 0 0,0 1.2033948841496123,0.6144620023748175 l -26.68362335618188 51.16936615309891" fill="#42ffd7" stroke="none" /><path d="M 109.71004243097381 81.37971332152246 l 12.323846864677522 -23.632601323137408 a47.65289940780136,47.65289940780136 0 0,0 0.7220802643695441,0.3844670694441455 l -12.727715944833626 23.41756378597069" fill="#ff0d01" stroke="none" /><path d="M 110.02825361518725 81.54914285379988 l 14.116431195066033 -25.97264343213989 a50.560985040050895,50.560985040050895 0 0,0 0.7590306850680245,0.4210215260372389 l -14.560206068290157 25.726488990669505" fill="#ff5207" stroke="none" /><path d="M 110.34350942703115 81.72400993836675 l 14.521998176843342 -25.65897930749243 a50.48341313604254,50.48341313604254 0 0,0 0.7505381823422781,0.4333234216124067 l -14.960328827046016 25.40590898860385" fill="#ff5107" stroke="none" /><line stroke="#e1ed5e" stroke-width="0.3" x1="143.13028292997686" x2="145.6673583964461" y1="26.7553504044142" y2="22.446841604673864" /><path d="M 143.63769802327073 25.89364864446614 a86.0,86.0 0 0,1 29.32050498858742,28.57503671076993" fill="none" id="id14" stroke="none" /><text fill="#e1ed5e" style="font-size:6.75px; font-family:Arial;" text-anchor="middle"><textPath startOffset="20.669276256404974" xlink:href="#id14">February</textPath></text><path d="M 110.65571695917076 81.90426304109057 l 18.68318482449185 -31.728132366327735 a57.82031747067556,57.82031747067556 0 0,0 0.8509698159826534,0.5109829241488414 l -19.22508739703194 31.40273544164297" fill="#fff216" stroke="none" /><path d="M 110.96478420261332 82.08984904055464 l 23.10230320843614 -37.73587608549141 a65.24604793056756,65.24604793056756 0 0,0 0.9502181862796809,0.5930064260717198 l -23.746685523505533 37.33373386257814" fill="#7dff26" stroke="none" /><path d="M 111.27062007382361 82.28071324371311 l 17.444726132854395 -27.426006972841957 a53.50391250795308,53.50391250795308 0 0,0 0.7707477268628488,0.4995893646426408 l -17.91295949197425 27.122503766495424" fill="#ff950d" stroke="none" /><path d="M 111.5731344415666 82.4767994020092 l 17.77120053693421 -26.907862640681977 a53.246684177039654,53.246684177039654 0 0,0 0.7583943278037736,0.5102815498098516 l -18.230491152834983 26.598831416815006" fill="#ff900d" stroke="none" /><path d="M 111.8722381534696 82.67804972795209 l 20.424004185146966 -29.799232484889362 a57.12664118961776,57.12664118961776 0 0,0 0.804138836209821,0.5613513602437147 l -20.932538112530548 29.44423630884052" fill="#ffe415" stroke="none" /><path d="M 112.16784306229584 82.88440491214696 l 16.682631535471426 -23.46621047782501 a49.791895198786236,49.791895198786236 0 0,0 0.6923894727388017,0.5012365827093388 l -17.083002018584196 23.176373123742597" fill="#ff4006" stroke="none" /><path d="M 112.45986205192187 83.09580414077388 l 17.61908688716722 -23.90367520605555 a50.695419025400916,50.695419025400916 0 0,0 0.6960891691376488,0.5223582896178389 l -18.026829045215635 23.597697889173695" fill="#ff5607" stroke="none" /><line stroke="#e1ed5e" stroke-width="0.3" x1="172.87174338648825" x2="177.1583165268699" y1="56.24261187166439" y2="53.66864786411523" /><path d="M 173.72905801456457 55.72781907015455 a86.0,86.0 0 0,1 12.242430191666344,42.057860355516425" fill="none" id="id15" stroke="none" /><text fill="#e1ed5e" style="font-size:6.75px; font-family:Arial;" text-anchor="middle"><textPath startOffset="22.145653131862474" xlink:href="#id15">March</textPath></text><line stroke="#e1ed5e" stroke-width="0.3" x1="184.99686870605535" x2="189.99668451229388" y1="99.2704041080226" y2="99.22748670261217" /><path d="M 185.99683186730306 99.26182062694052 a86.0,86.0 0 0,1 -10.086455211305974,41.156179273409016" fill="none" id="id16" stroke="none" /><text fill="#e1ed5e" style="font-size:6.75px; font-family:Arial;" text-anchor="middle"><textPath startOffset="21.40746469413373" xlink:href="#id16">April</textPath></text><line stroke="#e1ed5e" stroke-width="0.3" x1="174.33088141563837" x2="178.70328620479359" y1="141.23008692659167" y2="143.65538615756765" /><path d="M 175.20536237346943 141.71514677278685 a86.0,86.0 0 0,1 -30.301960400862466,31.631185727798858" fill="none" id="id17" stroke="none" /><text fill="#e1ed5e" style="font-size:6.75px; font-family:Arial;" text-anchor="middle"><textPath startOffset="22.145653131862474" xlink:href="#id17">May</textPath></text><line stroke="#e1ed5e" stroke-width="0.3" x1="143.1302829299769" x2="145.66735839644613" y1="173.24464959558577" y2="177.55315839532614" /><path d="M 143.63769802327073 174.10635135553383 a86.0,86.0 0 0,1 -40.68552437913181,11.842963189579606" fill="none" id="id18" stroke="none" /><text fill="#e1ed5e" style="font-size:6.75px; font-family:Arial;" text-anchor="middle"><textPath startOffset="21.407464694133747" xlink:href="#id18">June</textPath></text><line stroke="#e1ed5e" stroke-width="0.3" x1="101.45913802915013" x2="101.54496967792366" y1="184.9874750549273" y2="189.98673829345242" /><path d="M 101.47630435890484 185.9873277026323 a86.0,86.0 0 0,1 -42.54439059252881,-10.42667462771756" fill="none" id="id19" stroke="none" /><text fill="#e1ed5e" style="font-size:6.75px; font-family:Arial;" text-anchor="middle"><textPath startOffset="22.145653131862474" xlink:href="#id19">July</textPath></text><line stroke="#e1ed5e" stroke-width="0.3" x1="58.13341422392154" x2="55.67067388415222" y1="173.97424548756322" y2="178.32567169271397" /><path d="M 57.64086615596768 174.84453072859336 a86.0,86.0 0 0,1 -31.369924170532247,-30.572349798747897" fill="none" id="id20" stroke="none" /><text fill="#e1ed5e" style="font-size:6.75px; font-family:Arial;" text-anchor="middle"><textPath startOffset="22.145653131862474" xlink:href="#id20">August</textPath></text><line stroke="#e1ed5e" stroke-width="0.3" x1="26.387840678322732" x2="22.057713659400548" y1="142.50000000000003" y2="145.00000000000006" /><path d="M 25.521815274538298 143.00000000000003 a86.0,86.0 0 0,1 -11.493303480769221,-40.785679425670985" fill="none" id="id21" stroke="none" /><text fill="#e1ed5e" style="font-size:6.75px; font-family:Arial;" text-anchor="middle"><textPath startOffset="21.40746469413373" xlink:href="#id21">September</textPath></text><line stroke="#e1ed5e" stroke-width="0.3" x1="15.003131293944662" x2="10.003315487706104" y1="100.72959589197737" y2="100.7725132973878" /><path d="M 14.003168132696942 100.73817937305945 a86.0,86.0 0 0,1 10.791469493833604,-42.45332614584628" fill="none" id="id22" stroke="none" /><text fill="#e1ed5e" style="font-size:6.75px; font-family:Arial;" text-anchor="middle"><textPath startOffset="22.145653131862435" xlink:href="#id22">October</textPath></text><line stroke="#e1ed5e" stroke-width="0.3" x1="26.387840678322718" x2="22.05771365940052" y1="57.49999999999999" y2="54.99999999999999" /><path d="M 25.521815274538284 56.99999999999999 a86.0,86.0 0 0,1 29.574782752854787,-30.34633250058573" fill="none" id="id23" stroke="none" /><text fill="#e1ed5e" style="font-size:6.75px; font-family:Arial;" text-anchor="middle"><textPath startOffset="21.40746469413373" xlink:href="#id23">November</textPath></text><line stroke="#e1ed5e" stroke-width="0.3" x1="56.869717070023135" x2="54.33264160355391" y1="26.7553504044142" y2="22.446841604673864" /><path d="M 56.362301976729285 25.89364864446614 a86.0,86.0 0 0,1 42.16139366436587,-11.88097634709845" fill="none" id="id24" stroke="none" /><text fill="#e1ed5e" style="font-size:6.75px; font-family:Arial;" text-anchor="middle"><textPath startOffset="22.145653131862474" xlink:href="#id24">December</textPath></text></svg>