<?xml version="1.0" encoding="utf-8" ?>
<svg baseProfile="full" height="200mm" version="1.1" viewBox="0,0,200,200" width="200mm" xmlns="http://www.w3.org/2000/svg" xmlns:ev="http://www.w3.org/2001/xml-events" xmlns:xlink="http://www.w3.org/1999/xlink"><defs /><rect fill="#1a1a1a" height="200" width="200" x="0" y="0" /><text alignment-baseline="middle" fill="#e1ed5e" style="dominant-baseline: central; font-size:9.0px; font-family:Arial;" text-anchor="middle" x="100.0" y="100.0">2026</text><line stroke="#e1ed5e" stroke-width="0.3" x1="100.0" x2="100.0" y1="15.0" y2="10.0" /><path d="M 100.0 14.0 a86.0,86.0 0 0,1 42.46469731375804,11.215312516191453" fill="none" id="id37" stroke="none" /><text fill="#e1ed5e" style="font-size:6.75px; font-family:Arial;" text-anchor="middle"><textPath startOffset="22.20632615414155" xlink:href="#id37">January</textPath></text><path d="M 100.0 79.0 l 0.0 -20.98575114604285 a41.98575114604285,41.98575114604285 0 0,0 0.7227156879470799,0.006220642095646259 l -0.3612352086745515 20.982641880555764" fill="#ff730a" stroke="none" /><path d="M 100.36148047927253 79.00311137660856 l 0.7119770355947002 -41.35576711882055 a62.361895329945085,62.361895329945085 0 0,0 1.0731394262384626,0.02771602531003757 l -1.4237430970280305 41.337384301368154" fill="#56ff2b" stroke="none" /><path d="M 100.72285384407766 79.0124445844662 l 1.8150966610989416 -52.70006111397492 a73.73130964906736,73.73130964906736 0 0,0 1.268035162842934,0.0546042614948368 l -2.721972656331207 52.66100912595589" fill="#3dffaa" stroke="none" /><path d="M 101.08401301168833 79.027996857942 l 0.755707123511585 -14.620389236911965 a35.63990692235908,35.63990692235908 0 0,0 0.6123919520671897,0.03694115491857266 l -1.0072611244183867 14.605214812613088" fill="#ff0000" stroke="none" /><path d="M 101.44485096284872 79.0497635885617 l 2.2753949089632672 -32.99306468133963 a54.071433882715105,54.071433882715105 0 0,0 0.9279940593607638,0.07203019933155862 l -2.842979157686372 32.94900921981961" fill="#c9ff1d" stroke="none" /><path d="M 101.80526077348638 79.07773832637324 l 4.383169083974418 -50.79920412692432 a71.98795260792136,71.98795260792136 0 0,0 1.2336502521813915,0.11714995627823185 l -5.256944463246055 50.71622862613091" fill="#3aff92" stroke="none" /><path d="M 102.16513564639614 79.11191278185805 l 3.3284043166770694 -32.11069005293662 a53.282730537719964,53.282730537719964 0 0,0 0.9114729017651511,0.10241460069704605 l -3.8806439219519455 32.04863949876897" fill="#d5ff1c" stroke="none" /><path d="M 102.52436894288641 79.15227682838746 l 3.2088790869340826 -26.500810463579253 a47.69437881317178,47.69437881317178 0 0,0 0.8141777303566438,0.10570363645761363 l -3.6645715457985726 26.441648503957502" fill="#ffd213" stroke="none" /><path d="M 102.88285421437855 79.19881850522331 l 3.3930348654353337 -24.48238058726805 a45.71638413720541,45.71638413720541 0 0,0 0.7785522414335238,0.11473836229746226 l -3.8139560872975133 24.420347740809618" fill="#ffb210" stroke="none" /><path d="M 103.2404852339499 79.25152402106235 l 8.265283063337849 -52.92171224917134 a74.56325728987355,74.56325728987355 0 0,0 1.2664064843071667,0.20896792090015867 l -9.17501875378389 52.77159806533156" fill="#3effb5" stroke="none" /><path d="M 103.59715602781102 79.31037775812273 l 10.791468083433088 -62.06886672563182 a84.0,84.0 0 0,0 1.4224195155883965,0.2599380745970459 l -11.858282720124386 61.87391316968404" fill="#4dd2ff" stroke="none" /><path d="M 103.95276090670814 79.375362276772 l 4.0161721891136555 -20.95550385908758 a42.33688780119642,42.33688780119642 0 0,0 0.7145531026364528,0.1433326302222935 l -4.376291701217234 20.883267272788082" fill="#ff790b" stroke="none" /><path d="M 104.307194497241 79.44645832069477 l 8.41106478190674 -40.13683864821843 a62.008679903632014,62.008679903632014 0 0,0 1.0428007844572647,0.22791586140258316 l -9.100708290517533 39.98610928871997" fill="#5aff2a" stroke="none" /><line stroke="#e1ed5e" stroke-width="0.3" x1="143.23703022742887" x2="145.7803849466894" y1="26.81831364943548" y2="22.513508569990506" /><path d="M 143.74570117128098 25.957352633546492 a86.0,86.0 0 0,1 28.547481713284135,27.462654790039103" fill="none" id="id38" stroke="none" /><text fill="#e1ed5e" style="font-size:6.75px; font-family:Arial;" text-anchor="middle"><textPath startOffset="19.985693538727396" xlink:href="#id38">February</textPath></text><line stroke="#e1ed5e" stroke-width="0.3" x1="172.23445277983987" x2="176.4835382374775" y1="55.19839476539836" y2="52.563006222186495" /><path d="M 173.08426987136738 54.67131705675599 a86.0,86.0 0 0,1 12.851231095245387,41.99856678651699" fill="none" id="id39" stroke="none" /><text fill="#e1ed5e" style="font-size:6.75px; font-family:Arial;" text-anchor="middle"><textPath startOffset="22.20632615414155" xlink:href="#id39">March</textPath></text><line stroke="#e1ed5e" stroke-width="0.3" x1="184.98032266829074" x2="189.97916517819016" y1="98.17113171792111" y2="98.06355123074" /><path d="M 185.9800911702706 98.14961562048488 a86.0,86.0 0 0,1 -9.607161424134198,41.387399972396054" fill="none" id="id40" stroke="none" /><text fill="#e1ed5e" style="font-size:6.75px; font-family:Arial;" text-anchor="middle"><textPath startOffset="21.466115282336823" xlink:href="#id40">April</textPath></text><line stroke="#e1ed5e" stroke-width="0.3" x1="174.80103733775053" x2="179.2010983576182" y1="140.37084112569926" y2="142.7455964860345" /><path d="M 175.68104954172406 140.8457921977663 a86.0,86.0 0 0,1 -30.038265399797805,32.042727171017184" fill="none" id="id41" stroke="none" /><text fill="#e1ed5e" style="font-size:6.75px; font-family:Arial;" text-anchor="middle"><textPath startOffset="22.206326154141568" xlink:href="#id41">May</textPath></text><line stroke="#e1ed5e" stroke-width="0.3" x1="143.8653032363475" x2="146.44561519142675" y1="172.8068346515853" y2="177.08958963109032" /><path d="M 144.38136562736335 173.6633856474863 a86.0,86.0 0 0,1 -40.68145358897372,12.25698825130547" fill="none" id="id42" stroke="none" /><text fill="#e1ed5e" style="font-size:6.75px; font-family:Arial;" text-anchor="middle"><textPath startOffset="21.466115282336833" xlink:href="#id42">June</textPath></text><line stroke="#e1ed5e" stroke-width="0.3" x1="102.19456741930631" x2="102.32365962044197" y1="184.97166512339345" y2="189.96999836594603" /><path d="M 102.22038585953345 185.97133177190398 a86.0,86.0 0 0,1 -42.740103519485714,-10.115201625700543" fill="none" id="id43" stroke="none" /><text fill="#e1ed5e" style="font-size:6.75px; font-family:Arial;" text-anchor="middle"><textPath startOffset="22.20632615414155" xlink:href="#id43">July</textPath></text><line stroke="#e1ed5e" stroke-width="0.3" x1="58.666819895761336" x2="56.23545636021788" y1="174.27360380694188" y2="178.64263932499728" /><path d="M 58.180547188652646 175.14741091055294 a86.0,86.0 0 0,1 -31.652253787137756,-30.449443065178592" fill="none" id="id44" stroke="none" /><text fill="#e1ed5e" style="font-size:6.75px; font-family:Arial;" text-anchor="middle"><textPath startOffset="22.20632615414155" xlink:href="#id44">August</textPath></text><line stroke="#e1ed5e" stroke-width="0.3" x1="26.63291911575756" x2="22.317208475507996" y1="142.92168965132927" y2="145.44649492493687" /><path d="M 25.769776987707644 143.4266507060508 a86.0,86.0 0 0,1 -11.730757126820373,-40.83630448921669" fill="none" id="id45" stroke="none" /><text fill="#e1ed5e" style="font-size:6.75px; font-family:Arial;" text-anchor="middle"><textPath startOffset="21.46611528233685" xlink:href="#id45">September</textPath></text><line stroke="#e1ed5e" stroke-width="0.3" x1="15.007084014347285" x2="10.007500721073583" y1="101.09737516637583" y2="101.16192664675087" /><path d="M 14.007167355692545 101.11028546245083 a86.0,86.0 0 0,1 10.666146001902534,-42.60595125391555" fill="none" id="id46" stroke="none" /><text fill="#e1ed5e" style="font-size:6.75px; font-family:Arial;" text-anchor="middle"><textPath startOffset="22.20632615414155" xlink:href="#id46">October</textPath></text><line stroke="#e1ed5e" stroke-width="0.3" x1="26.266209847984243" x2="21.928928074336255" y1="57.711370442889674" y2="55.22380399835377" /><path d="M 25.398753493254645 57.213857153982495 a86.0,86.0 0 0,1 29.58750427330803,-30.492523968695096" fill="none" id="id47" stroke="none" /><text fill="#e1ed5e" style="font-size:6.75px; font-family:Arial;" text-anchor="middle"><textPath startOffset="21.46611528233685" xlink:href="#id47">November</textPath></text><line stroke="#e1ed5e" stroke-width="0.3" x1="56.762969772571076" x2="54.21961505331055" y1="26.818313649435495" y2="22.513508569990535" /><path d="M 56.25429882871897 25.957352633546506 a86.0,86.0 0 0,1 42.265352541879196,-11.944610805530505" fill="none" id="id48" stroke="none" /><text fill="#e1ed5e" style="font-size:6.75px; font-family:Arial;" text-anchor="middle"><textPath startOffset="22.20632615414155" xlink:href="#id48">December</textPath></text></svg>