<?xml version="1.0" encoding="utf-8" ?>
<svg baseProfile="full" height="200mm" version="1.1" viewBox="0,0,200,200" width="200mm" xmlns="http://www.w3.org/2000/svg" xmlns:ev="http://www.w3.org/2001/xml-events" xmlns:xlink="http://www.w3.org/1999/xlink"><defs /><rect fill="#1a1a1a" height="200" width="200" x="0" y="0" /><text alignment-baseline="middle" fill="#e1ed5e" style="dominant-baseline: central; font-size:9.0px; font-family:Arial;" text-anchor="middle" x="100.0" y="100.0">2025</text><line stroke="#e1ed5e" stroke-width="0.3" x1="100.0" x2="100.0" y1="15.0" y2="10.0" /><path d="M 100.0 14.0 a86.0,86.0 0 0,1 42.46469731375804,11.215312516191453" fill="none" id="id25" stroke="none" /><text fill="#e1ed5e" style="font-size:6.75px; font-family:Arial;" text-anchor="middle"><textPath startOffset="22.20632615414155" xlink:href="#id25">January</textPath></text><path d="M 100.0 79.0 l 0.0 -38.952203300222855 a59.952203300222855,59.952203300222855 0 0,0 1.0319786277337435,0.008882565856184724 l -0.6704981484612152 38.94643211097523" fill="#47ff2c" stroke="none" /><path d="M 100.36148047927253 79.00311137660856 l 0.2169623692792383 -12.60243627094665 a33.6043037345565,33.6043037345565 0 0,0 0.5782714434519216,0.014935045317423618 l -0.4338604479260277 12.596834433486869" fill="#ff6209" stroke="none" /><path d="M 100.72285384407766 79.0124445844662 l 0.5643945610846768 -16.386801044275725 a37.39651760848193,37.39651760848193 0 0,0 0.6431473890960495,0.027695279470946518 l -0.8463827825700578 16.374658038280582" fill="#ff9a0e" stroke="none" /><path d="M 101.08401301168833 79.027996857942 l 3.0385387426427073 -58.78549737951812 a79.86397387067808,79.86397387067808 0 0,0 1.3722834620486783,0.08277988597435634 l -4.049984253530997 58.724484224163454" fill="#47fcff" stroke="none" /><path d="M 101.44485096284872 79.0497635885617 l 1.1278146540837994 -16.353232436343728 a37.392076653403336,37.392076653403336 0 0,0 0.6417367269524724,0.049811120981323585 l -1.409141570398613 16.331396053173936" fill="#ff9a0e" stroke="none" /><path d="M 101.80526077348638 79.07773832637324 l 2.1880188881577145 -25.358277539297056 a46.45249823524112,46.45249823524112 0 0,0 0.7960517570832407,0.07559470633804811 l -2.6241957723311997 25.31685728844383" fill="#e8ff1a" stroke="none" /><path d="M 102.16513564639614 79.11191278185805 l 1.325357467165718 -12.786350091022488 a33.85485593330251,33.85485593330251 0 0,0 0.5791329285296951,0.0650723323875204 l -1.5452570992051384 12.761641805164368" fill="#ff6609" stroke="none" /><path d="M 102.52436894288641 79.15227682838746 l 3.380438003865991 -27.917644883879372 a49.121562135848315,49.121562135848315 0 0,0 0.8385407875422995,0.10886666050473483 l -3.8604935199161363 27.855319900210503" fill="#c6ff1e" stroke="none" /><path d="M 102.88285421437855 79.19881850522331 l 2.409864882013384 -17.388335677409476 a38.5545340690043,38.5545340690043 0 0,0 0.6565855870569587,0.0967636479066842 l -2.708819449498998 17.34427754534182" fill="#ffab0f" stroke="none" /><path d="M 103.2404852339499 79.25152402106235 l 3.0999402517214634 -19.84858168002966 a41.08919670551941,41.08919670551941 0 0,0 0.697872209908263,0.11515489423469905 l -3.4411416677686013 19.79228052285534" fill="#ffce13" stroke="none" /><path d="M 103.59715602781102 79.31037775812273 l 6.866056383362299 -39.49122911680904 a61.08366135242408,61.08366135242408 0 0,0 1.0343641903723895,0.1890234443010369 l -7.544815694837589 39.367190191157256" fill="#3bff2e" stroke="none" /><path d="M 103.95276090670814 79.375362276772 l 5.895208492632488 -30.759902339931763 a52.319723420454174,52.319723420454174 0 0,0 0.8830413060761194,0.17712977877756772 l -6.423816208175733 30.653868605076987" fill="#9eff22" stroke="none" /><path d="M 104.307194497241 79.44645832069477 l 1.6161212694870246 -7.711984191215549 a28.879501768719066,28.879501768719066 0 0,0 0.4856669605925808,0.10614798658388305 l -1.7486309542331333 7.683022706535795" fill="#ff1a02" stroke="none" /><path d="M 104.66035177308747 79.52364482259891 l 6.152058557863557 -27.030520921284033 a48.721776382031436,48.721776382031436 0 0,0 0.8161508028717819,0.19315652626488553 l -6.616433047697862 26.92061848287828" fill="#cbff1d" stroke="none" /><path d="M 105.01212808612495 79.60689891045804 l 7.806698406150844 -31.763511833011716 a53.70879429099265,53.70879429099265 0 0,0 0.8958911066466284,0.22838259093182187 l -8.352298401482498 31.624426245911025" fill="#8eff24" stroke="none" /><path d="M 105.36241919743992 79.69619591428918 l 6.803715123283057 -25.76100335163598 a47.64432084256964,47.64432084256964 0 0,0 0.7911273925860371,0.21624500140415376 l -7.246140405092805 25.640071809405534" fill="#d9ff1c" stroke="none" /><path d="M 105.71112130821622 79.79150937346287 l 9.105796529173366 -32.22036337106424 a54.48234379780071,54.48234379780071 0 0,0 0.9002812504377244,0.26281678434013916 l -9.659067997334517 32.058848257805394" fill="#85ff25" stroke="none" /><path d="M 106.0581310904928 79.89281104454417 l 17.156155242663694 -56.94199251560148 a80.47036383239295,80.47036383239295 0 0,0 1.3228355551539253,0.41101144621985536 l -18.13377617052834 56.6382409344991" fill="#48f6ff" stroke="none" /><path d="M 106.40334571778207 80.00007090966166 l 2.906288073437719 -9.07737266526715 a30.5312750915051,30.5312750915051 0 0,0 0.4991386284645671,0.16455815815353378 l -3.0621095241447036 9.02600078285438" fill="#ff3404" stroke="none" /><path d="M 106.74666289553966 80.11325718540242 l 6.696179130663464 -19.737934779580875 a41.84286171121713,41.84286171121713 0 0,0 0.680081985882391,0.23726725111452585 l -7.034943120609129 19.61974667529414" fill="#ffd914" stroke="none" /><path d="M 107.08798089147638 80.2323363322302 l 7.798472287598121 -21.749152496876007 a44.10501686545162,44.10501686545162 0 0,0 0.7124381544218946,0.26239698478649814 l -8.171692767792592 21.611692244283184" fill="#fff717" stroke="none" /><path d="M 107.4271985657038 80.35727306442388 l 9.447187624882112 -24.984996049735837 a47.71140920327943,47.71140920327943 0 0,0 0.7656927677664281,0.29707689814249993 l -9.875863557648207 24.81867644770279" fill="#d8ff1c" stroke="none" /><path d="M 107.76421540070413 80.48803036053334 l 10.230335969790847 -25.709488279524 a48.67015651653923,48.67015651653923 0 0,0 0.7757469740830256,0.31644666857498854 l -10.67136681346226 25.529580724765434" fill="#cbff1d" stroke="none" /><path d="M 108.09893153111575 80.62456947434976 l 7.380007057978058 -17.655515851850048 a40.135875840178684,40.135875840178684 0 0,0 0.6351334970001264,0.27193101715083057 l -7.682824312768499 17.525865306736428" fill="#ffc111" stroke="none" /><path d="M 108.43124777332544 80.76684994638697 l 21.14019770699372 -48.224486528319524 a73.65462050011237,73.65462050011237 0 0,0 1.1567909951657296,0.5190183998827119 l -21.96717082062623 47.85344779792028" fill="#3fffbe" stroke="none" /><path d="M 108.76106565485865 80.91482961587045 l 6.836743914797266 -14.893213637111122 a37.3874610540239,37.3874610540239 0 0,0 0.5825710419554437,0.27352491562291315 l -7.092093168052307 14.773323738848207" fill="#ff9a0e" stroke="none" /><path d="M 109.08828744355905 81.06846463323043 l 2.964960279736919 -6.176218649057711 a27.851033955643913,27.851033955643913 0 0,0 0.43040289343212196,0.21119683058789868 l -3.070834440179473 6.124266658334981" fill="#ff0a01" stroke="none" /><path d="M 109.41281617654863 81.2277094730956 l 13.169346680776952 -26.26406351767471 a50.38082239248831,50.38082239248831 0 0,0 0.771881011020795,0.3953874338659725 l -13.619488179386503 26.033483558496236" fill="#b6ff1f" stroke="none" /><path d="M 109.73455568895987 81.39251694778311 l 12.465755207780123 -23.828137223039256 a47.89191656279422,47.89191656279422 0 0,0 0.727170229871417,0.3884291532974689 l -12.874070484179851 23.610029343240033" fill="#d5ff1c" stroke="none" /><path d="M 110.05341064243156 81.56283822128135 l 12.900203998938752 -23.657956147047564 a47.946505381400776,47.946505381400776 0 0,0 0.7211974315791686,0.4013455898499157 l -13.305525519589954 23.43239515963747" fill="#d5ff1c" stroke="none" /><path d="M 110.36928655335952 81.73862282372117 l 19.04739630827802 -33.544418550072066 a59.575009034179395,59.575009034179395 0 0,0 0.8873932137761381,0.514035426687788 l -19.621986254519488 33.21157896599423" fill="#4bff2c" stroke="none" /><line stroke="#e1ed5e" stroke-width="0.3" x1="143.23703022742887" x2="145.7803849466894" y1="26.81831364943548" y2="22.513508569990506" /><path d="M 143.74570117128098 25.957352633546492 a86.0,86.0 0 0,1 28.547481713284135,27.462654790039103" fill="none" id="id26" stroke="none" /><text fill="#e1ed5e" style="font-size:6.75px; font-family:Arial;" text-anchor="middle"><textPath startOffset="19.985693538727396" xlink:href="#id26">February</textPath></text><path d="M 110.68208982089419 81.91981866633111 l 14.480536823696484 -24.509317555933634 a49.467395275297434,49.467395275297434 0 0,0 0.7293800982208809,0.43944334808845936 l -14.900278988135003 24.256427598386562" fill="#c1ff1e" stroke="none" /><path d="M 110.99172775467656 82.1063720568725 l 32.97518326402967 -53.68088382938249 a84.0,84.0 0 0,0 1.225523390510947,0.7674226347082231 l -33.894325806912875 53.10531685335132" fill="#4dd2ff" stroke="none" /><path d="M 111.2981086023043 82.29822771554956 l 12.630832912720109 -19.789872433896733 a44.47715892136353,44.47715892136353 0 0,0 0.641811702505049,0.4174521844632571 l -12.969611641009438 19.569521325273946" fill="#fffc17" stroke="none" /><path d="M 111.60114157652 82.49532879139004 l 4.587560498012482 -6.922054837245092 a29.304249182963666,29.304249182963666 0 0,0 0.4180674042455641,0.2822809775592847 l -4.706032596664588 6.842061947387137" fill="#ff2103" stroke="none" /><path d="M 111.90073688211348 82.69761687909136 l 7.773440921110484 -11.301741591056556 a34.716987524417036,34.716987524417036 0 0,0 0.4894580444496552,0.3428966393399736 l -7.96683010514379 11.166260108952647" fill="#ff730a" stroke="none" /><path d="M 112.48926042617603 83.11751280151076 l 15.900076529848508 -21.493093210512523 a47.735098455229576,47.735098455229576 0 0,0 0.6563663466509434,0.4943615243960708 l -16.267689030257834 21.216215096610604" fill="#d7ff1c" stroke="none" /><path d="M 112.77801427241765 83.33499621200491 l 16.24289845316116 -21.18388338587567 a47.694356434761346,47.694356434761346 0 0,0 0.6472066136442535,0.5051550277705383 l -16.605137621964843 20.901149968881906" fill="#d8ff1c" stroke="none" /><path d="M 113.06298171725822 83.55741782278167 l 17.24338728365163 -21.70452493632919 a48.720404176810526,48.720404176810526 0 0,0 0.6521495254602766,0.5273262289626792 l -17.6144402076764 21.40449261010238" fill="#cbff1d" stroke="none" /><path d="M 113.34407831869373 83.78471172551755 l 10.529320447594626 -12.794886414370437 a37.57032611160008,37.57032611160008 0 0,0 0.49582536741990635,0.4152394860399593 l -10.74800335197365 12.611745770936658" fill="#ff9d0e" stroke="none" /><path d="M 113.6212207817346 84.01681056812373 l 15.091056788533546 -17.70790028613116 a44.266063860015265,44.266063860015265 0 0,0 0.5756826928413583,0.4992263583605699 l -15.393633280021668 17.44550893435092" fill="#fff917" stroke="none" /><path d="M 113.89432698308785 84.25364557470407 l 14.195884086782263 -16.088107216922175 a42.45577588502782,42.45577588502782 0 0,0 0.5438160583885531,0.4882434266525132 l -14.470711132766805 15.841364781500365" fill="#ffe115" stroke="none" /><path d="M 114.16331599549186 84.49514656593476 l 19.224455819692817 -21.045380187018015 a49.50417037521793,49.50417037521793 0 0,0 0.6242054302206861,0.5801309190247989 l -19.58386913370835 20.71134468191858" fill="#c1ff1e" stroke="none" /><path d="M 114.42810811169701 84.74124197986012 l 4.453277587263826 -4.709660100583952 a27.481711157731326,27.481711157731326 0 0,0 0.34092601194250377,0.3279705533733634 l -4.533686842818748 4.632306460448287" fill="#ff0400" stroke="none" /><path d="M 114.68862486808459 84.99185889309783 l 29.179493050004062 -29.814223799388163 a62.717271667922375,62.717271667922375 0 0,0 0.765043795833428,0.7617584546440015 l -29.68837264600481 29.307529494094045" fill="#30ff37" stroke="none" /><path d="M 114.94478906791727 85.2469230424477 l 4.442053663699879 -4.385070893427764 a27.241849685115533,27.241849685115533 0 0,0 0.32655938517008504,0.33654815179813397 l -4.516877312573072 4.307958546079515" fill="#ff0000" stroke="none" /><path d="M 115.19652480421416 85.50635884689758 l 26.699825857011643 -25.464880938735334 a57.89635296365636,57.89635296365636 0 0,0 0.6816128757784804,0.7270970917970977 l -27.134206054760586 25.001514430060183" fill="#5dff2a" stroke="none" /><path d="M 115.4437574822437 85.77008943001954 l 16.193397889073278 -14.920630814784452 a43.01934056925725,43.01934056925725 0 0,0 0.4970912650302307,0.5489005904302139 l -16.447832794719545 14.63967743708469" fill="#ffe915" stroke="none" /><path d="M 115.68641384162765 86.03803664274999 l 10.801523310952506 -9.61408223655231 a35.460410889329566,35.460410889329566 0 0,0 0.40189839583490994,0.45943934160181754 l -10.965413570365264 9.426727338747545" fill="#ff7e0b" stroke="none" /><path d="M 115.9244219780498 86.31012108654704 l 10.896425026505144 -9.367419389412722 a35.36943368318296,35.36943368318296 0 0,0 0.3929196897741831,0.4650929794427524 l -11.056055329766444 9.178467460340864" fill="#ff7d0b" stroke="none" /><path d="M 116.15771136456269 86.58626213691792 l 12.191035000452757 -10.120699899020492 a36.844554295665674,36.844554295665674 0 0,0 0.4009064864443921,0.4914639486642764 l -12.363439978973558 9.909351780748114" fill="#ff920d" stroke="none" /><path d="M 116.38621287248628 86.86637796730983 l 41.620863565175554 -33.359306082067306 a74.33984988906522,74.33984988906522 0 0,0 0.7917049560450805,1.0053848952801856 l -42.1889226018146 32.63792879283408" fill="#40ffc6" stroke="none" /><path d="M 116.60985879189232 87.15038557335679 l 17.792527216728033 -13.764542930497939 a43.49525876364903,43.49525876364903 0 0,0 0.4530218846565725,0.5961236975796231 l -18.026825041608717 13.456234457037283" fill="#ffef16" stroke="none" /><path d="M 116.82858285166822 87.43820079747576 l 22.519311062613657 -16.8096782861127 a49.101328346136285,49.101328346136285 0 0,0 0.4997518877530377,0.6816610132626757 l -22.80532556288032 16.41955482917853" fill="#c6ff1e" stroke="none" /><path d="M 117.04232023915458 87.72973835380427 l 11.133592163278715 -8.016049868115914 a34.71910820521299,34.71910820521299 0 0,0 0.3450209397186387,0.4880076511567559 l -11.269925722801236 7.823215716627365" fill="#ff730a" stroke="none" /><path d="M 117.2510076193507 88.02491185347247 l 17.638410760994436 -12.24401080146982 a42.47159366884708,42.47159366884708 0 0,0 0.41172273214457067,0.6041523055054329 l -17.84655795880774 11.93858047269398" fill="#ffe115" stroke="none" /><path d="M 117.45458315368197 88.32363383020206 l 16.931391332416897 -11.326373321023102 a41.370536199585565,41.370536199585565 0 0,0 0.39085969424021627,0.5953061296701184 l -17.123847662015038 11.033249127375308" fill="#ffd213" stroke="none" /><path d="M 117.65298651832404 88.62581576622439 l 20.257112819639115 -13.052076656592144 a45.09786971574759,45.09786971574759 0 0,0 0.414841137960842,0.6561790559392828 l -20.478781553845913 12.701449952938654" fill="#faff18" stroke="none" /><line stroke="#e1ed5e" stroke-width="0.3" x1="172.23445277983987" x2="176.4835382374775" y1="55.19839476539836" y2="52.563006222186495" /><path d="M 173.08426987136738 54.67131705675599 a86.0,86.0 0 0,1 12.851231095245387,41.99856678651699" fill="none" id="id27" stroke="none" /><text fill="#e1ed5e" style="font-size:6.75px; font-family:Arial;" text-anchor="middle"><textPath startOffset="22.20632615414155" xlink:href="#id27">March</textPath></text><path d="M 117.84615892207809 88.93136811851018 l 31.806260919547775 -19.727034550250195 a58.427184316070544,58.427184316070544 0 0,0 0.5227402325527891,0.8592474970272549 l -32.14111695038679 19.17661928001586" fill="#58ff2a" stroke="none" /><path d="M 118.03404312379186 89.2402003453031 l 24.907709716187643 -14.860891956610558 a50.00413958475446,50.00413958475446 0 0,0 0.43465580560153677,0.7429676675225206 l -25.159825196259508 14.429944876734142" fill="#bbff1f" stroke="none" /><path d="M 118.21658344932153 89.55222093294921 l 17.79333883368721 -10.205035072395146 a41.51208540541932,41.51208540541932 0 0,0 0.35016898683742603,0.6229115546782288 l -17.966365461817066 9.897240007782123" fill="#ffd413" stroke="none" /><line stroke="#e1ed5e" stroke-width="0.3" x1="184.98032266829074" x2="189.97916517819016" y1="98.17113171792111" y2="98.06355123074" /><path d="M 185.9800911702706 98.14961562048488 a86.0,86.0 0 0,1 -9.607161424134198,41.387399972396054" fill="none" id="id28" stroke="none" /><text fill="#e1ed5e" style="font-size:6.75px; font-family:Arial;" text-anchor="middle"><textPath startOffset="21.466115282336823" xlink:href="#id28">April</textPath></text><line stroke="#e1ed5e" stroke-width="0.3" x1="174.80103733775053" x2="179.2010983576182" y1="140.37084112569926" y2="142.7455964860345" /><path d="M 175.68104954172406 140.8457921977663 a86.0,86.0 0 0,1 -30.038265399797805,32.042727171017184" fill="none" id="id29" stroke="none" /><text fill="#e1ed5e" style="font-size:6.75px; font-family:Arial;" text-anchor="middle"><textPath startOffset="22.206326154141568" xlink:href="#id29">May</textPath></text><line stroke="#e1ed5e" stroke-width="0.3" x1="143.8653032363475" x2="146.44561519142675" y1="172.8068346515853" y2="177.08958963109032" /><path d="M 144.38136562736335 173.6633856474863 a86.0,86.0 0 0,1 -40.68145358897372,12.25698825130547" fill="none" id="id30" stroke="none" /><text fill="#e1ed5e" style="font-size:6.75px; font-family:Arial;" text-anchor="middle"><textPath startOffset="21.466115282336833" xlink:href="#id30">June</textPath></text><line stroke="#e1ed5e" stroke-width="0.3" x1="102.19456741930631" x2="102.32365962044197" y1="184.97166512339345" y2="189.96999836594603" /><path d="M 102.22038585953345 185.97133177190398 a86.0,86.0 0 0,1 -42.740103519485714,-10.115201625700543" fill="none" id="id31" stroke="none" /><text fill="#e1ed5e" style="font-size:6.75px; font-family:Arial;" text-anchor="middle"><textPath startOffset="22.20632615414155" xlink:href="#id31">July</textPath></text><line stroke="#e1ed5e" stroke-width="0.3" x1="58.666819895761336" x2="56.23545636021788" y1="174.27360380694188" y2="178.64263932499728" /><path d="M 58.180547188652646 175.14741091055294 a86.0,86.0 0 0,1 -31.652253787137756,-30.449443065178592" fill="none" id="id32" stroke="none" /><text fill="#e1ed5e" style="font-size:6.75px; font-family:Arial;" text-anchor="middle"><textPath startOffset="22.20632615414155" xlink:href="#id32">August</textPath></text><line stroke="#e1ed5e" stroke-width="0.3" x1="26.63291911575756" x2="22.317208475507996" y1="142.92168965132927" y2="145.44649492493687" /><path d="M 25.769776987707644 143.4266507060508 a86.0,86.0 0 0,1 -11.730757126820373,-40.83630448921669" fill="none" id="id33" stroke="none" /><text fill="#e1ed5e" style="font-size:6.75px; font-family:Arial;" text-anchor="middle"><textPath startOffset="21.46611528233685" xlink:href="#id33">September</textPath></text><line stroke="#e1ed5e" stroke-width="0.3" x1="15.007084014347285" x2="10.007500721073583" y1="101.09737516637583" y2="101.16192664675087" /><path d="M 14.007167355692545 101.11028546245083 a86.0,86.0 0 0,1 10.666146001902534,-42.60595125391555" fill="none" id="id34" stroke="none" /><text fill="#e1ed5e" style="font-size:6.75px; font-family:Arial;" text-anchor="middle"><textPath startOffset="22.20632615414155" xlink:href="#id34">October</textPath></text><line stroke="#e1ed5e" stroke-width="0.3" x1="26.266209847984243" x2="21.928928074336255" y1="57.711370442889674" y2="55.22380399835377" /><path d="M 25.398753493254645 57.213857153982495 a86.0,86.0 0 0,1 29.58750427330803,-30.492523968695096" fill="none" id="id35" stroke="none" /><text fill="#e1ed5e" style="font-size:6.75px; font-family:Arial;" text-anchor="middle"><textPath startOffset="21.46611528233685" xlink:href="#id35">November</textPath></text><line stroke="#e1ed5e" stroke-width="0.3" x1="56.762969772571076" x2="54.21961505331055" y1="26.818313649435495" y2="22.513508569990535" /><path d="M 56.25429882871897 25.957352633546506 a86.0,86.0 0 0,1 42.265352541879196,-11.944610805530505" fill="none" id="id36" stroke="none" /><text fill="#e1ed5e" style="font-size:6.75px; font-family:Arial;" text-anchor="middle"><textPath startOffset="22.20632615414155" xlink:href="#id36">December</textPath></text></svg>