<?xml version="1.0" encoding="utf-8" ?>
<svg baseProfile="full" height="200mm" version="1.1" viewBox="0,0,200,200" width="200mm" xmlns="http://www.w3.org/2000/svg" xmlns:ev="http://www.w3.org/2001/xml-events" xmlns:xlink="http://www.w3.org/1999/xlink"><defs /><rect fill="#1a1a1a" height="200" width="200" x="0" y="0" /><text alignment-baseline="middle" fill="#e1ed5e" style="dominant-baseline: central; font-size:9.0px; font-family:Arial;" text-anchor="middle" x="100.0" y="100.0">2024</text><line stroke="#e1ed5e" stroke-width="0.3" x1="100.0" x2="100.0" y1="15.0" y2="10.0" /><path d="M 100.0 14.0 a86.0,86.0 0 0,1 42.35913384403234,11.155469271406648" fill="none" id="id13" stroke="none" /><text fill="#e1ed5e" style="font-size:6.75px; font-family:Arial;" text-anchor="middle"><textPath startOffset="22.145653131862478" xlink:href="#id13">January</textPath></text><path d="M 100.0 79.0 l 0.0 -23.417468070693843 a44.41746807069384,44.41746807069384 0 0,0 0.7624849037707163,0.00654501585711073 l -0.4019919789218615 23.414017453031168" fill="#fdff18" stroke="none" /><path d="M 100.36049292484886 79.00309439819443 l 0.4065496426560032 -23.679478516464435 a44.68296825618876,44.68296825618876 0 0,0 0.7668165165395301,0.01975047338061459 l -0.8129794732662746 23.669010325733773" fill="#faff18" stroke="none" /><path d="M 100.72087961077811 79.0123766808444 l 1.721071767941455 -50.107126669596646 a71.13667550918598,71.13667550918598 0 0,0 1.2200760949955323,0.052395317183438254 l -2.580973623537824 50.07019878398738" fill="#3cffa2" stroke="none" /><path d="M 101.08105385017728 79.02784411241856 l 1.0700754033346838 -20.75917695175078 a41.78673829832191,41.78673829832191 0 0,0 0.716056846791137,0.04307620177694645 l -1.4262766022582831 20.737748772149143" fill="#ffde14" stroke="none" /><path d="M 101.44090949804482 79.04949213459386 l 1.6116464141753817 -23.432985154342273 a44.48834173388896,44.48834173388896 0 0,0 0.7614518757235543,0.05894119093923512 l -2.0136672846741694 23.401866196407987" fill="#fcff18" stroke="none" /><path d="M 101.80034050326958 79.07731436759882 l 1.7925423996293264 -20.832059847613458 a41.909039331088785,41.909039331088785 0 0,0 0.7162463101924966,0.06782927025371038 l -2.149888273206836 20.798218821854565" fill="#ffdf14" stroke="none" /><path d="M 102.15924093988457 79.11130261209362 l 2.4069033380294726 -23.284606428742105 a44.408675319633865,44.408675319633865 0 0,0 0.7576206678329324,0.08489297607616926 l -2.8062599074632018 23.239857692158967" fill="#feff18" stroke="none" /><path d="M 102.51750503828377 79.15144685158666 l 2.501668425337499 -20.717403275153785 a41.867897435431374,41.867897435431374 0 0,0 0.7127953278080172,0.09228562584436234 l -2.856941575036308 20.671406053109024" fill="#ffdf14" stroke="none" /><path d="M 102.87502721639298 79.19773525538626 l 3.441763524832403 -24.902886353105146 a46.139599934695404,46.139599934695404 0 0,0 0.7836589016195851,0.11517087176169943 l -3.8687475320596705 24.840134408044563" fill="#e7ff1a" stroke="none" /><path d="M 103.23170211078529 79.25015418208739 l 3.6252013903724927 -23.27639347019914 a44.55700698518994,44.55700698518994 0 0,0 0.7547585610120736,0.12419523399522016 l -4.024237454437637 23.21073223770825" fill="#fcff18" stroke="none" /><path d="M 103.58742460773223 79.30868818359171 l 4.4032779151405474 -25.396936888959942 a46.77582704278912,46.77582704278912 0 0,0 0.7899886267381253,0.14396224369743119 l -4.838601275429726 25.317606471331146" fill="#dfff1b" stroke="none" /><path d="M 104.29559338865022 79.4440306129975 l 9.03260040112015 -43.22426275751296 a65.15795240878859,65.15795240878859 0 0,0 1.0929085568817696,0.23819433321024985 l -9.773271374621055 43.06283696616899" fill="#34ff59" stroke="none" /><path d="M 104.64783097203109 79.52079915486377 l 4.9862489720667 -21.970332995604714 a43.52905259324487,43.52905259324487 0 0,0 0.7272830920540525,0.17163682943556463 l -5.362664217860637 21.88150002252292" fill="#fff517" stroke="none" /><path d="M 104.9986988182912 79.60360301121754 l 5.994175742869382 -24.458282548394926 a46.18209141539923,46.18209141539923 0 0,0 0.7683703946819734,0.19531674963910273 l -6.41315143077675 24.351780566920556" fill="#e7ff1a" stroke="none" /><path d="M 105.3480935250658 79.69241777938227 l 6.350540686302534 -24.114037372014742 a45.936242006110454,45.936242006110454 0 0,0 0.7608323495662026,0.20736824014544647 l -6.76355443680343 24.001468637725154" fill="#eaff1a" stroke="none" /><path d="M 105.69591212413111 79.78721728523813 l 7.221398287262743 -25.626194944055896 a47.62424572704431,47.62424572704431 0 0,0 0.7849836107759307,0.22849728862315122 l -7.660241910420278 25.49845396113023" fill="#d4ff1c" stroke="none" /><path d="M 106.04205211174951 79.88797359093562 l 7.673985315029037 -25.54420128527268 a47.67201285838412,47.67201285838412 0 0,0 0.7817287703642222,0.24218157132656346 l -8.111354718264888 25.40870312613947" fill="#d4ff1c" stroke="none" /><path d="M 106.38641147887787 79.99465700312896 l 7.65873256070412 -23.990870664210796 a46.18368637954499,46.18368637954499 0 0,0 0.7531839274572293,0.2475865170889134 l -8.069439225809091 23.85586322571986" fill="#e6ff1a" stroke="none" /><path d="M 106.72888874123014 80.10723608172694 l 13.970848240964402 -41.30233036736432 a64.60122812888375,64.60122812888375 0 0,0 1.047445014127996,0.3643557484561455 l -14.677799027137416 41.05641618633958" fill="#33ff52" stroke="none" /><path d="M 107.06938296918511 80.22567764915836 l 9.28634151604818 -25.975549973565418 a48.58560014177459,48.58560014177459 0 0,0 0.7829473410176866,0.2875091085723833 l -9.730878008719992 25.812310015984313" fill="#c8ff1d" stroke="none" /><path d="M 107.40779381753099 80.34994680014964 l 8.665428505375388 -22.986078625346927 a45.56520835963748,45.56520835963748 0 0,0 0.7295374721796186,0.28220076648895454 l -9.058738240048532 22.833937970719933" fill="#eeff19" stroke="none" /><path d="M 107.74402155503746 80.48000691201159 l 9.47132750244619 -23.87393243521643 a46.68405525963283,46.68405525963283 0 0,0 0.7423777136901606,0.30191855327688527 l -9.87975967732679 23.70782662536025" fill="#e0ff1b" stroke="none" /><path d="M 108.07796709384702 80.6158196554323 l 10.028532119319163 -24.064826327436098 a47.07081361672239,47.07081361672239 0 0,0 0.7431919418331075,0.3172244470439832 l -10.4401591363227 23.88912723073271" fill="#dbff1b" stroke="none" /><path d="M 108.4095320186766 80.7573450057729 l 9.706715776166703 -22.210865288695476 a45.23928357092802,45.23928357092802 0 0,0 0.7089353279812302,0.31709775491267306 l -10.086564507003565 22.04096378287295" fill="#f3ff19" stroke="none" /><path d="M 108.73861861582097 80.90454125486305 l 10.76221514874195 -23.517382370598277 a46.86295707131606,46.86295707131606 0 0,0 0.7286325897685645,0.3410368428279444 l -11.16433645238202 23.3291692961998" fill="#deff1b" stroke="none" /><path d="M 109.06512990194946 81.05736502329252 l 13.390715928743543 -27.98144611920264 a52.020519015744185,52.020519015744185 0 0,0 0.8022053291103094,0.39239882548953486 l -13.869081507115919 27.747453543615887" fill="#9eff22" stroke="none" /><path d="M 109.3889696526874 81.21577127319529 l 20.533197912729882 -41.080150469446735 a66.92592926785173,66.92592926785173 0 0,0 1.023242573782365,0.5224749490652689 l -21.235367708225827 40.72161756870864" fill="#36ff6f" stroke="none" /><path d="M 109.71004243097381 81.37971332152246 l 9.807566845702159 -18.80730260279523 a42.210916968062094,42.210916968062094 0 0,0 0.6396183750067737,0.34056075804286007 l -10.128974036495492 18.636171377029797" fill="#ffe315" stroke="none" /><path d="M 110.02825361518725 81.54914285379988 l 11.23414174880597 -20.669555490047433 a44.52523039182433,44.52523039182433 0 0,0 0.668420840700536,0.37076177277551436 l -11.587306777662606 20.473660801838772" fill="#fcff18" stroke="none" /><path d="M 110.34350942703115 81.72400993836675 l 11.556900164085478 -20.419935229153428 a44.46349710007995,44.46349710007995 0 0,0 0.6610399380910638,0.3816515862019692 l -11.90573257003694 20.218536745675287" fill="#fdff18" stroke="none" /><line stroke="#e1ed5e" stroke-width="0.3" x1="143.13028292997686" x2="145.6673583964461" y1="26.7553504044142" y2="22.446841604673864" /><path d="M 143.63769802327073 25.89364864446614 a86.0,86.0 0 0,1 29.32050498858742,28.57503671076993" fill="none" id="id14" stroke="none" /><text fill="#e1ed5e" style="font-size:6.75px; font-family:Arial;" text-anchor="middle"><textPath startOffset="20.669276256404974" xlink:href="#id14">February</textPath></text><path d="M 110.65571695917076 81.90426304109057 l 14.868456746407867 -25.249890110524998 a50.302354113848764,50.302354113848764 0 0,0 0.7403242821256688,0.444543460172126 l -15.29971378509097 24.990932649816948" fill="#b3ff20" stroke="none" /><path d="M 110.96478420261332 82.08984904055464 l 18.385280626606175 -30.030974196081495 a56.211900756488184,56.211900756488184 0 0,0 0.8186483638212751,0.5108971259956786 l -18.89809311921716 29.71094127324427" fill="#6dff28" stroke="none" /><path d="M 111.27062007382361 82.28071324371311 l 13.882866245548213 -21.82617162079443 a46.867271653812935,46.867271653812935 0 0,0 0.6751439548663001,0.4376201546864825 l -14.25549583267152 21.584637624404053" fill="#deff1b" stroke="none" /><path d="M 111.5731344415666 82.4767994020092 l 14.142681186173684 -21.413821870819373 a46.66256414018157,46.66256414018157 0 0,0 0.6646164829161944,0.44718363059724475 l -14.50819395718688 21.167888566165008" fill="#e0ff1b" stroke="none" /><path d="M 111.8722381534696 82.67804972795209 l 16.253836038555075 -23.71483253202685 a49.75031248508981,49.75031248508981 0 0,0 0.7003065041062803,0.488868328410153 l -16.658537633835117 23.43231938781157" fill="#baff1f" stroke="none" /><path d="M 112.16784306229584 82.88440491214696 l 13.27637593544832 -18.674885399317027 a43.913173125016435,43.913173125016435 0 0,0 0.6106419260590632,0.4420576631042429 l -13.59499887188135 18.444226964839707" fill="#fffa17" stroke="none" /><path d="M 112.45986205192187 83.09580414077388 l 14.021626063969155 -19.023028687031452 a44.63221567914022,44.63221567914022 0 0,0 0.6128364756842911,0.4598839163816498 l -14.346115528564212 18.779525743385786" fill="#fbff18" stroke="none" /><path d="M 112.7482090630111 83.31218511350987 l 16.314500177177834 -21.356204434417105 a47.87471644270414,47.87471644270414 0 0,0 0.6487937239524775,0.5045059239392028 l -16.678703845765536 21.07299745885711" fill="#d1ff1c" stroke="none" /><path d="M 113.03279911837588 83.53348406188908 l 16.6795794821908 -21.074103796875647 a47.876127372525396,47.876127372525396 0 0,0 0.6400564703909513,0.5155841853267014 l -17.03888672293701 20.784671317755535" fill="#d1ff1c" stroke="none" /><path d="M 113.31354834802062 83.75963576809568 l 13.575697099859799 -16.56014308435731 a42.41349786283243,42.41349786283243 0 0,0 0.5591021326857966,0.4664228842429087 l -13.857973566707487 16.324658016202534" fill="#ffe615" stroke="none" /><path d="M 113.59037401385872 83.9905735841838 l 29.75257977410716 -35.04846416210053 a66.97402357132401,66.97402357132401 0 0,0 0.870089902528718,0.751562934620412 l -30.34984915639874 34.5325570950154" fill="#36ff70" stroke="none" /><path d="M 113.86319453409587 84.22622945171908 l 16.26276535370039 -18.504041657851023 a45.63487557559412,45.63487557559412 0 0,0 0.583985098272661,0.5222030759062244 l -16.578015478796427 18.222143052061412" fill="#eeff19" stroke="none" /><path d="M 114.13192950727249 84.46653392183569 l 6.409332457576351 -7.0449791206646735 a30.52424660339824,30.52424660339824 0 0,0 0.3845622335395239,0.3559450621833981 l -6.52932446242984 6.9339163123489005" fill="#ff3c05" stroke="none" /><path d="M 114.39649973595853 84.71141617570332 l 22.449828084006544 -23.84093945044841 a53.74729263437508,53.74729263437508 0 0,0 0.666280908713166,0.638282038663304 l -22.855781478585023 23.452045281479528" fill="#8aff24" stroke="none" /><path d="M 114.91283532996326 85.21462403516908 l 31.97612301820793 -31.702824463699972 a66.02823028114408,66.02823028114408 0 0,0 0.7911225826375949,0.8117614638817608 l -32.515632401996335 31.149240307750468" fill="#35ff64" stroke="none" /><path d="M 115.16444852881244 85.47280134310134 l 17.89288048376726 -17.1409747501176 a45.778381452196356,45.778381452196356 0 0,0 0.5387552341384061,0.5721393886689272 l -18.184491551641926 16.83129390150418" fill="#ecff1a" stroke="none" /><path d="M 115.41159269507618 85.73525988315684 l 15.367266608658747 -14.223712553005226 a41.939600803552025,41.939600803552025 0 0,0 0.48450683717693155,0.5325578871627905 l -15.609171146677557 13.957817090284765" fill="#ffe015" stroke="none" /><path d="M 115.6541949942343 86.00192230759917 l 18.51761550181223 -16.558565967004068 a45.84125984640437,45.84125984640437 0 0,0 0.519510126554456,0.5911071588603931 l -18.799136692325277 16.238246530332376" fill="#ebff1a" stroke="none" /><path d="M 115.8921839302757 86.27271002978787 l 16.52691763688352 -14.275557828342924 a42.83873984200312,42.83873984200312 0 0,0 0.4759290903639906,0.5606432717421089 l -16.769541290754624 13.989747774151262" fill="#ffec16" stroke="none" /><path d="M 116.1254893667686 86.54754324733833 l 16.72243583769071 -13.950450729841853 a42.77739506716604,42.77739506716604 0 0,0 0.4655671289184115,0.5679161971241875 l -16.95944978584775 13.66133225101917" fill="#ffeb16" stroke="none" /><path d="M 116.35404254752997 86.82634096563983 l 21.768608316670303 -17.535249940979533 a48.95276906743284,48.95276906743284 0 0,0 0.521541797782677,0.6589510240720818 l -22.06641654509454 17.158978972992774" fill="#c4ff1e" stroke="none" /><path d="M 116.57777611688842 87.10902102172516 l 20.997737315475064 -16.327967540192137 a47.599013071226196,47.599013071226196 0 0,0 0.4960452328821124,0.649339133108581 l -21.274934525711483 15.965107493842673" fill="#d4ff1c" stroke="none" /><path d="M 116.7966241395341 87.39550010848427 l 16.36438030512119 -12.280136059908493 a41.45958661411572,41.45958661411572 0 0,0 0.4222915164594669,0.5729195455112851 l -16.572773841164484 11.997410205128332" fill="#ffd914" stroke="none" /><path d="M 117.01052211995028 87.68569379921539 l 25.07220175418198 -18.150340556962767 a51.95238541915846,51.95238541915846 0 0,0 0.5167651861625916,0.726894950614946 l -25.38008203887453 17.717268379638316" fill="#9fff22" stroke="none" /><path d="M 117.21940702142032 87.97951657250589 l 38.84485228894178 -27.1167237409414 a68.37340240886483,68.37340240886483 0 0,0 0.6635810066563064,0.968184520070203 l -39.30462303241341 26.445904485801147" fill="#38ff81" stroke="none" /><path d="M 117.42321728460499 88.27688183743584 l 41.459437376609024 -27.89575974288469 a70.97057493383193,70.97057493383193 0 0,0 0.671434228337992,1.0166369993305844 l -41.93219604386774 27.179942865215043" fill="#3bffa0" stroke="none" /><path d="M 117.62189284568427 88.57770195909679 l 25.1374362744744 -16.293782491225283 a50.95626896535383,50.95626896535383 0 0,0 0.46948269264517545,0.7381047718407721 l -25.413436658745464 15.859864044705839" fill="#abff21" stroke="none" /><path d="M 117.81537515405839 88.88188828441811 l 4.811448349546064 -3.00269962329809 a26.671528916271523,26.671528916271523 0 0,0 0.23906838947601836,0.39050024752210344 l -4.862284703477485 2.9196622596514317" fill="#ff0000" stroke="none" /><line stroke="#e1ed5e" stroke-width="0.3" x1="172.87174338648825" x2="177.1583165268699" y1="56.24261187166439" y2="53.66864786411523" /><path d="M 173.72905801456457 55.72781907015455 a86.0,86.0 0 0,1 12.242430191666344,42.057860355516425" fill="none" id="id15" stroke="none" /><text fill="#e1ed5e" style="font-size:6.75px; font-family:Arial;" text-anchor="middle"><textPath startOffset="22.145653131862474" xlink:href="#id15">March</textPath></text><path d="M 118.00360718960297 89.18935116829356 l 22.04717239140981 -13.238693554326604 a46.716547542038214,46.716547542038214 0 0,0 0.4069373674957795,0.691068615013938 l -22.271183469035357 12.85827377101911" fill="#e0ff1b" stroke="none" /><path d="M 118.18653347947321 89.5 l 27.356523210192602 -15.794296039496949 a52.58859207899389,52.58859207899389 0 0,0 0.4446656825585936,0.785681654038261 l -27.623622257772574 15.32235761535957" fill="#97ff23" stroke="none" /><path d="M 118.36410011445183 89.81374322990088 l 22.805028377993175 -12.649564817217813 a47.07835902402735,47.07835902402735 0 0,0 0.3859408780221367,0.7100877461337122 l -23.018814605630652 12.256222237609498" fill="#dbff1b" stroke="none" /><path d="M 118.53625476483649 90.13048839642627 l 10.88264730333243 -5.79439672147747 a33.32911374327439,33.32911374327439 0 0,0 0.2645568728200058,0.5073226867635791 l -10.98051224512738 5.6067277916093925" fill="#ff6609" stroke="none" /><path d="M 118.70294669586156 90.45014215332178 l 20.57905874361703 -10.507814026089763 a44.10653185530293,44.10653185530293 0 0,0 0.33852831582700066,0.677283402782569 l -20.756406972655768 10.152998767143442" fill="#fffd17" stroke="none" /><path d="M 118.8641267826498 90.77261029715802 l 23.712743854621298 -11.599091280043147 a47.39759723227955,47.39759723227955 0 0,0 0.3512404405811698,0.7339574310519505 l -23.908363553162378 11.190321346926092" fill="#d7ff1c" stroke="none" /><path d="M 119.0197475246899 91.09779779509293 l 21.52300171983724 -10.07385156495014 a44.763882014198884,44.763882014198884 0 0,0 0.3197751293107326,0.6987663677664918 l -21.692761314003025 9.702896214968963" fill="#f9ff18" stroke="none" /><path d="M 119.16976305983485 91.42560881287824 l 21.20081603992793 -9.482855351166442 a44.22496816725507,44.22496816725507 0 0,0 0.30402795105855607,0.6956754499333329 l -21.360477873003454 9.11751783145726" fill="#fffe18" stroke="none" /><path d="M 119.31412917781788 91.75594674310238 l 27.77784403128703 -11.856709844248773 a51.202486443291626,51.202486443291626 0 0,0 0.33811721738836353,0.811358234481007 l -27.97728709321188 11.378119100326488" fill="#a8ff21" stroke="none" /><path d="M 119.4528033332814 92.08871423366111 l 28.93162735645631 -11.766240977235228 a52.23273104016395,52.23273104016395 0 0,0 0.3306613559341637,0.8334826209388748 l -29.1293473873566 11.267857339082788" fill="#9cff22" stroke="none" /><path d="M 119.71291397450082 92.76114493625339 l 22.548506432429303 -8.280123891346056 a45.02073258644177,45.02073258644177 0 0,0 0.2601765929136989,0.7277602357723588 l -22.687323195386945 7.891828699192781" fill="#f6ff19" stroke="none" /><path d="M 119.83427380445688 93.10060997987247 l 25.64005424120695 -8.918941832272226 a48.1470054499477,48.1470054499477 0 0,0 0.2648419541477978,0.782958178106693 l -25.789381616927113 8.47748197969137" fill="#ceff1d" stroke="none" /><path d="M 119.94978838288452 93.4421083053983 l 25.352945778597274 -8.334016850915106 a47.68759443119275,47.68759443119275 0 0,0 0.24896395092203358,0.7798760303065598 l -25.492274445296566 7.897571786917158" fill="#d3ff1c" stroke="none" /><path d="M 120.05942366710727 93.78553927170692 l 45.73068966566002 -14.167484555950107 a68.87497880876805,68.87497880876805 0 0,0 0.34018886960560024,1.132378106483495 l -45.96715485526925 13.38036884587589" fill="#39ff87" stroke="none" /><path d="M 120.16314734710363 94.1308016681162 l 44.87037142316126 -13.061111173482262 a67.73267440173427,67.73267440173427 0 0,0 0.31538109708680634,1.1191762528694766 l -45.08797101232265 12.288926996709773" fill="#37ff79" stroke="none" /><path d="M 120.26092885502905 94.47779374421319 l 11.041034905827582 -3.0092831608846886 a32.44378595282554,32.44378595282554 0 0,0 0.14184194442805295,0.5385969664338535 l -11.091066331060365 2.8193056900780364" fill="#ff5908" stroke="none" /><path d="M 120.35273937422433 94.82641323984039 l 22.656218939466807 -5.75912225795748 a44.376735140202015,44.376735140202015 0 0,0 0.18133701940534067,0.7399169205833815 l -22.751743485388438 5.369349512766004" fill="#feff18" stroke="none" /><path d="M 120.43855184770803 95.1765574152323 l 23.351059101991275 -5.510786366432453 a44.992513990016704,44.992513990016704 0 0,0 0.17094828226752734,0.7532296737456143 l -23.442218245816466 5.109122358747812" fill="#f6ff19" stroke="none" /><path d="M 120.51834098615036 95.52812308129327 l 22.685024494965727 -4.944095504982981 a44.21754544949978,44.21754544949978 0 0,0 0.15527157253208174,0.743030683508019 l -22.766553778322177 4.553948370189557" fill="#fffe18" stroke="none" /><path d="M 120.592083275326 95.88100663000786 l 23.34655070863816 -4.669964000014145 a44.809031768478974,44.809031768478974 0 0,0 0.1443996818580758,0.755560152979006 l -23.42327668277839 4.268501282001824" fill="#f8ff18" stroke="none" /><path d="M 120.65975698304385 96.23510406497455 l 20.485074760529695 -3.7330630151123807 a41.822440957277095,41.822440957277095 0 0,0 0.12264965044162687,0.7074105908710467 l -20.546139228463556 3.3808593913207416" fill="#ffde14" stroke="none" /><path d="M 120.7213421655516 96.59031103205396 l 26.09190740649163 -4.293413434602965 a47.44278788307621,47.44278788307621 0 0,0 0.12533595621685048,0.8047467488605508 l -26.161764854846744 3.844878503810973" fill="#d6ff1c" stroke="none" /><path d="M 120.77682067341334 96.94652285012252 l 24.58975991923483 -3.6138479132390513 a45.853896870020804,45.853896870020804 0 0,0 0.1077686308498716,0.7797601279462822 l -24.648173066639917 3.1911994770926833" fill="#ebff1a" stroke="none" /><path d="M 120.82617615685814 97.30363454192243 l 33.036257524242586 -4.277204945430624 a54.311991735008746,54.311991735008746 0 0,0 0.11177385589854612,0.9256478695639507 l -33.10481346640079 3.7094633989432606" fill="#83ff25" stroke="none" /><path d="M 120.86939407059847 97.66154086499901 l 43.59049271414067 -4.884405629686445 a64.86329300698779,64.86329300698779 0 0,0 0.11449176607284368,1.1076039781972848 l -43.66791687269519 4.13539712920623" fill="#33ff55" stroke="none" /><path d="M 120.9064616781168 98.02013634271609 l 44.23048747369035 -4.188673150022921 a65.42838062452876,65.42838062452876 0 0,0 0.09629305799321483,1.1190712964107032 l -44.29587415438131 3.4287808062365555" fill="#34ff5c" stroke="none" /><path d="M 120.93736805541906 98.37931529534042 l 29.160098469053555 -2.257176042856565 a50.24732785081989,50.24732785081989 0 0,0 0.05918665966997797,0.8605610419152592 l -29.1945490898886 1.7562715767869714" fill="#b4ff20" stroke="none" /><path d="M 120.96210409425399 98.7389718711861 l 43.23868603794898 -2.6011319809137436 a64.31685420099728,64.31685420099728 0 0,0 0.05683898024399363,1.1026610320778734 l -43.27696660764954 1.8584991554591395" fill="#33ff4e" stroke="none" /><path d="M 120.98066250479742 99.09900007780936 l 47.042968379954644 -2.020227475670231 a68.08632702867007,68.08632702867007 0 0,0 0.04012331467689291,1.1681465284413555 l -47.07071638162839 1.2123746826647557" fill="#38ff7d" stroke="none" /><path d="M 120.99303781780057 99.45929381324524 l 62.97911345340172 -1.6221185602642854 a84.0,84.0 0 0,0 0.024754273605335886,1.4418123361237345 l -62.99767915860572 0.5407593081714844" fill="#4dd2ff" stroke="none" /><line stroke="#e1ed5e" stroke-width="0.3" x1="184.99686870605535" x2="189.99668451229388" y1="99.2704041080226" y2="99.22748670261217" /><path d="M 185.99683186730306 99.26182062694052 a86.0,86.0 0 0,1 -10.086455211305974,41.156179273409016" fill="none" id="id16" stroke="none" /><text fill="#e1ed5e" style="font-size:6.75px; font-family:Arial;" text-anchor="middle"><textPath startOffset="21.40746469413373" xlink:href="#id16">April</textPath></text><line stroke="#e1ed5e" stroke-width="0.3" x1="174.33088141563837" x2="178.70328620479359" y1="141.23008692659167" y2="143.65538615756765" /><path d="M 175.20536237346943 141.71514677278685 a86.0,86.0 0 0,1 -30.301960400862466,31.631185727798858" fill="none" id="id17" stroke="none" /><text fill="#e1ed5e" style="font-size:6.75px; font-family:Arial;" text-anchor="middle"><textPath startOffset="22.145653131862474" xlink:href="#id17">May</textPath></text><line stroke="#e1ed5e" stroke-width="0.3" x1="143.1302829299769" x2="145.66735839644613" y1="173.24464959558577" y2="177.55315839532614" /><path d="M 143.63769802327073 174.10635135553383 a86.0,86.0 0 0,1 -40.68552437913181,11.842963189579606" fill="none" id="id18" stroke="none" /><text fill="#e1ed5e" style="font-size:6.75px; font-family:Arial;" text-anchor="middle"><textPath startOffset="21.407464694133747" xlink:href="#id18">June</textPath></text><line stroke="#e1ed5e" stroke-width="0.3" x1="101.45913802915013" x2="101.54496967792366" y1="184.9874750549273" y2="189.98673829345242" /><path d="M 101.47630435890484 185.9873277026323 a86.0,86.0 0 0,1 -42.54439059252881,-10.42667462771756" fill="none" id="id19" stroke="none" /><text fill="#e1ed5e" style="font-size:6.75px; font-family:Arial;" text-anchor="middle"><textPath startOffset="22.145653131862474" xlink:href="#id19">July</textPath></text><line stroke="#e1ed5e" stroke-width="0.3" x1="58.13341422392154" x2="55.67067388415222" y1="173.97424548756322" y2="178.32567169271397" /><path d="M 57.64086615596768 174.84453072859336 a86.0,86.0 0 0,1 -31.369924170532247,-30.572349798747897" fill="none" id="id20" stroke="none" /><text fill="#e1ed5e" style="font-size:6.75px; font-family:Arial;" text-anchor="middle"><textPath startOffset="22.145653131862474" xlink:href="#id20">August</textPath></text><line stroke="#e1ed5e" stroke-width="0.3" x1="26.387840678322732" x2="22.057713659400548" y1="142.50000000000003" y2="145.00000000000006" /><path d="M 25.521815274538298 143.00000000000003 a86.0,86.0 0 0,1 -11.493303480769221,-40.785679425670985" fill="none" id="id21" stroke="none" /><text fill="#e1ed5e" style="font-size:6.75px; font-family:Arial;" text-anchor="middle"><textPath startOffset="21.40746469413373" xlink:href="#id21">September</textPath></text><line stroke="#e1ed5e" stroke-width="0.3" x1="15.003131293944662" x2="10.003315487706104" y1="100.72959589197737" y2="100.7725132973878" /><path d="M 14.003168132696942 100.73817937305945 a86.0,86.0 0 0,1 10.791469493833604,-42.45332614584628" fill="none" id="id22" stroke="none" /><text fill="#e1ed5e" style="font-size:6.75px; font-family:Arial;" text-anchor="middle"><textPath startOffset="22.145653131862435" xlink:href="#id22">October</textPath></text><line stroke="#e1ed5e" stroke-width="0.3" x1="26.387840678322718" x2="22.05771365940052" y1="57.49999999999999" y2="54.99999999999999" /><path d="M 25.521815274538284 56.99999999999999 a86.0,86.0 0 0,1 29.574782752854787,-30.34633250058573" fill="none" id="id23" stroke="none" /><text fill="#e1ed5e" style="font-size:6.75px; font-family:Arial;" text-anchor="middle"><textPath startOffset="21.40746469413373" xlink:href="#id23">November</textPath></text><line stroke="#e1ed5e" stroke-width="0.3" x1="56.869717070023135" x2="54.33264160355391" y1="26.7553504044142" y2="22.446841604673864" /><path d="M 56.362301976729285 25.89364864446614 a86.0,86.0 0 0,1 42.16139366436587,-11.88097634709845" fill="none" id="id24" stroke="none" /><text fill="#e1ed5e" style="font-size:6.75px; font-family:Arial;" text-anchor="middle"><textPath startOffset="22.145653131862474" xlink:href="#id24">December</textPath></text></svg>