<?xml version="1.0" encoding="utf-8" ?>
<svg baseProfile="full" height="200mm" version="1.1" viewBox="0,0,200,200" width="200mm" xmlns="http://www.w3.org/2000/svg" xmlns:ev="http://www.w3.org/2001/xml-events" xmlns:xlink="http://www.w3.org/1999/xlink"><defs /><rect fill="#1a1a1a" height="200" width="200" x="0" y="0" /><text alignment-baseline="middle" fill="#e1ed5e" style="dominant-baseline: central; font-size:9.0px; font-family:Arial;" text-anchor="middle" x="100.0" y="100.0">2023</text><line stroke="#e1ed5e" stroke-width="0.3" x1="100.0" x2="100.0" y1="15.0" y2="10.0" /><path d="M 100.0 14.0 a86.0,86.0 0 0,1 42.46469731375804,11.215312516191453" fill="none" id="id1" stroke="none" /><text fill="#e1ed5e" style="font-size:6.75px; font-family:Arial;" text-anchor="middle"><textPath startOffset="22.20632615414155" xlink:href="#id1">January</textPath></text><line stroke="#e1ed5e" stroke-width="0.3" x1="143.23703022742887" x2="145.7803849466894" y1="26.81831364943548" y2="22.513508569990506" /><path d="M 143.74570117128098 25.957352633546492 a86.0,86.0 0 0,1 28.547481713284135,27.462654790039103" fill="none" id="id2" stroke="none" /><text fill="#e1ed5e" style="font-size:6.75px; font-family:Arial;" text-anchor="middle"><textPath startOffset="19.985693538727396" xlink:href="#id2">February</textPath></text><line stroke="#e1ed5e" stroke-width="0.3" x1="172.23445277983987" x2="176.4835382374775" y1="55.19839476539836" y2="52.563006222186495" /><path d="M 173.08426987136738 54.67131705675599 a86.0,86.0 0 0,1 12.851231095245387,41.99856678651699" fill="none" id="id3" stroke="none" /><text fill="#e1ed5e" style="font-size:6.75px; font-family:Arial;" text-anchor="middle"><textPath startOffset="22.20632615414155" xlink:href="#id3">March</textPath></text><line stroke="#e1ed5e" stroke-width="0.3" x1="184.98032266829074" x2="189.97916517819016" y1="98.17113171792111" y2="98.06355123074" /><path d="M 185.9800911702706 98.14961562048488 a86.0,86.0 0 0,1 -9.607161424134198,41.387399972396054" fill="none" id="id4" stroke="none" /><text fill="#e1ed5e" style="font-size:6.75px; font-family:Arial;" text-anchor="middle"><textPath startOffset="21.466115282336823" xlink:href="#id4">April</textPath></text><line stroke="#e1ed5e" stroke-width="0.3" x1="174.80103733775053" x2="179.2010983576182" y1="140.37084112569926" y2="142.7455964860345" /><path d="M 175.68104954172406 140.8457921977663 a86.0,86.0 0 0,1 -30.038265399797805,32.042727171017184" fill="none" id="id5" stroke="none" /><text fill="#e1ed5e" style="font-size:6.75px; font-family:Arial;" text-anchor="middle"><textPath startOffset="22.206326154141568" xlink:href="#id5">May</textPath></text><line stroke="#e1ed5e" stroke-width="0.3" x1="143.8653032363475" x2="146.44561519142675" y1="172.8068346515853" y2="177.08958963109032" /><path d="M 144.38136562736335 173.6633856474863 a86.0,86.0 0 0,1 -40.68145358897372,12.25698825130547" fill="none" id="id6" stroke="none" /><text fill="#e1ed5e" style="font-size:6.75px; font-family:Arial;" text-anchor="middle"><textPath startOffset="21.466115282336833" xlink:href="#id6">June</textPath></text><line stroke="#e1ed5e" stroke-width="0.3" x1="102.19456741930631" x2="102.32365962044197" y1="184.97166512339345" y2="189.96999836594603" /><path d="M 102.22038585953345 185.97133177190398 a86.0,86.0 0 0,1 -42.740103519485714,-10.115201625700543" fill="none" id="id7" stroke="none" /><text fill="#e1ed5e" style="font-size:6.75px; font-family:Arial;" text-anchor="middle"><textPath startOffset="22.20632615414155" xlink:href="#id7">July</textPath></text><line stroke="#e1ed5e" stroke-width="0.3" x1="58.666819895761336" x2="56.23545636021788" y1="174.27360380694188" y2="178.64263932499728" /><path d="M 58.180547188652646 175.14741091055294 a86.0,86.0 0 0,1 -31.652253787137756,-30.449443065178592" fill="none" id="id8" stroke="none" /><text fill="#e1ed5e" style="font-size:6.75px; font-family:Arial;" text-anchor="middle"><textPath startOffset="22.20632615414155" xlink:href="#id8">August</textPath></text><path d="M 83.50135304334701 112.99209946851258 l -3.69067874311332 2.906278645929678 a25.697612707818234,25.697612707818234 0 0,0 -0.27067317832093934,-0.3498815700914361 l 3.740158738652328 -2.8423190817249893" fill="#ff0000" stroke="none" /><line stroke="#e1ed5e" stroke-width="0.3" x1="26.63291911575756" x2="22.317208475507996" y1="142.92168965132927" y2="145.44649492493687" /><path d="M 25.769776987707644 143.4266507060508 a86.0,86.0 0 0,1 -11.730757126820373,-40.83630448921669" fill="none" id="id9" stroke="none" /><text fill="#e1ed5e" style="font-size:6.75px; font-family:Arial;" text-anchor="middle"><textPath startOffset="21.46611528233685" xlink:href="#id9">September</textPath></text><path d="M 81.69416730710424 110.29060199501025 l -15.95668418945171 8.970030968186741 a39.3051147467621,39.3051147467621 0 0,0 -0.3264637733833476,-0.5926265765038755 l 16.108724372286577 -8.694033873285044" fill="#ffc612" stroke="none" /><path d="M 81.51974371655577 109.97397251340807 l -12.93913411095264 6.9833754462354225 a35.703357581324816,35.703357581324816 0 0,0 -0.28723774815784886,-0.5433455711429683 l 13.057424367335374 -6.759614860006328" fill="#ff940d" stroke="none" /><path d="M 80.45479744820244 107.68017299344265 l -13.820770091924395 5.4307907491506375 a35.849483967293004,35.849483967293004 0 0,0 -0.22074015955198495,-0.5762829013595555 l 13.912204531069891 -5.192084280957925" fill="#ff960d" stroke="none" /><path d="M 80.20201598880116 107.00284435728193 l -13.426044596510925 4.7489936647139865 a35.2411942734798,35.2411942734798 0 0,0 -0.1973660750034388,-0.5736381989718358 l 13.505801502457594 -4.517182762652854" fill="#ff8e0d" stroke="none" /><line stroke="#e1ed5e" stroke-width="0.3" x1="15.007084014347285" x2="10.007500721073583" y1="101.09737516637583" y2="101.16192664675087" /><path d="M 14.007167355692545 101.11028546245083 a86.0,86.0 0 0,1 10.666146001902534,-42.60595125391555" fill="none" id="id10" stroke="none" /><text fill="#e1ed5e" style="font-size:6.75px; font-family:Arial;" text-anchor="middle"><textPath startOffset="22.20632615414155" xlink:href="#id10">October</textPath></text><path d="M 79.00175016825051 100.2711162175752 l -17.524962618264198 0.22627131386095992 a38.52642329395915,38.52642329395915 0 0,0 -0.0028540791021031665,-0.6631874694990175 l 17.526260994655804 0.07542563384173297" fill="#ffbb11" stroke="none" /><path d="M 79.00019446554 99.90962569577889 l -20.838490342090235 -0.08968007168421462 a41.83868331379517,41.83868331379517 0 0,0 0.009298135106173104,-0.7201508108774902 l 20.833859199866346 0.44836714062217686" fill="#ffe815" stroke="none" /><path d="M 79.03285615573316 98.82574320788736 l -28.855843292904268 -1.6160603576006873 a49.90106128196777,49.90106128196777 0 0,0 0.05541253606419278,-0.8572074067440408 l 28.823750165835662 2.11252682859774" fill="#b1ff20" stroke="none" /><path d="M 79.05617556472873 98.46500227214037 l -17.660341497502255 -1.2943473698260133 a38.70771009820795,38.70771009820795 0 0,0 0.05442214861023119,-0.6640880592923933 l 17.635444865072525 1.5981493463261849" fill="#ffbe11" stroke="none" /><path d="M 79.08570108090925 98.10471618934814 l -29.419445483943523 -2.6660324096819896 a50.53999833094443,50.53999833094443 0 0,0 0.0859730480188905,-0.865736860847522 l 29.369195310242404 3.172044801233942" fill="#a9ff21" stroke="none" /><path d="M 79.12142395522702 97.74499172005258 l -23.70676184034295 -2.560468880927279 a44.84463373266483,44.84463373266483 0 0,0 0.08949632235330153,-0.7667498354400684 l 23.65917516498606 2.9681624546922087" fill="#efff19" stroke="none" /><path d="M 79.21141760316559 97.0276538004421 l -20.444803624756606 -2.9231927985626647 a41.65272503551116,41.65272503551116 0 0,0 0.10759118358903388,-0.7088914713799913 l 20.391456547728268 3.274683382334748" fill="#ffe515" stroke="none" /><path d="M 79.32604984820605 96.31383870115002 l -17.76735903641565 -3.167916667203769 a39.047568898310054,39.047568898310054 0 0,0 0.12367717992147122,-0.660688440540961 l 17.71019613258432 3.4732831852073027" fill="#ffc212" stroke="none" /><path d="M 79.46518482838121 95.60439243477599 l -17.58979885985596 -3.7652081254674568 a38.98826884828766,38.98826884828766 0 0,0 0.1461235999730401,-0.6550434467205313 l 17.522380872880884 4.067429741737947" fill="#ffc212" stroke="none" /><path d="M 79.54389044137918 95.25157060432595 l -23.253987563285374 -5.397894345242626 a44.87226845014594,44.87226845014594 0 0,0 0.18112840678399336,-0.7508941820154948 l 23.157626356240566 5.797373758917518" fill="#efff19" stroke="none" /><path d="M 80.2630227832202 92.82701384747504 l -27.60089615369801 -10.030960857543961 a50.36715247028218,50.36715247028218 0 0,0 0.30315128392774193,-0.8122947235904774 l 27.42414028126864 10.504578718163781" fill="#abff21" stroke="none" /><path d="M 80.38941819471856 92.48833698450439 l -18.880523138573903 -7.232020384782228 a41.218216361294836,41.218216361294836 0 0,0 0.25949114596834233,-0.660376662437113 l 18.75323844272387 7.555946052115105" fill="#ffe014" stroke="none" /><path d="M 80.52162464483688 92.15188598940014 l -37.43963618262941 -15.084961035971078 a61.364370513417136,61.364370513417136 0 0,0 0.40318820613007245,-0.9763522217456029 l 37.17442628961314 15.727187828169992" fill="#31ff2f" stroke="none" /><path d="M 80.65960295795068 91.81776055985345 l -21.832651964256225 -9.236624542740065 a44.70611576652509,44.70611576652509 0 0,0 0.3059373410713457,-0.7061455639031854 l 21.670423913342198 9.61106925122985" fill="#f1ff19" stroke="none" /><path d="M 80.803312248108 91.48605970444005 l -21.387010244147284 -9.485372199235384 a44.396078580422156,44.396078580422156 0 0,0 0.3158414893251449,-0.6959148553520442 l 21.220566437858785 9.852109063429499" fill="#f5ff19" stroke="none" /><path d="M 80.95270993114464 91.15688171328213 l -26.58333583729156 -12.341891282954698 a50.30863396131766,50.30863396131766 0 0,0 0.37142578451032804,-0.7823174275634561 l 26.36695185893948 12.797651126158687" fill="#acff21" stroke="none" /><path d="M 81.10775173730289 90.83032412892265 l -44.286678492089344 -21.495296988072518 a70.22761099695097,70.22761099695097 0 0,0 0.5372077390887129,-1.08297802114226 l 43.910110740047216 22.25443459771374" fill="#3bff9a" stroke="none" /><path d="M 81.26839172434947 90.50648371742162 l -30.834213347257148 -15.627334405300303 a55.56822664469865,55.56822664469865 0 0,0 0.439757861160463,-0.8494722156461094 l 30.560646052936573 16.15577934320675" fill="#6fff27" stroke="none" /><line stroke="#e1ed5e" stroke-width="0.3" x1="26.266209847984257" x2="21.92892807433627" y1="57.711370442889674" y2="55.22380399835377" /><path d="M 25.39875349325466 57.213857153982495 a86.0,86.0 0 0,1 29.58750427330802,-30.492523968695096" fill="none" id="id11" stroke="none" /><text fill="#e1ed5e" style="font-size:6.75px; font-family:Arial;" text-anchor="middle"><textPath startOffset="21.46611528233685" xlink:href="#id11">November</textPath></text><path d="M 81.78341655067847 89.55222093294921 l -18.412233916793266 -10.559990715530125 a42.22554502760282,42.22554502760282 0 0,0 0.3670411778574557,-0.6273923511042778 l 18.227733064465486 10.875362478988295" fill="#ffed16" stroke="none" /><path d="M 81.96595687620814 89.24020034530311 l -20.553385065408612 -12.262935383462505 a44.93368383400137,44.93368383400137 0 0,0 0.402015681771941,-0.6608080779268535 l 20.339253585350455 12.614911234596432" fill="#eeff19" stroke="none" /><path d="M 82.34701348167596 88.62581576622439 l -24.672628492126297 -15.897084706298665 a50.350568970119085,50.350568970119085 0 0,0 0.47570106168165344,-0.7245253529150758 l 24.395330795086725 16.319428123191408" fill="#abff21" stroke="none" /><path d="M 82.7489923806493 88.02491185347247 l -9.325900800107402 -6.4737368733050875 a32.35260740262931,32.35260740262931 0 0,0 0.32150385149373173,-0.4547443976393264 l 9.213084328809792 6.6333077712762005" fill="#ff6409" stroke="none" /><path d="M 84.07557802195018 86.31012108654704 l -6.748515953252789 -5.801552255578345 a29.899464935911237,29.899464935911237 0 0,0 0.33887218711504025,-0.38738948985319444 l 6.647651902559906 5.91685730163448" fill="#ff4006" stroke="none" /><path d="M 86.65592168130627 83.78471172551755 l -9.523644352713015 -11.57282166026777 a35.987661690114486,35.987661690114486 0 0,0 0.4817147330810337,-0.3895131464706725 l 9.323026221067481 11.735040904002577" fill="#ff980e" stroke="none" /><path d="M 87.80319425747017 82.90503203632743 l -8.927428409920115 -12.512628788815151 a36.37090944677427,36.37090944677427 0 0,0 0.5127758910577347,-0.3592322810343377 l 8.710721379278722 12.664445912613433" fill="#ff9e0e" stroke="none" /><path d="M 88.09926311788651 82.69761687909137 l -13.472618050485755 -19.58772817686019 a44.773736186490275,44.773736186490275 0 0,0 0.638761960731073,-0.4312949272575791 l 13.133451395348143 19.816735016416434" fill="#f0ff19" stroke="none" /><path d="M 88.70189139769569 82.29822771554957 l -15.69184769216631 -24.58584213930759 a50.16672277944675,50.16672277944675 0 0,0 0.7319106213273161,-0.45832236392955794 l 15.26631791846675 24.852308844560078" fill="#aeff20" stroke="none" /><path d="M 89.00827224532344 82.1063720568725 l -3.7542718843405174 -6.111645575205586 a28.17264031012846,28.17264031012846 0 0,0 0.41539610165816876,-0.2502715033503448 l 3.6485137164646995 6.175363688014549" fill="#ff2603" stroke="none" /><line stroke="#e1ed5e" stroke-width="0.3" x1="56.762969772571076" x2="54.21961505331055" y1="26.818313649435495" y2="22.513508569990535" /><path d="M 56.25429882871897 25.957352633546506 a86.0,86.0 0 0,1 42.265352541879196,-11.944610805530505" fill="none" id="id12" stroke="none" /><text fill="#e1ed5e" style="font-size:6.75px; font-family:Arial;" text-anchor="middle"><textPath startOffset="22.20632615414155" xlink:href="#id12">December</textPath></text><path d="M 89.3179101791058 81.91981866633112 l -14.797421934306977 -25.0456676857154 a50.09036207621345,50.09036207621345 0 0,0 0.7461156633064152,-0.4321983506208153 l 14.36410953853524 25.296670193726264" fill="#afff20" stroke="none" /><path d="M 89.63071344664047 81.73862282372117 l -8.54390277866146 -15.046689123278584 a38.30321150144704,38.30321150144704 0 0,0 0.576145801165987,-0.32062451456904917 l 8.283632888423428 15.191529035407818" fill="#ffb811" stroke="none" /><path d="M 89.94658935756843 81.56283822128135 l -14.002692168951652 -25.67983245078269 a50.24943046759529,50.24943046759529 0 0,0 0.7629657054154406,-0.40754985665726207 l 13.558581417007906 25.917061033941703" fill="#adff20" stroke="none" /><path d="M 90.26544431104013 81.39251694778311 l -13.320961877196273 -25.462854216373742 a49.73682254839631,49.73682254839631 0 0,0 0.7620143350288195,-0.3903333391991069 l 12.88068705457869 25.688380080885356" fill="#b3ff20" stroke="none" /><path d="M 90.58718382345135 81.22770947309562 l -10.797755721969521 -21.534321254075397 a45.08980117197004,45.08980117197004 0 0,0 0.6968064783376784,-0.3419199127229926 l 10.425477976621417 21.716996326933216" fill="#ecff1a" stroke="none" /><path d="M 90.91171255644093 81.06846463323043 l -12.713936561700978 -26.484014855767843 a50.37766542418728,50.37766542418728 0 0,0 0.7849842757453538,-0.3685606429524239 l 12.256174074656016 26.698940481360275" fill="#abff21" stroke="none" /><path d="M 91.23893434514133 80.91482961587045 l -14.685669682744996 -31.99137172825527 a56.20109031104159,56.20109031104159 0 0,0 0.882672597440249,-0.39602946518279253 l 14.132814966837971 32.23942152395459" fill="#68ff28" stroke="none" /><path d="M 91.56875222667455 80.76684994638697 l -20.15404649976065 -45.97490323362941 a71.19837963177798,71.19837963177798 0 0,0 1.1266846652691198,-0.4823875743949582 l 19.359678076701222 46.315010335987154" fill="#3cffa5" stroke="none" /><path d="M 91.90106846888425 80.62456947434976 l -13.443295305260035 -32.160987313221796 a55.857585883500875,55.857585883500875 0 0,0 0.8903064286219103,-0.36317834649799763 l 12.887705007049744 32.387626545903366" fill="#6cff28" stroke="none" /><path d="M 92.91201910852362 80.23233633223022 l -2.6882180123076607 -7.497168847737929 a28.964550006948755,28.964550006948755 0 0,0 0.47076772198002403,-0.16424161443229784 l 2.558768286264351 7.542331315342439" fill="#ff3204" stroke="none" /><path d="M 93.25333710446033 80.11325718540243 l -11.703529764725374 -34.497808777129336 a57.42899146802166,57.42899146802166 0 0,0 0.9388742510602833,-0.3095320792292256 l 11.107972691422681 34.69415458061779" fill="#5bff2a" stroke="none" /><path d="M 93.59665428221793 80.00007090966166 l -9.61423171410034 -30.028669544753257 a52.530214811834135,52.530214811834135 0 0,0 0.8635332632234609,-0.26830398834806213 l 9.09591307816615 30.189713667983845" fill="#92ff23" stroke="none" /><path d="M 93.94186890950719 79.89281104454417 l -10.336545129393908 -34.30742302514502 a56.830761083714755,56.830761083714755 0 0,0 0.9390871442986723,-0.2741452888858325 l 9.744467767371814 34.48026664294955" fill="#61ff29" stroke="none" /><path d="M 94.28887869178378 79.79150937346287 l -17.133363924648684 -60.625471879611354 a84.0,84.0 0 0,0 1.39480844310511,-0.38125383669481616 l 16.08725759231985 60.91141225713247" fill="#4dd2ff" stroke="none" /><path d="M 94.63758080256005 79.69619591428918 l -9.408072831499618 -35.621919988288276 a57.843357855315155,57.843357855315155 0 0,0 0.9648578145395055,-0.2459637403815188 l 8.793506128275112 35.778586724838654" fill="#56ff2a" stroke="none" /><path d="M 94.98787191387505 79.60689891045804 l -7.259706620941232 -29.537938467915858 a51.41698783832024,51.41698783832024 0 0,0 0.8612989718693582,-0.20384163918777531 l 6.7501839621093405 29.658526019244505" fill="#9fff22" stroke="none" /><path d="M 95.33964822691252 79.52364482259891 l -7.931799198910219 -34.850231377514994 a56.74146143623906,56.74146143623906 0 0,0 0.9542219023033442,-0.208555948628166 l 7.330734572453354 34.98160082423903" fill="#62ff29" stroke="none" /><path d="M 95.692805502759 79.44645832069477 l -5.938728394376445 -28.339073532452968 a49.954647012525456,49.954647012525456 0 0,0 0.843124043069104,-0.16912275134047366 l 5.450037941840204 28.437100239870652" fill="#b0ff20" stroke="none" /><path d="M 96.04723909329186 79.375362276772 l -5.702804501972114 -29.755980600790014 a51.297530604032815,51.297530604032815 0 0,0 0.8686501027698912,-0.15874025400947386 l 5.18975927809933 29.849736336150226" fill="#a0ff22" stroke="none" /><path d="M 96.40284397218896 79.31037775812273 l -5.505832958813045 -31.66768501672106 a53.14275145174432,53.14275145174432 0 0,0 0.9025936832503586,-0.14893569145741503 l 4.9599100694238 31.7577669711181" fill="#8bff24" stroke="none" /><path d="M 96.75951476605007 79.25152402106235 l -9.433794595997723 -60.40356503235822 a82.13580905735856,82.13580905735856 0 0,0 1.3987768160238554,-0.2061433421535353 l 8.392648799545219 60.557002858672725" fill="#4be4ff" stroke="none" /><path d="M 97.11714578562143 79.19881850522333 l -3.987516854801687 -28.771854433884613 a50.046856942395216,50.046856942395216 0 0,0 0.8543362427772835,-0.11091736392683998 l 3.491665883516546 28.83623012097559" fill="#afff20" stroke="none" /><path d="M 97.47563105711357 79.15227682838746 l -3.5541976577572063 -29.352654284120472 a50.567053192929166,50.567053192929166 0 0,0 0.8650175815378754,-0.09719480418733877 l 3.048413372709613 29.40948504177841" fill="#a9ff21" stroke="none" /><path d="M 97.83486435360386 79.11191278185805 l -3.06722846297443 -29.59100311300082 a50.74954378940465,50.74954378940465 0 0,0 0.8696897914971659,-0.08258752500504309 l 2.557413544387028 29.639416182521042" fill="#a7ff21" stroke="none" /><path d="M 98.19473922651362 79.07773832637324 l -2.812055672853649 -32.59061820449758 a53.7117112370869,53.7117112370869 0 0,0 0.9218203655230227,-0.07155100186983501 l 2.250645117968292 32.634194468555876" fill="#84ff25" stroke="none" /><path d="M 98.55514903715128 79.0497635885617 l -2.5187433135683093 -36.52159927619519 a57.608349888661,57.608349888661 0 0,0 0.9898704258835509,-0.059711687308168525 l 1.8897108388451351 36.55954423288367" fill="#59ff2a" stroke="none" /><path d="M 98.91598698831166 79.02799685794201 l -1.5073170516748897 -29.161511534413133 a50.200441086839426,50.200441086839426 0 0,0 0.8633499769815096,-0.037177666113747294 l 1.0051262423040561 29.18313692705107" fill="#adff20" stroke="none" /><path d="M 99.27714615592234 79.0124445844662 l -1.2203234489197117 -35.43123719810519 a56.452246172963086,56.452246172963086 0 0,0 0.9714446738252707,-0.02508954988394985 l 0.610252139899562 35.446993540131494" fill="#66ff29" stroke="none" /><path d="M 99.63851952072746 79.00311137660856 l -0.5964316106559403 -34.644216820822514 a55.64935049599561,55.64935049599561 0 0,0 0.9579120899284675,-0.008245051781654031 l 8.486643235491157e-15 34.64935049599561" fill="#6eff28" stroke="none" /></svg>