<?xml version="1.0" encoding="utf-8" ?>
<svg baseProfile="full" height="200mm" version="1.1" viewBox="0,0,200,200" width="200mm" xmlns="http://www.w3.org/2000/svg" xmlns:ev="http://www.w3.org/2001/xml-events" xmlns:xlink="http://www.w3.org/1999/xlink"><defs /><rect fill="#1a1a1a" height="200" width="200" x="0" y="0" /><text alignment-baseline="middle" fill="#e1ed5e" style="dominant-baseline: central; font-size:9.0px; font-family:Arial;" text-anchor="middle" x="100.0" y="100.0">2024</text><line stroke="#e1ed5e" stroke-width="0.3" x1="100.0" x2="100.0" y1="15.0" y2="10.0" /><path d="M 100.0 14.0 a86.0,86.0 0 0,1 42.35913384403234,11.155469271406648" fill="none" id="id13" stroke="none" /><text fill="#e1ed5e" style="font-size:6.75px; font-family:Arial;" text-anchor="middle"><textPath startOffset="22.145653131862478" xlink:href="#id13">January</textPath></text><path d="M 100.0 79.0 l 0.0 -29.425574661076396 a50.425574661076396,50.425574661076396 0 0,0 0.8656220427026537,0.007430324151646552 l -0.505129117853799 29.421238735119186" fill="#ff4f07" stroke="none" /><path d="M 100.36049292484886 79.00309439819443 l 0.5108561193419274 -29.754807860444043 a50.759192945821155,50.759192945821155 0 0,0 0.8710922536280138,0.022436246476509943 l -1.0215616870406825 29.741653896617485" fill="#ff5708" stroke="none" /><path d="M 100.72087961077811 79.0123766808444 l 2.1626388323343404 -62.96286995746683 a84.0,84.0 0 0,0 1.4406969575966548,0.06186972629667631 l -3.2431615505318314 62.916467662744324" fill="#4dd2ff" stroke="none" /><path d="M 101.08105385017728 79.02784411241856 l 1.3446194771676365 -26.08525863907113 a47.11989126710932,47.11989126710932 0 0,0 0.8074456666368358,0.04857392624040459 l -1.7922094959369346 26.058332735006033" fill="#ff0000" stroke="none" /><path d="M 101.44090949804482 79.04949213459386 l 2.025138744479501 -29.445072887871902 a50.51463203745696,50.51463203745696 0 0,0 0.864596427227731,0.06692523155739312 l -2.5303041664824657 29.405969889319454" fill="#ff5107" stroke="none" /><path d="M 101.80034050326958 79.07731436759882 l 2.2524463385283027 -26.176840747232795 a47.2735704846893,47.2735704846893 0 0,0 0.8079288136811598,0.07651169865602626 l -2.7014747155944754 26.134317293071586" fill="#ff0400" stroke="none" /><path d="M 102.15924093988457 79.11130261209362 l 3.024430893270425 -29.258625349859578 a50.41452599637829,50.41452599637829 0 0,0 0.8600816524912221,0.09637394312029303 l -3.526248447362444 29.202395646232315" fill="#ff4f07" stroke="none" /><path d="M 102.51750503828377 79.15144685158666 l 3.143509400965093 -26.032767292190165 a47.22187301172977,47.22187301172977 0 0,0 0.8039460425500032,0.10408691076859626 l -3.5899332654058878 25.974968785221172" fill="#ff0300" stroke="none" /><path d="M 102.87502721639298 79.19773525538626 l 4.324800156019795 -31.29209953217132 a52.58954557319281,52.58954557319281 0 0,0 0.8932081244504066,0.13127083498315603 l -4.8613333860778845 31.21324762388928" fill="#ff810b" stroke="none" /><path d="M 103.23170211078529 79.25015418208739 l 4.555301788041812 -29.24830523224204 a50.60091440037848,50.60091440037848 0 0,0 0.8571373151571654,0.14104161903011 l -5.056716606252048 29.16579761471626" fill="#ff5307" stroke="none" /><path d="M 103.58742460773223 79.30868818359171 l 5.533005645797723 -31.91290622592886 a53.38900639509274,53.38900639509274 0 0,0 0.9016774370742889,0.16431566549070595 l -6.080017816423066 31.81322238650679" fill="#ff930d" stroke="none" /><path d="M 104.29559338865022 79.4440306129975 l 11.350051025347868 -54.31410292101216 a76.48734481295985,76.48734481295985 0 0,0 1.2829389283874277,0.27961056821497127 l -12.28075237035443 54.11126089466347" fill="#3dffb0" stroke="none" /><path d="M 104.64783097203109 79.52079915486377 l 6.265546768904668 -27.607155134757548 a49.30922271889325,49.30922271889325 0 0,0 0.823858132197067,0.1944282759491149 l -6.73853705484162 27.495530715162207" fill="#ff3505" stroke="none" /><path d="M 104.9986988182912 79.60360301121754 l 7.532072439298088 -30.733425878358524 a52.642938887710656,52.642938887710656 0 0,0 0.8758649617345308,0.22264144822962828 l -8.058542694258014 30.599599198293628" fill="#ff820c" stroke="none" /><path d="M 105.3480935250658 79.69241777938227 l 7.9798682137142665 -30.30085938104504 a52.334013083837704,52.334013083837704 0 0,0 0.8667972911564709,0.23624945618103899 l -8.49884690580543 30.159409430719858" fill="#ff7b0b" stroke="none" /><line stroke="#e1ed5e" stroke-width="0.3" x1="143.13028292997686" x2="145.6673583964461" y1="26.7553504044142" y2="22.446841604673864" /><path d="M 143.63769802327073 25.89364864446614 a86.0,86.0 0 0,1 29.32050498858742,28.57503671076993" fill="none" id="id14" stroke="none" /><text fill="#e1ed5e" style="font-size:6.75px; font-family:Arial;" text-anchor="middle"><textPath startOffset="20.669276256404974" xlink:href="#id14">February</textPath></text><line stroke="#e1ed5e" stroke-width="0.3" x1="172.87174338648825" x2="177.1583165268699" y1="56.24261187166439" y2="53.66864786411523" /><path d="M 173.72905801456457 55.72781907015455 a86.0,86.0 0 0,1 12.242430191666344,42.057860355516425" fill="none" id="id15" stroke="none" /><text fill="#e1ed5e" style="font-size:6.75px; font-family:Arial;" text-anchor="middle"><textPath startOffset="22.145653131862474" xlink:href="#id15">March</textPath></text><line stroke="#e1ed5e" stroke-width="0.3" x1="184.99686870605535" x2="189.99668451229388" y1="99.2704041080226" y2="99.22748670261217" /><path d="M 185.99683186730306 99.26182062694052 a86.0,86.0 0 0,1 -10.086455211305974,41.156179273409016" fill="none" id="id16" stroke="none" /><text fill="#e1ed5e" style="font-size:6.75px; font-family:Arial;" text-anchor="middle"><textPath startOffset="21.40746469413373" xlink:href="#id16">April</textPath></text><line stroke="#e1ed5e" stroke-width="0.3" x1="174.33088141563837" x2="178.70328620479359" y1="141.23008692659167" y2="143.65538615756765" /><path d="M 175.20536237346943 141.71514677278685 a86.0,86.0 0 0,1 -30.301960400862466,31.631185727798858" fill="none" id="id17" stroke="none" /><text fill="#e1ed5e" style="font-size:6.75px; font-family:Arial;" text-anchor="middle"><textPath startOffset="22.145653131862474" xlink:href="#id17">May</textPath></text><line stroke="#e1ed5e" stroke-width="0.3" x1="143.1302829299769" x2="145.66735839644613" y1="173.24464959558577" y2="177.55315839532614" /><path d="M 143.63769802327073 174.10635135553383 a86.0,86.0 0 0,1 -40.68552437913181,11.842963189579606" fill="none" id="id18" stroke="none" /><text fill="#e1ed5e" style="font-size:6.75px; font-family:Arial;" text-anchor="middle"><textPath startOffset="21.407464694133747" xlink:href="#id18">June</textPath></text><line stroke="#e1ed5e" stroke-width="0.3" x1="101.45913802915013" x2="101.54496967792366" y1="184.9874750549273" y2="189.98673829345242" /><path d="M 101.47630435890484 185.9873277026323 a86.0,86.0 0 0,1 -42.54439059252881,-10.42667462771756" fill="none" id="id19" stroke="none" /><text fill="#e1ed5e" style="font-size:6.75px; font-family:Arial;" text-anchor="middle"><textPath startOffset="22.145653131862474" xlink:href="#id19">July</textPath></text><line stroke="#e1ed5e" stroke-width="0.3" x1="58.13341422392154" x2="55.67067388415222" y1="173.97424548756322" y2="178.32567169271397" /><path d="M 57.64086615596768 174.84453072859336 a86.0,86.0 0 0,1 -31.369924170532247,-30.572349798747897" fill="none" id="id20" stroke="none" /><text fill="#e1ed5e" style="font-size:6.75px; font-family:Arial;" text-anchor="middle"><textPath startOffset="22.145653131862474" xlink:href="#id20">August</textPath></text><line stroke="#e1ed5e" stroke-width="0.3" x1="26.387840678322732" x2="22.057713659400548" y1="142.50000000000003" y2="145.00000000000006" /><path d="M 25.521815274538298 143.00000000000003 a86.0,86.0 0 0,1 -11.493303480769221,-40.785679425670985" fill="none" id="id21" stroke="none" /><text fill="#e1ed5e" style="font-size:6.75px; font-family:Arial;" text-anchor="middle"><textPath startOffset="21.40746469413373" xlink:href="#id21">September</textPath></text><line stroke="#e1ed5e" stroke-width="0.3" x1="15.003131293944662" x2="10.003315487706104" y1="100.72959589197737" y2="100.7725132973878" /><path d="M 14.003168132696942 100.73817937305945 a86.0,86.0 0 0,1 10.791469493833604,-42.45332614584628" fill="none" id="id22" stroke="none" /><text fill="#e1ed5e" style="font-size:6.75px; font-family:Arial;" text-anchor="middle"><textPath startOffset="22.145653131862435" xlink:href="#id22">October</textPath></text><line stroke="#e1ed5e" stroke-width="0.3" x1="26.387840678322718" x2="22.05771365940052" y1="57.49999999999999" y2="54.99999999999999" /><path d="M 25.521815274538284 56.99999999999999 a86.0,86.0 0 0,1 29.574782752854787,-30.34633250058573" fill="none" id="id23" stroke="none" /><text fill="#e1ed5e" style="font-size:6.75px; font-family:Arial;" text-anchor="middle"><textPath startOffset="21.40746469413373" xlink:href="#id23">November</textPath></text><line stroke="#e1ed5e" stroke-width="0.3" x1="56.869717070023135" x2="54.33264160355391" y1="26.7553504044142" y2="22.446841604673864" /><path d="M 56.362301976729285 25.89364864446614 a86.0,86.0 0 0,1 42.16139366436587,-11.88097634709845" fill="none" id="id24" stroke="none" /><text fill="#e1ed5e" style="font-size:6.75px; font-family:Arial;" text-anchor="middle"><textPath startOffset="22.145653131862474" xlink:href="#id24">December</textPath></text></svg>