<?xml version="1.0" encoding="utf-8" ?>
<svg baseProfile="full" height="200mm" version="1.1" viewBox="0,0,200,200" width="200mm" xmlns="http://www.w3.org/2000/svg" xmlns:ev="http://www.w3.org/2001/xml-events" xmlns:xlink="http://www.w3.org/1999/xlink"><defs /><rect fill="#1a1a1a" height="200" width="200" x="0" y="0" /><text alignment-baseline="middle" fill="#e1ed5e" style="dominant-baseline: central; font-size:9.0px; font-family:Arial;" text-anchor="middle" x="100.0" y="100.0">2024</text><line stroke="#e1ed5e" stroke-width="0.3" x1="100.0" x2="100.0" y1="15.0" y2="10.0" /><path d="M 100.0 14.0 a86.0,86.0 0 0,1 42.35913384403234,11.155469271406648" fill="none" id="id13" stroke="none" /><text fill="#e1ed5e" style="font-size:6.75px; font-family:Arial;" text-anchor="middle"><textPath startOffset="22.145653131862478" xlink:href="#id13">January</textPath></text><path d="M 100.0 79.0 l 0.0 -11.56626307853977 a32.56626307853977,32.56626307853977 0 0,0 0.5590432108847653,0.004798713603320274 l -0.19855028603591052 11.564558763130885" fill="#ff930d" stroke="none" /><path d="M 100.36049292484886 79.00309439819443 l 0.20080138925567212 -11.695674240154663 a32.697397878577284,32.697397878577284 0 0,0 0.5611288980938495,0.014452689953666192 l -0.40154360142026296 11.69050383285095" fill="#ff950d" stroke="none" /><path d="M 100.72087961077811 79.0123766808444 l 0.8500649508718903 -24.748713542415835 a45.76330818822998,45.76330818822998 0 0,0 0.7848935580516788,0.03370670657185994 l -1.2747842695244054 24.730474267418145" fill="#c7ff1d" stroke="none" /><path d="M 101.08105385017728 79.02784411241856 l 0.5285274049047436 -10.253290457920746 a31.266903449055317,31.266903449055317 0 0,0 0.5357891332129309,0.032231743772303416 l -0.7044608902501368 10.24270673632375" fill="#ff820b" stroke="none" /><path d="M 101.44090949804482 79.04949213459386 l 0.7960180135471588 -11.573927215035981 a32.60126871755163,32.60126871755163 0 0,0 0.5579955612739199,0.04319238545317095 l -0.9945825695963123 11.558557062587758" fill="#ff930d" stroke="none" /><path d="M 101.80034050326958 79.07731436759882 l 0.8853654421972467 -10.289288489173682 a31.327309890754666,31.327309890754666 0 0,0 0.5353992951316596,0.0507028699015165 l -1.0618643007139192 10.272573863766981" fill="#ff830c" stroke="none" /><path d="M 102.15924093988457 79.11130261209362 l 1.1888081635564955 -11.500640582579857 a32.56192019776219,32.56192019776219 0 0,0 0.5555127134189562,0.062246358227231825 l -1.3860567785762485 11.478538463845654" fill="#ff930d" stroke="none" /><path d="M 102.51750503828377 79.15144685158666 l 1.2356141601380446 -10.232657769031404 a31.306989248604676,31.306989248604676 0 0,0 0.532997285057272,0.06900716952805915 l -1.4110892670861084 10.209939003302948" fill="#ff820c" stroke="none" /><path d="M 102.87502721639298 79.19773525538626 l 1.699942208190846 -12.299934993205168 a33.41685162785888,33.41685162785888 0 0,0 0.5675691440614441,0.08341311886013603 l -1.9108364578599721 12.26894080104615" fill="#ff9e0e" stroke="none" /><path d="M 103.23170211078529 79.25015418208739 l 1.7905451121853087 -11.496584070625856 a32.63518358650773,32.63518358650773 0 0,0 0.5528128092244752,0.09096513738794203 l -1.9876354244628545 11.464152934742245" fill="#ff940d" stroke="none" /><path d="M 103.58742460773223 79.30868818359171 l 2.174849587525483 -12.543954477059675 a33.73109440114656,33.73109440114656 0 0,0 0.5696784563522479,0.10381439173521809 l -2.3898627774287844 12.50477191139309" fill="#ffa20f" stroke="none" /><path d="M 104.29559338865022 79.4440306129975 l 4.461346214171824 -21.349156660321686 a42.810320954760456,42.810320954760456 0 0,0 0.718066856993527,0.15649932935830785 l -4.827175487784485 21.269425872829657" fill="#eaff1a" stroke="none" /><path d="M 104.64783097203109 79.52079915486377 l 2.46278834295484 -10.851499854004398 a32.12746042471739,32.12746042471739 0 0,0 0.5367853735727462,0.12667988657237192 l -2.648705870267471 10.8076238237858" fill="#ff8d0d" stroke="none" /><path d="M 104.9986988182912 79.60360301121754 l 2.9606195414351064 -12.080338042951029 a33.43783885170962,33.43783885170962 0 0,0 0.5563335190842665,0.14141780502591758 l -3.1675583537447674 12.027735006089843" fill="#ff9f0e" stroke="none" /><path d="M 105.3480935250658 79.69241777938227 l 3.1366339028201042 -11.910309828905358 a33.31640988522386,33.31640988522386 0 0,0 0.551812714864958,0.15039900923859253 l -3.3406280186197552 11.854710325522625" fill="#ff9d0e" stroke="none" /><path d="M 105.69591212413111 79.78721728523813 l 3.5667644398296647 -12.657188707596863 a34.15014199729231,34.15014199729231 0 0,0 0.5628918918147242,0.1638496260329368 l -3.7835163440259936 12.59409538726141" fill="#ffa80f" stroke="none" /><path d="M 106.04205211174951 79.88797359093562 l 3.7903044319960446 -12.616690724407746 a34.173734949609596,34.173734949609596 0 0,0 0.5603831304600102,0.17360812627693356 l -4.006328195327685 12.549766010324166" fill="#ffa80f" stroke="none" /><path d="M 106.38641147887787 79.99465700312896 l 3.78277085199236 -11.84947581642043 a33.43862663008323,33.43862663008323 0 0,0 0.545331871670962,0.17926141788555214 l -3.985625461311064 11.782793477132856" fill="#ff9f0e" stroke="none" /><path d="M 106.72888874123014 80.10723608172694 l 6.900426028020248 -20.399883426489655 a42.53534590348032,42.53534590348032 0 0,0 0.6896685602001726,0.23990252571644732 l -7.249600360265439 20.278422468204617" fill="#edff19" stroke="none" /><path d="M 107.06938296918511 80.22567764915836 l 4.586673020649781 -12.829740760061283 a34.62497036212316,34.62497036212316 0 0,0 0.5579745521046137,0.20489598428567676 l -4.806236724408519 12.749113926766883" fill="#ffae10" stroke="none" /><path d="M 107.40779381753099 80.34994680014964 l 4.279994125704801 -11.35319291232346 a33.13315041613262,33.13315041613262 0 0,0 0.5304897238513315,0.20520482140292445 l -4.474256112049658 11.278048202782497" fill="#ff9b0e" stroke="none" /><path d="M 107.74402155503746 80.48000691201159 l 4.678040566366655 -11.791718149519625 a33.685766845495884,33.685766845495884 0 0,0 0.5356767409253498,0.21785506711986047 l -4.879771768482445 11.70967582582047" fill="#ffa20e" stroke="none" /><path d="M 108.07796709384702 80.6158196554323 l 4.953252863779591 -11.88600370468014 a33.87679300137308,33.87679300137308 0 0,0 0.5348741107127223,0.22830595228263134 l -5.156562049662743 11.79922310273811" fill="#ffa40f" stroke="none" /><path d="M 108.4095320186766 80.7573450057729 l 4.794302610206571 -10.970302611517452 a32.97217093540266,32.97217093540266 0 0,0 0.5166999777901956,0.23111332790716418 l -4.981915990852397 10.886385532700436" fill="#ff980e" stroke="none" /><path d="M 108.73861861582097 80.90454125486305 l 5.315630679730748 -11.615612353812148 a33.77412931973558,33.77412931973558 0 0,0 0.5251254477169988,0.24578522466981537 l -5.514244841319252 11.522650897571799" fill="#ffa30f" stroke="none" /><path d="M 109.06512990194946 81.05736502329252 l 6.613889374132147 -13.82048503944407 a36.32153188746985,36.32153188746985 0 0,0 0.5601121825170533,0.2739789360484905 l -6.850161805911267 13.70491235329836" fill="#ffc412" stroke="none" /><path d="M 109.3889696526874 81.21577127319529 l 10.141675786015956 -20.290145211311135 a43.683553082459426,43.683553082459426 0 0,0 0.6678857025527432,0.3410271985974708 l -10.488488710282278 20.11306006104083" fill="#e0ff1b" stroke="none" /><path d="M 109.71004243097381 81.37971332152246 l 4.844114571024782 -9.28922841038767 a31.476412097544085,31.476412097544085 0 0,0 0.4769593508737984,0.25395398949802067 l -5.00286273768514 9.204703953167076" fill="#ff850c" stroke="none" /><path d="M 110.02825361518725 81.54914285379988 l 5.548722796847046 -10.209024980525198 a32.619488617372006,32.619488617372006 0 0,0 0.4896896840953551,0.2716226130753105 l -5.723156669098501 10.112269452016742" fill="#ff940d" stroke="none" /><path d="M 110.34350942703115 81.72400993836675 l 5.708138354953739 -10.085733529950016 a32.58899755442428,32.58899755442428 0 0,0 0.4845014524462071,0.2797270439925824 l -5.880432275260344 9.986259588681262" fill="#ff930d" stroke="none" /><line stroke="#e1ed5e" stroke-width="0.3" x1="143.13028292997686" x2="145.6673583964461" y1="26.7553504044142" y2="22.446841604673864" /><path d="M 143.63769802327073 25.89364864446614 a86.0,86.0 0 0,1 29.32050498858742,28.57503671076993" fill="none" id="id14" stroke="none" /><text fill="#e1ed5e" style="font-size:6.75px; font-family:Arial;" text-anchor="middle"><textPath startOffset="20.669276256404974" xlink:href="#id14">February</textPath></text><path d="M 110.65571695917076 81.90426304109057 l 7.343769265818304 -12.47132571467188 a35.472902684362026,35.472902684362026 0 0,0 0.5220720118839125,0.31348924278901596 l -7.556774034259651 12.34342247134694" fill="#ffb911" stroke="none" /><path d="M 110.96478420261332 82.08984904055464 l 9.08078498743553 -14.832779829490178 a38.39172255580698,38.39172255580698 0 0,0 0.559122186434232,0.34893359683307473 l -9.334071302659474 14.674710435815559" fill="#ffde14" stroke="none" /><path d="M 111.27062007382361 82.28071324371311 l 6.856970309319726 -10.780296238746503 a33.77626036123342,33.77626036123342 0 0,0 0.48656209751910634,0.31538367313539445 l -7.04101803909584 10.660998723907214" fill="#ffa30f" stroke="none" /><path d="M 111.5731344415666 82.4767994020092 l 6.985297075729206 -10.576630083456632 a33.67515203689766,33.67515203689766 0 0,0 0.47963633205399653,0.32272072969532056 l -7.165829695880204 10.455159679704192" fill="#ffa20e" stroke="none" /><path d="M 111.8722381534696 82.67804972795209 l 8.028030318642749 -11.713136155492531 a35.20024046958901,35.20024046958901 0 0,0 0.4954935178416456,0.34589295741932735 l -8.227918927658155 11.573598382268077" fill="#ffb510" stroke="none" /><path d="M 112.16784306229584 82.88440491214696 l 6.557415017516878 -9.223825429718291 a32.31718371636131,32.31718371636131 0 0,0 0.449391968400509,0.32532512900159105 l -6.7147879962913555 9.109899529343624" fill="#ff900d" stroke="none" /><path d="M 112.45986205192187 83.09580414077388 l 6.925506009240054 -9.395778983474685 a32.67233036674017,32.67233036674017 0 0,0 0.44861756221759685,0.3366509822050811 l -7.0857765603684175 9.27550897400559" fill="#ff940d" stroke="none" /><path d="M 112.7482090630111 83.31218511350987 l 8.057993309715295 -10.548171907477576 a34.27385350111698,34.27385350111698 0 0,0 0.4644760888308112,0.3611794160333459 l -8.237879343181332 10.408291439823438" fill="#ffa90f" stroke="none" /><path d="M 113.03279911837588 83.53348406188908 l 8.238311834056315 -10.408837877915618 a34.27455038198595,34.27455038198595 0 0,0 0.4582168388648762,0.3691070499214244 l -8.41577944327645 10.265882534200784" fill="#ffa90f" stroke="none" /><path d="M 113.31354834802062 83.75963576809568 l 6.705254541504131 -8.179320281497136 a31.576470050715038,31.576470050715038 0 0,0 0.4162465403145831,0.34724766825163655 l -6.844675415980607 8.063010429333628" fill="#ff860c" stroke="none" /><path d="M 113.59037401385872 83.9905735841838 l 14.695276359241706 -17.310998600439916 a43.70730763034052,43.70730763034052 0 0,0 0.5678214478987719,0.4904706427266314 l -14.99027728690334 17.056183825248567" fill="#dfff1b" stroke="none" /><path d="M 113.86319453409587 84.22622945171908 l 8.032440650612465 -9.139442965604218 a33.16756017150291,33.16756017150291 0 0,0 0.4244420663344244,0.37953871295589936 l -8.188147743770264 9.000208722764931" fill="#ff9b0e" stroke="none" /><path d="M 114.13192950727249 84.46653392183569 l 3.165672101627657 -3.479628183817274 a25.70417815910911,25.70417815910911 0 0,0 0.3238362044639088,0.29973795625798194 l -3.2249380774055307 3.424772481426917" fill="#ff3505" stroke="none" /><path d="M 114.39649973595853 84.71141617570332 l 11.088330168903548 -11.775422385160251 a37.174413073850616,37.174413073850616 0 0,0 0.4608344069015035,0.4414689373156188 l -11.288837061670364 11.583341317539052" fill="#ffcf13" stroke="none" /><path d="M 114.91283532996326 85.21462403516908 l 15.79352003145 -15.658533491877023 a43.24016515451373,43.24016515451373 0 0,0 0.518085536823543,0.531601401625647 l -16.059992369424354 15.385109398183634" fill="#e5ff1a" stroke="none" /><path d="M 115.16444852881244 85.47280134310134 l 8.837580659162619 -8.466202357315456 a33.23844002568215,33.23844002568215 0 0,0 0.3911755499073591,0.4154148782315717 l -8.981612042806237 8.31324601913939" fill="#ff9c0e" stroke="none" /><path d="M 115.41159269507618 85.73525988315684 l 7.590139457315821 -7.025319767488959 a31.342404692187095,31.342404692187095 0 0,0 0.36208283045090073,0.39799245824148644 l -7.709619988608599 6.893989733689801" fill="#ff830c" stroke="none" /><path d="M 115.6541949942343 86.00192230759917 l 9.146147304850812 -8.178541317940597 a33.269496673103234,33.269496673103234 0 0,0 0.3770367674221458,0.42899862964163 l -9.285195136231549 8.02033041048767" fill="#ff9c0e" stroke="none" /><path d="M 115.8921839302757 86.27271002978787 l 8.162909700078854 -7.050926980537136 a31.78650388478621,31.78650388478621 0 0,0 0.3531411506391867,0.41599938749217186 l -8.282745414225154 6.9097608105954125" fill="#ff890c" stroke="none" /><path d="M 116.1254893667686 86.54754324733833 l 8.259479275421151 -6.890351370116212 a31.75620471657052,31.75620471657052 0 0,0 0.34561817128007094,0.4215979722331117 l -8.376544265939849 6.747551116184606" fill="#ff880c" stroke="none" /><path d="M 116.35404254752997 86.82634096563983 l 10.751864799567862 -8.660941197957142 a34.80632098361681,34.80632098361681 0 0,0 0.37082582999524666,0.46852632227488145 l -10.898957060204669 8.475094931767583" fill="#ffb010" stroke="none" /><path d="M 116.57777611688842 87.10902102172516 l 10.371119247891436 -8.064645056314346 a34.137679183871086,34.137679183871086 0 0,0 0.35576017081443956,0.4657014836510068 l -10.508031396060181 7.885422659422457" fill="#ffa80f" stroke="none" /><path d="M 116.7966241395341 87.39550010848427 l 8.082629904945936 -6.065356164055872 a31.105317984961033,31.105317984961033 0 0,0 0.3168268903421937,0.42983652511528964 l -8.185558814871955 5.925713329671708" fill="#ff800b" stroke="none" /><path d="M 117.01052211995028 87.68569379921539 l 12.383562585487613 -8.964744318778154 a36.28787961130496,36.28787961130496 0 0,0 0.3609519122459089,0.5077240678202509 l -12.535629596263483 8.750843024248399" fill="#ffc312" stroke="none" /><path d="M 117.21940702142032 87.97951657250589 l 19.18609558747255 -13.393384787329849 a44.39848328317697,44.39848328317697 0 0,0 0.430898407759271,0.6286936544757111 l -19.413183732047145 13.062056397784088" fill="#d7ff1c" stroke="none" /><path d="M 117.42321728460499 88.27688183743584 l 20.477481098232865 -13.778163163836158 a45.68126844993539,45.68126844993539 0 0,0 0.43217864952875834,0.6543735587016992 l -20.71098418668235 13.424609726795401" fill="#c8ff1d" stroke="none" /><path d="M 117.62189284568427 88.57770195909679 l 12.415782961372265 -8.047760512327367 a35.79588171781856,35.79588171781856 0 0,0 0.32980332500238757,0.5185056057800065 l -12.552103978000543 7.833441231868688" fill="#ffbd11" stroke="none" /><path d="M 117.81537515405839 88.88188828441811 l 2.376451511822511 -1.4830815049711286 a23.801259098768075,23.801259098768075 0 0,0 0.21334092612788053,0.3484763696368531 l -2.4015604024057935 1.4420680192097208" fill="#ff1a02" stroke="none" /><line stroke="#e1ed5e" stroke-width="0.3" x1="172.87174338648825" x2="177.1583165268699" y1="56.24261187166439" y2="53.66864786411523" /><path d="M 173.72905801456457 55.72781907015455 a86.0,86.0 0 0,1 12.242430191666344,42.057860355516425" fill="none" id="id15" stroke="none" /><text fill="#e1ed5e" style="font-size:6.75px; font-family:Arial;" text-anchor="middle"><textPath startOffset="22.145653131862474" xlink:href="#id15">March</textPath></text><path d="M 118.00360718960297 89.18935116829356 l 10.889452064038155 -6.538803085084055 a33.701815304927464,33.701815304927464 0 0,0 0.29356895407724726,0.4985442643267645 l -11.00009472824517 6.350907652463734" fill="#ffa20f" stroke="none" /><path d="M 118.18653347947321 89.5 l 13.511825591394595 -7.8010561424349465 a36.60211228486989,36.60211228486989 0 0,0 0.309491138644481,0.5468411871166585 l -13.643750095060453 7.56795818521917" fill="#ffc712" stroke="none" /><path d="M 118.36410011445183 89.81374322990088 l 11.26376929124682 -6.247822952647976 a33.88051979906361,33.88051979906361 0 0,0 0.27774709718372875,0.511023375510543 l -11.36936173804589 6.05354474366283" fill="#ffa40f" stroke="none" /><path d="M 118.53625476483649 90.13048839642627 l 5.375114052523391 -2.861945478465684 a27.089547027435177,27.089547027435177 0 0,0 0.21502899545701046,0.41234645142462034 l -5.423451116955346 2.7692527839365653" fill="#ff4906" stroke="none" /><path d="M 118.70294669586156 90.45014215332178 l 10.164327185964058 -5.1899778848518086 a32.412686694577175,32.412686694577175 0 0,0 0.2487752216415584,0.49771709119743834 l -10.251922320817354 5.014728937490619" fill="#ff910d" stroke="none" /><path d="M 118.8641267826498 90.77261029715802 l 11.712104524221129 -5.728977223838728 a34.03819667045807,34.03819667045807 0 0,0 0.25224044874110185,0.5270855242610564 l -11.808724230922142 5.527079197512568" fill="#ffa60f" stroke="none" /><path d="M 119.0197475246899 91.09779779509293 l 10.630555762048512 -4.975636864866261 a32.737362481453786,32.737362481453786 0 0,0 0.2338625215185453,0.511031814983437 l -10.714402748422108 4.79241606766814" fill="#ff950d" stroke="none" /><path d="M 119.16976305983485 91.42560881287824 l 10.471423087127397 -4.683734355747536 a32.471184288678934,32.471184288678934 0 0,0 0.22322565819372012,0.510783990945198 l -10.550282627338087 4.503288295026488" fill="#ff920d" stroke="none" /><path d="M 119.31412917781788 91.75594674310238 l 13.719922702599511 -5.856219164706236 a35.91749247931361,35.91749247931361 0 0,0 0.23718228266362051,0.569151135214427 l -13.818430829799615 5.619835520050531" fill="#ffbf11" stroke="none" /><path d="M 119.4528033332814 92.08871423366111 l 14.289794792709925 -5.811535140236245 a36.42634681005067,36.42634681005067 0 0,0 0.23059841957483915,0.5812586553654223 l -14.387451887250888 5.565375467657257" fill="#ffc512" stroke="none" /><path d="M 119.71291397450082 92.76114493625339 l 11.137068987915404 -4.089685996841987 a32.864225098772884,32.864225098772884 0 0,0 0.1899236556964119,0.5312502669839193 l -11.20563281365576 3.8979007734771507" fill="#ff970d" stroke="none" /><path d="M 119.83427380445688 93.10060997987247 l 12.664034036752382 -4.405208424020606 a34.4083414091037,34.4083414091037 0 0,0 0.1892697643936548,0.5595424273966799 l -12.737789222718401 4.187164322149764" fill="#ffab0f" stroke="none" /><path d="M 119.94978838288452 93.4421083053983 l 12.522226562067514 -4.116304593975329 a34.18143093833638,34.18143093833638 0 0,0 0.1784519474316459,0.5589981836649516 l -12.591043225276417 3.9007373766189906" fill="#ffa80f" stroke="none" /><path d="M 120.05942366710727 93.78553927170692 l 22.58712111144182 -6.997547857889015 a44.64621991199414,44.64621991199414 0 0,0 0.22051762986663626,0.7340314703538408 l -22.703915061312085 6.608778783944451" fill="#d4ff1c" stroke="none" /><path d="M 120.16314734710363 94.1308016681162 l 22.162196132619684 -6.451092298898353 a44.082017443663986,44.082017443663986 0 0,0 0.20525743514457345,0.7283862262533598 l -22.26967205983884 6.06969814874198" fill="#dbff1b" stroke="none" /><path d="M 120.26092885502905 94.47779374421319 l 5.45334422981274 -1.4863332197800978 a26.652269431746312,26.652269431746312 0 0,0 0.11652184258384977,0.44245241555312753 l -5.47805555320132 1.3925002998541718" fill="#ff4206" stroke="none" /><path d="M 120.35273937422433 94.82641323984039 l 11.190269922768131 -2.844522855157523 a32.54614443084455,32.54614443084455 0 0,0 0.13299357885565735,0.5426591859011385 l -11.23745102814008 2.6520078446482898" fill="#ff930d" stroke="none" /><path d="M 120.43855184770803 95.1765574152323 l 11.533462623748088 -2.7218657752139928 a32.850287481393664,32.850287481393664 0 0,0 0.1248141017011132,0.549953961842411 l -11.578487587006867 2.523477479432555" fill="#ff970d" stroke="none" /><path d="M 120.51834098615036 95.52812308129327 l 11.20449744864831 -2.441968069452555 a32.467518089324834,32.467518089324834 0 0,0 0.11401090989324254,0.5455834762531558 l -11.244766069365918 2.2492681419139946" fill="#ff920d" stroke="none" /><path d="M 120.592083275326 95.88100663000786 l 11.531235855959773 -2.3065701222870545 a32.75966266926053,32.75966266926053 0 0,0 0.10556989697212725,0.5523863105504302 l -11.569132045214058 2.10828124670331" fill="#ff960d" stroke="none" /><path d="M 120.65975698304385 96.23510406497455 l 10.117906989285428 -1.8438196986629807 a31.28453756495685,31.28453756495685 0 0,0 0.09174590264804376,0.5291659859490528 l -10.148067709425707 1.669860679793335" fill="#ff820c" stroke="none" /><path d="M 120.7213421655516 96.59031103205396 l 12.887211562468499 -2.1205857584450443 a34.0605170577103,34.0605170577103 0 0,0 0.08998222206480634,0.5777504145467688 l -12.92171527667157 1.8990471619668343" fill="#ffa70f" stroke="none" /><path d="M 120.77682067341334 96.94652285012252 l 12.14527682520615 -1.7849374477279414 a33.275738301755666,33.275738301755666 0 0,0 0.07820667385073247,0.5658645333729131 l -12.174128015612094 1.5761846061549427" fill="#ff9c0e" stroke="none" /><path d="M 120.82617615685814 97.30363454192243 l 16.317137467733815 -2.112580125670954 a37.4533270169988,37.4533270169988 0 0,0 0.07707879315758394,0.6383229790304303 l -16.350998347151062 1.8321634697171107" fill="#ffd213" stroke="none" /><path d="M 120.86939407059847 97.66154086499901 l 21.5300435099508 -2.412486282663275 a42.66478395009775,42.66478395009775 0 0,0 0.07530864125317792,0.7285427896324201 l -21.568284543685646 2.0425389707479233" fill="#ecff1a" stroke="none" /><path d="M 120.9064616781168 98.02013634271609 l 21.846147186722856 -2.0688528519362483 a42.943889787977966,42.943889787977966 0 0,0 0.06320190764828014,0.7345019693171871 l -21.878442717068875 1.693529835243399" fill="#e9ff1a" stroke="none" /><path d="M 120.93736805541906 98.37931529534042 l 14.402640339725036 -1.1148554509583601 a35.445724330472544,35.445724330472544 0 0,0 0.04175175302718718,0.607061325765103 l -14.419656053917288 0.867450701038923" fill="#ffb911" stroke="none" /><path d="M 120.96210409425399 98.7389718711861 l 21.35628054986751 -1.284740805557133 a42.39488905935511,42.39488905935511 0 0,0 0.037465797909836555,0.7268264703824802 l -21.37518793723392 0.9179425417979222" fill="#efff19" stroke="none" /><path d="M 120.98066250479742 99.09900007780936 l 23.235276616387065 -0.9978227531497543 a44.25669214842745,44.25669214842745 0 0,0 0.026080496086710633,0.7593051872472718 l -23.248981799470624 0.5988113013383626" fill="#d9ff1c" stroke="none" /><path d="M 120.99303781780057 99.45929381324524 l 31.106394271840877 -0.8011903744657478 a52.11671047221013,52.11671047221013 0 0,0 0.015358467981418614,0.8945537628216855 l -31.11556417142096 0.2670896956749958" fill="#81ff25" stroke="none" /><line stroke="#e1ed5e" stroke-width="0.3" x1="184.99686870605535" x2="189.99668451229388" y1="99.2704041080226" y2="99.22748670261217" /><path d="M 185.99683186730306 99.26182062694052 a86.0,86.0 0 0,1 -10.086455211305974,41.156179273409016" fill="none" id="id16" stroke="none" /><text fill="#e1ed5e" style="font-size:6.75px; font-family:Arial;" text-anchor="middle"><textPath startOffset="21.40746469413373" xlink:href="#id16">April</textPath></text><path d="M 120.99922638620191 99.81974689727618 l 11.117446020464994 -0.09542990311634726 a32.11785558839301,32.11785558839301 0 0,0 0.0,0.5513660116803469 l -11.117446020464994 -0.09542990311634592" fill="#ff8d0d" stroke="none" /><path d="M 120.99922638620191 100.18025310272382 l 12.4138693688682 0.1065581383520419 a33.414326697174246,33.414326697174246 0 0,0 -0.009846992683328799,0.5735379575625458 l -12.410210944586204 -0.31964301188365873" fill="#ff9e0e" stroke="none" /><path d="M 120.99303781780057 100.54070618675476 l 13.717721712342419 0.35331985120106224 a34.72227109098648,34.72227109098648 0 0,0 -0.020461855853872862,0.5957246073423386 l -13.7096351694917 -0.5887507231075115" fill="#ffaf10" stroke="none" /><path d="M 120.98066250479742 100.90099992219065 l 42.69848083114139 1.8336564871447822 a63.73783524466578,63.73783524466578 0 0,0 -0.05632728160094473,1.0927342151041157 l -42.660711960083866 -2.566362495625629" fill="#34ff5a" stroke="none" /><path d="M 120.96210409425399 101.26102812881392 l 13.249214402114998 0.7970398377295159 a34.27316671997076,34.27316671997076 0 0,0 -0.04037058966577911,0.5869795136139045 l -13.233579851284151 -1.024362775497764" fill="#ffa90f" stroke="none" /><path d="M 120.93736805541906 101.62068470465957 l 15.514455148853738 1.2009169487932043 a36.5608650172056,36.5608650172056 0 0,0 -0.053807804224701224,0.6253282478057084 l -15.491553721931297 -1.46706624397457" fill="#ffc712" stroke="none" /><path d="M 120.9064616781168 101.97986365728391 l 1.01249185556579 0.09588403140589348 a22.017021880327903,22.017021880327903 0 0,0 -0.03886277741821739,0.3759621180515874 l -1.0106966856659065 -0.11325067174041233" fill="#ff0000" stroke="none" /><path d="M 120.86939407059847 102.33845913500097 l 19.702452818945535 2.207700933746745 a40.82575573580087,40.82575573580087 0 0,0 -0.08401923760828017,0.6957998153439786 l -19.66165149507759 -2.545594426014132" fill="#fffc17" stroke="none" /><path d="M 120.82617615685814 102.69636545807757 l 15.075739053928457 1.9518562473417695 a36.20156738078119,36.20156738078119 0 0,0 -0.08508313616845659,0.615619189198066 l -15.04001140120479 -2.210363744739921" fill="#ffc212" stroke="none" /><path d="M 120.77682067341334 103.0534771498775 l 15.191675851951116 2.2326531961474325 a36.35486097250711,36.35486097250711 0 0,0 -0.09604349715597271,0.6166681486974339 l -15.151110862656877 -2.493109526776317" fill="#ffc412" stroke="none" /><path d="M 120.7213421655516 103.40968896794604 l 18.611004417848836 3.062433694639242 a39.86128271288172,39.86128271288172 0 0,0 -0.1168983033745936,0.6742383493494147 l -18.55569129698201 -3.381465076909245" fill="#fff016" stroke="none" /><path d="M 120.65975698304385 103.76489593502545 l 17.517270892513167 3.19223028761134 a38.80576068947441,38.80576068947441 0 0,0 -0.12505379555561744,0.6543343010511393 l -17.459890804675393 -3.492467153695794" fill="#ffe315" stroke="none" /><path d="M 120.592083275326 104.11899336999214 l 41.81910228176262 8.364991668618636 a63.64751342421481,63.64751342421481 0 0,0 -0.22350063524945676,1.0695314478093565 l -41.669343935688794 -9.0816395677134" fill="#34ff59" stroke="none" /><path d="M 120.51834098615036 104.47187691870673 l 9.458509503050925 2.0614381231217385 a30.680543846022513,30.680543846022513 0 0,0 -0.11657019811506894,0.5136298015400047 l -9.421728443378193 -2.22350225860076" fill="#ff7a0b" stroke="none" /><path d="M 120.43855184770803 104.8234425847677 l 21.988204104053988 5.1891562977810235 a43.592221289734596,43.592221289734596 0 0,0 -0.17813125397719584,0.7268363036664459 l -21.895885323560496 -5.5658484260555685" fill="#e1ff1b" stroke="none" /><path d="M 120.35273937422433 105.17358676015961 l 12.35442744922833 3.140447145981109 a33.747324655587434,33.747324655587434 0 0,0 -0.14754092371813377,0.5602369190570549 l -12.298697044705465 -3.352064569410967" fill="#ffa30f" stroke="none" /><path d="M 120.26092885502905 105.52220625578681 l 15.990081564925463 4.358167835254759 a37.57336222174663,37.57336222174663 0 0,0 -0.17495142932716215,0.6208409030127682 l -15.91291164352372 -4.632016662170535" fill="#ffd413" stroke="none" /><path d="M 120.16314734710363 105.8691983318838 l 17.70218957086991 5.1528493896050875 a39.43690246313,39.43690246313 0 0,0 -0.1947876500539888,0.6483847357799601 l -17.61112560081229 -5.455971728975771" fill="#ffeb16" stroke="none" /><path d="M 120.05942366710727 106.21446072829308 l 16.04116202692118 4.9695930006180244 a37.79332408326981,37.79332408326981 0 0,0 -0.19730865845674309,0.618066562377717 l -15.953488652687186 -5.244228596687124" fill="#ffd614" stroke="none" /><path d="M 119.94978838288452 106.5578916946017 l 20.256807102703263 6.658814845972755 a42.3231810279113,42.3231810279113 0 0,0 -0.23280687686455498,0.6882521643789853 l -20.139514804266344 -7.005568684825901" fill="#f0ff19" stroke="none" /><path d="M 119.83427380445688 106.89939002012753 l 20.47247636863865 7.12139000084505 a42.67571185010088,42.67571185010088 0 0,0 -0.24662462539913904,0.6898529706985582 l -20.347211573195565 -7.4717779279245295" fill="#ecff1a" stroke="none" /><path d="M 119.71291397450082 107.23885506374661 l 10.855747801647489 3.9863809605399507 a32.56453602595148,32.56453602595148 0 0,0 -0.19720046563429824,0.5230976639196897 l -10.78571665219875 -4.1721469046538" fill="#ff930d" stroke="none" /><path d="M 119.58574465831526 107.57618678355244 l 13.649533608057153 5.279932824975001 a35.63514463043431,35.63514463043431 0 0,0 -0.22558968309255872,0.5686333674812409 l -13.556885249998471 -5.513467209669806" fill="#ffbb11" stroke="none" /><path d="M 119.4528033332814 107.91128576633889 l 20.2197673154862 8.223203340981222 a42.82796517038473,42.82796517038473 0 0,0 -0.2828158047725674,0.6786549759754896 l -20.07562566617715 -8.56909082639799" fill="#eaff1a" stroke="none" /><path d="M 119.31412917781788 108.2440532568976 l 14.095659573677862 6.016598892274151 a36.32602626408851,36.32602626408851 0 0,0 -0.2497260663569622,0.5714221109213001 l -13.990299625303933 -6.257683072971296" fill="#ffc412" stroke="none" /><path d="M 119.16976305983485 108.57439118712176 l 16.776420310699507 7.503879417524302 a39.37815237595977,39.37815237595977 0 0,0 -0.2813016476999405,0.6146948670889734 l -16.64513419814451 -7.790763266827964" fill="#ffea16" stroke="none" /><path d="M 119.0197475246899 108.90220220490707 l 28.679276371585253 13.423349443458404 a52.66523651386427,52.66523651386427 0 0,0 -0.3902763421906808,0.815527451909194 l -28.44462077143466 -13.913689397432702" fill="#7bff26" stroke="none" /><path d="M 118.8641267826498 109.22738970284198 l 9.320875396632184 4.559307231515307 a31.37622284797753,31.37622284797753 0 0,0 -0.2408201105583355,0.4818015401133326 l -9.241235372862116 -4.718640627792385" fill="#ff830c" stroke="none" /><path d="M 118.70294669586154 109.54985784667822 l 14.456389742343681 7.381535608295753 a37.23189059595578,37.23189059595578 0 0,0 -0.29553598757872845,0.5667292240628283 l -14.327545685790003 -7.628611075463084" fill="#ffcf13" stroke="none" /><path d="M 118.5362547648365 109.86951160357373 l 11.717716897773368 6.239024245035307 a34.275176564795736,34.275176564795736 0 0,0 -0.2809824303992827,0.5169760242239809 l -11.608889117758746 -6.439255102733891" fill="#ffa90f" stroke="none" /><line stroke="#e1ed5e" stroke-width="0.3" x1="174.33088141563837" x2="178.70328620479359" y1="141.23008692659167" y2="143.65538615756765" /><path d="M 175.20536237346943 141.71514677278685 a86.0,86.0 0 0,1 -30.301960400862466,31.631185727798858" fill="none" id="id17" stroke="none" /><text fill="#e1ed5e" style="font-size:6.75px; font-family:Arial;" text-anchor="middle"><textPath startOffset="22.145653131862474" xlink:href="#id17">May</textPath></text><path d="M 118.36410011445183 110.18625677009912 l 19.497026866059404 10.814672141484904 a43.29554193428928,43.29554193428928 0 0,0 -0.36608779480226444,0.6468420555606093 l -19.30850570623576 -11.147770967144636" fill="#e4ff1a" stroke="none" /><path d="M 118.18653347947321 110.5 l 36.93817710198989 21.326266493207925 a63.65253298641587,63.65253298641587 0 0,0 -0.5544629380975133,0.9415992860660187 l -36.566640453762616 -21.957216947567495" fill="#34ff59" stroke="none" /><path d="M 118.00360718960297 110.81064883170644 l 18.424018798264683 11.063093923301155 a42.49038193784823,42.49038193784823 0 0,0 -0.38085957539183235,0.6221054936942785 l -18.231391258417446 -11.37773653311999" fill="#eeff19" stroke="none" /><path d="M 117.81537515405839 111.11811171558189 l 8.615424996649821 5.376662391987231 a31.155493407526215,31.155493407526215 0 0,0 -0.287049370620121,0.4512892882480124 l -8.52185793440381 -5.523765354913915" fill="#ff800b" stroke="none" /><path d="M 117.62189284568427 111.42229804090321 l 18.095479123631936 11.729270944561806 a42.56437250663095,42.56437250663095 0 0,0 -0.40269050427343334,0.6097247483745832 l -17.891464180437776 -12.03817557127545" fill="#edff1a" stroke="none" /><path d="M 117.423217284605 111.72311816256416 l 4.501614041492374 3.028886827767613 a26.425742750443064,26.425742750443064 0 0,0 -0.25646845641992577,0.3741951425693507 l -4.448955848257128 -3.105716705407008" fill="#ff3f05" stroke="none" /><path d="M 117.21940702142032 112.02048342749411 l 17.482741759641343 12.204311526378799 a42.32115098364086,42.32115098364086 0 0,0 -0.4209642596817372,0.5921389500409124 l -17.270662401429647 -12.502627703129216" fill="#f0ff19" stroke="none" /><path d="M 117.01052211995028 112.31430620078461 l 17.269877022883126 12.5020591496282 a42.32018141025795,42.32018141025795 0 0,0 -0.43105720640477135,0.5848118874215906 l -17.052717796894527 -12.796677346318669" fill="#f0ff19" stroke="none" /><path d="M 116.79662413953412 112.60449989151573 l 5.026219718503406 3.771768979904532 a27.2840373882117,27.2840373882117 0 0,0 -0.28433607772387426,0.37220505305126894 l -4.960731663425228 -3.8574949461966783" fill="#ff4b07" stroke="none" /><path d="M 116.57777611688842 112.89097897827486 l 16.83986932496457 13.094784242131471 a42.33200818558481,42.33200818558481 0 0,0 -0.45100434711769144,0.5698292594335818 l -16.61259854720532 -13.381933445479737" fill="#f0ff19" stroke="none" /><path d="M 116.35404254752997 113.17365903436017 l 9.46445680094104 7.623896445093919 a33.153178166323194,33.153178166323194 0 0,0 -0.36082211058388813,0.44014430605782146 l -9.332187871118524 -7.785243032850234" fill="#ff9b0e" stroke="none" /><path d="M 116.1254893667686 113.45245675266167 l 7.817725097949541 6.521824323737629 a31.18091440965918,31.18091440965918 0 0,0 -0.34641318317108755,0.40807385873198165 l -7.704617351271339 -6.655064964919168" fill="#ff810b" stroke="none" /><path d="M 115.89218393027572 113.72728997021213 l 5.493126135503348 4.744831524467321 a28.258640433037638,28.258640433037638 0 0,0 -0.3202497033635963,0.3643853750005692 l -5.410865368181167 -4.838429177279183" fill="#ff5908" stroke="none" /><path d="M 115.6541949942343 113.99807769240083 l 15.916721309758753 14.232830342560387 a42.35217733189372,42.35217733189372 0 0,0 -0.48927312357475405,0.5377968708444856 l -15.67005048534212 -14.503964788962543" fill="#f0ff19" stroke="none" /><path d="M 115.41159269507618 114.26474011684316 l 6.244976165747495 5.780256706935201 a29.509470894763297,29.509470894763297 0 0,0 -0.34729017053192274,0.36881012613571085 l -6.144830161479312 -5.886608293015409" fill="#ff6a09" stroke="none" /><path d="M 115.16444852881244 114.52719865689866 l 16.122677229269136 15.445160075926031 a43.326972271451694,43.326972271451694 0 0,0 -0.5191256233176305,0.5326686219951996 l -15.855164804800697 -15.719651389988968" fill="#e4ff1a" stroke="none" /><path d="M 114.91283532996324 114.78537596483092 l 3.612096831680139 3.581224394697119 a26.086493063654707,26.086493063654707 0 0,0 -0.3180168095128206,0.31529873345652015 l -3.550088102037354 -3.642703138382301" fill="#ff3a05" stroke="none" /><path d="M 114.65682725009322 115.03919595460226 l 3.56396061757923 3.6569375614301824 a26.106369318004198,26.106369318004198 0 0,0 -0.32362886798276763,0.31002913474632526 l -3.5006592637311504 -3.717578826482088" fill="#ff3b05" stroke="none" /><path d="M 114.39649973595853 115.28858382429668 l 14.751762004814124 15.665860042587598 a42.518216773715714,42.518216773715714 0 0,0 -0.5356692540544895,0.4958074644752175 l -14.480662979445668 -15.916785253195195" fill="#eeff19" stroke="none" /><path d="M 114.13192950727249 115.5334660781643 l 3.537119806192231 3.887914279194166 a26.2561482062171,26.2561482062171 0 0,0 -0.3359973944723413,0.3004509419999172 l -3.4698573848965117 -3.94806075107747" fill="#ff3d05" stroke="none" /><path d="M 113.86319453409587 115.77377054828091 l 14.280577523291063 16.248675772046493 a42.63225274315684,42.63225274315684 0 0,0 -0.5538549224890227,0.4784066907224784 l -13.999543121039185 -16.49142659523369" fill="#ecff1a" stroke="none" /><path d="M 113.59037401385872 116.0094264158162 l 10.850285480427987 12.781609013289398 a37.76598413381652,37.76598413381652 0 0,0 -0.49783779542262213,0.41531399515631173 l -10.62927335084347 -12.96598519235758" fill="#ffd614" stroke="none" /><path d="M 113.31354834802062 116.24036423190432 l 14.09187468043888 17.189795803363186 a43.227685704330916,43.227685704330916 0 0,0 -0.577911402896008,0.4655245179712825 l -13.794712507187619 -17.42916861512787" fill="#e5ff1a" stroke="none" /><path d="M 113.03279911837588 116.46651593811092 l 11.764077440831032 14.863527544400268 a39.95568434789457,39.95568434789457 0 0,0 -0.5414757343192649,0.421054806093362 l -11.507191761876538 -15.063283402114424" fill="#fff116" stroke="none" /><path d="M 112.7482090630111 116.68781488649013 l 9.244667680754578 12.10156675192706 a36.228650576427796,36.228650576427796 0 0,0 -0.49744871950043795,0.3732947929828359 l -9.035565972343372 -12.25848057217391" fill="#ffc312" stroke="none" /><path d="M 112.45986205192187 116.90419585922612 l 7.915917823200992 10.739462823209069 a34.34158224180179,34.34158224180179 0 0,0 -0.47754257849572596,0.34570399979737776 l -7.730394234331298 -10.873767594379522" fill="#ffaa0f" stroke="none" /><path d="M 112.16784306229584 117.11559508785304 l 9.428379100974295 13.262195953783449 a37.27206729300979,37.27206729300979 0 0,0 -0.5246574311388429,0.3662516338844249 l -9.199326578661696 -13.422092403472996" fill="#ffd013" stroke="none" /><path d="M 111.8722381534696 117.32195027204791 l 11.338461348211588 16.54315396106339 a41.05583827029764,41.05583827029764 0 0,0 -0.5847596962826253,0.3934524206550247 l -11.05280536383196 -16.735356055775537" fill="#ffff18" stroke="none" /><path d="M 111.5731344415666 117.5232005979908 l 11.165497840358345 16.905986828452267 a41.260324100735616,41.260324100735616 0 0,0 -0.5943733742002334,0.38526564014121206 l -10.8736388339011 -17.095166310297376" fill="#fdff18" stroke="none" /><path d="M 111.27062007382361 117.71928675628689 l 4.074235395886796 6.405374754846168 a28.59132530004593,28.59132530004593 0 0,0 -0.41639299439029587,0.25986002479225545 l -3.963678272706785 -6.474370576479971" fill="#ff5d08" stroke="none" /><line stroke="#e1ed5e" stroke-width="0.3" x1="143.1302829299769" x2="145.66735839644613" y1="173.24464959558577" y2="177.55315839532614" /><path d="M 143.63769802327073 174.10635135553383 a86.0,86.0 0 0,1 -40.68552437913181,11.842963189579606" fill="none" id="id18" stroke="none" /><text fill="#e1ed5e" style="font-size:6.75px; font-family:Arial;" text-anchor="middle"><textPath startOffset="21.407464694133747" xlink:href="#id18">June</textPath></text><path d="M 110.65571695917076 118.09573695890943 l 21.653746836610615 36.772796089791804 a63.67462108004512,63.67462108004512 0 0,0 -0.9466522051107206,0.5465499054496294 l -21.019302163639495 -37.1390928925176" fill="#34ff5a" stroke="none" /><path d="M 110.02825361518725 118.45085714620011 l 7.749511292737152 14.25822793298869 a37.2281233993743,37.2281233993743 0 0,0 -0.5641145349028193,0.30035921595821385 l -7.503607942047779 -14.389157616669474" fill="#ffcf13" stroke="none" /><path d="M 109.71004243097381 118.62028667847754 l 4.812583137323961 9.228762728690976 a31.408218769613303,31.408218769613303 0 0,0 -0.48020590768511207,0.24519655806657503 l -4.653450007925266 -9.310017238430389" fill="#ff840c" stroke="none" /><path d="M 109.3889696526874 118.78422872680471 l 6.072471281902188 12.149010351051091 a34.58209703909795,34.58209703909795 0 0,0 -0.5332884611969718,0.2608581097970199 l -5.863022571443147 -12.251462210945334" fill="#ffad10" stroke="none" /><path d="M 109.06512990194946 118.94263497670748 l 7.02194262043455 14.673159383813326 a37.26681543718574,37.26681543718574 0 0,0 -0.579430278014701,0.2712026272607685 l -6.769023628548343 -14.791538242644629" fill="#ffd013" stroke="none" /><path d="M 108.73861861582097 119.09545874513695 l 4.027682953350132 8.801214134113264 a30.67902888761173,30.67902888761173 0 0,0 -0.48076462953895543,0.21503990371356166 l -3.876004920955549 -8.869057788736676" fill="#ff7a0b" stroke="none" /><path d="M 108.4095320186766 119.2426549942271 l 8.539800462953565 19.540734688113673 a42.32530196968641,42.32530196968641 0 0,0 -0.6682659793318037,0.2852430090253043 l -8.203099408451331 -19.68445234679838" fill="#f0ff19" stroke="none" /><path d="M 108.07796709384702 119.3841803445677 l 8.826110795948154 21.179452877458687 a43.9449222262976,43.9449222262976 0 0,0 -0.6988195586097677,0.2842038308077693 l -8.461236776147945 -21.327843964845744" fill="#ddff1b" stroke="none" /><path d="M 107.407793817531 119.65005319985036 l 5.479120714594003 14.53401865416104 a36.53249696747417,36.53249696747417 0 0,0 -0.5887139662359984,0.21618392293997413 l -5.228817596703878 -14.625933426109736" fill="#ffc712" stroke="none" /><path d="M 107.06938296918513 119.77432235084164 l 3.778390915773179 10.568831857273521 a32.22392287659341,32.22392287659341 0 0,0 -0.522479035311735,0.18174533020440853 l -3.5964061084164225 -10.63213562004652" fill="#ff8e0d" stroke="none" /><path d="M 106.72888874123015 119.89276391827305 l 6.691574180550964 19.782450049987972 a41.88354603495502,41.88354603495502 0 0,0 -0.6830553420788805,0.22453385814434987 l -6.350996100824349 -19.89440482953434" fill="#f5ff19" stroke="none" /><path d="M 106.38641147887787 120.00534299687104 l 1.7379401684263767 5.444072824370908 a26.71474977108217,26.71474977108217 0 0,0 -0.4380702059125131,0.13571526959384345 l -1.6442293296422392 -5.473104681771395" fill="#ff4306" stroke="none" /><path d="M 106.0420521117495 120.11202640906438 l 8.778383493912205 29.220383636733654 a51.51050371010092,51.51050371010092 0 0,0 -0.8490402436395966,0.24714324087839024 l -8.275483237891 -29.36677057191456" fill="#87ff25" stroke="none" /><path d="M 105.69591212413111 120.21278271476187 l 6.2809466324203065 22.288863795189524 a44.156937186938656,44.156937186938656 0 0,0 -0.7313620967321747,0.1993359916871401 l -5.897403134753437 -22.393400281020806" fill="#daff1c" stroke="none" /><path d="M 105.3480935250658 120.30758222061773 l 3.9681509274506794 15.067715410237453 a36.581471992945175,36.581471992945175 0 0,0 -0.6086367943027818,0.1547130930560947 l -3.7089088399225005 -15.133613735128819" fill="#ffc712" stroke="none" /><path d="M 104.9986988182912 120.39639698878246 l 0.8547933049686376 3.4878483832026017 a24.591066406853013,24.591066406853013 0 0,0 -0.4108673574958155,0.09696357763519978 l -0.7947937937329429 -3.5020081044840268" fill="#ff2503" stroke="none" /><path d="M 104.64783097203109 120.47920084513623 l 3.5799697519414537 15.774007275803164 a37.17515035361053,37.17515035361053 0 0,0 -0.6235469105893358,0.1358991469669738 l -3.3086604247329823 -15.833137880903857" fill="#ffcf13" stroke="none" /><path d="M 104.29559338865022 120.5559693870025 l 2.296845530531294 10.991237331033934 a32.2286596465578,32.2286596465578 0 0,0 -0.5425211643659407,0.10851942706454246 l -2.1078278806343946 -11.029046154761339" fill="#ff8f0d" stroke="none" /><path d="M 103.94208987418118 120.62667999033965 l 0.7945303740515153 4.1573186536163345 a25.23256150610913,25.23256150610913 0 0,0 -0.4261482452263587,0.07765840602519118 l -0.7230473952740994 -4.170345233572889" fill="#ff2e04" stroke="none" /><path d="M 103.58742460773223 120.69131181640829 l 1.7607403267655224 10.155482306249864 a31.306989248604676,31.306989248604676 0 0,0 -0.5303143041621083,0.08726301694161179 l -1.5861485195503418 -10.184211321687146" fill="#ff820c" stroke="none" /><path d="M 103.2317021107853 120.74984581791261 l 0.3135765896407519 2.0133866501610616 a23.037659461396213,23.037659461396213 0 0,0 -0.3912835597828381,0.05750520869867791 l -0.27896792425022837 -2.018472932158622" fill="#ff0f01" stroke="none" /><path d="M 102.875027216393 120.80226474461374 l 1.807167470747394 13.075763578859503 a34.200054827066296,34.200054827066296 0 0,0 -0.582251337772745,0.07538409275256597 l -1.5824383110838736 -13.104859267812465" fill="#ffa80f" stroke="none" /><path d="M 102.15924093988457 120.88869738790638 l 1.3834432352759736 13.383558342762294 a34.45487083176026,34.45487083176026 0 0,0 -0.5888508659538886,0.05576478923177059 l -1.1534928059370697 -13.405334887499247" fill="#ffac0f" stroke="none" /><path d="M 101.80034050326958 120.92268563240118 l 0.23348954744087932 2.713502468385912 a23.723529514196713,23.723529514196713 0 0,0 -0.4060462886079565,0.03143055075446203 l -0.18687426405768703 -2.7171107861354273" fill="#ff1902" stroke="none" /><path d="M 101.44090949804482 120.95050786540614 l 0.8782662044631552 12.769797859957912 a33.79996441050083,33.79996441050083 0 0,0 -0.5791956233733522,0.03484297043253104 l -0.6589262289573379 -12.782992808215134" fill="#ffa30f" stroke="none" /><path d="M 101.08105385017728 120.97215588758144 l 1.0977006855614084 21.29510004679568 a42.323372922643344,42.323372922643344 0 0,0 -0.7258946976771672,0.03117304165090601 l -0.7319802272834116 -21.310805656872418" fill="#f0ff19" stroke="none" /><path d="M 100.72087961077811 120.9876233191556 l 0.35298594491820445 10.276800644844142 a31.282861010982245,31.282861010982245 0 0,0 -0.5368536479111158,0.013827445619199573 l -0.17651898293634483 -10.281345807813388" fill="#ff820c" stroke="none" /><line stroke="#e1ed5e" stroke-width="0.3" x1="101.45913802915013" x2="101.54496967792366" y1="184.9874750549273" y2="189.98673829345242" /><path d="M 101.47630435890484 185.9873277026323 a86.0,86.0 0 0,1 -42.54439059252881,-10.42667462771756" fill="none" id="id19" stroke="none" /><text fill="#e1ed5e" style="font-size:6.75px; font-family:Arial;" text-anchor="middle"><textPath startOffset="22.145653131862474" xlink:href="#id19">July</textPath></text><path d="M 100.36049292484886 120.99690560180557 l 0.1569478802272844 9.141427191441995 a30.14277440023229,30.14277440023229 0 0,0 -0.5174408050761355,0.004441606984730365 l -1.1196669404570836e-15 -9.142774400232291" fill="#ff730a" stroke="none" /><path d="M 100.0 121.0 l 1.685689582832302e-15 13.764700026211187 a34.76470002621119,34.76470002621119 0 0,0 -0.5967823044734208,-0.005122658332913295 l 0.23628937962456703 -13.762671766072708" fill="#ffb010" stroke="none" /><path d="M 99.63950707515114 120.99690560180557 l -0.28687644025731357 16.709114438211003 a37.71157692742388,37.71157692742388 0 0,0 -0.6471785823828804,-0.016669024581703724 l 0.5736683367109379 -16.70172769627925" fill="#ffd513" stroke="none" /><path d="M 99.27912038922189 120.98762331915562 l -0.35943489762027864 10.464554866340498 a31.470725953642273,31.470725953642273 0 0,0 -0.5397592754139309,-0.023179585727498196 l 0.5390199336350483 -10.456842712187171" fill="#ff840c" stroke="none" /><path d="M 98.91894614982273 120.97215588758144 l -0.5944944805091666 11.533034101400744 a32.54834617040156,32.54834617040156 0 0,0 -0.557747914198441,-0.03355272950792679 l 0.7923867468400541 -11.521129394068126" fill="#ff930d" stroke="none" /><path d="M 98.55909050195518 120.95050786540614 l -1.1706323766632512 17.020737838192552 a38.06094653639627,38.06094653639627 0 0,0 -0.651442108256329,-0.05042573918687728 l 1.4626434796948162 -16.998134332010622" fill="#ffda14" stroke="none" /><path d="M 98.19965949673042 120.92268563240118 l -0.9550407362545728 11.099021021024752 a32.1400345795269,32.1400345795269 0 0,0 -0.5492891639720434,-0.05201825492194336 l 1.1454294636116313 -11.080991010597627" fill="#ff8d0d" stroke="none" /><path d="M 97.84075906011543 120.88869738790638 l -1.075437019479585 10.403877605646894 a31.459313266947696,31.459313266947696 0 0,0 -0.5367020239924299,-0.06013858124164654 l 1.2538749450728144 -10.383883263898277" fill="#ff840c" stroke="none" /><path d="M 97.12497278360702 120.80226474461374 l -2.1481749720333045 15.543123985467671 a36.690868648296394,36.690868648296394 0 0,0 -0.62317674763302,-0.09158552163216105 l 2.4146768252740096 -15.503957390536629" fill="#ffc912" stroke="none" /><path d="M 96.76829788921471 120.74984581791261 l -2.5069356790488317 16.096325413807104 a37.29037809033481,37.29037809033481 0 0,0 -0.6316679241137729,-0.1039407165350835 l 2.7828811062156684 -16.050918698776353" fill="#ffd013" stroke="none" /><path d="M 96.41257539226777 120.69131181640829 l -2.934687984588812 16.926500432124584 a38.17902239493283,38.17902239493283 0 0,0 -0.6447987214504289,-0.11750380642379918 l 3.2248214395902983 -16.87362845176942" fill="#ffdb14" stroke="none" /><path d="M 96.05791012581884 120.62667999033965 l -1.9647969806346437 10.280648046857246 a31.466716363715065,31.466716363715065 0 0,0 -0.529694991589228,-0.10595383329128104 l 2.1409884577548297 -10.245404816903104" fill="#ff840c" stroke="none" /><path d="M 95.70440661134978 120.55596938700252 l -3.1836971069775823 15.235143168214035 a36.56423832460028,36.56423832460028 0 0,0 -0.6132999497913885,-0.1336658695538458 l 3.4447594733881073 -15.17824584052647" fill="#ffc712" stroke="none" /><path d="M 95.35216902796893 120.47920084513623 l -3.4284639613749164 15.106444807872602 a36.49061134583615,36.49061134583615 0 0,0 -0.6096848672203972,-0.1438839685781885 l 3.6872809823352015 -15.045364695648185" fill="#ffc612" stroke="none" /><path d="M 95.00130118170881 120.39639698878247 l -5.166774571253504 21.08220341686005 a42.706101915821215,42.706101915821215 0 0,0 -0.7105374264935927,-0.18061583527968053 l 5.527917290972476 -20.990402349745107" fill="#ebff1a" stroke="none" /><path d="M 94.6519064749342 120.30758222061772 l -4.828566350482283 18.334852917315132 a39.96000750265118,39.96000750265118 0 0,0 -0.6618492299148193,-0.1803899507260769 l 5.142596981331797 -18.24926247244491" fill="#fff116" stroke="none" /><path d="M 94.30408787586889 120.21278271476187 l -6.643904491470926 23.576873192055768 a45.495110050907414,45.495110050907414 0 0,0 -0.7498893728437395,-0.21828186742999559 l 7.047653876696272 -23.459347630323258" fill="#cbff1d" stroke="none" /><path d="M 93.95794788825049 120.11202640906438 l -3.262699132180047 10.860464275644272 a32.33996869085951,32.33996869085951 0 0,0 -0.5303129119683601,-0.16429229572223952 l 3.4486526770200405 -10.802855392115383" fill="#ff900d" stroke="none" /><path d="M 93.61358852112213 120.00534299687104 l -5.116998303300486 16.028924304438934 a37.8258754896562,37.8258754896562 0 0,0 -0.616881061132132,-0.2027810576089215 l 5.391402102080361 -15.93872232542799" fill="#ffd714" stroke="none" /><path d="M 93.27111125876986 119.89276391827306 l -12.158432534102257 35.944245375192594 a58.944910821852915,58.944910821852915 0 0,0 -0.955733423912469,-0.33245369665928165 l 12.773671730059748 -35.730233245964726" fill="#3bff2e" stroke="none" /><path d="M 92.93061703081489 119.77432235084164 l -4.97727549912887 13.922325410539433 a35.78527700894307,35.78527700894307 0 0,0 -0.5766726643280371,-0.21176219008995917 l 5.2155373151110265 -13.834832371440752" fill="#ffbd11" stroke="none" /><path d="M 92.59220618246901 119.65005319985036 l -9.968679147207757 26.44310578829794 a49.2597312030934,49.2597312030934 0 0,0 -0.7886899034568117,-0.3050821976459229 l 10.421141313158097 -26.268083702513977" fill="#a0ff22" stroke="none" /><path d="M 92.25597844496254 119.51999308798841 l -6.36165338143983 16.03552226079552 a38.251336409740944,38.251336409740944 0 0,0 -0.6082791975017451,-0.24738185415787428 l 6.635987040132016 -15.923953150058356" fill="#ffdc14" stroke="none" /><path d="M 91.92203290615298 119.3841803445677 l -8.175616841668411 19.618504191196536 a42.253856531033804,42.253856531033804 0 0,0 -0.6671379411653148,-0.2847615166093259 l 8.511189858004158 -19.475268024927807" fill="#f1ff19" stroke="none" /><path d="M 91.59046798132341 119.24265499422711 l -4.062932393326405 9.29678442700702 a31.145817873142672,31.145817873142672 0 0,0 -0.48807958186431727,-0.21831178884625718 l 4.2219253780463575 -9.225668887250908" fill="#ff800b" stroke="none" /><path d="M 91.26138138417905 119.09545874513695 l -7.965532252542086 17.406125521497614 a40.14217620168665,40.14217620168665 0 0,0 -0.6241368371242847,-0.2921275542905562 l 8.263157803537862 -17.266821735636533" fill="#fff417" stroke="none" /><path d="M 90.93487009805054 118.94263497670748 l -5.322850669486623 11.122710690105482 a33.33075149151263,33.33075149151263 0 0,0 -0.5139915359485409,-0.2514190166767604 l 5.513002454697234 -11.029697923331499" fill="#ff9d0e" stroke="none" /><path d="M 90.6110303473126 118.78422872680471 l -11.208242400644094 22.423992905218007 a46.06910759330822,46.06910759330822 0 0,0 -0.7043588746742557,-0.3596506601643544 l 11.591528497031932 -22.228284293380817" fill="#c4ff1e" stroke="none" /><path d="M 90.28995756902619 118.62028667847754 l -6.087028395423567 11.672679553003041 a34.16447350385833,34.16447350385833 0 0,0 -0.5176913129376852,-0.27564146506015524 l 6.286508524147814 -11.566467620220312" fill="#ffa80f" stroke="none" /><path d="M 89.97174638481275 118.45085714620012 l -5.318300101943226 9.785073174951181 a32.13696426381438,32.13696426381438 0 0,0 -0.4824459409136724,-0.2676046308401103 l 5.485490231013001 -9.692335628677922" fill="#ff8d0d" stroke="none" /><line stroke="#e1ed5e" stroke-width="0.3" x1="58.13341422392154" x2="55.67067388415222" y1="173.97424548756322" y2="178.32567169271397" /><path d="M 57.64086615596768 174.84453072859336 a86.0,86.0 0 0,1 -31.369924170532247,-30.572349798747897" fill="none" id="id20" stroke="none" /><text fill="#e1ed5e" style="font-size:6.75px; font-family:Arial;" text-anchor="middle"><textPath startOffset="22.145653131862474" xlink:href="#id20">August</textPath></text><path d="M 89.65649057296885 118.27599006163327 l -15.84448060988863 27.99567904886423 a53.16839460097678,53.16839460097678 0 0,0 -0.790455869818829,-0.45636990922242415 l 16.32272894756786 -27.719562242365633" fill="#76ff27" stroke="none" /><path d="M 89.34428304082925 118.09573695890944 l -5.234933918376406 8.89006225927238 a31.31686677744299,31.31686677744299 0 0,0 -0.46090560419821863,-0.2767605724273923 l 5.386772279132052 -8.798887686309069" fill="#ff820c" stroke="none" /><path d="M 89.03521579738668 117.91015095944536 l -5.276231387780936 8.618327447757519 a31.105156389397216,31.105156389397216 0 0,0 -0.4530034573087398,-0.28270766135149245 l 5.423398973879388 -8.526483989564479" fill="#ff800b" stroke="none" /><path d="M 88.72937992617639 117.7192867562869 l -2.8269931551206273 4.444502790931947 a26.26739929734786,26.26739929734786 0 0,0 -0.3783936043185646,-0.24527016269746468 l 2.9028723916962016 -4.395318786530588" fill="#ff3d05" stroke="none" /><path d="M 88.4268655584334 117.5232005979908 l -7.4905205144255715 11.34160276287923 a34.5919038698771,34.5919038698771 0 0,0 -0.49269365948913313,-0.3315062823236904 l 7.68411046201171 -11.211346806498417" fill="#ffae10" stroke="none" /><path d="M 88.1277618465304 117.32195027204791 l -7.503742817180504 10.948185022337315 a34.2728637282886,34.2728637282886 0 0,0 -0.4824393694102244,-0.33678014797793837 l 7.690577277764493 -10.817760058554247" fill="#ffa90f" stroke="none" /><path d="M 87.83215693770417 117.11559508785305 l -7.690688465620871 10.817916458198681 a34.27305562302064,34.27305562302064 0 0,0 -0.47658967021103643,-0.3450141676854565 l 7.875259146205862 -10.684301519140158" fill="#ffa90f" stroke="none" /><path d="M 87.54013794807813 116.9041958592261 l -3.600782771150012 4.885153379419486 a27.068802196930164,27.068802196930164 0 0,0 -0.3716765812976426,-0.2789130357223676 l 3.684112341358421 -4.8226213164331035" fill="#ff4806" stroke="none" /><path d="M 87.2517909369889 116.68781488649013 l -8.059752939200274 10.550475318958275 a34.27675212154295,34.27675212154295 0 0,0 -0.46451537066640297,-0.3612099618262953 l 8.239678254501905 -10.410564305511187" fill="#ffa90f" stroke="none" /><path d="M 86.96720088162412 116.46651593811092 l -13.065524261249461 16.507863087085617 a42.05273065241804,42.05273065241804 0 0,0 -0.5622034159582873,-0.4528712756043087 l 13.34697844756301 -16.281143517687898" fill="#f3ff19" stroke="none" /><path d="M 86.68645165197938 116.24036423190432 l -8.414767768170586 10.264648455067704 a34.27295462579325,34.27295462579325 0 0,0 -0.45179207069164073,-0.3769010139127742 l 8.58973417302412 -10.118685257243058" fill="#ffa90f" stroke="none" /><path d="M 86.40962598614128 116.0094264158162 l -6.542934360198976 7.707560224339963 a31.110216350489235,31.110216350489235 0 0,0 -0.40416692425858913,-0.3491097630135581 l 6.674280764220428 -7.594106328861682" fill="#ff800b" stroke="none" /><path d="M 86.13680546590413 115.77377054828092 l -15.428390047775741 17.554675723871124 a44.37096188085924,44.37096188085924 0 0,0 -0.5678109167082829,-0.5077400230164059 l 15.727465991307396 -17.287240170971337" fill="#d8ff1c" stroke="none" /><path d="M 85.86807049272751 115.53346607816431 l -8.078987574279456 8.880222574447425 a33.00534852459884,33.00534852459884 0 0,0 -0.4158206003340632,-0.3848773398281038 l 8.230237945927486 -8.740227488486944" fill="#ff990e" stroke="none" /><path d="M 85.60350026404147 115.28858382429668 l -6.989617236595686 7.422731287559546 a31.195670104580223,31.195670104580223 0 0,0 -0.3867186309567189,-0.3704677005271947 l 7.116008353417719 -7.301651456726769" fill="#ff810b" stroke="none" /><path d="M 85.34317274990678 115.03919595460226 l -8.433114886184185 8.653118790097684 a33.08279319855814,33.08279319855814 0 0,0 -0.4033077315952574,-0.39986067767930494 l 8.580414537909405 -8.50707810218972" fill="#ff9a0e" stroke="none" /><path d="M 85.08716467003676 114.78537596483092 l -11.554360659449756 11.45560603354677 a37.270653331826395,37.270653331826395 0 0,0 -0.4465613480009562,-0.4582112829565502 l 11.749308808601523 -11.255572058522482" fill="#ffd013" stroke="none" /><path d="M 84.83555147118756 114.52719865689866 l -15.704260348041142 15.044326168682394 a42.74754107821754,42.74754107821754 0 0,0 -0.5030859714095881,-0.5342598677310433 l 15.960202153186984 -14.77252484100686" fill="#ebff1a" stroke="none" /><path d="M 84.58840730492382 114.26474011684316 l -11.199353324994107 10.365954240977587 a36.26035786684237,36.26035786684237 0 0,0 -0.41889743746629465,-0.4604416638056453 l 11.375648463302282 -10.172175001614267" fill="#ffc312" stroke="none" /><path d="M 84.3458050057657 113.99807769240083 l -5.424439642539944 4.85056737711393 a28.276850233135267,28.276850233135267 0 0,0 -0.3204560715040994,-0.36462018406198593 l 5.506906778002636 -4.756734915240644" fill="#ff5908" stroke="none" /><path d="M 84.1078160697243 113.72728997021213 l -24.185409744948526 20.890780906758774 a52.95870415747873,52.95870415747873 0 0,0 -0.5883596947408708,-0.6930862409953353 l 24.540464003196508 -20.472527883313887" fill="#78ff26" stroke="none" /><path d="M 83.8745106332314 113.45245675266167 l -6.086375378849641 5.077470810477919 a28.926201806888493,28.926201806888493 0 0,0 -0.31481787763379315,-0.3840266220423513 l 6.172640075722064 -4.972241906737073" fill="#ff6209" stroke="none" /><path d="M 83.64595745247003 113.17365903436017 l -23.974220260104463 19.31193479553268 a51.78496487941653,51.78496487941653 0 0,0 -0.5517159538844396,-0.6970750845947505 l 24.302202644630466 -18.897539767023247" fill="#84ff25" stroke="none" /><path d="M 83.4222238831116 112.89097897827486 l -9.966924814163754 7.75034101989953 a33.62566339547869,33.62566339547869 0 0,0 -0.350424283059551,-0.45871663529555384 l 10.0985010745776 -7.5781034713631055" fill="#ffa10e" stroke="none" /><path d="M 83.20337586046588 112.60449989151573 l -8.165398677052266 6.127467393691567 a31.208799744140357,31.208799744140357 0 0,0 -0.31788091602306157,-0.4312665133828826 l 8.269381612659158 -5.9863945710398045" fill="#ff810b" stroke="none" /><path d="M 82.98947788004972 112.3143062007846 l -19.56092441537969 14.16060078125886 a45.14854816485634,45.14854816485634 0 0,0 -0.4490880969014925,-0.6316986491351249 l 19.801127610811143 -13.822724905414233" fill="#cfff1d" stroke="none" /><path d="M 82.78059297857968 112.02048342749411 l -6.649206280824415 4.641662387398923 a29.10906738679293,29.10906738679293 0 0,0 -0.2825107945315575,-0.4121916921589246 l 6.727906812171297 -4.526835960169947" fill="#ff6409" stroke="none" /><path d="M 82.576782715395 111.72311816256416 l -20.214188326872662 13.601008036881966 a45.36392475225621,45.36392475225621 0 0,0 -0.42917634299583035,-0.6498276839519711 l 20.44468910878922 -13.252000474590934" fill="#ccff1d" stroke="none" /><path d="M 82.37810715431573 111.42229804090323 l -9.334429608653373 6.050464496950032 a32.12383462425424,32.12383462425424 0 0,0 -0.2959711274728035,-0.46531577188485446 l 9.436918427752067 -5.889335050386506" fill="#ff8d0d" stroke="none" /><path d="M 82.18462484594161 111.11811171558189 l -17.4829152767807 10.91063216353441 a41.60811055829824,41.60811055829824 0 0,0 -0.37295139740728794,-0.6091880792791735 l 17.667634638643392 -10.608906968130679" fill="#f9ff18" stroke="none" /><path d="M 81.99639281039703 110.81064883170644 l -19.119177714139894 11.48051687874626 a43.30123817791383,43.30123817791383 0 0,0 -0.37718737365109206,-0.6405466214957752 l 19.313438797920757 -11.150619088956926" fill="#e4ff1a" stroke="none" /><line stroke="#e1ed5e" stroke-width="0.3" x1="26.387840678322732" x2="22.057713659400548" y1="142.50000000000003" y2="145.00000000000006" /><path d="M 25.521815274538298 143.00000000000003 a86.0,86.0 0 0,1 -11.493303480769221,-40.785679425670985" fill="none" id="id21" stroke="none" /><text fill="#e1ed5e" style="font-size:6.75px; font-family:Arial;" text-anchor="middle"><textPath startOffset="21.40746469413373" xlink:href="#id21">September</textPath></text><path d="M 81.81346652052679 110.50000000000001 l -8.753386343917834 5.053769961981762 a31.107539923963515,31.107539923963515 0 0,0 -0.26303148508387286,-0.4647514309530876 l 8.838851194023086 -4.902761760929553" fill="#ff800b" stroke="none" /><path d="M 81.63589988554817 110.18625677009913 l -22.12531813592734 12.272541003810272 a46.301086247554665,46.301086247554665 0 0,0 -0.3795689197799163,-0.6983640606566291 l 22.332732405322588 -11.890922109679057" fill="#c1ff1e" stroke="none" /><path d="M 81.4637452351635 109.86951160357371 l -15.262272547612755 8.126300480683826 a38.290856624816946,38.290856624816946 0 0,0 -0.30394175387590927,-0.5828483892795034 l 15.399522370463613 -7.86310584829982" fill="#ffdd14" stroke="none" /><path d="M 81.29705330413844 109.54985784667822 l -12.292233579835534 6.276502051495922 a34.80193770394827,34.80193770394827 0 0,0 -0.267113301882005,-0.5344055358712813 l 12.398166794929276 -6.064564659460888" fill="#ffb010" stroke="none" /><path d="M 81.1358732173502 109.22738970284198 l -12.823539918764533 6.2726359700477765 a35.27547330426857,35.27547330426857 0 0,0 -0.2614093014964567,-0.5462449001087758 l 12.929328478220901 -6.0515785678738965" fill="#ffb610" stroke="none" /><path d="M 80.9802524753101 108.90220220490708 l -10.068726032328414 4.712672182911151 a32.11703751085119,32.11703751085119 0 0,0 -0.2294311699743133,-0.5013485121276735 l 10.148141667157784 -4.539134688568788" fill="#ff8d0d" stroke="none" /><path d="M 80.83023694016515 108.57439118712176 l -10.243729340400186 4.581889838983996 a32.22175143620462,32.22175143620462 0 0,0 -0.2215109128313832,-0.5068603179825184 l 10.320874135248538 -4.4053674512256285" fill="#ff8e0d" stroke="none" /><path d="M 80.68587082218212 108.24405325689762 l -35.06796340150978 14.968428306103215 a59.12893786987229,59.12893786987229 0 0,0 -0.3904597867885313,-0.9369613463980853 l 35.31974903283479 -14.364234450263847" fill="#39ff2e" stroke="none" /><path d="M 80.5471966667186 107.91128576633889 l -58.35840999984417 23.733857299016694 a84.0,84.0 0 0,0 -0.5317653001355023,-1.3403959311457387 l 58.7572339749458 -22.72856035065739" fill="#4dd2ff" stroke="none" /><path d="M 80.41425534168474 107.57618678355246 l -9.985167772175805 3.86247740011227 a31.706180789846414,31.706180789846414 0 0,0 -0.19200253951907786,-0.5093095473482979 l 10.050000995509318 -3.690499572569827" fill="#ff880c" stroke="none" /><path d="M 80.28708602549918 107.23885506374661 l -16.523687567671345 6.067726951770123 a38.60254416825176,38.60254416825176 0 0,0 -0.2230856283871526,-0.6240102066610947 l 16.62541336610244 -5.783181788728107" fill="#ffe115" stroke="none" /><path d="M 80.16572619554312 106.89939002012753 l -20.682975232440494 7.194612432605385 a42.898582431772766,42.898582431772766 0 0,0 -0.23597198403568004,-0.6976092413277404 l 20.80343263804854 -6.838501516803483" fill="#e9ff1a" stroke="none" /><path d="M 80.05021161711548 106.5578916946017 l -9.853114288904697 3.23891437448053 a31.371809269140776,31.371809269140776 0 0,0 -0.1637836774192381,-0.5130500367690654 l 9.907262682101189 -3.069295304020073" fill="#ff830c" stroke="none" /><path d="M 79.94057633289273 106.21446072829308 l -20.59029874342201 6.378927183966849 a42.555767542857694,42.555767542857694 0 0,0 -0.21019241974358546,-0.699662203946817 l 20.696767483169225 -6.024527376429308" fill="#edff1a" stroke="none" /><path d="M 79.83685265289637 105.86919833188381 l -15.677055189547795 4.563362285826942 a37.32771676529928,37.32771676529928 0 0,0 -0.17380763965352997,-0.61678199696915 l 15.7530813212759 -4.293572364954796" fill="#ffd113" stroke="none" /><path d="M 79.73907114497094 105.5222062557868 l -10.271498184050259 2.799542505386472 a31.646178337056604,31.646178337056604 0 0,0 -0.1383548601748186,-0.5253559395425244 l 10.31804252502981 -2.622806061471145" fill="#ff870c" stroke="none" /><path d="M 79.64726062577567 105.17358676015961 l -25.728593932455663 6.5401079667462865 a47.54681822663297,47.54681822663297 0 0,0 -0.19429095610988348,-0.7927734028796658 l 25.83707241508184 -6.097478739258521" fill="#b3ff20" stroke="none" /><path d="M 79.56144815229197 104.8234425847677 l -13.895844332722907 3.27938142610015 a35.27756394687546,35.27756394687546 0 0,0 -0.13403649684121535,-0.590589536475803 l 13.950091691121788 -3.040357555685321" fill="#ffb610" stroke="none" /><path d="M 79.48165901384964 104.47187691870673 l -12.968267663680823 2.8263735786421216 a34.272692033002045,34.272692033002045 0 0,0 -0.1203498460345265,-0.575917580409907 l 13.014875220539716 -2.6033395469468052" fill="#ffa90f" stroke="none" /><path d="M 79.407916724674 104.11899336999214 l -4.994770971109728 0.9990940809413789 a26.09371436541278,26.09371436541278 0 0,0 -0.08408849520180132,-0.43998653931171516 l 5.011185758593686 -0.9132049765963492" fill="#ff3b05" stroke="none" /><path d="M 79.34024301695615 103.76489593502545 l -10.003651930142881 1.8229986208509383 a31.1684008531861,31.1684008531861 0 0,0 -0.09140531690565074,-0.5272015778940689 l 10.033472064540765 -1.6510040100362768" fill="#ff800b" stroke="none" /><path d="M 79.2786578344484 103.40968896794605 l -18.301021155465506 3.01142606677654 a39.54713083709869,39.54713083709869 0 0,0 -0.1044769432883306,-0.6708169226132259 l 18.350019590892103 -2.696820962231864" fill="#ffec16" stroke="none" /><path d="M 79.22317932658666 103.0534771498775 l -14.027602729395811 2.0615745341913496 a35.17828367235538,35.17828367235538 0 0,0 -0.08267815225747491,-0.5982179236596253 l 14.060925398208498 -1.8204683023316388" fill="#ffb510" stroke="none" /><path d="M 79.17382384314188 102.69636545807758 l -12.48639069875552 1.6166132622045764 a33.59060725785314,33.59060725785314 0 0,0 -0.06912933175978529,-0.5724900349318283 l 12.512302116774965 -1.402029550349349" fill="#ffa10e" stroke="none" /><path d="M 79.13060592940153 102.33845913500099 l -10.04028163173342 1.125034498859136 a31.103116245404024,31.103116245404024 0 0,0 -0.054900862170559644,-0.5311160394528653 l 10.058114886385644 -0.9525139371233394" fill="#ff7f0b" stroke="none" /><path d="M 79.0935383218832 101.97986365728391 l -9.33103678096475 0.8836588845997246 a30.372785094732997,30.372785094732997 0 0,0 -0.044700607421821546,-0.5194888161243001 l 9.344831011084313 -0.7233490210997626" fill="#ff760a" stroke="none" /><path d="M 79.06263194458094 101.62068470465958 l -7.108785575308544 0.5502649626310245 a28.130050763130242,28.130050763130242 0 0,0 -0.03313457276692629,-0.4817694159919964 l 7.117184109240537 -0.42815212248468476" fill="#ff5708" stroke="none" /><path d="M 79.03789590574601 101.26102812881392 l -10.4862893848771 0.6308291296405484 a31.505246805962685,31.505246805962685 0 0,0 -0.027842252595098003,-0.5401322622273441 l 10.495573226928771 -0.45072507403647355" fill="#ff850c" stroke="none" /><path d="M 79.01933749520258 100.90099992219065 l -15.439047338332406 0.6630191228401136 a36.453277227582525,36.453277227582525 0 0,0 -0.021481938842000087,-0.6254232105335911 l 15.448153964171254 -0.39788964774240265" fill="#ffc612" stroke="none" /><path d="M 79.00696218219943 100.54070618675478 l -5.082100527185038 0.13089688212863523 a26.083785967383506,26.083785967383506 0 0,0 -0.007686728267852763,-0.4477133854831685 l 5.083598687051557 -0.04363658067641432" fill="#ff3a05" stroke="none" /><line stroke="#e1ed5e" stroke-width="0.3" x1="15.003131293944662" x2="10.003315487706104" y1="100.72959589197737" y2="100.7725132973878" /><path d="M 14.003168132696942 100.73817937305945 a86.0,86.0 0 0,1 10.791469493833604,-42.45332614584628" fill="none" id="id22" stroke="none" /><text fill="#e1ed5e" style="font-size:6.75px; font-family:Arial;" text-anchor="middle"><textPath startOffset="22.145653131862435" xlink:href="#id22">October</textPath></text><path d="M 79.00077361379809 100.18025310272382 l -18.334361219715113 0.1573784403069476 a39.335036659588845,39.335036659588845 0 0,0 0.0,-0.6752630860615235 l 18.334361219715113 0.15737844030694084" fill="#ffea16" stroke="none" /><path d="M 79.00077361379809 99.81974689727619 l -25.379718749008582 -0.21785436123363663 a46.380653740624695,46.380653740624695 0 0,0 0.013668088008211536,-0.7960976038180799 l 25.372239229401707 0.6534988810207689" fill="#c0ff1e" stroke="none" /><path d="M 79.00696218219943 99.45929381324524 l -23.22523512699383 -0.5981996712906062 a44.23293760054635,44.23293760054635 0 0,0 0.02606649751693063,-0.7588976341620103 l 23.21154394248005 0.996803570016755" fill="#d9ff1c" stroke="none" /><path d="M 79.01933749520258 99.09900007780938 l -13.263919913336684 -0.5696097922134892 a34.27614502718296,34.27614502718296 0 0,0 0.030290989107647447,-0.5876370963855435 l 13.252187334772467 0.7972186819757447" fill="#ffa90f" stroke="none" /><path d="M 79.03789590574601 98.7389718711861 l -24.314645470134217 -1.4627086928922233 a45.35860219837298,45.35860219837298 0 0,0 0.053428197403684694,-0.7768342643720444 l 24.285953311565468 1.8798863814185927" fill="#ccff1d" stroke="none" /><path d="M 79.06263194458094 98.37931529534042 l -22.23058493834552 -1.7207878702732788 a43.29708540584339,43.29708540584339 0 0,0 0.0637217170305255,-0.7405429422741205 l 22.19776959861725 2.10215185992308" fill="#e4ff1a" stroke="none" /><path d="M 79.0935383218832 98.0201363427161 l -24.599988691634938 -2.3296445056096284 a45.71005235022953,45.71005235022953 0 0,0 0.0806839181029006,-0.7805437170954107 l 24.556372381050373 2.751592744987952" fill="#c8ff1d" stroke="none" /><path d="M 79.13060592940154 97.66154086499901 l -11.153716120279986 -1.2497971557028824 a32.22351888768387,32.22351888768387 0 0,0 0.06631586950942239,-0.5491905315085304 l 11.130618164510896 1.441081364134849" fill="#ff8e0d" stroke="none" /><path d="M 79.17382384314186 97.30363454192245 l -13.16384126448199 -1.7043228009706786 a34.27371210499864,34.27371210499864 0 0,0 0.08055217287570628,-0.582835395908567 l 13.132644575051076 1.9300465050793125" fill="#ffa90f" stroke="none" /><path d="M 79.22317932658666 96.9465228501225 l -21.696619901980988 -3.1886559614509173 a42.92967947808481,42.92967947808481 0 0,0 0.11341307430602778,-0.7281932940947005 l 21.638685335536692 3.5606374374770677" fill="#e9ff1a" stroke="none" /><path d="M 79.2786578344484 96.59031103205396 l -12.23496611833647 -2.013259018821617 a33.399500304194035,33.399500304194035 0 0,0 0.09794830104295071,-0.5649397716676431 l 12.198602999801285 2.2229918234098527" fill="#ff9e0e" stroke="none" /><path d="M 79.407916724674 95.88100663000787 l -10.035890507567558 -2.007459173019652 a31.234695433242035,31.234695433242035 0 0,0 0.10968180680718874,-0.5248671508334226 l 9.999950989936002 2.1794427751384835" fill="#ff810b" stroke="none" /><path d="M 79.48165901384962 95.52812308129327 l -20.744339618005768 -4.521132268646351 a42.23130385015859,42.23130385015859 0 0,0 0.1604571118809884,-0.7070036412716729 l 20.663671644567117 4.876570243857032" fill="#f1ff19" stroke="none" /><path d="M 79.56144815229197 95.17655741523228 l -13.373071380301418 -3.156008432765636 a34.740430392470415,34.740430392470415 0 0,0 0.14196010770791695,-0.5792456834538401 l 13.316923746077203 3.385109940827594" fill="#ffb010" stroke="none" /><path d="M 79.64726062577567 94.8264132398404 l -3.8145314948582665 -0.9696389893835923 a24.935841751772863,24.935841751772863 0 0,0 0.10901774180006986,-0.4139581225972912 l 3.797324272253471 1.034977616353668" fill="#ff2a04" stroke="none" /><path d="M 79.73907114497095 94.47779374421319 l -15.432309550011187 -4.206144592287901 a36.99524399246849,36.99524399246849 0 0,0 0.17225955922153946,-0.6112884056505343 l 15.357831498715067 4.4704409218414485" fill="#ffcc13" stroke="none" /><path d="M 79.83685265289637 94.1308016681162 l -3.3573713362014326 -0.9772818651141035 a24.496715906822843,24.496715906822843 0 0,0 0.12099473912768036,-0.4027521351498523 l 3.340100277070123 1.0347716038546793" fill="#ff2403" stroke="none" /><path d="M 79.94057633289273 93.78553927170692 l -45.713516986595465 -14.162164416078825 a68.85700091137974,68.85700091137974 0 0,0 0.359483660268799,-1.1260774457194223 l 45.46366861054941 14.94481089548964" fill="#3aff94" stroke="none" /><path d="M 80.05021161711548 93.44210830539832 l -12.615985333593775 -4.1471249644618435 a34.28012542893763,34.28012542893763 0 0,0 0.18856448749381816,-0.5574574015618053 l 12.542935424527592 4.36308404049781" fill="#ffaa0f" stroke="none" /><path d="M 80.16572619554312 93.10060997987247 l -1.735120375678662 -0.6035649362159786 a22.837099167253815,22.837099167253815 0 0,0 0.13197649864892994,-0.36916175547357327 l 1.7245037069857887 0.6332616480704734" fill="#ff0c01" stroke="none" /><path d="M 80.28708602549916 92.7611449362534 l -15.059287212057525 -5.52997885713025 a37.04253089433045,37.04253089433045 0 0,0 0.2243177773149825,-0.5950295548831432 l 14.962138750928105 5.787676692207538" fill="#ffcd13" stroke="none" /><path d="M 80.41425534168474 92.42381321644754 l -8.516697303403081 -3.29444147645237 a30.13167441379526,30.13167441379526 0 0,0 0.1907497486694789,-0.4808139736054431 l 8.458888879767471 3.440156467271396" fill="#ff720a" stroke="none" /><path d="M 80.5471966667186 92.08871423366112 l -19.17474509257209 -7.798201900520253 a41.69982614048715,41.69982614048715 0 0,0 0.2753661034765586,-0.6607784048335951 l 19.03805314455905 8.126212814795112" fill="#f7ff18" stroke="none" /><path d="M 80.68587082218212 91.75594674310238 l -4.652718556676526 -1.9859688840980763 a26.058840022796517,26.058840022796517 0 0,0 0.17914350348722644,-0.40991539415106687 l 4.617941171172323 2.06554634802501" fill="#ff3a05" stroke="none" /><path d="M 80.83023694016515 91.42560881287825 l -9.892964620475375 -4.424997241308731 a31.83749738489322,31.83749738489322 0 0,0 0.2274342479938479,-0.4969848772133135 l 9.81554590762648 4.594171100736715" fill="#ff890c" stroke="none" /><path d="M 80.9802524753101 91.09779779509293 l -9.39872898652333 -4.39907973534029 a31.377283318865082,31.377283318865082 0 0,0 0.23252171968019425,-0.48588096449793394 l 9.321828008883232 4.559773201903312" fill="#ff830c" stroke="none" /><path d="M 81.1358732173502 90.77261029715801 l -15.585244487035398 -7.623524065169815 a38.349869304778366,38.349869304778366 0 0,0 0.2943445363267834,-0.5888862462416135 l 15.45208003749687 7.889942167575199" fill="#ffdd14" stroke="none" /><path d="M 81.29705330413844 90.45014215332179 l -9.729842676173242 -4.968126998327912 a31.92483978713632,31.92483978713632 0 0,0 0.25341015198968675,-0.4859473798212138 l 9.643124455208614 5.134420621253612" fill="#ff8a0c" stroke="none" /><path d="M 81.46374523516351 90.13048839642627 l -17.259163496365826 -9.18953243556486 a40.55316421908703,40.55316421908703 0 0,0 0.3324483718156286,-0.6116675597002771 l 17.098869774934847 9.484454828739757" fill="#fff917" stroke="none" /><path d="M 81.63589988554816 89.8137432299009 l -13.190252609854511 -7.316410774776398 a36.08352182141286,36.08352182141286 0 0,0 0.30510616895268017,-0.5390933658309279 l 13.062713075880461 7.541760910706431" fill="#ffc111" stroke="none" /><line stroke="#e1ed5e" stroke-width="0.3" x1="26.387840678322718" x2="22.05771365940052" y1="57.49999999999999" y2="54.99999999999999" /><path d="M 25.521815274538284 56.99999999999999 a86.0,86.0 0 0,1 29.574782752854787,-30.34633250058573" fill="none" id="id23" stroke="none" /><text fill="#e1ed5e" style="font-size:6.75px; font-family:Arial;" text-anchor="middle"><textPath startOffset="21.40746469413373" xlink:href="#id23">November</textPath></text><path d="M 81.99639281039701 89.18935116829357 l -5.388704630939021 -3.2357623008190384 a27.285562446345224,27.285562446345224 0 0,0 0.24457223620262133,-0.3994903675198653 l 5.3323644302810065 3.3277897844634468" fill="#ff4b07" stroke="none" /><path d="M 82.18462484594161 88.88188828441811 l -36.453374729987544 -22.749601911450327 a63.96967438012952,63.96967438012952 0 0,0 0.5893809650003632,-0.9266047705568334 l 36.05747607336129 23.37202035668583" fill="#34ff5d" stroke="none" /><path d="M 82.37810715431573 88.57770195909679 l -3.168824433153711 -2.0539937129195716 a24.77628633194903,24.77628633194903 0 0,0 0.23440202802193555,-0.35491454612776985 l 3.1330979662110465 2.108088137386402" fill="#ff2803" stroke="none" /><path d="M 82.576782715395 88.27688183743585 l -13.193535030220092 -8.877199177092512 a36.90201345186881,36.90201345186881 0 0,0 0.35814328922239186,-0.5225417622173386 l 13.039202004182386 9.102375674379886" fill="#ffcb12" stroke="none" /><path d="M 82.78059297857968 87.97951657250589 l -4.500160285216073 -3.1414613791413326 a26.488189336135605,26.488189336135605 0 0,0 0.26347537236181545,-0.37061110715174633 l 4.445569814324285 3.2182497130025993" fill="#ff4006" stroke="none" /><path d="M 82.98947788004972 87.6856937992154 l -11.350503460894684 -8.216889179820832 a35.0125371224928,35.0125371224928 0 0,0 0.3566243323689421,-0.48382939854462464 l 11.207777108941922 8.41052488763432" fill="#ffb310" stroke="none" /><path d="M 83.2033758604659 87.39550010848427 l -8.246002503723838 -6.187954007912243 a31.30957477762575,31.30957477762575 0 0,0 0.3262875490457555,-0.427120875671927 l 8.138562977323776 6.328595796825054" fill="#ff820c" stroke="none" /><path d="M 83.42222388311158 87.10902102172516 l -4.2240355168539665 -3.2846355667560587 a26.350823007168398,26.350823007168398 0 0,0 0.28074112794886874,-0.3547072440743156 l 4.167027958263536 3.356662754745057" fill="#ff3e05" stroke="none" /><path d="M 83.64595745247003 86.82634096563983 l -37.605154448324434 -30.292050494359312 a69.28825907231642,69.28825907231642 0 0,0 0.7540977143045609,-0.9198765968783581 l 37.079609914781244 30.933129372936165" fill="#3bff99" stroke="none" /><path d="M 83.8745106332314 86.54754324733833 l -3.8947516357901444 -3.24914033621818 a26.072080759306775,26.072080759306775 0 0,0 0.2896551515156109,-0.3412130401578708 l 3.8384019207674194 3.3155201588256076" fill="#ff3a05" stroke="none" /><path d="M 84.10781606972428 86.27271002978789 l -4.854944046339037 -4.193585035615344 a27.41534388353577,27.41534388353577 0 0,0 0.3106927867643803,-0.35351135824964547 l 4.782240195616064 4.27630867167629" fill="#ff4d07" stroke="none" /><path d="M 84.34580500576568 86.00192230759919 l -5.788076609555462 -5.175733795316013 a28.7646668414079,28.7646668414079 0 0,0 0.3323035385830143,-0.3652597999145753 l 5.698375370130583 5.274331170788246" fill="#ff6008" stroke="none" /><path d="M 84.58840730492382 85.73525988315684 l -11.959280007093488 -11.069331032882166 a37.29584204033637,37.29584204033637 0 0,0 0.43892618029345914,-0.4661243929546099 l 11.767497993063756 11.272996885781287" fill="#ffd013" stroke="none" /><line stroke="#e1ed5e" stroke-width="0.3" x1="56.869717070023135" x2="54.33264160355391" y1="26.7553504044142" y2="22.446841604673864" /><path d="M 56.362301976729285 25.89364864446614 a86.0,86.0 0 0,1 42.16139366436587,-11.88097634709845" fill="none" id="id24" stroke="none" /><text fill="#e1ed5e" style="font-size:6.75px; font-family:Arial;" text-anchor="middle"><textPath startOffset="22.145653131862474" xlink:href="#id24">December</textPath></text></svg>