<?xml version="1.0" encoding="utf-8" ?>
<svg baseProfile="full" height="200mm" version="1.1" viewBox="0,0,200,200" width="200mm" xmlns="http://www.w3.org/2000/svg" xmlns:ev="http://www.w3.org/2001/xml-events" xmlns:xlink="http://www.w3.org/1999/xlink"><defs /><rect fill="#1a1a1a" height="200" width="200" x="0" y="0" /><text alignment-baseline="middle" fill="#e1ed5e" style="dominant-baseline: central; font-size:9.0px; font-family:Arial;" text-anchor="middle" x="100.0" y="100.0">2025</text><line stroke="#e1ed5e" stroke-width="0.3" x1="100.0" x2="100.0" y1="15.0" y2="10.0" /><path d="M 100.0 14.0 a86.0,86.0 0 0,1 42.46469731375804,11.215312516191453" fill="none" id="id25" stroke="none" /><text fill="#e1ed5e" style="font-size:6.75px; font-family:Arial;" text-anchor="middle"><textPath startOffset="22.20632615414155" xlink:href="#id25">January</textPath></text><path d="M 100.0 79.0 l 0.0 -41.264062463619496 a62.264062463619496,62.264062463619496 0 0,0 1.07177348289542,0.009225092738245429 l -0.7102930036228916 41.257948747489806" fill="#37ff2e" stroke="none" /><path d="M 100.36148047927253 79.00311137660856 l 0.22983934154354096 -13.350405713125634 a34.35238401290117,34.35238401290117 0 0,0 0.5911445999914345,0.015267520971328009 l -0.4596105767298433 13.344471400011946" fill="#ff5107" stroke="none" /><path d="M 100.72285384407766 79.0124445844662 l 0.5978920433132975 -17.359376994883114 a38.36967024862402,38.36967024862402 0 0,0 0.6598837223089943,0.028415981184908026 l -0.8966165980116233 17.34651328717401" fill="#ff8f0d" stroke="none" /><path d="M 101.08401301168833 79.027996857942 l 3.2188795973402393 -62.27448591616631 a83.35762007954577,83.35762007954577 0 0,0 1.4323139449099678,0.08640108863668705 l -4.290355591089819 62.209851558149325" fill="#4cd9ff" stroke="none" /><path d="M 101.44485096284872 79.0497635885617 l 1.1947517827119438 -17.323816050516335 a38.36496571762872,38.36496571762872 0 0,0 0.6584338109243257,0.051107136052343356 l -1.4927757829986108 17.300683652275527" fill="#ff8f0d" stroke="none" /><path d="M 101.80526077348638 79.07773832637324 l 2.3178803873208027 -26.863321191008627 a47.96313399627758,47.96313399627758 0 0,0 0.8219393691078086,0.07805304703182527 l -2.7799448835188554 26.819442599461624" fill="#e6ff1a" stroke="none" /><path d="M 102.16513564639614 79.11191278185805 l 1.404018994515717 -13.545235035129322 a34.617806779869355,34.617806779869355 0 0,0 0.5921842307998024,0.06653879826706652 l -1.6369699288252448 13.519060283391655" fill="#ff5507" stroke="none" /><path d="M 102.52436894288641 79.15227682838746 l 3.5810709825783174 -29.574590003204126 a50.79060998435389,50.79060998435389 0 0,0 0.8670326480711051,0.11256572172324622 l -4.089618359157268 29.50856595831674" fill="#c1ff1e" stroke="none" /><path d="M 102.88285421437855 79.19881850522331 l 2.552893202313779 -18.420353888605394 a39.59641635057356,39.59641635057356 0 0,0 0.6743288928965271,0.099378549958763 l -2.869591075638962 18.373680854485663" fill="#ffa10e" stroke="none" /><path d="M 103.2404852339499 79.25152402106235 l 3.283925358332451 -21.02661839039826 a42.28151420116842,42.28151420116842 0 0,0 0.7181229159895792,0.11849643425286151 l -3.645377480460905 20.96697569320577" fill="#ffc812" stroke="none" /><path d="M 103.59715602781102 79.31037775812273 l 7.273564920015046 -41.83508009755622 a63.46267388442016,63.46267388442016 0 0,0 1.074649355293111,0.1963853006940048 l -7.992609396411058 41.70367931551148" fill="#30ff36" stroke="none" /><path d="M 103.95276090670814 79.375362276772 l 6.24509606301668 -32.58553878831593 a54.17858590960664,54.17858590960664 0 0,0 0.9144147968540806,0.18342300588114932 l -6.805077269337886 32.47321182635757" fill="#96ff23" stroke="none" /><path d="M 104.307194497241 79.44645832069477 l 1.7120399711128809 -8.16969954002432 a29.347159483139265,29.347159483139265 0 0,0 0.4935315665189248,0.10786688482505331 l -1.8524142617853336 8.139019157103395" fill="#ff0000" stroke="none" /><path d="M 104.66035177308747 79.52364482259891 l 6.517190482266615 -28.63481418812723 a50.367096474978915,50.367096474978915 0 0,0 0.8437119760176648,0.1996793654827257 l -7.009126145246804 28.518388910503635" fill="#c6ff1e" stroke="none" /><path d="M 105.01212808612495 79.60689891045804 l 8.270035155218142 -33.648713687367035 a55.65009977305903,55.65009977305903 0 0,0 0.9282731092520993,0.2366374844113209 l -8.848017153155267 33.501373206786845" fill="#84ff25" stroke="none" /><path d="M 105.36241919743992 79.69619591428918 l 7.207523632693158 -27.28994925484322 a49.22569267968013,49.22569267968013 0 0,0 0.817385854372828,0.22342243092962422 l -7.676207376289698 27.1618402830873" fill="#d5ff1c" stroke="none" /><path d="M 105.71112130821622 79.79150937346287 l 9.64623628257428 -34.13267990251287 a56.46956035457246,56.46956035457246 0 0,0 0.9331185639949514,0.27240289662592004 l -10.232345064292659 33.961578676968244" fill="#7aff26" stroke="none" /><path d="M 106.0581310904928 79.89281104454417 l 18.174393271478365 -60.321566866367476 a84.0,84.0 0 0,0 1.380858509157127,0.4290394604699177 l -19.21003715334621 59.99978727101504" fill="#4dd2ff" stroke="none" /><path d="M 106.40334571778207 80.00007090966166 l 3.078779695086472 -9.616125428853282 a31.0969674989234,31.0969674989234 0 0,0 0.5083868151690311,0.16760713990641493 l -3.2438493324979203 9.561704564687632" fill="#ff1d02" stroke="none" /><path d="M 106.74666289553966 80.11325718540242 l 7.093605252201526 -20.90940446603217 a43.07991011300062,43.07991011300062 0 0,0 0.7001880278525563,0.2442818543654336 l -7.452475284117356 20.78420175849453" fill="#ffd413" stroke="none" /><path d="M 107.08798089147638 80.2323363322302 l 8.261320806836446 -23.039990324674203 a45.47632684114489,45.47632684114489 0 0,0 0.7345892296885392,0.27055541274781747 l -8.656692362297562 22.894371644120064" fill="#fff617" stroke="none" /><path d="M 107.4271985657038 80.35727306442388 l 10.007889342075758 -26.467885005202962 a49.29676281364851,49.29676281364851 0 0,0 0.7911351894865681,0.30694816249817714 l -10.462007696561994 26.291694138814236" fill="#d4ff1c" stroke="none" /><path d="M 107.76421540070413 80.48803036053334 l 10.837518464041484 -27.235376702500986 a50.312412909645865,50.312412909645865 0 0,0 0.8019226743232344,0.32712439393566145 l -11.304725007953106 27.044791422381746" fill="#c7ff1e" stroke="none" /><path d="M 108.09893153111575 80.62456947434976 l 7.818019172759273 -18.703391521218425 a41.27161261916814,41.27161261916814 0 0,0 0.6531060578826553,0.2796259297710515 l -8.138808988432244 18.566046063484585" fill="#ffba11" stroke="none" /><line stroke="#e1ed5e" stroke-width="0.3" x1="143.23703022742887" x2="145.7803849466894" y1="26.81831364943548" y2="22.513508569990506" /><path d="M 143.74570117128098 25.957352633546492 a86.0,86.0 0 0,1 28.547481713284135,27.462654790039103" fill="none" id="id26" stroke="none" /><text fill="#e1ed5e" style="font-size:6.75px; font-family:Arial;" text-anchor="middle"><textPath startOffset="19.985693538727396" xlink:href="#id26">February</textPath></text><line stroke="#e1ed5e" stroke-width="0.3" x1="172.23445277983987" x2="176.4835382374775" y1="55.19839476539836" y2="52.563006222186495" /><path d="M 173.08426987136738 54.67131705675599 a86.0,86.0 0 0,1 12.851231095245387,41.99856678651699" fill="none" id="id27" stroke="none" /><text fill="#e1ed5e" style="font-size:6.75px; font-family:Arial;" text-anchor="middle"><textPath startOffset="22.20632615414155" xlink:href="#id27">March</textPath></text><line stroke="#e1ed5e" stroke-width="0.3" x1="184.98032266829074" x2="189.97916517819016" y1="98.17113171792111" y2="98.06355123074" /><path d="M 185.9800911702706 98.14961562048488 a86.0,86.0 0 0,1 -9.607161424134198,41.387399972396054" fill="none" id="id28" stroke="none" /><text fill="#e1ed5e" style="font-size:6.75px; font-family:Arial;" text-anchor="middle"><textPath startOffset="21.466115282336823" xlink:href="#id28">April</textPath></text><line stroke="#e1ed5e" stroke-width="0.3" x1="174.80103733775053" x2="179.2010983576182" y1="140.37084112569926" y2="142.7455964860345" /><path d="M 175.68104954172406 140.8457921977663 a86.0,86.0 0 0,1 -30.038265399797805,32.042727171017184" fill="none" id="id29" stroke="none" /><text fill="#e1ed5e" style="font-size:6.75px; font-family:Arial;" text-anchor="middle"><textPath startOffset="22.206326154141568" xlink:href="#id29">May</textPath></text><line stroke="#e1ed5e" stroke-width="0.3" x1="143.8653032363475" x2="146.44561519142675" y1="172.8068346515853" y2="177.08958963109032" /><path d="M 144.38136562736335 173.6633856474863 a86.0,86.0 0 0,1 -40.68145358897372,12.25698825130547" fill="none" id="id30" stroke="none" /><text fill="#e1ed5e" style="font-size:6.75px; font-family:Arial;" text-anchor="middle"><textPath startOffset="21.466115282336833" xlink:href="#id30">June</textPath></text><line stroke="#e1ed5e" stroke-width="0.3" x1="102.19456741930631" x2="102.32365962044197" y1="184.97166512339345" y2="189.96999836594603" /><path d="M 102.22038585953345 185.97133177190398 a86.0,86.0 0 0,1 -42.740103519485714,-10.115201625700543" fill="none" id="id31" stroke="none" /><text fill="#e1ed5e" style="font-size:6.75px; font-family:Arial;" text-anchor="middle"><textPath startOffset="22.20632615414155" xlink:href="#id31">July</textPath></text><line stroke="#e1ed5e" stroke-width="0.3" x1="58.666819895761336" x2="56.23545636021788" y1="174.27360380694188" y2="178.64263932499728" /><path d="M 58.180547188652646 175.14741091055294 a86.0,86.0 0 0,1 -31.652253787137756,-30.449443065178592" fill="none" id="id32" stroke="none" /><text fill="#e1ed5e" style="font-size:6.75px; font-family:Arial;" text-anchor="middle"><textPath startOffset="22.20632615414155" xlink:href="#id32">August</textPath></text><line stroke="#e1ed5e" stroke-width="0.3" x1="26.63291911575756" x2="22.317208475507996" y1="142.92168965132927" y2="145.44649492493687" /><path d="M 25.769776987707644 143.4266507060508 a86.0,86.0 0 0,1 -11.730757126820373,-40.83630448921669" fill="none" id="id33" stroke="none" /><text fill="#e1ed5e" style="font-size:6.75px; font-family:Arial;" text-anchor="middle"><textPath startOffset="21.46611528233685" xlink:href="#id33">September</textPath></text><line stroke="#e1ed5e" stroke-width="0.3" x1="15.007084014347285" x2="10.007500721073583" y1="101.09737516637583" y2="101.16192664675087" /><path d="M 14.007167355692545 101.11028546245083 a86.0,86.0 0 0,1 10.666146001902534,-42.60595125391555" fill="none" id="id34" stroke="none" /><text fill="#e1ed5e" style="font-size:6.75px; font-family:Arial;" text-anchor="middle"><textPath startOffset="22.20632615414155" xlink:href="#id34">October</textPath></text><line stroke="#e1ed5e" stroke-width="0.3" x1="26.266209847984243" x2="21.928928074336255" y1="57.711370442889674" y2="55.22380399835377" /><path d="M 25.398753493254645 57.213857153982495 a86.0,86.0 0 0,1 29.58750427330803,-30.492523968695096" fill="none" id="id35" stroke="none" /><text fill="#e1ed5e" style="font-size:6.75px; font-family:Arial;" text-anchor="middle"><textPath startOffset="21.46611528233685" xlink:href="#id35">November</textPath></text><line stroke="#e1ed5e" stroke-width="0.3" x1="56.762969772571076" x2="54.21961505331055" y1="26.818313649435495" y2="22.513508569990535" /><path d="M 56.25429882871897 25.957352633546506 a86.0,86.0 0 0,1 42.265352541879196,-11.944610805530505" fill="none" id="id36" stroke="none" /><text fill="#e1ed5e" style="font-size:6.75px; font-family:Arial;" text-anchor="middle"><textPath startOffset="22.20632615414155" xlink:href="#id36">December</textPath></text></svg>