<?xml version="1.0" encoding="utf-8" ?>
<svg baseProfile="full" height="200mm" version="1.1" viewBox="0,0,200,200" width="200mm" xmlns="http://www.w3.org/2000/svg" xmlns:ev="http://www.w3.org/2001/xml-events" xmlns:xlink="http://www.w3.org/1999/xlink"><defs /><rect fill="#1a1a1a" height="200" width="200" x="0" y="0" /><text alignment-baseline="middle" fill="#e1ed5e" style="dominant-baseline: central; font-size:9.0px; font-family:Arial;" text-anchor="middle" x="100.0" y="100.0">2024</text><line stroke="#e1ed5e" stroke-width="0.3" x1="100.0" x2="100.0" y1="15.0" y2="10.0" /><path d="M 100.0 14.0 a86.0,86.0 0 0,1 42.35913384403234,11.155469271406648" fill="none" id="id13" stroke="none" /><text fill="#e1ed5e" style="font-size:6.75px; font-family:Arial;" text-anchor="middle"><textPath startOffset="22.145653131862478" xlink:href="#id13">January</textPath></text><path d="M 100.0 79.0 l 0.0 -17.04987091125429 a38.04987091125429,38.04987091125429 0 0,0 0.6531766311866389,0.005606735802203176 l -0.2926837063377842 17.04735857364652" fill="#ffbb11" stroke="none" /><path d="M 100.36049292484886 79.00309439819443 l 0.29600206586706534 -17.24063638018983 a38.24317720192316,38.24317720192316 0 0,0 0.6563015186288793,0.016903999058122003 l -0.5919168985666861 17.233014663781663" fill="#ffbd11" stroke="none" /><path d="M 100.72087961077811 79.0123766808444 l 1.2530838681543495 -36.48216958688383 a57.50368360791524,57.50368360791524 0 0,0 0.9862545479110015,0.04235401387943319 l -1.8791641766661873 36.45528300457856" fill="#57ff2a" stroke="none" /><path d="M 101.08105385017728 79.02784411241856 l 0.779104189961394 -15.114413145893499 a36.13448010615408,36.13448010615408 0 0,0 0.6191998451884155,0.03724952507767898 l -1.0384483872822718 15.098811642991128" fill="#ffa10e" stroke="none" /><path d="M 101.44090949804482 79.04949213459386 l 1.1734130792160384 -17.061168643029827 a38.10147285237092,38.10147285237092 0 0,0 0.6521357470415158,0.05047943121572864 l -1.4661178210327876 17.038511444819044" fill="#ffbc11" stroke="none" /><path d="M 101.80034050326958 79.07731436759882 l 1.3051204521499096 -15.167477976059835 a36.223525463862835,36.223525463862835 0 0,0 0.6190780526054511,0.05862733523476067 l -1.5652980681403736 15.142838885319891" fill="#ffa20f" stroke="none" /><path d="M 102.15924093988457 79.11130261209362 l 1.752426482888064 -16.95313654879051 a38.04346905473953,38.04346905473953 0 0,0 0.6490290067082977,0.07272505394662414 l -2.0431913911971584 16.920555734336915" fill="#ffbb11" stroke="none" /><path d="M 102.51750503828377 79.15144685158666 l 1.8214233744656658 -15.083998423374513 a36.19357073058913,36.19357073058913 0 0,0 0.616190678149996,0.0797782198536667 l -2.0800918745064534 15.05050860732045" fill="#ffa20e" stroke="none" /><path d="M 102.87502721639298 79.19773525538626 l 2.5058910565525254 -18.131379376980547 a39.30372661780397,39.30372661780397 0 0,0 0.6675548828871318,0.09810757926949669 l -2.8167710450473393 18.08569072441217" fill="#ffcc13" stroke="none" /><path d="M 103.23170211078529 79.25015418208739 l 2.639449130305538 -16.947156829611036 a38.15146688533965,38.15146688533965 0 0,0 0.6462540506019578,0.10634085809804428 l -2.929980683960566 16.899349973017323" fill="#ffbc11" stroke="none" /><path d="M 103.58742460773223 79.30868818359171 l 3.2059537697620444 -18.491089394926593 a39.76695304478109,39.76695304478109 0 0,0 0.6716169998804773,0.12239099011761088 l -3.5229055031935754 18.43333023087762" fill="#ffd213" stroke="none" /><path d="M 104.29559338865022 79.4440306129975 l 6.576486850206231 -31.470870293275762 a53.15067427453307,53.15067427453307 0 0,0 0.8915078600726231,0.19429998872693185 l -7.1157571268979884 31.35333884641511" fill="#87ff25" stroke="none" /><path d="M 104.64783097203109 79.52079915486377 l 3.630405347344312 -15.996235815140038 a37.40303030661088,37.40303030661088 0 0,0 0.6249295565372557,0.14748167374782892 l -3.904467057621453 15.93155799774598" fill="#ffb210" stroke="none" /><path d="M 104.9986988182912 79.60360301121754 l 4.364260146603741 -17.807670705570064 a39.33466396161249,39.33466396161249 0 0,0 0.654443970521202,0.16635709812325072 l -4.669309410350338 17.730128375611546" fill="#ffcc13" stroke="none" /><path d="M 105.3480935250658 79.69241777938227 l 4.62372356359183 -17.55703149037458 a39.15566507585219,39.15566507585219 0 0,0 0.6485270748644422,0.17675893812610774 l -4.9244320393909655 17.47507205810433" fill="#ffca12" stroke="none" /><path d="M 105.69591212413111 79.78721728523813 l 5.25778056897056 -18.658008390308638 a40.38467264630156,40.38467264630156 0 0,0 0.6656547661792276,0.19376240107826584 l -5.577295347531392 18.565002294927858" fill="#ffda14" stroke="none" /><path d="M 106.04205211174951 79.88797359093562 l 5.58730169295495 -18.59831016445541 a40.41945110401895,40.41945110401895 0 0,0 0.662800790564574,0.2053373791790068 l -5.905743116391155 18.499656197469758" fill="#ffdb14" stroke="none" /><path d="M 106.38641147887787 79.99465700312896 l 5.576196414984851 -17.46735584899943 a39.335825228608186,39.335825228608186 0 0,0 0.6415059874600285,0.21087576000608688 l -5.875225140092622 17.36905916759132" fill="#ffcc13" stroke="none" /><path d="M 106.72888874123014 80.10723608172694 l 10.171943367663548 -30.071543130609452 a52.74533254088007,52.74533254088007 0 0,0 0.8552133943683682,0.29748761242060795 l -10.686662534076934 29.892497085620256" fill="#8cff24" stroke="none" /><path d="M 107.06938296918511 80.22567764915836 l 6.76123155622399 -18.912368004992558 a41.08461888394065,41.08461888394065 0 0,0 0.6620705109753011,0.24312146226226364 l -7.084891218853415 18.793515693721574" fill="#ffe315" stroke="none" /><path d="M 107.40779381753099 80.34994680014964 l 6.309155070109848 -16.73578339618056 a38.885521618967836,38.885521618967836 0 0,0 0.6225900455097448,0.24083120436065186 l -6.595517378113119 16.625012303681874" fill="#ffc612" stroke="none" /><path d="M 107.74402155503746 80.48000691201159 l 6.895916791150146 -17.382215059955733 a39.700135528413114,39.700135528413114 0 0,0 0.6313182452308802,0.2567516342994114 l -7.193289497571466 17.26127616907703" fill="#ffd113" stroke="none" /><path d="M 108.07796709384702 80.6158196554323 l 7.301608250199398 -17.52120174332674 a39.981727886832005,39.981727886832005 0 0,0 0.6312637429216084,0.2694489545907797 l -7.601307068291437 17.393278139076557" fill="#ffd513" stroke="none" /><path d="M 108.4095320186766 80.7573450057729 l 7.067299097249254 -16.171363396602096 a38.64822117480802,38.64822117480802 0 0,0 0.6056481710524045,0.2708987233780072 l -7.34386067115729 16.047660922314236" fill="#ffc312" stroke="none" /><path d="M 108.73861861582097 80.90454125486305 l 7.8357907204678785 -17.12261685929685 a39.83039097643082,39.83039097643082 0 0,0 0.619289151653106,0.28985859271605585 l -8.12856858599249 16.98558203501026" fill="#ffd313" stroke="none" /><path d="M 109.06512990194946 81.05736502329252 l 9.749558633116107 -20.37282778831549 a43.585526463488264,43.585526463488264 0 0,0 0.672129810748458,0.3287723712914049 l -10.097848693126632 20.202461666926865" fill="#faff18" stroke="none" /><path d="M 109.3889696526874 81.21577127319529 l 14.949881547843518 -29.909777624315844 a54.43790896318992,54.43790896318992 0 0,0 0.8323109845197455,0.4249839191463404 l -15.461119754076842 29.648735753496666" fill="#79ff26" stroke="none" /><path d="M 109.71004243097381 81.37971332152246 l 7.140727091755344 -13.693285738600116 a36.44331757485671,36.44331757485671 0 0,0 0.5522224401029352,0.2940273453021763 l -7.374738347644838 13.568687925575366" fill="#ffa50f" stroke="none" /><path d="M 110.02825361518725 81.54914285379988 l 8.179392666945958 -15.049161242984644 a38.12833087365609,38.12833087365609 0 0,0 0.5723894239917751,0.3174947647274575 l -8.436526279093833 14.90653356282404" fill="#ffbc11" stroke="none" /><path d="M 110.34350942703115 81.72400993836675 l 8.414387727019227 -14.8674168625833 a38.08338388570713,38.08338388570713 0 0,0 0.5661866332610349,0.32688800512482646 l -8.668366828140659 14.7207819601823" fill="#ffbb11" stroke="none" /><line stroke="#e1ed5e" stroke-width="0.3" x1="143.13028292997686" x2="145.6673583964461" y1="26.7553504044142" y2="22.446841604673864" /><path d="M 143.63769802327073 25.89364864446614 a86.0,86.0 0 0,1 29.32050498858742,28.57503671076993" fill="none" id="id14" stroke="none" /><text fill="#e1ed5e" style="font-size:6.75px; font-family:Arial;" text-anchor="middle"><textPath startOffset="20.669276256404974" xlink:href="#id14">February</textPath></text><path d="M 110.65571695917076 81.90426304109057 l 10.8254772638326 -18.38402706937274 a42.334559036389436,42.334559036389436 0 0,0 0.6230583554158784,0.3741286405066375 l -11.139468375805913 18.19548442833018" fill="#fff417" stroke="none" /><path d="M 110.96478420261332 82.08984904055464 l 13.386018522775842 -21.865055258607516 a46.63720213584271,46.63720213584271 0 0,0 0.6792061593345587,0.42387487729511425 l -13.759388810900113 21.632044584470854" fill="#d4ff1c" stroke="none" /><path d="M 111.27062007382361 82.28071324371311 l 10.107885133022979 -15.89127430420794 a39.833532352534576,39.833532352534576 0 0,0 0.5738198025998591,0.3719430633510537 l -10.379190567879846 15.715417399152992" fill="#ffd313" stroke="none" /><path d="M 111.5731344415666 82.4767994020092 l 10.29705209100095 -15.59104927620155 a39.68448820004797,39.68448820004797 0 0,0 0.5652275107431006,0.38031029453028936 l -10.563175889841052 15.411989307614142" fill="#ffd113" stroke="none" /><path d="M 111.8722381534696 82.67804972795209 l 11.834148996529233 -17.266377053763673 a41.932626663531515,41.932626663531515 0 0,0 0.5902614419865696,0.41204832852037626 l -12.128805529689565 17.06068390943817" fill="#ffee16" stroke="none" /><path d="M 112.16784306229584 82.88440491214696 l 9.666309576480609 -13.596874964432855 a37.68270210807535,37.68270210807535 0 0,0 0.5240030759989959,0.3793378170583495 l -9.898293662853572 13.42893637600143" fill="#ffb610" stroke="none" /><path d="M 112.45986205192187 83.09580414077388 l 10.208913860151116 -13.850352329971741 a38.20622509059844,38.20622509059844 0 0,0 0.5246024195179307,0.3936714356987472 l -10.445169268579813 13.673061867008979" fill="#ffbd11" stroke="none" /><path d="M 112.7482090630111 83.31218511350987 l 11.878317551786274 -15.549098974404172 a40.56703622874171,40.56703622874171 0 0,0 0.5497607183963046,0.42749725982294384 l -12.143488214817804 15.342900662960439" fill="#ffdc14" stroke="none" /><path d="M 113.03279911837588 83.53348406188908 l 12.144125751206062 -15.34370616936033 a40.568063503391755,40.568063503391755 0 0,0 0.5423548846074355,0.43688270375187666 l -12.405731406168757 15.132975171815046" fill="#ffdc14" stroke="none" /><path d="M 113.31354834802062 83.75963576809568 l 9.884240362115321 -12.057166086778695 a36.590813371349036,36.590813371349036 0 0,0 0.4823464892896008,0.4023905966127469 l -10.089761185566815 11.885713306254079" fill="#ffa70f" stroke="none" /><path d="M 113.59037401385872 83.9905735841838 l 21.66236088777518 -25.51820665656749 a54.4729256295218,54.4729256295218 0 0,0 0.7076824718611981,0.6112792641147499 l -22.09722283939924 25.14258325998802" fill="#78ff26" stroke="none" /><path d="M 113.86319453409587 84.22622945171908 l 11.840650283094195 -13.472486463968261 a38.93624516581848,38.93624516581848 0 0,0 0.49826337143974764,0.4455501791858355 l -12.07017868135732 13.267240754899039" fill="#ffc712" stroke="none" /><path d="M 114.13192950727249 84.46653392183569 l 4.666528879172342 -5.129332693748198 a27.934446312670076,27.934446312670076 0 0,0 0.35193442138861386,0.32574524636146746 l -4.75389307187492 5.048469701254356" fill="#ff2b04" stroke="none" /><path d="M 114.39649973595853 84.71141617570332 l 16.345348252708078 -17.358193413825006 a44.8427617547562,44.8427617547562 0 0,0 0.5558954616452255,0.5325352773920501 l -16.640916200218616 17.075046006127373" fill="#ebff1a" stroke="none" /><path d="M 114.91283532996326 85.21462403516908 l 23.281285921133254 -23.082301767059633 a53.78430918910999,53.78430918910999 0 0,0 0.6444210515697977,0.6612327693066964 l -23.674093773853865 22.679246305685194" fill="#80ff25" stroke="none" /><path d="M 115.16444852881244 85.47280134310134 l 13.027510128668407 -12.480060009062933 a39.04072941935469,39.04072941935469 0 0,0 0.4594613582226039,0.4879320402907544 l -13.23982732062727 12.254586508827686" fill="#ffc812" stroke="none" /><path d="M 115.41159269507618 85.73525988315684 l 11.1886524685543 -10.356049688011419 a36.24577676612929,36.24577676612929 0 0,0 0.418728989439763,0.4602565099167356 l -11.36477915883594 10.162455602537012" fill="#ffa20f" stroke="none" /><path d="M 115.6541949942343 86.00192230759917 l 13.4823693550908 -12.056017813737238 a39.08651013745441,39.08651013745441 0 0,0 0.44295985529450255,0.5040070023060427 l -13.687340274343892 11.822798533619899" fill="#ffc912" stroke="none" /><path d="M 115.8921839302757 86.27271002978787 l 12.032975188399472 -10.393797374874817 a36.90042501804879,36.90042501804879 0 0,0 0.4099557031242358,0.4829267874613999 l -12.209625455030821 10.185703804963865" fill="#ffab0f" stroke="none" /><path d="M 116.1254893667686 86.54754324733833 l 12.175328754314444 -10.157092277421834 a36.85576090282956,36.85576090282956 0 0,0 0.401119113510587,0.48930009742736613 l -12.34789468706366 9.946589898295972" fill="#ffab0f" stroke="none" /><path d="M 116.35404254752997 86.82634096563983 l 15.849363415226309 -12.767125249737644 a41.3519485015662,41.3519485015662 0 0,0 0.4405628113419918,0.556636720079051 l -16.06619265720986 12.493168585743915" fill="#ffe715" stroke="none" /><path d="M 116.57777611688842 87.10902102172516 l 15.288104998221927 -11.888122915893767 a40.366301167235235,40.366301167235235 0 0,0 0.42067072342714146,0.5506714806777653 l -15.489927699003376 11.62393052197512" fill="#ffda14" stroke="none" /><path d="M 116.7966241395341 87.39550010848427 l 11.914634447357724 -8.94096381222802 a35.89628637968988,35.89628637968988 0 0,0 0.3656258648122042,0.49604170609826764 l -12.066362331753755 8.735115796860878" fill="#ff9d0e" stroke="none" /><path d="M 117.01052211995028 87.68569379921539 l 18.254655118103905 -13.214962546646888 a43.5359195195181,43.5359195195181 0 0,0 0.43304744091629055,0.6091354576655547 l -18.478817657550156 12.89964986227183" fill="#fbff18" stroke="none" /><path d="M 117.21940702142032 87.97951657250589 l 28.282294016322094 -19.743237737037585 a55.49179019950796,55.49179019950796 0 0,0 0.5385617316738327,0.7857776616244743 l -28.61704548481125 19.25482534034306" fill="#6dff28" stroke="none" /><path d="M 117.42321728460499 88.27688183743584 l 30.185930143705363 -20.310440955944724 a57.3827485281909,57.3827485281909 0 0,0 0.5428833219099669,0.8219945425471232 l -30.530137904536055 19.789266535058545" fill="#59ff2a" stroke="none" /><path d="M 117.62189284568427 88.57770195909679 l 18.30215129260859 -11.86323334755017 a42.810663616588116,42.810663616588116 0 0,0 0.3944336199792855,0.6201151642903531 l -18.503102604213762 11.547304508581144" fill="#fffa17" stroke="none" /><path d="M 117.81537515405839 88.88188828441811 l 3.5031359072756176 -2.186215896951468 a25.129346332402633,25.129346332402633 0 0,0 0.22524514343111035,0.36792101396501703 l -3.5401490151621307 2.1257577668618963" fill="#ff0000" stroke="none" /><line stroke="#e1ed5e" stroke-width="0.3" x1="172.87174338648825" x2="177.1583165268699" y1="56.24261187166439" y2="53.66864786411523" /><path d="M 173.72905801456457 55.72781907015455 a86.0,86.0 0 0,1 12.242430191666344,42.057860355516425" fill="none" id="id15" stroke="none" /><text fill="#e1ed5e" style="font-size:6.75px; font-family:Arial;" text-anchor="middle"><textPath startOffset="22.145653131862474" xlink:href="#id15">March</textPath></text><path d="M 118.00360718960297 89.18935116829356 l 16.05218130742898 -9.638873658480659 a39.7237926214409,39.7237926214409 0 0,0 0.34602504780069965,0.5876261794666503 l -16.215280065359448 9.361896310720452" fill="#ffd113" stroke="none" /><path d="M 118.18653347947321 89.5 l 19.917831761591287 -11.499565529228411 a43.99913105845682,43.99913105845682 0 0,0 0.3720370306682686,0.6573537852910691 l -20.112302157280933 11.155954973838224" fill="#f5ff19" stroke="none" /><path d="M 118.36410011445183 89.81374322990088 l 16.603963707710694 -9.209938775875418 a39.98722157300397,39.98722157300397 0 0,0 0.3278088642740182,0.603131388382337 l -16.759617921600054 8.923552554018478" fill="#ffd513" stroke="none" /><path d="M 118.53625476483649 90.13048839642627 l 7.923475378908879 -4.21880434774342 a29.9766236528393,29.9766236528393 0 0,0 0.23794577534776826,0.45629239855584014 l -7.994729223231592 4.082165706083082" fill="#ff4906" stroke="none" /><path d="M 118.70294669586156 90.45014215332178 l 14.98327205975318 -7.650565473750185 a37.823483399246385,37.823483399246385 0 0,0 0.2903043969964266,0.5808032611988657 l -15.112396369961344 7.392230356387569" fill="#ffb811" stroke="none" /><path d="M 118.8641267826498 90.77261029715802 l 17.264856322315147 -8.445106380227529 a40.21965362860489,40.21965362860489 0 0,0 0.2980482067751815,0.6228061205378193 l -17.407283787050243 8.147487757624605" fill="#ffd814" stroke="none" /><path d="M 119.0197475246899 91.09779779509293 l 15.670541317196125 -7.334604588464707 a38.30208916989733,38.30208916989733 0 0,0 0.27361468590436605,0.5978974682899031 l -15.794140467955543 7.064518137960119" fill="#ffbe11" stroke="none" /><path d="M 119.16976305983485 91.42560881287824 l 15.435963256266342 -6.904310027001747 a37.90971491769632,37.90971491769632 0 0,0 0.26061325602434127,0.5963341314904481 l -15.552210394307654 6.638313825735449" fill="#ffb911" stroke="none" /><path d="M 119.31412917781788 91.75594674310238 l 20.224588477996235 -8.632674192887233 a42.98993048703973,42.98993048703973 0 0,0 0.2838853477964537,0.6812214898793388 l -20.369799670329172 8.284220193566616" fill="#fffc17" stroke="none" /><path d="M 119.4528033332814 92.08871423366111 l 21.064639020365185 -8.566805308197743 a43.74003452607002,43.74003452607002 0 0,0 0.27689800699634354,0.6979638607966474 l -21.208595702327653 8.203940430187531" fill="#f8ff18" stroke="none" /><path d="M 119.71291397450082 92.76114493625339 l 16.417194324933508 -6.0286211579516795 a38.48909782032028,38.48909782032028 0 0,0 0.22243001745886212,0.6221763462111516 l -16.518264512436314 5.745909855359612" fill="#ffc111" stroke="none" /><path d="M 119.83427380445688 93.10060997987247 l 18.668099115174066 -6.493733927432303 a40.76528534816151,40.76528534816151 0 0,0 0.22423736911786304,0.6629179374276262 l -18.776821905864296 6.172314315530516" fill="#ffdf14" stroke="none" /><path d="M 119.94978838288452 93.4421083053983 l 18.45906019558438 -6.067859729811959 a40.43079578928463,40.43079578928463 0 0,0 0.21107818036713782,0.6611993936447724 l -18.560503091728776 5.750091302475799" fill="#ffdb14" stroke="none" /><path d="M 120.05942366710727 93.78553927170692 l 33.29575824031569 -10.315111014005584 a55.85697967450435,55.85697967450435 0 0,0 0.2758900707296277,0.918348317076363 l -33.467924631048945 9.742025093338498" fill="#69ff28" stroke="none" /><path d="M 120.16314734710363 94.1308016681162 l 32.669374767391986 -9.50957886621837 a55.02528674243812,55.02528674243812 0 0,0 0.25621216722400514,0.9092065945043147 l -32.827805426690574 8.947364347811043" fill="#72ff27" stroke="none" /><path d="M 120.26092885502905 94.47779374421319 l 8.038794770754878 -2.1910092617017503 a29.33203114199526,29.33203114199526 0 0,0 0.12823757181897166,0.4869389477354168 l -8.075221823378579 2.052689809593535" fill="#ff3f05" stroke="none" /><path d="M 120.35273937422433 94.82641323984039 l 16.4956180185187 -4.193121594694973 a38.02021393874872,38.02021393874872 0 0,0 0.15536231430780048,0.6339312598955708 l -16.565167859342793 3.9093345101913073" fill="#ffba11" stroke="none" /><path d="M 120.43855184770803 95.1765574152323 l 17.001519640300906 -4.0123123423731215 a38.46855232731943,38.46855232731943 0 0,0 0.146160602253364,0.6440105819693084 l -17.067891104111936 3.719867426464787" fill="#ffc111" stroke="none" /><path d="M 120.51834098615036 95.52812308129327 l 16.516590866706252 -3.599714105657998 a37.9043105597548,37.9043105597548 0 0,0 0.13310241096668787,0.6369432200907805 l -16.575950988497308 3.315654434281813" fill="#ffb911" stroke="none" /><path d="M 120.592083275326 95.88100663000786 l 16.998237153720552 -3.4001234941402756 a38.334961958698685,38.334961958698685 0 0,0 0.12353661956988611,0.6463957951962224 l -17.054100065572598 3.1078251339107386" fill="#ffbf11" stroke="none" /><path d="M 120.65975698304385 96.23510406497455 l 14.914843877230329 -2.7179813940217312 a36.16047462121168,36.16047462121168 0 0,0 0.1060452109102262,0.6116405961120228 l -14.959303905632789 2.4615477649891155" fill="#ffa10e" stroke="none" /><path d="M 120.7213421655516 96.59031103205396 l 18.997085926032014 -3.125963259889546 a40.25255619348306,40.25255619348306 0 0,0 0.10634055977309866,0.6827826773136869 l -19.047947977943377 2.7993924006444177" fill="#ffd814" stroke="none" /><path d="M 120.77682067341334 96.94652285012252 l 17.90339720314889 -2.6311828515202023 a39.095710945189566,39.095710945189566 0 0,0 0.09188512925321426,0.6648350227503369 l -17.945926848957317 2.32345952056978" fill="#ffc912" stroke="none" /><path d="M 120.82617615685814 97.30363454192243 l 24.053152308305904 -3.1141621271957547 a45.253909823387694,45.253909823387694 0 0,0 0.09313236053143471,0.7712695461775301 l -24.103066755097004 2.7007989040948117" fill="#e5ff1a" stroke="none" /><path d="M 120.86939407059847 97.66154086499901 l 31.73751626309138 -3.556254895403392 a52.93613764109665,52.93613764109665 0 0,0 0.0934388558865083,0.9039361698050262 l -31.793887511459552 3.0109142033154344" fill="#8aff24" stroke="none" /><path d="M 120.9064616781168 98.02013634271609 l 32.203485854733835 -3.049703592281301 a53.347568582457875,53.347568582457875 0 0,0 0.07851333727464725,0.91244399088106 l -32.251092814706226 2.4964385540245786" fill="#85ff25" stroke="none" /><path d="M 120.93736805541906 98.37931529534042 l 21.230985055938888 -1.6434125174635053 a42.294495325037786,42.294495325037786 0 0,0 0.0498189656601936,0.7243568269392197 l -21.25606798276415 1.2787122663699515" fill="#fff316" stroke="none" /><path d="M 120.96210409425399 98.7389718711861 l 31.48137164503627 -1.8938411430233013 a52.53828459076209,52.53828459076209 0 0,0 0.04642985974679927,0.9007268752511915 l -31.50924309423964 1.353142474395379" fill="#8eff24" stroke="none" /><path d="M 120.98066250479742 99.09900007780936 l 34.25120665219207 -1.470894187516917 a55.28277536667703,55.28277536667703 0 0,0 0.03257817375455057,0.9484779829582247 l -34.271409512943464 0.8827099399945723" fill="#6fff27" stroke="none" /><path d="M 120.99303781780057 99.45929381324524 l 45.85405011524468 -1.1810376754550762 a66.86925726412207,66.86925726412207 0 0,0 0.01970595107263895,1.1477728575100339 l -45.867567497915985 0.393717901975976" fill="#37ff74" stroke="none" /><line stroke="#e1ed5e" stroke-width="0.3" x1="184.99686870605535" x2="189.99668451229388" y1="99.2704041080226" y2="99.22748670261217" /><path d="M 185.99683186730306 99.26182062694052 a86.0,86.0 0 0,1 -10.086455211305974,41.156179273409016" fill="none" id="id16" stroke="none" /><text fill="#e1ed5e" style="font-size:6.75px; font-family:Arial;" text-anchor="middle"><textPath startOffset="21.40746469413373" xlink:href="#id16">April</textPath></text><path d="M 120.99922638620191 99.81974689727618 l 16.388268036498488 -0.14067357089828883 a37.38887178208638,37.38887178208638 0 0,0 0.0,0.6418533472442294 l -16.388268036498488 -0.14067357089828683" fill="#ffb210" stroke="none" /><path d="M 120.99922638620191 100.18025310272382 l 18.299330458865697 0.1570777433566087 a39.300004608202364,39.300004608202364 0 0,0 -0.011581465080500428,0.674562279212203 l -18.293937562186525 -0.47118693853788274" fill="#ffcc13" stroke="none" /><path d="M 120.99303781780057 100.54070618675476 l 20.221343990169387 0.5208300911414349 a41.228050245948026,41.228050245948026 0 0,0 -0.024295715538255963,0.7073432489452928 l -20.209423587634287 -0.8678796046508385" fill="#ffe515" stroke="none" /><path d="M 120.98066250479742 100.90099992219065 l 62.94198751439227 2.702999766571932 a84.0,84.0 0 0,0 -0.07423364217370931,1.4401128264930774 l -62.886312282761985 -3.7830843864417396" fill="#4dd2ff" stroke="none" /><path d="M 120.96210409425399 101.26102812881392 l 19.530715642351723 1.1749193539985574 a40.56602384213008,40.56602384213008 0 0,0 -0.04778298767322785,0.6947541538444651 l -19.50766869351343 -1.510016931997366" fill="#ffdc14" stroke="none" /><line stroke="#e1ed5e" stroke-width="0.3" x1="174.33088141563837" x2="178.70328620479359" y1="141.23008692659167" y2="143.65538615756765" /><path d="M 175.20536237346943 141.71514677278685 a86.0,86.0 0 0,1 -30.301960400862466,31.631185727798858" fill="none" id="id17" stroke="none" /><text fill="#e1ed5e" style="font-size:6.75px; font-family:Arial;" text-anchor="middle"><textPath startOffset="22.145653131862474" xlink:href="#id17">May</textPath></text><line stroke="#e1ed5e" stroke-width="0.3" x1="143.1302829299769" x2="145.66735839644613" y1="173.24464959558577" y2="177.55315839532614" /><path d="M 143.63769802327073 174.10635135553383 a86.0,86.0 0 0,1 -40.68552437913181,11.842963189579606" fill="none" id="id18" stroke="none" /><text fill="#e1ed5e" style="font-size:6.75px; font-family:Arial;" text-anchor="middle"><textPath startOffset="21.407464694133747" xlink:href="#id18">June</textPath></text><line stroke="#e1ed5e" stroke-width="0.3" x1="101.45913802915013" x2="101.54496967792366" y1="184.9874750549273" y2="189.98673829345242" /><path d="M 101.47630435890484 185.9873277026323 a86.0,86.0 0 0,1 -42.54439059252881,-10.42667462771756" fill="none" id="id19" stroke="none" /><text fill="#e1ed5e" style="font-size:6.75px; font-family:Arial;" text-anchor="middle"><textPath startOffset="22.145653131862474" xlink:href="#id19">July</textPath></text><line stroke="#e1ed5e" stroke-width="0.3" x1="58.13341422392154" x2="55.67067388415222" y1="173.97424548756322" y2="178.32567169271397" /><path d="M 57.64086615596768 174.84453072859336 a86.0,86.0 0 0,1 -31.369924170532247,-30.572349798747897" fill="none" id="id20" stroke="none" /><text fill="#e1ed5e" style="font-size:6.75px; font-family:Arial;" text-anchor="middle"><textPath startOffset="22.145653131862474" xlink:href="#id20">August</textPath></text><line stroke="#e1ed5e" stroke-width="0.3" x1="26.387840678322732" x2="22.057713659400548" y1="142.50000000000003" y2="145.00000000000006" /><path d="M 25.521815274538298 143.00000000000003 a86.0,86.0 0 0,1 -11.493303480769221,-40.785679425670985" fill="none" id="id21" stroke="none" /><text fill="#e1ed5e" style="font-size:6.75px; font-family:Arial;" text-anchor="middle"><textPath startOffset="21.40746469413373" xlink:href="#id21">September</textPath></text><line stroke="#e1ed5e" stroke-width="0.3" x1="15.003131293944662" x2="10.003315487706104" y1="100.72959589197737" y2="100.7725132973878" /><path d="M 14.003168132696942 100.73817937305945 a86.0,86.0 0 0,1 10.791469493833604,-42.45332614584628" fill="none" id="id22" stroke="none" /><text fill="#e1ed5e" style="font-size:6.75px; font-family:Arial;" text-anchor="middle"><textPath startOffset="22.145653131862435" xlink:href="#id22">October</textPath></text><line stroke="#e1ed5e" stroke-width="0.3" x1="26.387840678322718" x2="22.05771365940052" y1="57.49999999999999" y2="54.99999999999999" /><path d="M 25.521815274538284 56.99999999999999 a86.0,86.0 0 0,1 29.574782752854787,-30.34633250058573" fill="none" id="id23" stroke="none" /><text fill="#e1ed5e" style="font-size:6.75px; font-family:Arial;" text-anchor="middle"><textPath startOffset="21.40746469413373" xlink:href="#id23">November</textPath></text><line stroke="#e1ed5e" stroke-width="0.3" x1="56.869717070023135" x2="54.33264160355391" y1="26.7553504044142" y2="22.446841604673864" /><path d="M 56.362301976729285 25.89364864446614 a86.0,86.0 0 0,1 42.16139366436587,-11.88097634709845" fill="none" id="id24" stroke="none" /><text fill="#e1ed5e" style="font-size:6.75px; font-family:Arial;" text-anchor="middle"><textPath startOffset="22.145653131862474" xlink:href="#id24">December</textPath></text></svg>