<?xml version="1.0" encoding="utf-8" ?>
<svg baseProfile="full" height="200mm" version="1.1" viewBox="0,0,200,200" width="200mm" xmlns="http://www.w3.org/2000/svg" xmlns:ev="http://www.w3.org/2001/xml-events" xmlns:xlink="http://www.w3.org/1999/xlink"><defs /><rect fill="#1a1a1a" height="200" width="200" x="0" y="0" /><text alignment-baseline="middle" fill="#e1ed5e" style="dominant-baseline: central; font-size:9.0px; font-family:Arial;" text-anchor="middle" x="100.0" y="100.0">2026</text><line stroke="#e1ed5e" stroke-width="0.3" x1="100.0" x2="100.0" y1="15.0" y2="10.0" /><path d="M 100.0 14.0 a86.0,86.0 0 0,1 42.46469731375804,11.215312516191453" fill="none" id="id37" stroke="none" /><text fill="#e1ed5e" style="font-size:6.75px; font-family:Arial;" text-anchor="middle"><textPath startOffset="22.20632615414155" xlink:href="#id37">January</textPath></text><path d="M 100.0 79.0 l 0.0 -12.830666442006581 a33.83066644200658,33.83066644200658 0 0,0 0.5823393104555039,0.005012378296172228 l -0.2208588311829755 12.828765440318968" fill="#ff930d" stroke="none" /><path d="M 100.36148047927253 79.00311137660856 l 0.43530201966617715 -25.284873038959393 a46.28861982087241,46.28861982087241 0 0,0 0.7965463950882952,0.020572443344356837 l -0.8704750499493402 25.273633803472677" fill="#cdff1d" stroke="none" /><path d="M 100.72285384407766 79.0124445844662 l 1.109748212322237 -32.22076259844893 a53.23986792033053,53.23986792033053 0 0,0 0.9156222086575478,0.03942861836727288 l -1.6642112533691165 32.19688625355746" fill="#7dff26" stroke="none" /><path d="M 101.08401301168833 79.027996857942 l 0.462038549973646 -8.93889078573645 a29.95082387833577,29.95082387833577 0 0,0 0.5146378058963956,0.031044357866556706 l -0.6158384047096535 8.92961315848959" fill="#ff5d08" stroke="none" /><path d="M 101.44485096284872 79.0497635885617 l 1.3911740827181545 -20.17192545932007 a41.21984030759867,41.21984030759867 0 0,0 0.7074302304655321,0.054910201201830225 l -1.7381945025460277 20.144989995929777" fill="#fff417" stroke="none" /><path d="M 101.80526077348638 79.07773832637324 l 2.679865022891779 -31.058580611963166 a52.17398123709471,52.17398123709471 0 0,0 0.8941002317569258,0.08490559044062002 l -3.214090381738949 31.007849477007365" fill="#89ff24" stroke="none" /><path d="M 102.16513564639614 79.11191278185805 l 2.0349829402923736 -19.63244252849043 a40.73762790210011,40.73762790210011 0 0,0 0.6968720172602675,0.07830169086370091 l -2.3726216610623663 19.594504884156127" fill="#ffed16" stroke="none" /><path d="M 102.52436894288641 79.15227682838746 l 1.96190533903979 -16.20256797742211 a37.32091546520407,37.32091546520407 0 0,0 0.6370951672799716,0.08271323746667145 l -2.240515234827608 16.166396416791304" fill="#ffc112" stroke="none" /><path d="M 102.88285421437855 79.19881850522331 l 2.074497990638213 -14.968502048625798 a36.11157157587776,36.11157157587776 0 0,0 0.6149818171907018,0.09063233369832041 l -2.3318487882575702 14.93057523076651" fill="#ffb110" stroke="none" /><path d="M 103.2404852339499 79.25152402106235 l 5.053385475527823 -32.35627987216508 a53.74851984334789,53.74851984334789 0 0,0 0.9128822495898721,0.15063339305927442 l -5.60959693125657 32.264500216166184" fill="#78ff26" stroke="none" /><path d="M 103.59715602781102 79.31037775812273 l 6.597892371567499 -37.94884061322306 a59.518134529525135,59.518134529525135 0 0,0 1.0078542391215732,0.18417892015729426 l -7.250141731791974 37.82964621171502" fill="#3bff2e" stroke="none" /><path d="M 103.95276090670814 79.375362276772 l 2.4554835027621786 -12.812173282195536 a34.04535102806139,34.04535102806139 0 0,0 0.5746102859918044,0.11526141771704349 l -2.6756601982211086 12.768007908401286" fill="#ff960d" stroke="none" /><path d="M 104.307194497241 79.44645832069477 l 5.142516266762456 -24.53962143876065 a46.07266427629098,46.07266427629098 0 0,0 0.7748046003239997,0.16934227566144053 l -5.564163591239984 24.447465665003342" fill="#cfff1d" stroke="none" /><path d="M 104.66035177308747 79.52364482259891 l 4.53886106798382 -19.942557097431852 a41.45255102374246,41.45255102374246 0 0,0 0.6943821697680949,0.16433782499598953 l -4.881466924714439 19.861473360294994" fill="#fff617" stroke="none" /><path d="M 105.01212808612495 79.60689891045804 l 7.567143601939482 -30.788822987311303 a52.705098694632106,52.705098694632106 0 0,0 0.8791489330337198,0.22411463809784576 l -8.096001423658226 30.65400535304459" fill="#83ff25" stroke="none" /><path d="M 105.36241919743992 79.69619591428918 l 6.239324927462942 -23.624044724958985 a45.43408817036811,45.43408817036811 0 0,0 0.7544267831525424,0.2062133384724265 l -6.645049599839195 23.513144845660264" fill="#d7ff1c" stroke="none" /><path d="M 105.71112130821622 79.79150937346287 l 10.8687213489429 -38.458376498950244 a60.96468224189923,60.96468224189923 0 0,0 1.0073971957772334,0.2940868660973635 l -11.529108762443562 38.26559130393418" fill="#30ff32" stroke="none" /><path d="M 106.0581310904928 79.89281104454417 l 10.91582341139255 -36.230071726527235 a58.83878034580414,58.83878034580414 0 0,0 0.9672384584396521,0.3005256973127596 l -11.537847242542918 36.036805894331955" fill="#42ff2d" stroke="none" /><path d="M 106.40334571778207 80.00007090966166 l 8.236576940155482 -25.725763063638478 a48.01214698793058,48.01214698793058 0 0,0 0.7849235619989782,0.2587769575181901 l -8.678183324396878 25.580172381861054" fill="#b8ff1f" stroke="none" /><path d="M 106.74666289553966 80.11325718540242 l 9.838256131850985 -28.999651007849625 a51.62304756703645,51.62304756703645 0 0,0 0.8390416733203419,0.2927251648063453 l -10.3359798092346 28.82600498987107" fill="#8fff24" stroke="none" /><path d="M 107.08798089147638 80.2323363322302 l 7.097784943080678 -19.79500617865724 a42.029047070927895,42.029047070927895 0 0,0 0.678904552256908,0.2500462761074234 l -7.4374718211101625 19.66989663474349" fill="#fffe18" stroke="none" /><path d="M 107.4271985657038 80.35727306442388 l 13.48962427370562 -35.676036358509535 a59.141178971020835,59.141178971020835 0 0,0 0.9491225216667472,0.36824479290361606 l -14.101729960372033 35.43854886171537" fill="#3fff2d" stroke="none" /><path d="M 107.76421540070413 80.48803036053334 l 10.122015582023385 -25.437272220543683 a48.37718059743858,48.37718059743858 0 0,0 0.7710772709427801,0.3145417794148193 l -10.558376722554552 25.259269554945284" fill="#b4ff20" stroke="none" /><path d="M 108.09893153111575 80.62456947434976 l 8.790382397801022 -21.029618880977093 a43.792886894351895,43.792886894351895 0 0,0 0.6930041718211797,0.29670821996192853 l -9.151070327412517 20.875191133052375" fill="#ebff1a" stroke="none" /><path d="M 108.43124777332544 80.76684994638697 l 15.178282778139087 -34.62431636177366 a58.80507309361193,58.80507309361193 0 0,0 0.9235697443400586,0.41437882287351974 l -15.772034640945925 34.35791720838361" fill="#43ff2d" stroke="none" /><path d="M 108.76106565485865 80.91482961587045 l 15.843377489922524 -34.513330999587474 a58.97607966832898,58.97607966832898 0 0,0 0.9189646799813344,0.43146623922229965 l -16.435120381203454 34.235499777725174" fill="#41ff2d" stroke="none" /><path d="M 109.08828744355905 81.06846463323043 l 10.999355639986595 -22.912423446472324 a46.41584097930579,46.41584097930579 0 0,0 0.7172987649361613,0.3519753887598407 l -11.392125671933188 22.71969289757765" fill="#cbff1d" stroke="none" /><path d="M 109.41281617654863 81.2277094730956 l 12.496046908321606 -24.92127951943617 a48.87869009155277,48.87869009155277 0 0,0 0.7488669484455482,0.38359873714389114 l -12.92317434435591 24.702488256979777" fill="#aeff20" stroke="none" /><path d="M 109.73455568895987 81.39251694778311 l 13.471028706305633 -25.74970510803996 a50.060556215549795,50.060556215549795 0 0,0 0.7600979201369521,0.406017985079189 l -13.912271672970896 25.51400839645902" fill="#a1ff22" stroke="none" /><path d="M 110.05341064243156 81.56283822128135 l 7.992610445495521 -14.657816840378876 a37.69531120583078,37.69531120583078 0 0,0 0.5670019411835676,0.315535966388679 l -8.243736475751124 14.518065476430017" fill="#ffc612" stroke="none" /><path d="M 110.36928655335952 81.73862282372117 l 16.185382811588127 -28.504119231723895 a53.77882593891954,53.77882593891954 0 0,0 0.80105678466059,0.46402379431316126 l -16.673636328714046 28.221291280020683" fill="#77ff27" stroke="none" /><line stroke="#e1ed5e" stroke-width="0.3" x1="143.23703022742887" x2="145.7803849466894" y1="26.81831364943548" y2="22.513508569990506" /><path d="M 143.74570117128098 25.957352633546492 a86.0,86.0 0 0,1 28.547481713284135,27.462654790039103" fill="none" id="id38" stroke="none" /><text fill="#e1ed5e" style="font-size:6.75px; font-family:Arial;" text-anchor="middle"><textPath startOffset="19.985693538727396" xlink:href="#id38">February</textPath></text><path d="M 110.68208982089419 81.91981866633111 l 9.12238355968232 -15.440269808602823 a38.93376183549938,38.93376183549938 0 0,0 0.5740652175770776,0.3458678703306287 l -9.386810843477035 15.28095532881358" fill="#ffd614" stroke="none" /><path d="M 110.99172775467656 82.1063720568725 l 9.909098830428984 -16.131197176707513 a39.931607485499626,39.931607485499626 0 0,0 0.5825847499307358,0.3648145169601991 l -10.185302732731984 15.95823831842437" fill="#ffe315" stroke="none" /><path d="M 111.2981086023043 82.29822771554956 l 8.777154290705516 -13.751964335682489 a37.314256358557486,37.314256358557486 0 0,0 0.5384500040467386,0.35022286059327873 l -9.012571320536535 13.598842550929682" fill="#ffc112" stroke="none" /><path d="M 111.60114157652 82.49532879139004 l 11.8717916208833 -17.913048264257988 a42.48992169383851,42.48992169383851 0 0,0 0.6061800511670312,0.40929547647742115 l -12.178376366456874 17.706040875481897" fill="#fbff18" stroke="none" /><path d="M 111.90073688211348 82.69761687909136 l 12.182971792603837 -17.71272212762504 a42.4980307672549,42.4980307672549 0 0,0 0.5991592161523857,0.41974932065777515 l -12.486062148339874 17.500387964203327" fill="#fbff18" stroke="none" /><path d="M 112.19680574252982 82.90503203632743 l 16.1134549610793 -22.584519435544994 a48.743538867946185,48.743538867946185 0 0,0 0.6788226780677146,0.4931935445906836 l -16.4998229555008 22.303806656137635" fill="#b0ff20" stroke="none" /><path d="M 112.48926042617603 83.11751280151076 l 22.568875946996872 -30.507711926712314 a58.9483154898106,58.9483154898106 0 0,0 0.8105501346260524,0.6104895569337759 l -23.09067223538131 30.114705780272693" fill="#41ff2d" stroke="none" /><path d="M 112.77801427241765 83.33499621200491 l 38.33404281725294 -49.995011363985284 a84.0,84.0 0 0,0 1.1398697793622787,0.8896864431071037 l -39.188945151774654 49.32774653165496" fill="#4dd2ff" stroke="none" /><path d="M 113.06298171725822 83.55741782278167 l 1.5902997901302096 -2.001735557134144 a23.556559927555647,23.556559927555647 0 0,0 0.315317568435609,0.25496487814121593 l -1.6245207571303097 1.9740645817287987" fill="#ff0000" stroke="none" /><path d="M 113.34407831869373 83.78471172551755 l 18.30249252290316 -22.24059131792376 a49.8032139651434,49.8032139651434 0 0,0 0.6572659707453298,0.5504413485417978 l -18.68261603060761 21.92224881198814" fill="#a4ff21" stroke="none" /><path d="M 113.6212207817346 84.01681056812373 l 14.579008616514853 -17.10706112033515 a43.476633031112485,43.476633031112485 0 0,0 0.5654160997502738,0.49032327000066966 l -14.871318514911891 16.85357285691481" fill="#eeff19" stroke="none" /><path d="M 113.89432698308785 84.25364557470407 l 13.980735436902393 -15.844280589028939 a42.13059844728818,42.13059844728818 0 0,0 0.5396508603964745,0.48450387076965684 l -14.251397284894857 15.601277709489985" fill="#ffff18" stroke="none" /><path d="M 114.16331599549186 84.49514656593476 l 15.041871220432709 -16.46662467469674 a43.3026370187342,43.3026370187342 0 0,0 0.5460093758787731,0.5074562086278566 l -15.32308848010633 16.20526387999424" fill="#f1ff19" stroke="none" /><path d="M 114.42810811169701 84.74124197986012 l 19.06623157258595 -20.163905875239642 a48.75075290014664,48.75075290014664 0 0,0 0.6047803817618427,0.5817982480880242 l -19.410495197960213 19.832724540389314" fill="#b0ff20" stroke="none" /><path d="M 114.68862486808459 84.99185889309783 l 19.58414729142934 -20.010154023795646 a48.99901943262343,48.99901943262343 0 0,0 0.597704505025895,0.5951377719314476 l -19.92568759662256 19.670080401214083" fill="#adff20" stroke="none" /><path d="M 114.94478906791727 85.2469230424477 l 14.310956666048723 -14.127375372842009 a41.10935641990333,41.10935641990333 0 0,0 0.49279495747884217,0.507868521581652 l -14.552015887230674 13.878942655710242" fill="#fff216" stroke="none" /><path d="M 115.19652480421416 85.50635884689758 l 17.20617686556584 -16.41034093776282 a44.77712791786988,44.77712791786988 0 0,0 0.5271604404574344,0.5623380026812265 l -17.486104627993736 16.11173351820354" fill="#dfff1b" stroke="none" /><path d="M 115.4437574822437 85.77008943001954 l 28.479442873756067 -26.241018459552986 a59.72556928173085,59.72556928173085 0 0,0 0.6901328192399782,0.762061896084725 l -28.92691933361208 25.74690377619871" fill="#39ff2e" stroke="none" /><path d="M 115.68641384162765 86.03803664274999 l 17.430844330573724 -15.514623819471218 a44.335335573683054,44.335335573683054 0 0,0 0.502484314168716,0.5744264342914865 l -17.695320508320286 15.212281828976785" fill="#e4ff1a" stroke="none" /><path d="M 115.9244219780498 86.31012108654704 l 24.885626719059296 -21.393631551519157 a53.81740221532646,53.81740221532646 0 0,0 0.5978585117395508,0.7076759036177664 l -25.250195844285965 20.962096698272283" fill="#77ff27" stroke="none" /><path d="M 116.15771136456269 86.58626213691792 l 26.7955030368967 -22.24497303712541 a55.825821001417566,55.825821001417566 0 0,0 0.607442108566495,0.7446522003391239 l -27.174443637539607 21.780436667178183" fill="#61ff29" stroke="none" /><path d="M 116.38621287248628 86.86637796730983 l 32.13360671322627 -25.755227788310464 a62.18131176672327,62.18131176672327 0 0,0 0.6622188876162947,0.8409507378917543 l -32.57217968143653 25.19828465646567" fill="#31ff41" stroke="none" /><path d="M 116.60985879189232 87.15038557335679 l 17.469053295408067 -13.514299071226555 a43.08628765601776,43.08628765601776 0 0,0 0.44876227413313663,0.5905185494367147 l -17.699091509765317 13.211595745908806" fill="#f3ff19" stroke="none" /><path d="M 116.82858285166822 87.43820079747576 l 16.40478302432781 -12.245451214102463 a41.471149980209645,41.471149980209645 0 0,0 0.4220921548964564,0.575733224922062 l -16.61313779173789 11.961255545508907" fill="#fff717" stroke="none" /><path d="M 117.04232023915458 87.72973835380427 l 14.833175863987332 -10.679704778519577 a39.27783357973013,39.27783357973013 0 0,0 0.39032324712061695,0.5520845522435407 l -15.014811730911832 10.422793725944244" fill="#ffdb14" stroke="none" /><path d="M 117.2510076193507 88.02491185347247 l 16.891903993410516 -11.725810094528548 a41.56285590319462,41.56285590319462 0 0,0 0.40291336184887067,0.591225641615693 l -17.09124182092812 11.43330642964245" fill="#fff817" stroke="none" /><path d="M 117.45458315368197 88.32363383020206 l 13.135086007906828 -8.786808172371439 a36.803116220959815,36.803116220959815 0 0,0 0.34770771845484566,0.5295827100621099 l -13.284390361719598 8.559407398331654" fill="#ffbb11" stroke="none" /><path d="M 117.65298651832404 88.62581576622439 l 8.849920117255886 -5.70218652596706 a31.527868599993578,31.527868599993578 0 0,0 0.29001496012868644,0.45873401968025973 l -8.946762673630529 5.549004858572594" fill="#ff730a" stroke="none" /><line stroke="#e1ed5e" stroke-width="0.3" x1="172.23445277983987" x2="176.4835382374775" y1="55.19839476539836" y2="52.563006222186495" /><path d="M 173.08426987136738 54.67131705675599 a86.0,86.0 0 0,1 12.851231095245387,41.99856678651699" fill="none" id="id39" stroke="none" /><text fill="#e1ed5e" style="font-size:6.75px; font-family:Arial;" text-anchor="middle"><textPath startOffset="22.20632615414155" xlink:href="#id39">March</textPath></text><path d="M 117.84615892207809 88.93136811851018 l 17.271017644152458 -10.711914948002647 a41.32321756803947,41.32321756803947 0 0,0 0.36971332119122774,0.6077114904659944 l -17.45284676362991 10.413035684329571" fill="#fff517" stroke="none" /><path d="M 118.03404312379186 89.2402003453031 l 10.796810512657066 -6.441789965149478 a33.57250075368153,33.57250075368153 0 0,0 0.29182548649629564,0.4988243530434764 l -10.906095673623689 6.254986199752106" fill="#ff8f0d" stroke="none" /><path d="M 118.21658344932153 89.55222093294921 l 18.791245299708155 -10.77736557089796 a42.66246773944697,42.66246773944697 0 0,0 0.3598728649357676,0.6401736710273627 l -18.973975805936355 10.452308389935803" fill="#f8ff18" stroke="none" /><path d="M 118.3937258080291 89.86733742301442 l 16.596102189227597 -9.14239482156518 a39.947664524913534,39.947664524913534 0 0,0 0.32660430733645274,0.6051481788966817 l -16.751014595782515 8.855365659336039" fill="#ffe315" stroke="none" /><path d="M 118.56541770881063 90.18545643968196 l 8.081199782928515 -4.2720981845479695 a30.140930632600924,30.140930632600924 0 0,0 0.2385303974720743,0.46076480521541224 l -8.153539613560705 4.132360657072213" fill="#ff6008" stroke="none" /><path d="M 118.73160827565052 90.50648371742162 l 9.219733518413808 -4.672726921792066 a31.33624027566133,31.33624027566133 0 0,0 0.23970729676052985,0.4832352831317117 l -9.298800828127744 4.513332050161404" fill="#ff710a" stroke="none" /><path d="M 118.89224826269711 90.83032412892265 l 17.17402840571933 -8.335708471080565 a40.09008348319354,40.09008348319354 0 0,0 0.29598280725090975,0.6234152770971787 l -17.314969406811997 8.038850778342846" fill="#ffe515" stroke="none" /><path d="M 119.04729006885535 91.15688171328212 l 25.0445498556736 -11.627476455218085 a48.61209311497358,48.61209311497358 0 0,0 0.34583495613995646,0.7620014836937903 l -25.240987128776904 11.194652962682232" fill="#b1ff20" stroke="none" /><path d="M 119.196687751892 91.48605970444005 l 6.752785184629904 -2.9949338465962336 a28.387133171619748,28.387133171619748 0 0,0 0.19426165512832214,0.44838268360763306 l -6.803337549600907 2.878252018401998" fill="#ff4706" stroke="none" /><path d="M 119.34039704204932 91.81776055985345 l 22.49763673237655 -9.517956129934532 a45.4281629975186,45.4281629975186 0 0,0 0.29848101420268963,0.7227954511934886 l -22.658139433465436 9.12928610828774" fill="#d7ff1c" stroke="none" /><path d="M 119.47837535516314 92.15188598940014 l 18.90158838047395 -7.615718348505283 a41.378155197873724,41.378155197873724 0 0,0 0.26049804815023575,0.662939118661966 l -19.02987997850589 7.2892302249475325" fill="#fff517" stroke="none" /><path d="M 119.61058180528143 92.48833698450437 l 20.075644760387128 -7.689801340734092 a42.498012866430585,42.498012866430585 0 0,0 0.25578827733884374,0.6853854133376068 l -20.205037626227597 7.343092790367152" fill="#fbff18" stroke="none" /><path d="M 119.7369772167798 92.82701384747503 l 11.087752270524383 -4.029608618663381 a32.79728765573362,32.79728765573362 0 0,0 0.18826723736634055,0.5322568323734815 l -11.155472588700533 3.8381541598632847" fill="#ff850c" stroke="none" /><path d="M 119.85752413597 93.16781622104841 l 8.475935642628853 -2.9162321351084026 a29.963587166075037,29.963587166075037 0 0,0 0.1636050472746487,0.4891582673077276 l -8.524877983675273 2.769900764878361" fill="#ff5d08" stroke="none" /><path d="M 119.97218684219823 93.5106431181261 l 6.826051706996503 -2.2179186471074157 a28.177335510603964,28.177335510603964 0 0,0 0.14591098660959873,0.462577701325127 l -6.863218177374308 2.1000907793558694" fill="#ff4406" stroke="none" /><path d="M 120.08093135843002 93.85539295169968 l 8.460596047668345 -2.588875843425481 a29.847822535205665,29.847822535205665 0 0,0 0.14610381622264676,0.49258943620509393 l -8.503905761002693 2.442857020473857" fill="#ff5c08" stroke="none" /><path d="M 120.18372546131832 94.20196356495316 l 12.2671243712991 -3.5238902844944717 a33.76323403679784,33.76323403679784 0 0,0 0.15565370110600418,0.5599691797636761 l -12.325964842971468 3.3122098013118437" fill="#ff920d" stroke="none" /><path d="M 120.28053869075195 94.5502522615342 l 2.780251487602394 -0.7471038855509576 a23.878882170239113,23.878882170239113 0 0,0 0.10325190913783518,0.39787172501259477 l -2.7926997286105317 0.6991357349895124" fill="#ff0500" stroke="none" /><path d="M 120.37134235888165 94.90015583598534 l 23.769742905366098 -5.950613489307376 a45.50327485636009,45.50327485636009 0 0,0 0.18367548516837662,0.7614534663041025 l -23.868651190795294 5.540574791343866" fill="#d6ff1c" stroke="none" /><path d="M 120.45610955862082 95.25157060432595 l 16.05185036252652 -3.726078895791807 a37.478639628276596,37.478639628276596 0 0,0 0.14046568125110648,0.6296801064964671 l -16.113610430779662 3.4492206197453763" fill="#ffc412" stroke="none" /><path d="M 120.53481517161879 95.60439243477599 l 18.747621187806814 -4.013047345903208 a40.17231987011389,40.17231987011389 0 0,0 0.13892105493788717,0.6774284006856007 l -18.8139215386597 3.6897432890541952" fill="#ffe615" stroke="none" /><path d="M 120.6074358757038 95.95851677861258 l 37.49903017138494 -7.354224085425055 a59.21337299549837,59.21337299549837 0 0,0 0.1875492685548124,1.0018956920327071 l -37.62006516384961 6.707650315929786" fill="#3eff2d" stroke="none" /><path d="M 120.67395015179393 96.31383870115 l 11.926063631924873 -2.1264148304918495 a33.11415014699986,33.11415014699986 0 0,0 0.09522389927224546,0.5620168438206636 l -11.96089939271734 1.9208121983553479" fill="#ff890c" stroke="none" /><path d="M 120.78858239683441 97.02765380044208 l 12.875297364714045 -1.8409067275320006 a34.006237726924915,34.006237726924915 0 0,0 0.077864569852424,0.5801814872831342 l -12.905077933624305 1.619006898184202" fill="#ff950d" stroke="none" /><path d="M 120.83666639777658 97.38593545837742 l 19.05776564594902 -2.390892500104728 a40.207154874238185,40.207154874238185 0 0,0 0.08024131750044532,0.6874586057970304 l -19.096097316453054 2.062490155982845" fill="#ffe715" stroke="none" /><path d="M 120.91429891909075 98.10471618934814 l 22.86711135473635 -2.072250478711691 a43.96081452728611,43.96081452728611 0 0,0 0.06180789241112269,0.7542128410662726 l -22.899393730966967 1.6783237204376495" fill="#e9ff1a" stroke="none" /><path d="M 120.94382443527127 98.46500227214037 l 27.976448267292696 -2.0504270677305576 a49.05148674870169,49.05148674870169 0 0,0 0.054469127682593696,0.8426132966431662 l -28.007597985979704 1.5685547068343562" fill="#acff20" stroke="none" /><path d="M 120.98425023603335 99.18683210126433 l 19.13356032099908 -0.7414511772663674 a40.14792104656743,40.14792104656743 0 0,0 0.020816325301222117,0.6907924949023327 l -19.143488340755948 0.4119885349390357" fill="#ffe615" stroke="none" /><line stroke="#e1ed5e" stroke-width="0.3" x1="184.98032266829074" x2="189.97916517819016" y1="98.17113171792111" y2="98.06355123074" /><path d="M 185.9800911702706 98.14961562048488 a86.0,86.0 0 0,1 -9.607161424134198,41.387399972396054" fill="none" id="id40" stroke="none" /><text fill="#e1ed5e" style="font-size:6.75px; font-family:Arial;" text-anchor="middle"><textPath startOffset="21.466115282336823" xlink:href="#id40">April</textPath></text><path d="M 120.99513854157772 99.54816195383933 l 13.264983654905334 -0.28547676811544465 a34.26805518341099,34.26805518341099 0 0,0 0.007615655696700467,0.5898409264564902 l -13.267932317719751 0.05709958359849175" fill="#ff990e" stroke="none" /><path d="M 120.99980553446 99.90962569577887 l 27.51701763135495 -0.11842163579055355 a48.51727244855715,48.51727244855715 0 0,0 -0.0035942120121019586,0.8351682920744246 l -27.514979122053344 -0.3552561344875557" fill="#b2ff20" stroke="none" /><path d="M 120.9904718944345 100.63252640178507 l 56.276968448138696 1.6958488849081734 a77.30251398608452,77.30251398608452 0 0,0 -0.05152715814501038,1.329686995942464 l -56.239439157142485 -2.6643131278646437" fill="#44ffeb" stroke="none" /><path d="M 120.9764740272857 100.99374915477107 l 59.78845020867133 2.8324456141987313 a80.85550539851923,80.85550539851923 0 0,0 -0.07782784833034039,1.389668513729498 l -59.73083600945346 -3.8611858442636526" fill="#49f0ff" stroke="none" /><path d="M 120.95626037817324 101.35467743843564 l 42.945539489333896 2.7761324004277736 a64.03517483564627,64.03517483564627 0 0,0 -0.08057284217564664,1.0993524160655475 l -42.891390088493914 -3.514957952990091" fill="#34ff58" stroke="none" /><path d="M 120.92983693683757 101.71520430193887 l 19.82308140911806 1.624505466201741 a40.88953429726904,40.88953429726904 0 0,0 -0.06352559830908461,0.700999683838019 l -19.7921812145319 -1.9654865385883307" fill="#ffef16" stroke="none" /><path d="M 120.89721153311464 102.0752229133903 l 11.87070223381494 1.1788344695946393 a32.929091425192595,32.929091425192595 0 0,0 -0.06086816870416304,0.5635636464383902 l -11.848651763609727 -1.382994437917821" fill="#ff870c" stroke="none" /><path d="M 120.8583938346157 102.4346265915055 l 16.375878332085367 1.91141988988571 a37.48705301570641,37.48705301570641 0 0,0 -0.080326705166199,0.6402828743248123 l -16.340550117672322 -2.1930205184979172" fill="#ffc412" stroke="none" /><path d="M 120.76222939487914 103.15116336523771 l 31.408948986157156 4.767056923579206 a52.76864662096368,52.76864662096368 0 0,0 -0.14402886900203637,0.8968679047619721 l -31.322238362793833 -5.307004058034384" fill="#82ff25" stroke="none" /><path d="M 120.70491114924044 103.5080841355445 l 24.015999307262266 4.069089964297922 a45.35827817937819,45.35827817937819 0 0,0 -0.13705448189763297,0.7686743191936816 l -23.94239838302544 -4.481883034224823" fill="#d8ff1c" stroke="none" /><path d="M 120.64145759157962 103.86396538481128 l 12.335551702851447 2.3091462689055313 a33.54982040926967,33.54982040926967 0 0,0 -0.11114586926320585,0.5667303928344818 l -12.293975900612578 -2.5211403888079578" fill="#ff8f0d" stroke="none" /><path d="M 120.5718875245553 104.21870165774334 l 21.43534903060557 4.395772744809306 a42.88143062251395,42.88143062251395 0 0,0 -0.1545078413773153,0.7218091966058565 l -21.35650715050381 -4.764095760831331" fill="#f6ff19" stroke="none" /><path d="M 120.49622156327973 104.57218783832717 l 12.25433050248326 2.7336307190723996 a33.55553077222735,33.55553077222735 0 0,0 -0.13061000453437063,0.5626644811526649 l -12.205459932018336 -2.9441638575736295" fill="#ff8f0d" stroke="none" /><path d="M 120.41448212921028 104.9243191809786 l 19.203647454239565 4.632245329816796 a40.754436776135414,40.754436776135414 0 0,0 -0.17037040196295072,0.6805450665918872 l -19.121065737981553 -4.96211823580608" fill="#ffee16" stroke="none" /><path d="M 120.32669344350535 105.2749913415812 l 12.17340101683832 3.1591259611353766 a33.57663584409916,33.57663584409916 0 0,0 -0.14999470469078935,0.5581860955541855 l -12.117218235805753 -3.36820298986511" fill="#ff8f0d" stroke="none" /><path d="M 120.13307415673323 105.97154293290107 l 26.351420609255296 7.815927080290212 a48.4861071134182,48.4861071134182 0 0,0 -0.24421581133331433,0.798111401669548 l -26.21297802541585 -8.268365454511818" fill="#b3ff20" stroke="none" /><path d="M 120.02730092923936 106.31721596034902 l 27.890560408629508 8.797525636579355 a50.24516741674909,50.24516741674909 0 0,0 -0.2672749785446121,0.8225878013656275 l -27.73499317906865 -9.276312337922777" fill="#9fff22" stroke="none" /><path d="M 119.79798401119884 107.00284435728193 l 29.4766993953832 10.42635138585281 a52.26634949057947,52.26634949057947 0 0,0 -0.3073155299003996,0.8456003515177073 l -29.292859604477574 -10.932199534376648" fill="#88ff25" stroke="none" /><path d="M 119.67450827220406 107.3425965602758 l 4.32537852768494 1.6142466718794548 a25.616783699225234,25.616783699225234 0 0,0 -0.15773317479645865,0.41179154620911035 l -4.2969510732949745 -1.688461784921709" fill="#ff1f03" stroke="none" /><path d="M 119.54520255179757 107.68017299344265 l 18.595285729348806 7.3069087355536 a40.97937853452486,40.97937853452486 0 0,0 -0.2636289004462398,0.6543053108588012 l -18.466754214645174 -7.625913414255215" fill="#fff016" stroke="none" /><path d="M 119.41010516605496 108.01547362559984 l 21.751611582613855 8.982407228768723 a44.533300789824146,44.533300789824146 0 0,0 -0.2986891295483098,0.7060128709096962 l -21.593771471873236 -9.355494625344583" fill="#e2ff1b" stroke="none" /><path d="M 119.26925614724726 108.34839909993367 l 19.721379075580955 8.544281214900497 a42.492732123256545,42.492732123256545 0 0,0 -0.296556606037575,0.6686568579571778 l -19.571381384812106 -8.882486409350363" fill="#fbff18" stroke="none" /><path d="M 119.12269723197855 108.67885076344098 l 11.487535768847538 5.213626894159778 a33.61528372380335,33.61528372380335 0 0,0 -0.24367140213779742,0.524846522179222 l -11.39608974986991 -5.410593483617831" fill="#ff900d" stroke="none" /><path d="M 118.97047184881838 109.00673069616215 l 13.419786207172075 6.371396627944118 a35.85548238317368,35.85548238317368 0 0,0 -0.2695081488901166,0.5552666123905041 l -13.308124801667244 -6.601452196299897" fill="#ffae10" stroke="none" /><path d="M 118.81262510543309 109.33194174019688 l 19.77085054529613 9.807266365477055 a43.069639889401316,43.069639889401316 0 0,0 -0.33516656393106337,0.6613154278961471 l -19.599105311578796 -10.146136005075896" fill="#f3ff19" stroke="none" /><path d="M 118.64920377521936 109.65438752849418 l 23.847344811032986 12.345380055166954 a47.853384577047564,47.853384577047564 0 0,0 -0.38498615701151295,0.7282487232444361 l -23.63130614579658 -12.754043793497525" fill="#baff1f" stroke="none" /><line stroke="#e1ed5e" stroke-width="0.3" x1="174.80103733775053" x2="179.2010983576182" y1="140.37084112569926" y2="142.7455964860345" /><path d="M 175.68104954172406 140.8457921977663 a86.0,86.0 0 0,1 -30.038265399797805,32.042727171017184" fill="none" id="id41" stroke="none" /><text fill="#e1ed5e" style="font-size:6.75px; font-family:Arial;" text-anchor="middle"><textPath startOffset="22.206326154141568" xlink:href="#id41">May</textPath></text><path d="M 118.48025628344425 109.97397251340804 l 21.791614349853116 11.761144391863112 a45.76285470980633,45.76285470980633 0 0,0 -0.38010102058253886,0.6899937601620258 l -21.585936919819066 -12.134508670422942" fill="#d3ff1c" stroke="none" /><path d="M 118.30583269289576 110.29060199501025 l 25.053235071141405 14.083646186966515 a49.74045367508185,49.74045367508185 0 0,0 -0.4259867287589766,0.7427437681195002 l -24.807096346230047 -14.51280980094433" fill="#a4ff21" stroke="none" /><path d="M 118.12598468904814 110.60418214915192 l 27.023149652634533 15.809259804432532 a52.307879402998985,52.307879402998985 0 0,0 -0.4613533151002957,0.7732546931011994 l -26.74701546183601 -16.272076591419836" fill="#87ff25" stroke="none" /><path d="M 117.94076556474637 110.91462005526583 l 35.19922056822102 21.41414296715168 a62.20134278913596,62.20134278913596 0 0,0 -0.564359774355456,0.9099276523251788 l -34.8253961541976 -22.016866950842132" fill="#31ff42" stroke="none" /><path d="M 117.75023020441432 111.22182372390056 l 26.15766432956892 16.537064294658197 a51.94669447071951,51.94669447071951 0 0,0 -0.4843290543335786,0.7516894478633976 l -25.86913041185829 -16.98487534244305" fill="#8bff24" stroke="none" /><path d="M 117.35343817320211 111.8261652097733 l 23.45530704366844 15.984517498828193 a49.38408406454411,49.38408406454411 0 0,0 -0.4847614423663776,0.6983350129455781 l -23.176684694139926 -16.38589377396079" fill="#a8ff21" stroke="none" /><path d="M 117.14729908036423 112.12312394758627 l 16.697655153267313 11.805226123857423 a41.44932887536508,41.44932887536508 0 0,0 -0.41690170718793024,0.579040008030294 l -16.491973653703777 -12.090899737338848" fill="#fff617" stroke="none" /><path d="M 116.93607887273984 112.41649034213515 l 17.613658502169265 12.91325001053629 a42.840169222459224,42.840169222459224 0 0,0 -0.44112875843964217,0.5909640601613276 l -17.38876847703453 -13.214526950206933" fill="#f6ff19" stroke="none" /><path d="M 116.71984013943494 112.70617746262583 l 27.604196958104712 20.977702079561166 a55.670674557046944,55.670674557046944 0 0,0 -0.5863796996614434,0.757974806591389 l -27.2390104412252 -21.449754880265807" fill="#63ff29" stroke="none" /><path d="M 116.498646956653 112.99209946851258 l 15.893013709216154 12.515184760730133 a41.2291308354201,41.2291308354201 0 0,0 -0.4438651420683514,0.5537900121158433 l -15.675230655092948 -12.786902606424226" fill="#fff417" stroke="none" /><path d="M 116.27256486870786 113.27417163493432 l 18.2252868939109 14.867083848036476 a44.52001837817963,44.52001837817963 0 0,0 -0.4895166823016495,0.5896543783323198 l -17.96667421171571 -15.178599483482566" fill="#e2ff1b" stroke="none" /><path d="M 115.80600337817218 113.82643327865902 l 16.626405046840834 14.544086480556507 a43.089993126651734,43.089993126651734 0 0,0 -0.4931570722240321,0.5540671985659281 l -16.37358912496846 -14.828127848863302" fill="#f3ff19" stroke="none" /><path d="M 115.56566222782051 114.09645910891815 l 23.907700276188418 21.65111348293401 a53.254439191326,53.254439191326 0 0,0 -0.6211841033375572,0.6741726588225064 l -23.53146976485514 -22.05943739655785" fill="#7dff26" stroke="none" /><path d="M 115.32070863581623 114.36230785411682 l 17.81352324788385 16.69918219412338 a45.416885478197784,45.416885478197784 0 0,0 -0.5395816849324854,0.5657492394325627 l -17.5234350115724 -17.00333855013845" fill="#d7ff1c" stroke="none" /><path d="M 115.07121518719521 114.62390073753431 l 20.750346568759166 20.13447520467943 a49.91321453058214,49.91321453058214 0 0,0 -0.6036156554121713,0.611459472094032 l -20.40069028829146 -20.488675170754128" fill="#a2ff22" stroke="none" /><path d="M 114.81725581225074 114.88116024355365 l 14.453163994834705 14.515498156930633 a41.48398487124619,41.48398487124619 0 0,0 -0.5103518793870612,0.4994867288121991 l -14.20116216307185 -14.762134988665405" fill="#fff717" stroke="none" /><path d="M 114.55890576462653 115.13401014063108 l 20.137433208275574 20.93289999312949 a50.04655777093252,50.04655777093252 0 0,0 -0.6259732065959159,0.5918967381139945 l -19.774124167288853 -21.276431367989407" fill="#a1ff22" stroke="none" /><path d="M 114.29624159901734 115.38237550388516 l 13.962025374164584 15.022767740224438 a41.50906392611676,41.50906392611676 0 0,0 -0.5275613268137765,0.481914763686057 l -13.701364497883944 -15.260875270497078" fill="#fff717" stroke="none" /><path d="M 114.0293411484842 115.62618273729858 l 16.303141447587084 18.158790548731307 a45.40356726490464,45.40356726490464 0 0,0 -0.5860468624986918,0.517118217654783 l -15.988152232181802 -18.43673190815838" fill="#d7ff1c" stroke="none" /><path d="M 113.75828350139079 115.86535959552629 l 15.95135027386512 18.39429374336444 a45.347394478192385,45.347394478192385 0 0,0 -0.5941254175347667,0.5063265700987968 l -15.632359379753307 -18.666144703686186" fill="#d8ff1c" stroke="none" /><path d="M 113.48314897796784 116.09983520530334 l 13.288954204342451 15.867952886253924 a41.697541705368906,41.697541705368906 0 0,0 -0.5542394979153334,0.45610137435141007 l -13.013844577882425 -16.094349379462514" fill="#fff917" stroke="none" /><path d="M 113.20401910651253 116.32954008644616 l 18.332323320678118 22.671764265704113 a50.15618241906057,50.15618241906057 0 0,0 -0.676015791791277,0.5370678299532887 l -17.93935003616949 -22.983966009662527" fill="#a0ff22" stroke="none" /><path d="M 112.92097659922987 116.55440617244103 l 7.71788933689819 9.888190253713434 a33.54360882323106,33.54360882323106 0 0,0 -0.45822370066843604,0.3513463940115759 l -7.54653690773626 -10.019575989552381" fill="#ff8f0d" stroke="none" /><path d="M 112.63410532772338 116.77436683061366 l 11.760216020668919 15.614099488713665 a40.54744954453768,40.54744954453768 0 0,0 -0.5611284880398851,0.4151094407643707 l -11.48970256221047 -15.814218878217805" fill="#ffeb16" stroke="none" /><path d="M 112.34349029814194 116.9893568818739 l 14.917192117607755 20.531753534870408 a46.378643066371424,46.378643066371424 0 0,0 -0.6499032012325676,0.463688678079214 l -14.561561588526303 -20.78548647479384" fill="#cbff1d" stroke="none" /><path d="M 112.04921762599082 117.19931262002967 l 14.54326894364096 20.759375159703016 a46.346761698259726,46.346761698259726 0 0,0 -0.657336375802405,0.45212195318997983 l -14.183775683215673 -21.00663790225809" fill="#ccff1d" stroke="none" /><path d="M 111.7513745106137 117.40417183066458 l 10.025423277599034 14.84798133536515 a38.91568200293744,38.91568200293744 0 0,0 -0.5583942668226133,0.37007327174131294 l -9.768354312036456 -15.01835262819778" fill="#ffd614" stroke="none" /><path d="M 111.45004920935366 117.60387380957326 l 11.125829861756845 17.105402896709922 a41.40536445083823,41.40536445083823 0 0,0 -0.6008080019547386,0.3834640930942682 l -10.829740057755176 -17.294381418628" fill="#fff617" stroke="none" /><path d="M 111.1453310114006 117.79835938074945 l 17.566899922144998 28.053181883981118 a54.099501305765685,54.099501305765685 0 0,0 -0.7935129369269074,0.4874404564706707 l -17.081407785285784 -28.351410807280168" fill="#74ff27" stroke="none" /><line stroke="#e1ed5e" stroke-width="0.3" x1="143.8653032363475" x2="146.44561519142675" y1="172.8068346515853" y2="177.08958963109032" /><path d="M 144.38136562736335 173.6633856474863 a86.0,86.0 0 0,1 -40.68145358897372,12.25698825130547" fill="none" id="id42" stroke="none" /><text fill="#e1ed5e" style="font-size:6.75px; font-family:Arial;" text-anchor="middle"><textPath startOffset="21.466115282336833" xlink:href="#id42">June</textPath></text><path d="M 110.8373102113329 117.98757091392108 l 12.93754405303983 21.473500948849335 a46.069728541102705,46.069728541102705 0 0,0 -0.6827799854758049,0.4033984503893982 l -12.565996196535643 -21.693017971532484" fill="#cfff1d" stroke="none" /><path d="M 110.21172684928248 118.3499491758327 l 8.308775940544901 14.930444034849327 a38.08665902708735,38.08665902708735 0 0,0 -0.5756112736825967,0.31386916132740905 l -8.050541854993655 -15.071253847936505" fill="#ffcb13" stroke="none" /><path d="M 109.89434966115114 118.52300852407294 l 7.773235648457649 14.55211460146205 a37.498097824311074,37.498097824311074 0 0,0 -0.5719515176703933,0.29921800194703135 l -7.52159322826076 -14.683762022353797" fill="#ffc412" stroke="none" /><path d="M 109.57404056367764 118.69057910512821 l 9.896017943581079 19.319147957445207 a42.70623525490632,42.70623525490632 0 0,0 -0.6571596685811288,0.329513500237512 l -9.562004367317188 -19.48662929859202" fill="#f8ff18" stroke="none" /><path d="M 109.2508944713604 118.85261126421891 l 3.5249168099901222 7.183509288013957 a29.00174007377981,29.00174007377981 0 0,0 -0.4500618902854684,0.21605705755305643 l -3.4007422517044215 -7.243120622066574" fill="#ff5007" stroke="none" /><path d="M 108.92500713936063 119.00905698771935 l 13.465297237019554 28.679260255854683 a52.683026978247085,52.683026978247085 0 0,0 -0.8241933543906013,0.3783467448694495 l -12.969635886861532 -28.906794071058208" fill="#83ff25" stroke="none" /><path d="M 108.59647513512805 119.15986991738527 l 8.298817086777685 18.496448061728294 a41.27286254923082,41.27286254923082 0 0,0 -0.6506948327496477,0.2852454925190092 l -7.979201579370283 -18.636558107541756" fill="#fff417" stroke="none" /><path d="M 108.2653958097858 119.30500536409082 l 8.677419587613556 20.267345392826105 a43.04683423921922,43.04683423921922 0 0,0 -0.6836832284315003,0.28577964493271873 l -8.327264899684595 -20.4137100807788" fill="#f4ff19" stroke="none" /><path d="M 107.93186726928326 119.44442032107085 l 8.304560508251319 20.358051846068744 a42.986723271156855,42.986723271156855 0 0,0 -0.6875397312762968,0.2735862482777707 l -7.9528997009331555 -20.497984938752584" fill="#f4ff19" stroke="none" /><path d="M 107.59598834532513 119.57807347666477 l 9.986391169033235 25.739152192667085 a48.60854875175846,48.60854875175846 0 0,0 -0.7826665646950243,0.29593752465187917 l -9.541854383577935 -25.907237967425594" fill="#b1ff20" stroke="none" /><path d="M 107.2578585660854 119.70592522655815 l 4.499415687925468 12.216433856093223 a34.018678799826446,34.018678799826446 0 0,0 -0.5512329032762319,0.1976525071875525 l -4.288463224019501 -12.292073904320736" fill="#ff950d" stroke="none" /><path d="M 106.91757812671514 119.82793768551818 l 12.451483776309622 35.68983824778919 a58.79952383807312,58.79952383807312 0 0,0 -0.9585169856500696,0.32518100335078215 l -11.835297057722325 -35.8988822380381" fill="#43ff2d" stroke="none" /><path d="M 106.57524785965236 119.94407469862006 l 5.6092683540768835 17.01406083028323 a38.914858565018775,38.914858565018775 0 0,0 -0.6379788172733791,0.20426067058391217 l -5.315568191712564 -17.10809434752685" fill="#ffd614" stroke="none" /><path d="M 106.2309692047433 120.05430185196036 l 6.39428779743754 20.579940841386637 a42.550426480035895,42.550426480035895 0 0,0 -0.7013222596657555,0.21130264380307162 l -6.039090563331539 -20.686958854295433" fill="#faff18" stroke="none" /><path d="M 105.88484417918355 120.15858648285463 l 6.626611672901481 22.69951768119908 a44.64698892507255,44.64698892507255 0 0,0 -0.7395855183338853,0.20901425500122187 l -6.23489498646299 -22.81022072953882" fill="#e0ff1b" stroke="none" /><line stroke="#e1ed5e" stroke-width="0.3" x1="102.19456741930631" x2="102.32365962044197" y1="184.97166512339345" y2="189.96999836594603" /><path d="M 102.22038585953345 185.97133177190398 a86.0,86.0 0 0,1 -42.740103519485714,-10.115201625700543" fill="none" id="id43" stroke="none" /><text fill="#e1ed5e" style="font-size:6.75px; font-family:Arial;" text-anchor="middle"><textPath startOffset="22.20632615414155" xlink:href="#id43">July</textPath></text><line stroke="#e1ed5e" stroke-width="0.3" x1="58.666819895761336" x2="56.23545636021788" y1="174.27360380694188" y2="178.64263932499728" /><path d="M 58.180547188652646 175.14741091055294 a86.0,86.0 0 0,1 -31.652253787137756,-30.449443065178592" fill="none" id="id44" stroke="none" /><text fill="#e1ed5e" style="font-size:6.75px; font-family:Arial;" text-anchor="middle"><textPath startOffset="22.20632615414155" xlink:href="#id44">August</textPath></text><line stroke="#e1ed5e" stroke-width="0.3" x1="26.63291911575756" x2="22.317208475507996" y1="142.92168965132927" y2="145.44649492493687" /><path d="M 25.769776987707644 143.4266507060508 a86.0,86.0 0 0,1 -11.730757126820373,-40.83630448921669" fill="none" id="id45" stroke="none" /><text fill="#e1ed5e" style="font-size:6.75px; font-family:Arial;" text-anchor="middle"><textPath startOffset="21.46611528233685" xlink:href="#id45">September</textPath></text><line stroke="#e1ed5e" stroke-width="0.3" x1="15.007084014347285" x2="10.007500721073583" y1="101.09737516637583" y2="101.16192664675087" /><path d="M 14.007167355692545 101.11028546245083 a86.0,86.0 0 0,1 10.666146001902534,-42.60595125391555" fill="none" id="id46" stroke="none" /><text fill="#e1ed5e" style="font-size:6.75px; font-family:Arial;" text-anchor="middle"><textPath startOffset="22.20632615414155" xlink:href="#id46">October</textPath></text><line stroke="#e1ed5e" stroke-width="0.3" x1="26.266209847984243" x2="21.928928074336255" y1="57.711370442889674" y2="55.22380399835377" /><path d="M 25.398753493254645 57.213857153982495 a86.0,86.0 0 0,1 29.58750427330803,-30.492523968695096" fill="none" id="id47" stroke="none" /><text fill="#e1ed5e" style="font-size:6.75px; font-family:Arial;" text-anchor="middle"><textPath startOffset="21.46611528233685" xlink:href="#id47">November</textPath></text><line stroke="#e1ed5e" stroke-width="0.3" x1="56.762969772571076" x2="54.21961505331055" y1="26.818313649435495" y2="22.513508569990535" /><path d="M 56.25429882871897 25.957352633546506 a86.0,86.0 0 0,1 42.265352541879196,-11.944610805530505" fill="none" id="id48" stroke="none" /><text fill="#e1ed5e" style="font-size:6.75px; font-family:Arial;" text-anchor="middle"><textPath startOffset="22.20632615414155" xlink:href="#id48">December</textPath></text></svg>