<?xml version="1.0" encoding="utf-8" ?>
<svg baseProfile="full" height="200mm" version="1.1" viewBox="0,0,200,200" width="200mm" xmlns="http://www.w3.org/2000/svg" xmlns:ev="http://www.w3.org/2001/xml-events" xmlns:xlink="http://www.w3.org/1999/xlink"><defs /><rect fill="#1a1a1a" height="200" width="200" x="0" y="0" /><text alignment-baseline="middle" fill="#e1ed5e" style="dominant-baseline: central; font-size:9.0px; font-family:Arial;" text-anchor="middle" x="100.0" y="100.0">2025</text><line stroke="#e1ed5e" stroke-width="0.3" x1="100.0" x2="100.0" y1="15.0" y2="10.0" /><path d="M 100.0 14.0 a86.0,86.0 0 0,1 42.46469731375804,11.215312516191453" fill="none" id="id25" stroke="none" /><text fill="#e1ed5e" style="font-size:6.75px; font-family:Arial;" text-anchor="middle"><textPath startOffset="22.20632615414155" xlink:href="#id25">January</textPath></text><path d="M 100.0 79.0 l 0.0 -35.56106025021584 a56.56106025021584,56.56106025021584 0 0,0 0.9736056746385893,0.008380131419895733 l -0.6121251953660609 35.5557914954045" fill="#5eff29" stroke="none" /><path d="M 100.36148047927253 79.00311137660856 l 0.19807382464355816 -11.50527974185417 a32.50698462579702,32.50698462579702 0 0,0 0.5593884958996652,0.01444735449227062 l -0.39608895573809116 11.500165595219542" fill="#ff750a" stroke="none" /><path d="M 100.72285384407766 79.0124445844662 l 0.5152588888729559 -14.960181193151016 a35.969051842200024,35.969051842200024 0 0,0 0.6185977534797115,0.026638120519776706 l -0.7726974747419989 14.949095346107043" fill="#ffa50f" stroke="none" /><path d="M 101.08401301168833 79.027996857942 l 2.7740063499595196 -53.66768595962807 a74.7393303595316,74.7393303595316 0 0,0 1.2842279446682274,0.07746813669678025 l -3.697396343467359 53.61198455355099" fill="#41ffcf" stroke="none" /><path d="M 101.44485096284872 79.0497635885617 l 1.0296281459570447 -14.929535037399955 a35.964997512592504,35.964997512592504 0 0,0 0.6172446639570159,0.04791006551463338 l -1.2864629992764016 14.909599709696858" fill="#ffa50f" stroke="none" /><path d="M 101.80526077348638 79.07773832637324 l 1.9975319729844803 -23.150609182907974 a44.23662711158481,44.23662711158481 0 0,0 0.7580785980827544,0.07198869733445312 l -2.3957356981574787 23.112794941058343" fill="#edff1a" stroke="none" /><path d="M 102.16513564639614 79.11191278185805 l 1.2099730631330916 -11.67318219363992 a32.73572398019908,32.73572398019908 0 0,0 0.5599886684953644,0.06292125171001545 l -1.4107284351381815 11.650624988459304" fill="#ff780b" stroke="none" /><path d="M 102.52436894288641 79.15227682838746 l 3.086140175462426 -25.48716035670527 a46.6733247599724,46.6733247599724 0 0,0 0.7967475951438179,0.1034407046587587 l -3.5244024991140894 25.430261328882377" fill="#cfff1d" stroke="none" /><path d="M 102.88285421437855 79.19881850522331 l 2.2000642583334162 -15.874523140820598 a37.02625245306103,37.02625245306103 0 0,0 0.6305588769378192,0.09292798738689383 l -2.472992115699891 15.834300669272734" fill="#ffb410" stroke="none" /><path d="M 103.2404852339499 79.25152402106235 l 2.8300623000421012 -18.120582385665127 a39.34024968798944,39.34024968798944 0 0,0 0.6681675279480982,0.1102533671917354 l -3.1415590341290747 18.069182755533767" fill="#ffd213" stroke="none" /><path d="M 103.59715602781102 79.31037775812273 l 6.2683038196385885 -36.053158974190545 a57.59401460339589,57.59401460339589 0 0,0 0.9752720280113503,0.17822472933715322 l -6.88797096875284 35.939918763502654" fill="#53ff2b" stroke="none" /><path d="M 103.95276090670814 79.375362276772 l 5.381977054758506 -28.08197348864243 a49.5930570599711,49.5930570599711 0 0,0 0.8370212037746326,0.16789857919053425 l -5.8645646680002645 27.985170953374688" fill="#acff20" stroke="none" /><path d="M 104.307194497241 79.44645832069477 l 1.4754232358289883 -7.04058592934483 a28.19351958038014,28.19351958038014 0 0,0 0.4741307891205343,0.1036266263226249 l -1.5963967491030504 7.014145804926334" fill="#ff3705" stroke="none" /><path d="M 104.66035177308747 79.52364482259891 l 5.61646598917269 -24.677268591658887 a46.308343986764676,46.308343986764676 0 0,0 0.7757227862159654,0.18358852089928493 l -6.0404124623511795 24.576934158618734" fill="#d4ff1c" stroke="none" /><path d="M 105.01212808612495 79.60689891045804 l 7.127054411702709 -28.998209660856613 a50.86119669608652,50.86119669608652 0 0,0 0.8483916720705562,0.2162739274393526 l -7.62515497245829 28.87123273724839" fill="#9eff22" stroke="none" /><path d="M 105.36241919743992 79.69619591428918 l 6.211389932414665 -23.518274055842646 a45.32469073715478,45.32469073715478 0 0,0 0.7526102538251616,0.20571681238746045 l -6.615298075463538 23.40787070262889" fill="#e0ff1b" stroke="none" /><path d="M 105.71112130821622 79.79150937346287 l 8.31305424508009 -29.41528812352721 a51.5674016931725,51.5674016931725 0 0,0 0.8521139444817316,0.24875542689708824 l -8.81815840728525 29.267834367711416" fill="#96ff23" stroke="none" /><path d="M 106.0581310904928 79.89281104454417 l 15.662556121515454 -51.98467493629708 a75.29292856801975,75.29292856801975 0 0,0 1.237724774910831,0.38456711250027675 l -16.555066269137004 51.70736768891428" fill="#42ffd5" stroke="none" /><path d="M 106.40334571778207 80.00007090966166 l 2.6532693025714194 -8.28710493666428 a29.70149103448675,29.70149103448675 0 0,0 0.4855729560548634,0.16008576924482099 l -2.7955250808687 8.240205443160221" fill="#ff4d07" stroke="none" /><path d="M 106.74666289553966 80.11325718540242 l 6.1132159245636055 -18.019568302763773 a40.02830131037206,40.02830131037206 0 0,0 0.6505895040003632,0.2269779032859483 l -6.422487432627243 17.911669546305617" fill="#ffdb14" stroke="none" /><path d="M 107.08798089147638 80.2323363322302 l 7.119544451477245 -19.85569125246671 a42.093515314187044,42.093515314187044 0 0,0 0.6799459221397602,0.25042982142375986 l -7.460272699389582 19.730198163236626" fill="#fff617" stroke="none" /><path d="M 107.4271985657038 80.35727306442388 l 8.624724145491514 -22.809825237048344 a45.38593844678756,45.38593844678756 0 0,0 0.7283726347074415,0.2825972663186675 l -9.016079945198623 22.657985266839127" fill="#dfff1b" stroke="none" /><path d="M 107.76421540070413 80.48803036053334 l 9.339692314647609 -23.4712438386031 a46.26121809936036,46.26121809936036 0 0,0 0.7373512338259787,0.3007840820645155 l -9.742327418061976 23.306998870355006" fill="#d4ff1c" stroke="none" /><path d="M 108.09893153111575 80.62456947434976 l 6.737510420476635 -16.11844285462251 a38.46992406176291,38.46992406176291 0 0,0 0.6087705048712849,0.2606437597496771 l -7.013964683138235 16.000079566910042" fill="#ffc712" stroke="none" /><path d="M 108.43124777332544 80.76684994638697 l 19.299751507396177 -44.02610701509357 a69.07055759143753,69.07055759143753 0 0,0 1.0847954752917228,0.4867161087342771 l -20.05472910115468 43.68737057584277" fill="#3aff90" stroke="none" /><path d="M 108.76106565485865 80.91482961587045 l 6.2415432676695595 -13.596624134111934 a35.96078374305659,35.96078374305659 0 0,0 0.560340570451015,0.26308741117350476 l -6.474662049420172 13.487171740298425" fill="#ffa50f" stroke="none" /><path d="M 109.08828744355905 81.06846463323043 l 2.7068335604681484 -5.638522725013385 a27.254589230682463,27.254589230682463 0 0,0 0.4211855862468814,0.20667393798242675 l -2.8034904137254615 5.591093626896126" fill="#ff2904" stroke="none" /><path d="M 109.41281617654863 81.2277094730956 l 12.022835451991229 -23.977538265779756 a47.82295497503192,47.82295497503192 0 0,0 0.7326921055110317,0.37531335435852375 l -12.433788045091017 23.76703238610873" fill="#c1ff1e" stroke="none" /><path d="M 109.73455568895987 81.39251694778311 l 11.38049800653445 -21.75368147747529 a45.550731001340594,45.550731001340594 0 0,0 0.6916226768587557,0.3694408815678266 l -11.753265729921518 21.55456186940571" fill="#ddff1b" stroke="none" /><path d="M 110.05341064243156 81.56283822128135 l 11.77712408488358 -21.598316209684327 a45.600567367527475,45.600567367527475 0 0,0 0.6859105121928463,0.3817084574157643 l -12.147158686148462 21.392392354708385" fill="#dcff1b" stroke="none" /><path d="M 110.36928655335952 81.73862282372117 l 17.389147476659893 -30.624072274513562 a56.216704170601446,56.216704170601446 0 0,0 0.837369940694959,0.48505871814030693 l -17.91371414982018 30.320209398983202" fill="#62ff29" stroke="none" /><line stroke="#e1ed5e" stroke-width="0.3" x1="143.23703022742887" x2="145.7803849466894" y1="26.81831364943548" y2="22.513508569990506" /><path d="M 143.74570117128098 25.957352633546492 a86.0,86.0 0 0,1 28.547481713284135,27.462654790039103" fill="none" id="id26" stroke="none" /><text fill="#e1ed5e" style="font-size:6.75px; font-family:Arial;" text-anchor="middle"><textPath startOffset="19.985693538727396" xlink:href="#id26">February</textPath></text><path d="M 110.68208982089419 81.91981866633111 l 13.219874585117335 -22.37555887610707 a46.98904998387523,46.98904998387523 0 0,0 0.6928377308287277,0.41742698061002653 l -13.6030743821637 22.14468528603843" fill="#cbff1d" stroke="none" /><path d="M 110.99172775467656 82.1063720568725 l 30.104394089752528 -49.00747537766589 a78.5152778520947,78.5152778520947 0 0,0 1.145503684764383,0.7173143023107466 l -30.943516926889174 48.4820167340322" fill="#46fff6" stroke="none" /><path d="M 111.2981086023043 82.29822771554956 l 11.531204198071109 -18.066984312588577 a42.43325902444457,42.43325902444457 0 0,0 0.6123179375163558,0.39826861929216384 l -11.840489161371744 17.865816769136885" fill="#fffa17" stroke="none" /><path d="M 111.60114157652 82.49532879139004 l 4.188171693753681 -6.31942709954901 a28.581288874780725,28.581288874780725 0 0,0 0.40775333212832554,0.2753168700246994 l -4.296329720288548 6.2463983172256405" fill="#ff3d05" stroke="none" /><path d="M 111.90073688211348 82.69761687909136 l 7.096692292770041 -10.317822346384014 a33.5227991866756,33.5227991866756 0 0,0 0.4726217596745313,0.33110174591892055 l -7.273245192028224 10.194135757701158" fill="#ff830c" stroke="none" /><path d="M 112.48926042617603 83.11751280151076 l 14.515830467996931 -19.62192425243806 a45.40756533421646,45.40756533421646 0 0,0 0.6243623399391676,0.47025677005340255 l -14.85143896169448 19.36915089287881" fill="#dfff1b" stroke="none" /><path d="M 112.77801427241765 83.33499621200491 l 14.828806629474974 -19.339633951190667 a45.37037027663732,45.37037027663732 0 0,0 0.6156704042478032,0.4805405161175442 l -15.159509588882207 19.081515045849898" fill="#dfff1b" stroke="none" /><path d="M 113.06298171725822 83.55741782278167 l 15.742193821119049 -19.814948926360184 a46.30709124447022,46.30709124447022 0 0,0 0.6198459986278375,0.5012056901572233 l -16.080943218311376 19.54103713893883" fill="#d4ff1c" stroke="none" /><path d="M 113.34407831869373 83.78471172551755 l 9.612647478367414 -11.68097535251599 a36.12772873664284,36.12772873664284 0 0,0 0.47678703457838434,0.39929542979832644 l -9.812292049904917 11.513778765323844" fill="#ffa70f" stroke="none" /><path d="M 113.6212207817346 84.01681056812373 l 13.77724324244836 -16.16626674815906 a42.24054170529138,42.24054170529138 0 0,0 0.5493406613445267,0.4763828082252064 l -14.053477702439652 15.926718946514184" fill="#fff817" stroke="none" /><path d="M 113.89432698308785 84.25364557470407 l 12.960003454085891 -14.687491376120137 a40.58785573904203,40.58785573904203 0 0,0 0.519889868135302,0.46676225680511474 l -13.210904309817185 14.462230110545725" fill="#ffe315" stroke="none" /><path d="M 114.16331599549186 84.49514656593476 l 17.550792349602407 -19.213188713639845 a47.022623477366764,47.022623477366764 0 0,0 0.592915237147146,0.5510500946913762 l -17.8789154705444 18.90823403287383" fill="#cbff1d" stroke="none" /><path d="M 114.42810811169701 84.74124197986012 l 4.065579329904521 -4.299641417047782 a26.91741933641174,26.91741933641174 0 0,0 0.3339256559926838,0.3212362164960113 l -4.138988229509623 4.229022113789469" fill="#ff2403" stroke="none" /><path d="M 114.68862486808459 84.99185889309783 l 26.639153180226188 -27.218624853434044 a59.08540430495037,59.08540430495037 0 0,0 0.7207412055032308,0.7176461137159992 l -27.10373018589674 26.756042889067928" fill="#44ff2d" stroke="none" /><path d="M 114.94478906791727 85.2469230424477 l 4.055332550819267 -4.003310648200492 a26.698439983340155,26.698439983340155 0 0,0 0.3200453070087851,0.32983482164927835 l -4.1236421215311605 3.9329116310010996" fill="#ff2103" stroke="none" /><path d="M 115.19652480421416 85.50635884689758 l 24.375363536009 -23.247931788283697 a54.684190356089736,54.684190356089736 0 0,0 0.6437961346482405,0.6867568290553808 l -24.771926992627705 22.824905542350262" fill="#73ff27" stroke="none" /><path d="M 115.4437574822437 85.77008943001954 l 14.783615539040845 -13.62165439747387 a41.102356999376696,41.102356999376696 0 0,0 0.4749403957889883,0.524441047363568 l -15.01589957544587 13.365160562840753" fill="#ffe915" stroke="none" /><path d="M 115.68641384162765 86.03803664274999 l 9.861152610401767 -8.777089065526892 a34.20150079611501,34.20150079611501 0 0,0 0.38763026034876547,0.4431283962445425 l -10.01077473432838 8.606045113079402" fill="#ff8d0d" stroke="none" /><path d="M 115.9244219780498 86.31012108654704 l 9.947792269745424 -8.55190045935194 a34.11844398199233,34.11844398199233 0 0,0 0.37902242215872134,0.4486429980098976 l -10.093525305391264 8.379398511712935" fill="#ff8c0c" stroke="none" /><path d="M 116.15771136456269 86.58626213691792 l 11.12969468818495 -9.239601059521117 a35.4651419485367,35.4651419485367 0 0,0 0.3858970673316592,0.4730641755657587 l -11.287090247593017 9.046652714347257" fill="#ff9e0e" stroke="none" /><path d="M 116.38621287248628 86.86637796730983 l 37.99738940309837 -30.45507552798689 a69.69613153902554,69.69613153902554 0 0,0 0.7422502579566375,0.942582450911085 l -38.51599374164897 29.796500683122765" fill="#3aff97" stroke="none" /><path d="M 116.60985879189232 87.15038557335679 l 16.24352613589 -12.566214462772615 a41.536842192794325,41.536842192794325 0 0,0 0.43262413117515763,0.5692826449958686 l -16.45742620728927 12.284747041895713" fill="#ffef16" stroke="none" /><path d="M 116.82858285166822 87.43820079747576 l 20.55880052069801 -15.34624313063643 a46.65485250541228,46.65485250541228 0 0,0 0.47485172800328157,0.6476972233473708 l -20.81991486121492 14.990083463617568" fill="#cfff1d" stroke="none" /><path d="M 117.04232023915458 87.72973835380427 l 10.164311853379042 -7.318179927633873 a33.52473524294885,33.52473524294885 0 0,0 0.333151865219973,0.47121968700529926 l -10.288776338402897 7.142133740296781" fill="#ff830c" stroke="none" /><path d="M 117.2510076193507 88.02491185347247 l 16.102826917269407 -11.178058464612471 a40.602296441127265,40.602296441127265 0 0,0 0.39360162824185563,0.5775618215549752 l -16.292853011179997 10.89921861978709" fill="#ffe315" stroke="none" /><path d="M 117.45458315368197 88.32363383020206 l 15.457359950896919 -10.340309660558672 a39.597096024052654,39.597096024052654 0 0,0 0.37410462291558955,0.5697870065433418 l -15.633061209170434 10.072704590037658" fill="#ffd614" stroke="none" /><path d="M 117.65298651832404 88.62581576622439 l 18.4935471794091 -11.915774848424387 a42.999931307060336,42.999931307060336 0 0,0 0.3955428615163633,0.6256538170952302 l -18.69591763717142 11.595673383614951" fill="#fdff18" stroke="none" /><line stroke="#e1ed5e" stroke-width="0.3" x1="172.23445277983987" x2="176.4835382374775" y1="55.19839476539836" y2="52.563006222186495" /><path d="M 173.08426987136738 54.67131705675599 a86.0,86.0 0 0,1 12.851231095245387,41.99856678651699" fill="none" id="id27" stroke="none" /><text fill="#e1ed5e" style="font-size:6.75px; font-family:Arial;" text-anchor="middle"><textPath startOffset="22.20632615414155" xlink:href="#id27">March</textPath></text><path d="M 117.84615892207809 88.93136811851018 l 29.03723705117478 -18.009617037389077 a55.16880801841838,55.16880801841838 0 0,0 0.4935879740019574,0.8113288490399604 l -29.34294082346296 17.507120415142033" fill="#6dff28" stroke="none" /><path d="M 118.03404312379186 89.2402003453031 l 22.739267380727796 -13.567116349435166 a47.47906582663637,47.47906582663637 0 0,0 0.41270686342090296,0.7054498104816747 l -22.969433918619025 13.173687126599596" fill="#c5ff1e" stroke="none" /><path d="M 118.21658344932153 89.55222093294921 l 16.244267094222007 -9.316594090145687 a39.72632208600935,39.72632208600935 0 0,0 0.3351054474805814,0.5961151989972925 l -16.402230182995023 9.0355953812136" fill="#ffd714" stroke="none" /><path d="M 118.3937258080291 89.86733742301442 l 22.586384752074718 -12.442297874574434 a46.78673210331997,46.78673210331997 0 0,0 0.382519188865499,0.7087499623712302 l -22.79721204015868 12.051666928870745" fill="#ceff1d" stroke="none" /><path d="M 118.56541770881063 90.18545643968196 l 13.527222756067527 -7.1511193053601145 a36.3011196587624,36.3011196587624 0 0,0 0.28728112633391273,0.5549356963311416 l -13.648313315561555 6.917210886768628" fill="#ffaa0f" stroke="none" /><path d="M 118.73160827565052 90.50648371742162 l 12.532891759559131 -6.351895162244691 a35.05062091186623,35.05062091186623 0 0,0 0.26812053758367593,0.5405146428317178 l -12.640372310096216 6.1352209309140235" fill="#ff990e" stroke="none" /><path d="M 118.89224826269711 90.83032412892265 l 12.33723852950341 -5.988089765000927 a34.71366740035547,34.71366740035547 0 0,0 0.25628903295846,0.5398100652627527 l -12.438485756303626 5.774837284097634" fill="#ff940d" stroke="none" /><path d="M 119.04729006885535 91.15688171328212 l 43.65987924656663 -20.27004761126158 a69.13584824211152,69.13584824211152 0 0,0 0.4918445496259582,1.083714268635156 l -44.00232611315594 19.51551133378436" fill="#3aff91" stroke="none" /><path d="M 119.196687751892 91.48605970444005 l 25.219737614143835 -11.185228571285453 a48.58884744816575,48.58884744816575 0 0,0 0.33250803696848447,0.7674743934336973 l -25.408536360955 10.749455033265154" fill="#b8ff1f" stroke="none" /><path d="M 119.34039704204932 91.81776055985345 l 22.59431354639896 -9.558856678094017 a45.5331356663866,45.5331356663866 0 0,0 0.29917072619190205,0.7244656434828308 l -22.755505959477063 9.168516464157884" fill="#ddff1b" stroke="none" /><path d="M 119.47837535516314 92.15188598940014 l 22.304048653623745 -8.986617905235416 a45.046411119289985,45.046411119289985 0 0,0 0.283591719269087,0.72170999271232 l -22.455433922774535 8.601358907627313" fill="#e3ff1b" stroke="none" /><path d="M 119.61058180528143 92.48833698450437 l 16.16092050581359 -6.190300219812515 a38.305928706851795,38.305928706851795 0 0,0 0.23055683912999708,0.6177777032197417 l -16.265081933445213 5.91119937956344" fill="#ffc512" stroke="none" /><path d="M 119.7369772167798 92.82701384747503 l 20.641414679372453 -7.501684783715887 a42.9623148725276,42.9623148725276 0 0,0 0.24661784281724294,0.6972218515602173 l -20.767485602999503 7.145265305729055" fill="#fdff18" stroke="none" /><path d="M 119.85752413597 93.16781622104841 l 22.74500548487601 -7.825651197091888 a45.053608693199976,45.053608693199976 0 0,0 0.24599850943381027,0.7355042319258098 l -22.87634128808159 7.432973862243764" fill="#e3ff1b" stroke="none" /><path d="M 119.97218684219823 93.5106431181261 l 27.205603343099938 -8.839636374072974 a49.6056642028799,49.6056642028799 0 0,0 0.25687352171899935,0.8143592608690373 l -27.353732348587144 8.370026946777518" fill="#acff20" stroke="none" /><path d="M 120.08093135843002 93.85539295169968 l 4.9633354686468225 -1.518741614089687 a26.190498537201925,26.190498537201925 0 0,0 0.12820137149185454,0.43223129235486585 l -4.98874273725038 1.4330809349882914" fill="#ff1902" stroke="none" /><path d="M 120.18372546131832 94.20196356495316 l 42.01002040698764 -12.067922218996856 a64.7089986304797,64.7089986304797 0 0,0 0.29831843480159653,1.0732101328606953 l -42.2115256123556 11.343000782717208" fill="#34ff5c" stroke="none" /><path d="M 120.28053869075195 94.5502522615342 l 19.074491540443002 -5.125661044808272 a40.751167779974345,40.751167779974345 0 0,0 0.17620740547573355,0.6789990128224543 l -19.15989527778904 4.7965656064369675" fill="#ffe515" stroke="none" /><path d="M 120.37134235888165 94.90015583598534 l 17.993717731814737 -4.50462000720899 a39.5490021085117,39.5490021085117 0 0,0 0.1596408648198802,0.6618144482887761 l -18.068591396895435 4.194220327260808" fill="#ffd513" stroke="none" /><path d="M 120.45610955862082 95.25157060432595 l 22.602648677548594 -5.246700556281197 a44.203611657842636,44.203611657842636 0 0,0 0.16567011201211343,0.7426666275058379 l -22.689613176562744 4.856855759225396" fill="#edff19" stroke="none" /><path d="M 120.53481517161879 95.60439243477599 l 15.076655549706846 -3.2272538437142324 a36.41819412046283,36.41819412046283 0 0,0 0.12593880469201574,0.6141223379343996 l -15.12997365031386 2.967255849616421" fill="#ffab0f" stroke="none" /><path d="M 120.6074358757038 95.95851677861258 l 20.370034762175543 -3.9949246576316004 a41.75807648199594,41.75807648199594 0 0,0 0.13226229657698524,0.7065504770022925 l -20.43578278266239 3.643696103166745" fill="#fff216" stroke="none" /><path d="M 120.67395015179393 96.31383870115 l 23.665236335546027 -4.219507044746301 a45.03846190000333,45.03846190000333 0 0,0 0.1295137559111219,0.7643975187408026 l -23.73436195297737 3.8115237376896602" fill="#e3ff1b" stroke="none" /><path d="M 120.73433829027371 96.67025291283417 l 21.664126807846948 -3.4790627086593795 a42.94170156750057,42.94170156750057 0 0,0 0.1109206778916802,0.730828678839001 l -21.720803379177926 3.1056349174282962" fill="#fdff18" stroke="none" /><path d="M 120.78858239683441 97.02765380044208 l 23.839532183972416 -3.4085702205966233 a45.08197761188634,45.08197761188634 0 0,0 0.1032248501887881,0.7691450324662057 l -23.894673033219043 2.997706846065753" fill="#e3ff1b" stroke="none" /><path d="M 120.83666639777658 97.38593545837742 l 28.47477304345813 -3.572303415655636 a49.69797992141528,49.69797992141528 0 0,0 0.09918213309244002,0.8497319468280905 l -28.532045529554157 3.0816277305026927" fill="#abff21" stroke="none" /><path d="M 120.87857604477298 97.74499172005257 l 11.82303343925124 -1.2769567350969582 a32.891792892956154,32.891792892956154 0 0,0 0.055951875409582706,0.5634277496475376 l -11.843262440343052 1.0732534547449857" fill="#ff7b0b" stroke="none" /><path d="M 120.91429891909075 98.10471618934814 l 21.715859508980916 -1.967922382719353 a42.80484516611399,42.80484516611399 0 0,0 0.06018262612172003,0.7343804756870088 l -21.746516618922133 1.5938279898245755" fill="#ffff18" stroke="none" /><path d="M 120.94382443527127 98.46500227214037 l 12.14538840398214 -0.8901499180201592 a33.17796478727604,33.17796478727604 0 0,0 0.03684240621502811,0.5699357173115145 l -12.158911401201584 0.6809551364556093" fill="#ff7f0b" stroke="none" /><path d="M 120.96714384426684 98.82574320788733 l 12.84331672352319 -0.719284992170028 a33.86344259367186,33.86344259367186 0 0,0 0.027584824550945387,0.5822720481945023 l -12.853795156307632 0.4981018373525259" fill="#ff880c" stroke="none" /><path d="M 120.98425023603335 99.18683210126433 l 24.363666258286916 -0.9441248114134804 a45.38195244857792,45.38195244857792 0 0,0 0.023530122117119193,0.780850199419541 l -24.37630807485968 0.5246044645689403" fill="#dfff1b" stroke="none" /><line stroke="#e1ed5e" stroke-width="0.3" x1="184.98032266829074" x2="189.97916517819016" y1="98.17113171792111" y2="98.06355123074" /><path d="M 185.9800911702706 98.14961562048488 a86.0,86.0 0 0,1 -9.607161424134198,41.387399972396054" fill="none" id="id28" stroke="none" /><text fill="#e1ed5e" style="font-size:6.75px; font-family:Arial;" text-anchor="middle"><textPath startOffset="21.466115282336823" xlink:href="#id28">April</textPath></text><path d="M 120.99513854157772 99.54816195383933 l 23.497086569316174 -0.5056826686293473 a44.50252735786708,44.50252735786708 0 0,0 0.009890141829658791,0.7660023840257745 l -23.502309718263547 0.10114402654311008" fill="#eaff1a" stroke="none" /><path d="M 120.99980553446 99.90962569577887 l 18.68910201217462 -0.08043001103493008 a39.689275079792274,39.689275079792274 0 0,0 -0.00294022441996635,0.6832046075386478 l -18.68771749046515 -0.24128407470740235" fill="#ffd714" stroke="none" /><path d="M 120.99824983174949 100.27111621757518 l 24.791434745707726 0.32009143954252606 a45.79350106944061,45.79350106944061 0 0,0 -0.016960903845340623,0.7881065551010525 l -24.782251779177376 -0.7467878104336935" fill="#daff1c" stroke="none" /><path d="M 120.9904718944345 100.63252640178507 l 12.518597192719355 0.3772351225608681 a33.52427970029632,33.52427970029632 0 0,0 -0.022346114928754927,0.5766539335815954 l -12.510248944939397 -0.5926663031564697" fill="#ff830c" stroke="none" /><path d="M 120.9764740272857 100.99374915477107 l 28.094548325846496 1.3309640893969348 a49.126057509729094,49.126057509729094 0 0,0 -0.04728651851336762,0.8443325533425624 l -28.0674754564456 -1.8143683590749204" fill="#b2ff20" stroke="none" /><path d="M 120.95626037817324 101.35467743843564 l 24.263184256493577 1.5684472183363791 a45.313826044891925,45.313826044891925 0 0,0 -0.05701653448531473,0.7779453132045642 l -24.232591163343926 -1.9858656680377136" fill="#e0ff1b" stroke="none" /><path d="M 120.92983693683757 101.71520430193887 l 11.77638735444746 0.9650772871572494 a32.81586532134557,32.81586532134557 0 0,0 -0.05098242164885819,0.5625867745984737 l -11.758030336521527 -1.1676454503042937" fill="#ff7a0b" stroke="none" /><path d="M 120.89721153311464 102.0752229133903 l 24.595636708095277 2.442499506940454 a45.71661685825971,45.71661685825971 0 0,0 -0.08450542140932639,0.7824152499924901 l -24.549948985184898 -2.865511078817735" fill="#dbff1b" stroke="none" /><path d="M 120.8583938346157 102.4346265915055 l 8.811451458275409 1.0284873418429512 a29.871271781085,29.871271781085 0 0,0 -0.06400772128695428,0.5102045164157684 l -8.792442227741606 -1.1800096125461146" fill="#ff5007" stroke="none" /><path d="M 120.81339534386255 102.79330883721812 l 14.827730302425605 1.9899891106361807 a35.960669857393455,35.960669857393455 0 0,0 -0.08761722853963026,0.6127946923374217 l -14.791279022869373 -2.244929274954012" fill="#ffa50f" stroke="none" /><path d="M 120.76222939487914 103.15116336523771 l 25.693699127316638 3.899631483091579 a46.987945292942854,46.987945292942854 0 0,0 -0.12825079001710665,0.7986177918614623 l -25.62276658293824 -4.341328504646246" fill="#cbff1d" stroke="none" /><path d="M 120.70491114924044 103.5080841355445 l 14.749131029417905 2.498981628291904 a35.9593373951348,35.9593373951348 0 0,0 -0.10865466137365494,0.6093930435707748 l -14.703929925705062 -2.752493422595897" fill="#ffa50f" stroke="none" /><path d="M 120.64145759157962 103.86396538481128 l 61.924372774738885 11.591896154433844 a84.0,84.0 0 0,0 -0.2782802680973435,1.4189450917282203 l -61.715662573665874 -12.656104973230008" fill="#4dd2ff" stroke="none" /><path d="M 120.5718875245553 104.21870165774334 l 11.66495977704557 2.3921472976260256 a32.907714108662105,32.907714108662105 0 0,0 -0.11857113435300594,0.5539248653340769 l -11.622054603968122 -2.5925859823762716" fill="#ff7b0b" stroke="none" /><path d="M 120.49622156327973 104.57218783832717 l 20.788714874552394 4.637435686886182 a42.299682530156204,42.299682530156204 0 0,0 -0.16464533863486902,0.7092878096701598 l -20.705808969986972 -4.9945921539049065" fill="#fff917" stroke="none" /><path d="M 120.41448212921028 104.9243191809786 l 6.639508567843243 1.6015620276803477 a27.829939600828943,27.829939600828943 0 0,0 -0.11634065813355293,0.4647230975839361 l -6.610956595414629 -1.7156129646616798" fill="#ff3204" stroke="none" /><path d="M 120.32669344350535 105.2749913415812 l 37.04681663353568 9.614039662584036 a59.273964797399216,59.273964797399216 0 0,0 -0.26479069811875233,0.9853846922574021 l -36.87583785907514 -10.250315288016987" fill="#42ff2d" stroke="none" /><path d="M 120.23288151984713 105.62410040840565 l 5.488852665438302 1.5257272419199777 a26.69695946971943,26.69695946971943 0 0,0 -0.12688348227768448,0.44169804735767504 l -5.4617765462745185 -1.6199827647822347" fill="#ff2103" stroke="none" /><path d="M 120.13307415673323 105.97154293290107 l 32.94110675466069 9.770451929565226 a55.359543727033056,55.359543727033056 0 0,0 -0.27883607679029343,0.9112524322981091 l -32.76804390536426 -10.336031334415392" fill="#6bff28" stroke="none" /><path d="M 120.02730092923936 106.31721596034902 l 43.01647426791007 13.568695989704954 a66.10572656883829,66.10572656883829 0 0,0 -0.3516439004733524,1.0822486434349377 l -42.776538116420475 -14.307143533117689" fill="#36ff6d" stroke="none" /><path d="M 119.9155931802556 106.66101706037122 l 16.703059181203805 5.58654523414807 a38.612543077704004,38.612543077704004 0 0,0 -0.21624710031130828,0.6285152965285479 l -16.604421249949265 -5.8732332337659185" fill="#ffc912" stroke="none" /><path d="M 119.79798401119884 107.00284435728193 l 10.785818191508364 3.8151059228226636 a32.44066900415484,32.44066900415484 0 0,0 -0.19074455137013593,0.5248470838455489 l -10.718549379133002 -4.0002008036743435" fill="#ff740a" stroke="none" /><path d="M 119.67450827220406 107.3425965602758 l 20.014353569095345 7.4694280354748575 a42.36274102183279,42.36274102183279 0 0,0 -0.26084498791532346,0.680983953015313 l -19.882814301586517 -7.812835555323314" fill="#fff917" stroke="none" /><path d="M 119.54520255179757 107.68017299344265 l 10.81927755064894 4.251371815300639 a32.62458296154786,32.62458296154786 0 0,0 -0.20988075566894918,0.5209068233748367 l -10.744494180722599 -4.43697800651829" fill="#ff770a" stroke="none" /><path d="M 119.41010516605496 108.01547362559984 l 15.99691987248921 6.605986326803196 a38.30723839197782,38.30723839197782 0 0,0 -0.25693033051154235,0.6073074053365984 l -15.880838560785358 -6.880368257805958" fill="#ffc512" stroke="none" /><path d="M 119.26925614724726 108.34839909993367 l 32.18520363038861 13.944229240914568 a56.076043988066225,56.076043988066225 0 0,0 -0.3913544847358291,0.8824010485126526 l -31.940408060921506 -14.496178625919908" fill="#64ff29" stroke="none" /><path d="M 119.12269723197855 108.67885076344098 l 4.386609849132917 1.9908662348321842 a25.817249664850763,25.817249664850763 0 0,0 -0.1871447963035068,0.4030932420550905 l -4.351690435989578 -2.0660795441661053" fill="#ff1402" stroke="none" /><path d="M 118.97047184881838 109.00673069616215 l 21.723792152337662 10.313941960684195 a45.0478802443444,45.0478802443444 0 0,0 -0.3386029139514339,0.6976222936102136 l -21.543035981771514 -10.686353210259684" fill="#e3ff1b" stroke="none" /><path d="M 118.81262510543309 109.33194174019688 l 12.986866181476529 6.442092898469102 a35.496870494285474,35.496870494285474 0 0,0 -0.2762355140286033,0.5450388756484406 l -12.874051997661656 -6.664685985820237" fill="#ff9f0e" stroke="none" /><path d="M 118.64920377521936 109.65438752849418 l 10.22098583526288 5.29123706117673 a32.50937622472281,32.50937622472281 0 0,0 -0.2615417891590578,0.49473850049224866 l -10.12839153787893 -5.4663905767551135" fill="#ff750a" stroke="none" /><line stroke="#e1ed5e" stroke-width="0.3" x1="174.80103733775053" x2="179.2010983576182" y1="140.37084112569926" y2="142.7455964860345" /><path d="M 175.68104954172406 140.8457921977663 a86.0,86.0 0 0,1 -30.038265399797805,32.042727171017184" fill="none" id="id29" stroke="none" /><text fill="#e1ed5e" style="font-size:6.75px; font-family:Arial;" text-anchor="middle"><textPath startOffset="22.206326154141568" xlink:href="#id29">May</textPath></text><path d="M 118.48025628344425 109.97397251340804 l 30.06774535800133 16.22785210016389 a55.16741861332817,55.16741861332817 0 0,0 -0.4582142493251582,0.8317919598509228 l -29.78395469922466 -16.743014578412616" fill="#6dff28" stroke="none" /><path d="M 118.30583269289576 110.29060199501025 l 42.08993631606587 23.660807453574815 a69.28453736389758,69.28453736389758 0 0,0 -0.5933659877334693,1.034583614581254 l -41.67641833218002 -24.381810914014384" fill="#3aff92" stroke="none" /><path d="M 118.12598468904814 110.60418214915192 l 29.98715132868236 17.543279456462443 a55.74184650960328,55.74184650960328 0 0,0 -0.4916407617844071,0.8240181958744485 l -29.680729691199726 -18.056859746222997" fill="#67ff28" stroke="none" /><path d="M 117.94076556474637 110.91462005526583 l 24.468439442372606 14.885859741880692 a49.6407637642574,49.6407637642574 0 0,0 -0.4503962290943007,0.7261821305814128 l -24.208578573610342 -15.304838203827378" fill="#acff21" stroke="none" /><path d="M 117.75023020441432 111.22182372390056 l 32.956076265901075 20.835069417600664 a59.989781744453595,59.989781744453595 0 0,0 -0.5593194053636297,0.8680761379793233 l -32.5925519971604 -21.39926715550144" fill="#3bff2e" stroke="none" /><path d="M 117.55443506779139 111.5257021239791 l 21.15994509734181 13.89296911064868 a46.31319551601413,46.31319551601413 0 0,0 -0.44327659415356946,0.662638363701495 l -20.91766539777752 -14.255144388555982" fill="#d3ff1c" stroke="none" /><path d="M 117.35343817320211 111.8261652097733 l 20.141814004953893 13.7264107359975 a45.374310720581704,45.374310720581704 0 0,0 -0.44540091667067006,0.6416332400341871 l -19.902552181121088 -14.071085238218707" fill="#dfff1b" stroke="none" /><path d="M 117.14729908036423 112.12312394758627 l 5.409724596072956 3.8246700832085465 a27.625195955648948,27.625195955648948 0 0,0 -0.277857125019849,0.38591924458165355 l -5.343087678677504 -3.9172229332413315" fill="#ff2f04" stroke="none" /><path d="M 116.93607887273984 112.41649034213515 l 14.949432879150944 10.960003809568146 a39.5366455140618,39.5366455140618 0 0,0 -0.4071121021469474,0.5453931901347392 l -14.758559510308904 -11.2157098792122" fill="#ffd513" stroke="none" /><path d="M 116.71984013943494 112.70617746262583 l 10.142328467116194 7.707623058157747 a33.738692238276286,33.738692238276286 0 0,0 -0.3553699390040182,0.45936355051255184 l -10.008151710894108 -7.881064602783551" fill="#ff860c" stroke="none" /><path d="M 116.498646956653 112.99209946851258 l 16.198866448635993 12.756032948081474 a41.61842988186261,41.61842988186261 0 0,0 -0.4480562630804837,0.5590190799927939 l -15.976892273500654 -13.03297986165252" fill="#fff016" stroke="none" /><path d="M 116.27256486870786 113.27417163493432 l 16.224013660081244 13.234566503131624 a41.93734390433315,41.93734390433315 0 0,0 -0.46111906958812615,0.5554476244542239 l -15.993798590599575 -13.511875384699618" fill="#fff417" stroke="none" /><path d="M 116.0416608686014 113.55231037782055 l 13.224517054027563 11.172331916314116 a38.31210130979359,38.31210130979359 0 0,0 -0.42993017370171605,0.500105921345621 l -13.030244370755069 -11.398314936821265" fill="#ffc512" stroke="none" /><path d="M 115.80600337817218 113.82643327865902 l 6.8605312801022915 6.001306954766503 a30.114964323056387,30.114964323056387 0 0,0 -0.3446602461048868,0.3872294402170231 l -6.756212184349066 -6.118510564724392" fill="#ff5307" stroke="none" /><path d="M 115.56566222782051 114.09645910891815 l 9.37487846464989 8.490007620223071 a33.647868421927946,33.647868421927946 0 0,0 -0.3924841063446937,0.42596398088473025 l -9.227347950309474 -8.650122855909137" fill="#ff850c" stroke="none" /><path d="M 115.32070863581623 114.36230785411682 l 18.62721597384241 17.46197363586858 a46.53220903478466,46.53220903478466 0 0,0 -0.5528324430496824,0.579642606342611 l -18.323876979413765 -17.7800233587937" fill="#d1ff1c" stroke="none" /><path d="M 115.07121518719521 114.62390073753431 l 24.498413040521818 23.77129886885923 a55.135712844712025,55.135712844712025 0 0,0 -0.6667729129124068,0.6754374404978352 l -24.085599502553876 -24.18947680333773" fill="#6eff28" stroke="none" /><path d="M 114.81725581225074 114.88116024355365 l 20.17046927925045 20.257461255682262 a49.58693001129457,49.58693001129457 0 0,0 -0.6100374157121957,0.5970500071305456 l -19.81878191116246 -20.601661365735378" fill="#acff20" stroke="none" /><path d="M 114.55890576462653 115.13401014063108 l 18.96127759884813 19.710284007573538 a48.35005198970907,48.35005198970907 0 0,0 -0.6047536220494288,0.5718322964656036 l -18.619188142407893 -20.033750940785065" fill="#bbff1f" stroke="none" /><path d="M 114.29624159901734 115.38237550388516 l 7.7631818384926605 8.352977061666598 a32.403473946575694,32.403473946575694 0 0,0 -0.41183341881808516,0.37620006361420755 l -7.618248870207712 -8.48536989186739" fill="#ff740a" stroke="none" /><path d="M 114.0293411484842 115.62618273729858 l 25.439297810809386 28.334838542522498 a59.07914059347807,59.07914059347807 0 0,0 -0.7625644210270984,0.6728744397114915 l -24.9477910368757 -28.76853612400628" fill="#44ff2d" stroke="none" /><path d="M 113.75828350139079 115.86535959552629 l 7.607883616088146 8.77302821372665 a32.612317475628466,32.612317475628466 0 0,0 -0.4272749726845272,0.36413300125432535 l -7.455743166826572 -8.902685605203922" fill="#ff770a" stroke="none" /><path d="M 113.48314897796784 116.09983520530334 l 18.865429233277197 22.526659182464424 a50.38289968806174,50.38289968806174 0 0,0 -0.6696843958797332,0.5511046659274726 l -18.474874708852774 -22.848058967249077" fill="#a3ff21" stroke="none" /><path d="M 113.20401910651253 116.32954008644616 l 19.194568727533905 23.73811162721778 a51.527518933943426,51.527518933943426 0 0,0 -0.6944989596722625,0.5517519763667915 l -18.78311227514429 -24.064997517589696" fill="#96ff23" stroke="none" /><path d="M 112.92097659922987 116.55440617244103 l 10.838331172870207 13.886112639335373 a38.615151059389746,38.615151059389746 0 0,0 -0.5275036897058547,0.40446733535518303 l -10.597698754670859 -14.070619316517927" fill="#ffc912" stroke="none" /><path d="M 112.63410532772338 116.77436683061366 l 7.805533942804637 10.363447689335109 a33.97410529253792,33.97410529253792 0 0,0 -0.47016121974255803,0.34781403039824815 l -7.625987752643514 -10.496271668473126" fill="#ff8a0c" stroke="none" /><path d="M 112.34349029814194 116.9893568818739 l 13.09652419518224 18.025819123262117 a43.28113778646764,43.28113778646764 0 0,0 -0.6064979081030688,0.43272015391332697 l -12.784298959230286 -18.248583539019663" fill="#f9ff18" stroke="none" /><path d="M 112.04921762599082 117.19931262002967 l 11.386254767753016 16.2529851647346 a40.84455402374317,40.84455402374317 0 0,0 -0.5792985341247912,0.39844681409708543 l -11.104799349005342 -16.44657276819678" fill="#ffe615" stroke="none" /><path d="M 111.7513745106137 117.40417183066458 l 12.856408998297802 19.040764221205286 a43.9747242520785,43.9747242520785 0 0,0 -0.6309855730040267,0.41818283119541283 l -12.526748726553812 -19.259245073492018" fill="#f0ff19" stroke="none" /><path d="M 111.45004920935366 117.60387380957326 l 3.228893907263574 4.964261711777958 a26.921963374370737,26.921963374370737 0 0,0 -0.39064819832365666,0.24933016304995195 l -3.1429639068929864 -5.019106303651719" fill="#ff2403" stroke="none" /><path d="M 111.1453310114006 117.79835938074945 l 13.352591961695103 21.323209705988845 a46.158914608168246,46.158914608168246 0 0,0 -0.6770431337078203,0.4158951905975946 l -12.983569628054973 -21.549893363414817" fill="#d5ff1c" stroke="none" /><line stroke="#e1ed5e" stroke-width="0.3" x1="143.8653032363475" x2="146.44561519142675" y1="172.8068346515853" y2="177.08958963109032" /><path d="M 144.38136562736335 173.6633856474863 a86.0,86.0 0 0,1 -40.68145358897372,12.25698825130547" fill="none" id="id30" stroke="none" /><text fill="#e1ed5e" style="font-size:6.75px; font-family:Arial;" text-anchor="middle"><textPath startOffset="21.466115282336833" xlink:href="#id30">June</textPath></text><path d="M 110.8373102113329 117.98757091392108 l 18.75626595094619 31.131310010873325 a57.34495804669095,57.34495804669095 0 0,0 -0.8498853989837969,0.5021272741609795 l -18.21761268093401 -31.449555857328054" fill="#56ff2a" stroke="none" /><path d="M 110.5260780823613 118.17145234162733 l 2.967228226356559 5.122406073760959 a26.91975399250596,26.91975399250596 0 0,0 -0.4029646600820106,0.22881385072617738 l -2.878614799353349 -5.172723090281765" fill="#ff2403" stroke="none" /><path d="M 110.21172684928248 118.3499491758327 l 12.004229866481019 21.57098512289496 a45.686209386203274,45.686209386203274 0 0,0 -0.6904647938749211,0.3764964580925235 l -11.63114226073745 -21.774422232747256" fill="#dbff1b" stroke="none" /><path d="M 109.89434966115114 118.52300852407294 l 11.407322705665631 21.35541424652988 a45.21116950814409,45.21116950814409 0 0,0 -0.6895975667083455,0.360764854508029 l -11.038034236430791 -21.548608519982626" fill="#e1ff1b" stroke="none" /><path d="M 109.57404056367764 118.69057910512821 l 13.894086440005072 27.12423453537688 a51.475723734350666,51.475723734350666 0 0,0 -0.7921037606646284,0.3971772694015772 l -13.425128771657684 -27.359379645687756" fill="#97ff23" stroke="none" /><path d="M 109.2508944713604 118.85261126421891 l 7.558126459842443 15.40288028085814 a38.15733069359622,38.15733069359622 0 0,0 -0.5921424140937572,0.28426434320024785 l -7.291871377748453 -15.530698900557947" fill="#ffc312" stroke="none" /><path d="M 108.92500713936063 119.00905698771935 l 15.97506166838293 34.024718736345626 a58.58835032820763,58.58835032820763 0 0,0 -0.916578483714601,0.42075622653764705 l -15.387015188900909 -34.29466203321735" fill="#49ff2c" stroke="none" /><path d="M 108.59647513512805 119.15986991738527 l 5.313745244674103 11.843303919538865 a33.980744826698555,33.980744826698555 0 0,0 -0.5357296224690657,0.2348481228480975 l -5.109094947547283 -11.933016595681416" fill="#ff8a0c" stroke="none" /><path d="M 108.2653958097858 119.30500536409082 l 5.890104405718414 13.757175066295552 a35.96506584399038,35.96506584399038 0 0,0 -0.5712083771439916,0.23876514797255957 l -5.652424569076962 -13.856525257288085" fill="#ffa50f" stroke="none" /><path d="M 107.93186726928326 119.44442032107085 l 4.301879126744112 10.5457571428086 a32.38943184431143,32.38943184431143 0 0,0 -0.518044167403935,0.20614046542318012 l -4.119713883298311 -10.61824445263785" fill="#ff740a" stroke="none" /><path d="M 107.59598834532513 119.57807347666477 l 5.780211394133968 14.898048580426828 a36.98007181666071,36.98007181666071 0 0,0 -0.5954315961731748,0.2251412806163111 l -5.522909577200518 -14.99533811114977" fill="#ffb310" stroke="none" /><path d="M 107.2578585660854 119.70592522655815 l 5.187359190956021 14.084280013107609 a36.009185149888,36.009185149888 0 0,0 -0.5834867306747198,0.20921758215643746 l -4.9441528996515665 -14.171485136304007" fill="#ffa60f" stroke="none" /><path d="M 106.57524785965236 119.94407469862006 l 7.537815544377643 22.863739814887435 a45.074244775359624,45.074244775359624 0 0,0 -0.7389571601096437,0.23659074716911835 l -7.143137039177059 -22.99010340871626" fill="#e3ff1b" stroke="none" /><path d="M 106.2309692047433 120.05430185196036 l 3.4915404981064757 11.23748244880884 a32.767406971682604,32.767406971682604 0 0,0 -0.5400771226476433,0.1627208067335426 l -3.2975884010185865 -11.29591862464811" fill="#ff790b" stroke="none" /><path d="M 105.88484417918355 120.15858648285463 l 6.773781745855654 23.203650085219046 a45.17216366852114,45.17216366852114 0 0,0 -0.7482851337883817,0.21147285322677256 l -6.373365443962666 -23.316811731784338" fill="#e1ff1b" stroke="none" /><path d="M 105.53697534728816 120.25689768951611 l 1.560855872666313 5.710355516783632 a26.919833712470155,26.919833712470155 0 0,0 -0.44803519811588416,0.11833016795095294 l -1.4623302317389315 -5.736377034038168" fill="#ff2403" stroke="none" /><path d="M 105.18746579009965 120.34920634021253 l 5.941853638226985 23.308492165555204 a45.05392757305675,45.05392757305675 0 0,0 -0.7531444420923258,0.18510457995305554 l -5.539755911391448 -23.40731800382229" fill="#e3ff1b" stroke="none" /><path d="M 104.83641907484287 120.43548508189849 l 2.6851755926569854 11.345763242777425 a32.65918142600758,32.65918142600758 0 0,0 -0.5481763519043126,0.12476315298444508 l -2.4894790913598106 -11.390303129339554" fill="#ff770b" stroke="none" /><path d="M 104.48393922423573 120.51570834832081 l 2.721946902877436 12.453930797549289 a33.747916976990034,33.747916976990034 0 0,0 -0.5685857707348346,0.11915267651338272 l -2.5071696707132234 -12.498939454789213" fill="#ff870c" stroke="none" /><path d="M 104.13013068566511 120.58985236759428 l 4.148538291501958 20.681619412142553 a42.093595034151235,42.093595034151235 0 0,0 -0.7116471169632081,0.13638886370041237 l -3.7919235599670453 -20.749965474191434" fill="#fff617" stroke="none" /><path d="M 103.7750983002368 120.6578951692458 l 2.107469728142542 11.532385451683894 a32.72336738574918,32.72336738574918 0 0,0 -0.5549743310158355,0.09648940114785405 l -1.9086464256546565 -11.566953431352754" fill="#ff780b" stroke="none" /><path d="M 103.41894727170886 120.7198165907248 l 3.9426492986621215 23.89360345677343 a45.21670435137234,45.21670435137234 0 0,0 -0.7690373885774718,0.12010782404309701 l -3.5307760464761326 -23.957929588163633" fill="#e1ff1b" stroke="none" /><path d="M 103.06178313531738 120.77559828337769 l 1.6664994611645618 11.3079606929873 a32.43010041461612,32.43010041461612 0 0,0 -0.5529662734959118,0.07663608686637402 l -1.4716045964818196 -11.334971345346277" fill="#ff740a" stroke="none" /><path d="M 102.70371172650421 120.8252237178851 l 1.7805816358130107 13.714853750961097 a34.829956050980286,34.829956050980286 0 0,0 -0.5952150515724983,0.0720722535578387 l -1.5442391611891322 -13.743471533244287" fill="#ff960d" stroke="none" /><path d="M 102.34483914955558 120.86867818915974 l 1.2975036267354985 11.547566339781827 a32.62023252921619,32.62023252921619 0 0,0 -0.558532014697701,0.05789412702304289 l -1.098539015432195 -11.568189835260629" fill="#ff770a" stroke="none" /><path d="M 101.98527174616119 120.90594882070398 l 1.623459277137627 17.095874469560208 a38.172784978083335,38.172784978083335 0 0,0 -0.6546735913089063,0.05648799218094023 l -1.328941368087179 -17.12128671401981" fill="#ffc312" stroke="none" /><path d="M 101.62511606390274 120.93702456842531 l 0.9130909117293724 11.763717851741061 a32.79910135173243,32.79910135173243 0 0,0 -0.5632655885914685,0.0388460928093207 l -0.7104625623589735 -11.777692289066668" fill="#ff790b" stroke="none" /><path d="M 101.26447882468166 120.96189622390904 l 1.1751932701649115 19.481765049276277 a40.51717829650187,40.51717829650187 0 0,0 -0.696532609488361,0.03600277983157354 l -0.8396725922630708 -19.49910763587005" fill="#ffe215" stroke="none" /><path d="M 100.90346689309514 120.98055641714683 l 0.41483721840100013 9.633463861390098 a30.64239160615662,30.64239160615662 0 0,0 -0.5271653553961834,0.018156640736284698 l -0.2489515113301645 -9.639177300552475" fill="#ff5b08" stroke="none" /><line stroke="#e1ed5e" stroke-width="0.3" x1="102.19456741930631" x2="102.32365962044197" y1="184.97166512339345" y2="189.96999836594603" /><path d="M 102.22038585953345 185.97133177190398 a86.0,86.0 0 0,1 -42.740103519485714,-10.115201625700543" fill="none" id="id31" stroke="none" /><text fill="#e1ed5e" style="font-size:6.75px; font-family:Arial;" text-anchor="middle"><textPath startOffset="22.20632615414155" xlink:href="#id31">July</textPath></text><path d="M 100.54218724476979 120.99299961872073 l 0.4806202323351806 18.60918059488074 a39.61538606155177,39.61538606155177 0 0,0 -0.6818379725289977,0.011738459041088932 l -0.16022256991351502 -18.614696531200988" fill="#ffd614" stroke="none" /><path d="M 100.18074693466247 120.99922214144158 l 0.06882138135072899 7.995684561752954 a28.995980739945885,28.995980739945885 0 0,0 -0.4991366320263634,0.0 l 0.06882138135072348 -7.995684561752954" fill="#ff4306" stroke="none" /><path d="M 99.81925306533755 120.99922214144158 l -0.1910617545044622 22.197600380142642 a43.198422629334345,43.198422629334345 0 0,0 -0.7435072033949617,-0.012800150776928403 l 0.5731286477920918 -22.191022752086557" fill="#faff18" stroke="none" /><path d="M 99.45781275523022 120.99299961872073 l -0.23873438250273524 9.243579315451264 a30.246661703903058,30.246661703903058 0 0,0 -0.5203573001620067,-0.01792215754854359 l 0.3978120343393849 -9.238100359476626" fill="#ff5507" stroke="none" /><path d="M 99.09653310690486 120.98055641714683 l -1.0885887402194734 25.279506812919195 a46.30293441776587,46.30293441776587 0 0,0 -0.7959957996324382,-0.04114389065298114 l 1.5235726082654004 -25.257023115504012" fill="#d4ff1c" stroke="none" /><path d="M 98.73552117531835 120.96189622390904 l -0.8460942795032054 14.026126919962078 a35.05162310570181,35.05162310570181 0 0,0 -0.6019485993837032,-0.04151389971571591 l 1.0874056396658385 -14.009484675730077" fill="#ff990e" stroke="none" /><path d="M 98.37488393609728 120.93702456842531 l -1.3399702197131358 17.2633758500412 a38.31530149692762,38.31530149692762 0 0,0 -0.6571177881697379,-0.0566988877707368 l 1.6369323256244155 -17.2377527099918" fill="#ffc512" stroke="none" /><path d="M 98.01472825383883 120.90594882070398 l -1.0870232949099872 11.446923281028868 a32.49842042392944,32.49842042392944 0 0,0 -0.5564463164881934,-0.05767793587571686 l 1.2839022080037739 -11.42651597669739" fill="#ff750a" stroke="none" /><path d="M 97.65516085044442 120.86867818915974 l -1.540676037097292 13.711760321822954 a34.7980452881705,34.7980452881705 0 0,0 -0.5946697231114384,-0.07200622187565828 l 1.77647318326012 -13.683208571221947" fill="#ff950d" stroke="none" /><path d="M 97.2962882734958 120.8252237178851 l -1.9905291330424502 15.331965352006835 a36.460639307112395,36.460639307112395 0 0,0 -0.6216910706155495,-0.08616071752537435 l 2.2541487948448307 -15.295430068988855" fill="#ffac0f" stroke="none" /><path d="M 96.93821686468263 120.77559828337769 l -1.7338603461575084 11.765035092047041 a32.892111772812925,32.892111772812925 0 0,0 -0.5594229854966122,-0.08737036521979498 l 1.9361191952626378 -11.73344641948014" fill="#ff7b0b" stroke="none" /><path d="M 96.58105272829116 120.7198165907248 l -1.860023498597896 11.27228432690162 a32.42471362274995,32.42471362274995 0 0,0 -0.5499092907841251,-0.09560877897952248 l 2.053781760854071 -11.23859696940109" fill="#ff740a" stroke="none" /><path d="M 96.22490169976321 120.6578951692458 l -5.665570971453726 31.002840692882582 a52.51626287269535,52.51626287269535 0 0,0 -0.8878559086415694,-0.17015969800602462 l 6.19839449466699 -30.90072379652809" fill="#8bff24" stroke="none" /><path d="M 95.86986931433489 120.58985236759428 l -2.2633157429902697 11.283259672912044 a32.50802098533153,32.50802098533153 0 0,0 -0.547695971268713,-0.11477501592754402 l 2.4572031756883694 -11.24262867625796" fill="#ff750a" stroke="none" /><path d="M 95.51606077576429 120.51570834832081 l -2.5560589580880384 11.694931060129445 a32.97100037166496,32.97100037166496 0 0,0 -0.5534101564463016,-0.12595434985839368 l 2.7569892639272027 -11.649199976693364" fill="#ff7c0b" stroke="none" /><path d="M 94.81253420990036 120.34920634021253 l -1.4407302634444872 5.6516454464864045 a26.832392300316855,26.832392300316855 0 0,0 -0.4465798833901023,-0.11794580610472448 l 1.537800589646079 -5.626008291078098" fill="#ff2303" stroke="none" /><path d="M 94.46302465271185 120.25689768951611 l -4.630010100585139 16.9387860747682 a38.56016706122927,38.56016706122927 0 0,0 -0.6387562034895604,-0.180518883469412 l 4.920897472179313 -16.856578397960266" fill="#ffc812" stroke="none" /><path d="M 93.76903079525671 120.05430185196036 l -1.8732328587020888 6.028978149791705 a27.31328590146106,27.31328590146106 0 0,0 -0.4477800633953141,-0.14336503587083918 l 1.9767342671883432 -5.995840267261158" fill="#ff2a04" stroke="none" /><path d="M 93.42475214034765 119.94407469862007 l -6.923050413494708 20.999031144713577 a43.110810388686346,43.110810388686346 0 0,0 -0.7027683444596008,-0.23841717861635237 l 7.283488490891535 -20.8767509791991" fill="#fbff18" stroke="none" /><path d="M 93.08242187328487 119.8279376855182 l -5.864085858818753 16.808300081519977 a38.801866604095835,38.801866604095835 0 0,0 -0.6287388674489747,-0.22544338840977501 l 6.152544286897455 -16.704869152070245" fill="#ffcb12" stroke="none" /><path d="M 92.7421414339146 119.70592522655815 l -2.045833595015771 5.554674768360188 a26.919446501215504,26.919446501215504 0 0,0 -0.43344126203387484,-0.16389039720672724 l 2.1411450778099286 -5.518636121046828" fill="#ff2403" stroke="none" /><path d="M 92.40401165467489 119.57807347666478 l -7.741408686411467 19.952883177964868 a42.40203157561357,42.40203157561357 0 0,0 -0.6781880352026782,-0.2698650154130647 l 8.083717797656004 -19.816671318145737" fill="#fffa17" stroke="none" /><path d="M 92.06813273071674 119.44442032107085 l -3.341850101685008 8.192312833929762 a29.84770883738284,29.84770883738284 0 0,0 -0.4740506078989045,-0.19815319254838545 l 3.482372169081375 -8.133574598361404" fill="#ff4f07" stroke="none" /><path d="M 91.40352486487194 119.15986991738527 l -4.663669780530813 10.394412236182205 a32.392700362843335,32.392700362843335 0 0,0 -0.5067637510814458,-0.23263038292909027 l 4.841901527379678 -10.31259478291904" fill="#ff740a" stroke="none" /><path d="M 91.07499286063937 119.00905698771935 l -4.888434677130547 10.411704092482655 a32.50219003937913,32.50219003937913 0 0,0 -0.5043834283848748,-0.2421346969552088 l 5.066930773515664 -10.326015119027883" fill="#ff750a" stroke="none" /><path d="M 90.7491055286396 118.85261126421891 l -1.83599651635521 3.7416196576950953 a25.167805282270134,25.167805282270134 0 0,0 -0.38727990138889395,-0.19419018235526198 l 1.9001303254268647 -3.7094616344305313" fill="#ff0a01" stroke="none" /><path d="M 90.42595943632237 118.69057910512821 l -7.342815438365063 14.334749460514193 a37.10596102868762,37.10596102868762 0 0,0 -0.5659703279993313,-0.29608892619961324 l 7.58847666889089 -14.206231115369864" fill="#ffb510" stroke="none" /><path d="M 90.10565033884886 118.52300852407294 l -11.81293125925773 22.114745678399792 a46.07204262433061,46.07204262433061 0 0,0 -0.6962959685513422,-0.3796760794601401 l 12.191850039677714 -21.908128947179886" fill="#d6ff1c" stroke="none" /><line stroke="#e1ed5e" stroke-width="0.3" x1="58.666819895761336" x2="56.23545636021788" y1="174.27360380694188" y2="178.64263932499728" /><path d="M 58.180547188652646 175.14741091055294 a86.0,86.0 0 0,1 -31.652253787137756,-30.449443065178592" fill="none" id="id32" stroke="none" /><text fill="#e1ed5e" style="font-size:6.75px; font-family:Arial;" text-anchor="middle"><textPath startOffset="22.20632615414155" xlink:href="#id32">August</textPath></text><path d="M 89.7882731507175 118.34994917583269 l -2.8793845742603534 5.174106336291849 a26.921337003223506,26.921337003223506 0 0,0 -0.4029883563377638,-0.2288273060786283 l 2.9680216975193243 -5.123775864418587" fill="#ff2403" stroke="none" /><path d="M 89.4739219176387 118.17145234162733 l -7.504753009104384 12.955657422791278 a35.972320360731935,35.972320360731935 0 0,0 -0.5331305642818894,-0.31498293456371484 l 7.726651444414655 -12.824555915933814" fill="#ffa50f" stroke="none" /><path d="M 89.1626897886671 117.98757091392108 l -5.887207897375487 9.771480881695027 a32.4079382645705,32.4079382645705 0 0,0 -0.4753485272760643,-0.2919978898081264 l 6.05453562458386 -9.668694525058521" fill="#ff740a" stroke="none" /><path d="M 88.8546689885994 117.79835938074946 l -9.107470362964307 14.544030177636968 a38.16026894370505,38.16026894370505 0 0,0 -0.5537203993300264,-0.3534105572263677 l 9.356472564341257 -14.385105191586796" fill="#ffc312" stroke="none" /><path d="M 88.54995079064634 117.60387380957326 l -6.8379151978733415 10.51295012475499 a33.54110061274102,33.54110061274102 0 0,0 -0.481275345082259,-0.3189630555780749 l 7.017865241695562 -10.393689048085596" fill="#ff840c" stroke="none" /><path d="M 88.24862548938628 117.40417183066458 l -5.325479132602463 7.887209604350474 a30.516764331154924,30.516764331154924 0 0,0 -0.4328194361723925,-0.29769715485769693 l 5.460455453397746 -7.794371660127676" fill="#ff5908" stroke="none" /><path d="M 87.95078237400918 117.19931262002967 l -6.6324601745708245 9.467316428601713 a32.5593948079707,32.5593948079707 0 0,0 -0.4562542911316483,-0.3255253224196658 l 6.79444179355136 -9.351746844337828" fill="#ff760a" stroke="none" /><path d="M 87.65650970185807 116.9893568818739 l -3.48337977394297 4.794460942990069 a26.926279641003468,26.926279641003468 0 0,0 -0.3726276930661063,-0.2756610590603196 l 3.5653924374276404 -4.733789935189983" fill="#ff2403" stroke="none" /><path d="M 87.36589467227662 116.77436683061367 l -4.462189309947493 5.924471769952384 a28.416906308614962,28.416906308614962 0 0,0 -0.3881901926206587,-0.2976476864225238 l 4.563508231061639 -5.846784741702494" fill="#ff3a05" stroke="none" /><path d="M 87.07902340077011 116.55440617244103 l -15.273236088561658 19.568130306242022 a45.82304301045723,45.82304301045723 0 0,0 -0.6176128088095312,-0.4906689681017178 l 15.607806390088546 -19.30232742413517" fill="#d9ff1c" stroke="none" /><path d="M 86.79598089348748 116.32954008644616 l -11.059890993606995 13.677875794859522 a38.58992538500585,38.58992538500585 0 0,0 -0.5129333767707969,-0.4221092487558587 l 11.29369449892248 -13.485471427246482" fill="#ffc812" stroke="none" /><path d="M 86.51685102203217 116.09983520530335 l -9.607045635816704 11.471493180059008 a35.96297034778874,35.96297034778874 0 0,0 -0.4711740336910619,-0.40154473341388947 l 9.803085146084822 -11.304424056422167" fill="#ffa50f" stroke="none" /><path d="M 86.24171649860922 115.8653595955263 l -9.802965765418906 11.304286392650859 a35.96278813072772,35.96278813072772 0 0,0 -0.46418993969685485,-0.40959365134363235 l 9.996098058022348 -11.133869599534938" fill="#ffa50f" stroke="none" /><path d="M 85.97065885151581 115.62618273729859 l -9.997497983312261 11.135428866514564 a35.964883626929364,35.964883626929364 0 0,0 -0.45709731635236145,-0.4175475608151143 l 10.187694849131477 -10.961688539112874" fill="#ffa50f" stroke="none" /><path d="M 85.70375840098266 115.38237550388516 l -10.186531894163759 10.96043723051658 a35.96317534198238,35.96317534198238 0 0,0 -0.44982083065993084,-0.42533367178958276 l 10.373688559214507 -10.783468921981067" fill="#ffa50f" stroke="none" /><path d="M 85.44109423537348 115.13401014063109 l -8.211487886696021 8.535857224165152 a32.844382291394005,32.844382291394005 0 0,0 -0.40406417757948865,-0.3954618419976547 l 8.357202016651305 -8.393245279244928" fill="#ff7a0b" stroke="none" /><path d="M 85.18274418774928 114.88116024355367 l -12.214098350145765 12.266775783729575 a38.31063218473918,38.31063218473918 0 0,0 -0.46330210492208246,-0.46932258624449763 l 12.42344108012338 -12.054712703504412" fill="#ffc512" stroke="none" /><path d="M 84.9287848128048 114.62390073753433 l -5.441349186828047 5.2798496603010445 a28.581892468795328,28.581892468795328 0 0,0 -0.33957118667407377,-0.3560390316400521 l 5.531426924881079 -5.1854035120784925" fill="#ff3d05" stroke="none" /><path d="M 84.67929136418377 114.36230785411682 l -4.1570408262292595 3.896993378547854 a26.698029994952876,26.698029994952876 0 0,0 -0.3114180165095941,-0.33798275111591897 l 4.223505250734583 -3.8248593726305913" fill="#ff2103" stroke="none" /><path d="M 84.43433777217949 114.09645910891817 l -11.09656406935963 10.049187716128461 a35.97063485291757,35.97063485291757 0 0,0 -0.4116773218776088,-0.46252383529082264 l 11.267900240885576 -9.856689711096775" fill="#ffa50f" stroke="none" /><path d="M 83.95833913139862 113.55231037782056 l -5.269110482435074 4.451448092432702 a27.89774712465816,27.89774712465816 0 0,0 -0.3067476859543887,-0.36949734831479075 l 5.344954168282999 -4.36008948700415" fill="#ff3304" stroke="none" /><path d="M 83.72743513129214 113.27417163493432 l -11.59986182492385 9.462463849301502 a35.9698034875767,35.9698034875767 0 0,0 -0.3872442035927469,-0.4831466855002396 l 11.761023940571459 -9.261389330223002" fill="#ffa50f" stroke="none" /><path d="M 83.50135304334701 112.99209946851258 l -9.940858123907333 7.828073289130861 a33.653038831034166,33.653038831034166 0 0,0 -0.35446775092001814,-0.45819735079780416 l 10.074132692045419 -7.655797944219804" fill="#ff850c" stroke="none" /><path d="M 83.28015986056508 112.70617746262583 l -6.041841007256825 4.591473566670703 a28.58850922582334,28.58850922582334 0 0,0 -0.2943782391460911,-0.39436775794049267 l 6.119980513098001 -4.486792929220902" fill="#ff3d05" stroke="none" /><path d="M 83.06392112726016 112.41649034213515 l -18.795367443039385 13.77960625283897 a44.3054368292496,44.3054368292496 0 0,0 -0.44562874123635754,-0.6189393457861577 l 19.02977597665135 -13.454033301601674" fill="#ecff1a" stroke="none" /><path d="M 82.85270091963577 112.12312394758628 l -6.97397054655473 4.930590464798914 a29.540900860903307,29.540900860903307 0 0,0 -0.28997783357523554,-0.4177346968339257 l 7.057809287292099 -4.809814505777975" fill="#ff4b07" stroke="none" /><path d="M 82.6465618267979 111.8261652097733 l -4.894580398059509 3.335599311343199 a26.923102231002062,26.923102231002062 0 0,0 -0.2576885686257548,-0.3852094464513823 l 4.951272072095994 -3.250852950685996" fill="#ff2403" stroke="none" /><path d="M 82.44556493220864 111.52570212397912 l -7.876527845984648 5.171485916434441 a30.4225239449126,30.4225239449126 0 0,0 -0.28364677296234586,-0.4402260906062605 l 7.9643794823240395 -5.035138225906732" fill="#ff5708" stroke="none" /><path d="M 82.24976979558568 111.22182372390057 l -9.644868972630903 6.09755581784316 a32.41068290905199,32.41068290905199 0 0,0 -0.29406576888970687,-0.474127652029424 l 9.748399381188564 -5.930631834448472" fill="#ff740a" stroke="none" /><path d="M 82.05923443525364 110.91462005526583 l -15.75905386629164 9.587332533848477 a39.44626585179968,39.44626585179968 0 0,0 -0.3479144199069084,-0.5831245797640233 l 15.921749161896782 -9.314645860198342" fill="#ffd413" stroke="none" /><line stroke="#e1ed5e" stroke-width="0.3" x1="26.63291911575756" x2="22.317208475507996" y1="142.92168965132927" y2="145.44649492493687" /><path d="M 25.769776987707644 143.4266507060508 a86.0,86.0 0 0,1 -11.730757126820373,-40.83630448921669" fill="none" id="id33" stroke="none" /><text fill="#e1ed5e" style="font-size:6.75px; font-family:Arial;" text-anchor="middle"><textPath startOffset="21.46611528233685" xlink:href="#id33">September</textPath></text><path d="M 81.87401531095188 110.60418214915194 l -6.8890461741728055 4.030274863300849 a28.981357820799644,28.981357820799644 0 0,0 -0.2482018739459289,-0.4327608882229483 l 6.957400044271112 -3.9110941292195935" fill="#ff4306" stroke="none" /><path d="M 81.69416730710424 110.29060199501025 l -7.048335808852593 3.9622135607209605 a29.08567708822921,29.08567708822921 0 0,0 -0.24158229672679515,-0.4385420408806831 l 7.115494515030904 -3.840301001442455" fill="#ff4406" stroke="none" /><path d="M 81.51974371655577 109.97397251340807 l -13.614861781342046 7.348072185698449 a36.47121928521742,36.47121928521742 0 0,0 -0.2934152866770308,-0.5550311459550854 l 13.739329576243962 -7.112626024657237" fill="#ffac0f" stroke="none" /><path d="M 81.35079622478065 109.6543875284942 l -13.290159944778853 6.880098258836088 a35.96543027811241,35.96543027811241 0 0,0 -0.279881831321829,-0.5522334055941941 l 13.406620445886949 -6.6503106415392095" fill="#ffa50f" stroke="none" /><path d="M 81.18737489456691 109.33194174019688 l -16.995829047164932 8.430725940989712 a39.971962072820304,39.971962072820304 0 0,0 -0.30044971618641203,-0.6190154056103777 l 17.138432019966064 -8.136921579414048" fill="#ffdb14" stroke="none" /><path d="M 80.73074385275274 108.34839909993369 l -10.46964970170742 4.535972404873635 a32.41002237220582,32.41002237220582 0 0,0 -0.217377135745742,-0.5138153367350966 l 10.54617781864547 -4.35508254247238" fill="#ff740a" stroke="none" /><path d="M 80.45479744820244 107.68017299344265 l -11.130376139603003 4.373616185746594 a32.95883738284238,32.95883738284238 0 0,0 -0.2029412481689913,-0.5298155602393291 l 11.204011667365503 -4.181377058674108" fill="#ff7c0b" stroke="none" /><path d="M 80.32549172779594 107.34259656027581 l -5.55052436066748 2.071475460250397 a26.924468858959656,26.924468858959656 0 0,0 -0.15831041378104124,-0.43560226710817807 l 5.585359035453746 -1.9756253961361014" fill="#ff2403" stroke="none" /><path d="M 80.20201598880116 107.00284435728193 l -10.87862620728359 3.8479335121981526 a32.53911177136676,32.53911177136676 0 0,0 -0.18223323320361232,-0.5296550771753115 l 10.943250271430431 -3.660105731933544" fill="#ff760a" stroke="none" /><path d="M 79.97269907076064 106.31721596034903 l -11.383367612215238 3.590658162898915 a32.936242467276855,32.936242467276855 0 0,0 -0.16589393653735834,-0.5421509831630191 l 11.443488321258728 -3.3941802071838483" fill="#ff7b0b" stroke="none" /><path d="M 79.86692584326677 105.97154293290107 l -18.22353323468887 5.405166158576931 a40.008234656528074,40.008234656528074 0 0,0 -0.190148400186193,-0.6619315261746965 l 18.313874271761165 -5.0906771568976374" fill="#ffdb14" stroke="none" /><path d="M 79.76711848015287 105.62410040840567 l -5.713043770939184 1.5880452704603851 a26.929650656632194,26.929650656632194 0 0,0 -0.1203010634067929,-0.4476850100307429 l 5.739532910687752 -1.4894693272541033" fill="#ff2403" stroke="none" /><path d="M 79.67330655649465 105.27499134158121 l -7.72865458743902 2.0056673823572053 a28.984660505030494,28.984660505030494 0 0,0 -0.12116786911145487,-0.4840054058872441 l 7.762033770845533 -1.8723341370725695" fill="#ff4306" stroke="none" /><path d="M 79.50377843672027 104.57218783832718 l -3.4348465878996186 0.7662272652170343 a24.51927198499457,24.51927198499457 0 0,0 -0.088346394501024,-0.41272494307961843 l 3.4475270211250835 -0.7069885027212521" fill="#ff0000" stroke="none" /><path d="M 79.4281124754447 104.21870165774334 l -33.69462374972047 6.909796920691493 a55.39582769930714,55.39582769930714 0 0,0 -0.18351864028139195,-0.9357575930494269 l 33.80857232297753 -6.328775600574112" fill="#6bff28" stroke="none" /><path d="M 79.35854240842038 103.8639653848113 l -11.352800929093847 2.1251808219477177 a32.54999924076225,32.54999924076225 0 0,0 -0.09835301208014624,-0.5516159234969246 l 11.387700383513183 -1.9294461477175795" fill="#ff760a" stroke="none" /><path d="M 79.29508885075956 103.50808413554451 l -17.06567903979306 2.891480068195741 a38.30890112265956,38.30890112265956 0 0,0 -0.10456185736655357,-0.6511067856336268 l 17.112922651520904 -2.5972940528689006" fill="#ffc512" stroke="none" /><path d="M 79.23777060512086 103.15116336523772 l -12.507636612726317 1.8983320880488057 a33.65087500343465,33.65087500343465 0 0,0 -0.0819894739844067,-0.5734341900857448 l 12.538460137727323 -1.6827524259826603" fill="#ff850c" stroke="none" /><path d="M 79.18660465613746 102.79330883721812 l -16.937237840504892 2.2731003450572795 a38.0890904042471,38.0890904042471 0 0,0 -0.0816167420167371,-0.6505657373021555 l 16.97385609176848 -1.9812168534677153" fill="#ffc212" stroke="none" /><path d="M 79.1416061653843 102.43462659150553 l -12.67077903305302 1.4789545069269232 a33.75680005871439,33.75680005871439 0 0,0 -0.06239815652230711,-0.5777294334524741 l 12.694359491076378 -1.260628751589667" fill="#ff870c" stroke="none" /><path d="M 79.07016306316243 101.71520430193888 l -25.096910255280907 2.056696789618466 a46.18104259251493,46.18104259251493 0 0,0 -0.058107717607769,-0.7928336399613768 l 25.12859453155301 -1.6243900131603286" fill="#d5ff1c" stroke="none" /><path d="M 79.04373962182676 101.35467743843564 l -12.624263874437943 0.816071433497333 a33.65061306640944,33.65061306640944 0 0,0 -0.03239055642589732,-0.5783551437294979 l 12.636440781751372 -0.5986445734323975" fill="#ff850c" stroke="none" /><path d="M 79.0235259727143 100.99374915477108 l -8.199022522990779 0.38842427433574844 a29.208218061760014,29.208218061760014 0 0,0 -0.019469178861032006,-0.5024129970516408 l 8.204493834703012 -0.2472340302701109" fill="#ff4606" stroke="none" /><path d="M 79.0095281055655 100.63252640178507 l -12.752116241872999 0.3842719802671808 a33.75790474964677,33.75790474964677 0 0,0 -0.012503184144201984,-0.5809738368623393 l 12.756841488702207 -0.16470832761471269" fill="#ff870c" stroke="none" /><line stroke="#e1ed5e" stroke-width="0.3" x1="15.007084014347285" x2="10.007500721073583" y1="101.09737516637583" y2="101.16192664675087" /><path d="M 14.007167355692545 101.11028546245083 a86.0,86.0 0 0,1 10.666146001902534,-42.60595125391555" fill="none" id="id34" stroke="none" /><text fill="#e1ed5e" style="font-size:6.75px; font-family:Arial;" text-anchor="middle"><textPath startOffset="22.20632615414155" xlink:href="#id34">October</textPath></text><path d="M 79.00175016825051 100.2711162175752 l -12.756397371632398 0.1647025934539568 a33.75746059556056,33.75746059556056 0 0,0 -0.0025007891880004184,-0.5810953354860978 l 12.7573424581099 0.054902220235816375" fill="#ff870c" stroke="none" /><path d="M 79.00019446554 99.90962569577889 l -16.31803585121927 -0.07022594251595578 a37.31818696193544,37.31818696193544 0 0,0 0.008293510139576809,-0.6423415000790519 l 16.31440933396198 0.3511037006554797" fill="#ffb711" stroke="none" /><path d="M 79.00486145842228 99.54816195383935 l -25.551256337247008 -0.5498906195597795 a46.557172772143346,46.557172772143346 0 0,0 0.024139462972591386,-0.8010712559079819 l 25.53800517981877 0.9896320228927558" fill="#d1ff1d" stroke="none" /><path d="M 79.01574976396665 99.18683210126434 l -19.36340844629417 -0.7503581010292816 a40.377941684755804,40.377941684755804 0 0,0 0.032891470913541526,-0.694286965704245 l 19.34762336714713 1.0835561733565358" fill="#ffe015" stroke="none" /><path d="M 79.03285615573316 98.82574320788736 l -12.514929521186458 -0.7008937937478106 a33.534540798544576,33.534540798544576 0 0,0 0.03723836535049779,-0.5760610298815487 l 12.501010564831548 0.9162138878823711" fill="#ff840c" stroke="none" /><path d="M 79.05617556472873 98.46500227214037 l -9.429689029508468 -0.691113090613096 a30.454981358905428,30.454981358905428 0 0,0 0.04281900213758462,-0.5225002826338174 l 9.416395543551387 0.8533272904546919" fill="#ff5808" stroke="none" /><path d="M 79.08570108090925 98.10471618934814 l -12.840697135724442 -1.1636424196178698 a33.89331480311157,33.89331480311157 0 0,0 0.05765555356781967,-0.5805835562008089 l 12.818764456474394 1.384501506523109" fill="#ff890c" stroke="none" /><path d="M 79.12142395522702 97.74499172005258 l -18.29652488866534 -1.9761316590617644 a39.402932356977686,39.402932356977686 0 0,0 0.07863633265259043,-0.6737080757683215 l 18.259798203009158 2.2907834731549475" fill="#ffd313" stroke="none" /><line stroke="#e1ed5e" stroke-width="0.3" x1="26.266209847984243" x2="21.928928074336255" y1="57.711370442889674" y2="55.22380399835377" /><path d="M 25.398753493254645 57.213857153982495 a86.0,86.0 0 0,1 29.58750427330803,-30.492523968695096" fill="none" id="id35" stroke="none" /><text fill="#e1ed5e" style="font-size:6.75px; font-family:Arial;" text-anchor="middle"><textPath startOffset="21.46611528233685" xlink:href="#id35">November</textPath></text><line stroke="#e1ed5e" stroke-width="0.3" x1="56.762969772571076" x2="54.21961505331055" y1="26.818313649435495" y2="22.513508569990535" /><path d="M 56.25429882871897 25.957352633546506 a86.0,86.0 0 0,1 42.265352541879196,-11.944610805530505" fill="none" id="id36" stroke="none" /><text fill="#e1ed5e" style="font-size:6.75px; font-family:Arial;" text-anchor="middle"><textPath startOffset="22.20632615414155" xlink:href="#id36">December</textPath></text></svg>